<svg xmlns="http://www.w3.org/2000/svg" width="67" height="107" viewBox="0 0 67 107" fill="none"><path opacity="0.76" d="M66.9424 106.245L66.7369 106.566L67.3243 106.942V106.245H66.9424ZM66.9424 83.2647H67.3243V83.0556L67.1481 82.943L66.9424 83.2647ZM20.5036 53.5822H20.1218V53.7913L20.298 53.9039L20.5036 53.5822ZM20.5036 53.3428L20.298 53.0211L20.1218 53.1337V53.3428H20.5036ZM66.9424 23.6602L67.1481 23.9819L67.3243 23.8693V23.6602H66.9424ZM66.9424 0.680176H67.3243V-0.0147934L66.7377 0.357906L66.9424 0.680176ZM0.635437 42.8103L0.430675 42.488L0.25362 42.6005V42.8103H0.635437ZM0.635437 63.8753H0.25362V64.0844L0.429848 64.197L0.635437 63.8753ZM67.3243 106.245V83.2647H66.5606V106.245H67.3243ZM67.1481 82.943L20.7092 53.2604L20.298 53.9039L66.7368 83.5864L67.1481 82.943ZM20.8854 53.5822V53.3428H20.1218V53.5822H20.8854ZM20.7092 53.6645L67.1481 23.9819L66.7368 23.3385L20.298 53.0211L20.7092 53.6645ZM67.3243 23.6602V0.680176H66.5606V23.6602H67.3243ZM66.7377 0.357906L0.430675 42.488L0.840199 43.1325L67.1472 1.00245L66.7377 0.357906ZM0.25362 42.8103V63.8753H1.01725V42.8103H0.25362ZM0.429848 64.197L66.7369 106.566L67.148 105.923L0.841025 63.5536L0.429848 64.197Z" fill="#00FF00"></path></svg>