<?xml version="1.0" encoding="UTF-8"?>
<svg xmlns="http://www.w3.org/2000/svg" width="116" height="77" viewBox="0 0 116 77" fill="none">
  <path d="M30.5 65.0499C30.4 65.6499 30.3 66.2499 30.2 66.7499C29.6 69.0499 28.3 70.7499 26.2 71.6499C24.4 72.4499 22.6 73.0499 20.6 73.1499C18.7 73.2499 17 72.5499 15.7 70.6499C15.6 70.9499 15.5 71.1499 15.4 71.3499C14.4 73.4499 12.9 74.8499 10.8 75.5499C8.99995 76.0499 7.09995 76.4499 5.19995 76.1499C2.49995 75.7499 0.699951 73.7499 0.699951 71.0499C0.699951 70.2499 0.899951 69.3499 0.999951 68.5499C2.79995 59.7499 4.69995 50.9499 6.59995 42.1499C7.49995 38.0499 8.59995 34.0499 9.59995 29.9499C9.89995 28.6499 10.5 27.4499 11.5 26.5499C12.5 25.6499 13.7 25.1499 15 24.8499C16.9 24.4499 18.7 24.2499 20.6 24.8499C20.7 24.8499 20.9 24.7499 21 24.6499C22.5 23.3499 24.3 22.4499 26.2 22.0499C28.5 21.6499 30.6 21.9499 32.6 23.4499C33.2 22.8499 33.8 22.2499 34.4 21.7499C36.2 20.1499 38.2 18.9499 40.5 18.4499C42.4 18.0499 44.3 18.0499 46.1 19.0499C48.4 20.2499 49.7 22.2499 50.2999 24.8499C50.5999 26.0499 50.5999 27.3499 50.7999 28.6499C50.7999 29.0499 50.7999 29.4499 50.7999 29.8499C51.5 29.4499 52.1 29.1499 52.7 28.8499C55.4 27.5499 58.2 27.1499 61.2 27.8499C62.9 28.3499 64.3 29.2499 65.5 30.7499C65.6 30.5499 65.7999 30.3499 65.8999 30.2499C67.4999 27.9499 69.3999 26.0499 71.8999 24.8499C74.7 23.4499 77.6 22.9499 80.6 23.7499C82.2 24.1499 83.5 25.0499 84.6 26.3499C84.7 26.4499 84.7 26.4499 84.7999 26.5499C84.7999 26.5499 84.7999 26.5499 84.8999 26.5499C85.2999 25.9499 85.7 25.3499 86.1 24.8499C88 22.2499 90.5 20.3499 93.5 19.4499C94.3 19.2499 95.1 19.1499 96 19.3499C96.1 18.7499 96.2999 18.2499 96.3999 17.6499C97.2999 13.8499 98.0999 10.1499 98.8999 6.34992C99.3999 4.14992 100.7 2.54992 102.7 1.84992C104.7 1.14992 106.7 0.749921 108.9 0.949921C111.3 1.24992 113 2.94992 113.2 5.54992C113.2 6.14992 113.1 6.84992 113 7.44992C111 14.8499 109.2 22.3499 107.6 29.8499C107.3 31.5499 107 33.3499 106.7 35.0499C107.7 35.4499 108.4 36.1499 109.2 36.8499C109.3 36.9499 109.4 36.9499 109.5 36.9499C113.5 36.2499 117 40.5499 115.6 44.5499C114.3 48.4499 112.3 51.9499 109.6 54.8499C107.5 57.1499 104.9 58.5499 101.8 59.2499C93.7999 61.0499 85.8999 63.0499 77.8999 64.9499C68.2999 67.2499 58.7999 69.5499 49.2 71.8499C46.5 72.4499 43.9 73.1499 41.2 73.7499C36.9 74.7499 31.9 72.6499 30.7 66.6499C30.6 66.1499 30.6 65.6499 30.5 65.0499ZM18.3 29.7499C18.5 29.0499 18.6 28.4499 18.7 27.9499C18.9 27.1499 18.7 26.8499 18 26.7499C17.2999 26.6499 16.6 26.6499 15.8 26.6499C14.9 26.6499 14 26.9499 13.2 27.3499C12.8 27.5499 12.5 27.9499 12.3 28.4499C12.1 29.1499 11.8 29.9499 11.6 30.6499C10.4 35.3499 9.29995 40.0499 8.29995 44.7499C6.69995 52.6499 4.99995 60.5499 3.29995 68.4499C3.29995 68.6499 3.19995 68.9499 3.19995 69.1499C3.29995 69.7499 3.69995 70.1499 4.49995 70.2499C5.69995 70.3499 6.89995 70.0499 7.99995 69.7499C9.49995 69.3499 10.4 68.3499 10.7 66.7499C12 60.2499 13.4 53.7499 14.7 47.3499C15.2 44.9499 15.6 42.5499 16.2 40.2499C16.8 37.8499 17.7 35.5499 19 33.4499C19.7 32.4499 20.5 31.4499 21.6 30.9499C22.9 30.3499 23.7 30.8499 23.9 32.2499C24.1 33.4499 24 34.6499 23.7 35.8499C22 44.0499 20.2 52.2499 18.5 60.4499C18.1 62.1499 17.8 63.8499 17.4 65.6499C17.2 66.4499 17.6 67.0499 18.4 67.1499C18.7 67.1499 19 67.1499 19.2 67.1499C20.4 67.0499 21.5 66.6499 22.6 66.2499C24.1 65.7499 24.7999 64.6499 25 63.0499C25.2 61.8499 25.4 60.7499 25.7 59.5499C27.2 52.3499 28.8 45.0499 30.2 37.8499C30.8 34.8499 31.9 32.0499 33.7 29.6499C34.4 28.7499 35.2 27.8499 36.2999 27.3499C37.2999 26.9499 37.9 27.3499 38.1 28.3499C38.3 29.5499 38.0999 30.7499 37.7999 31.9499C36.2 40.7499 34.2999 49.5499 33.2999 58.4499C33.0999 60.1499 33 61.8499 33.2999 63.6499C33.7999 66.8499 36.2999 68.5499 39.2999 67.8499C47.2999 65.9499 55.2999 63.9499 63.2999 62.0499C75.2999 59.1499 87.3999 56.2499 99.3999 53.3499C101.3 52.8499 103.1 52.2499 104.6 50.8499C107.5 48.1499 109.3 44.7499 110.7 41.0499C111 40.3499 110.7 39.7499 110.1 39.2499C109.9 39.1499 109.7 38.9499 109.4 38.8499C108.9 38.6499 108.7 38.6499 108.4 39.1499C108.3 39.2499 108.2 39.4499 108.1 39.5499C106.7 41.9499 105.2 44.1499 103.1 45.9499C102.4 46.6499 101.6 47.2499 100.6 47.4499C92.4 49.4499 84.2 51.3499 76 53.3499C68.3 55.1499 60.5 57.0499 52.7999 58.8499C49.8999 59.5499 47 60.1499 44.1 60.7499C43.5 60.8499 42.7999 60.9499 42.2 60.7499C41.2999 60.5499 40.8 59.6499 40.6 58.7499C40.1 57.0499 40.2 55.4499 40.6 53.7499C41.9 47.1499 43.2999 40.5499 44.7 34.0499C45.2 31.8499 45.6 29.6499 45.7 27.3499C45.7 25.7499 45.7 24.1499 45 22.6499C44.4 21.3499 43.5 20.5499 42.1 20.3499C41.1 20.2499 40.2 20.3499 39.2999 20.6499C37.5 21.2499 36 22.3499 34.7 23.8499C33.7 24.9499 32.7999 26.0499 31.7999 27.1499C31.1999 27.8499 30.7 27.8499 30.4 26.8499C30 25.2499 28.9 24.2499 27.2999 24.0499C25.9 23.8499 24.5 24.2499 23.2999 24.9499C21.9 25.8499 20.9 27.0499 19.9 28.3499C19.6 28.7499 19.3 29.0499 18.9 29.3499C18.8 29.5499 18.6 29.6499 18.3 29.7499ZM97.3999 22.1499C96.7999 21.2499 96.1 20.9499 95.2 20.9499C94.6 20.9499 93.9999 21.0499 93.3999 21.2499C90.7999 22.0499 88.8999 23.7499 87.3999 26.0499C84.9999 29.6499 83.7 33.6499 83.3999 38.1499C83.2999 40.0499 83.4 41.9499 84.1 43.7499C85.2999 46.5499 86.6 46.9499 88.6 46.9499C91.2999 46.9499 93.6 45.8499 95.6 44.1499C96 43.8499 96.3999 43.4499 96.7999 43.0499C97.3999 43.7499 98.2 43.9499 99.1 43.8499C100.1 43.6499 101 43.2499 101.8 42.6499C103.1 41.6499 104.2 40.3499 105.1 39.0499C105.4 38.5499 105.4 38.1499 104.9 37.7499C104.7 37.6499 104.6 37.4499 104.4 37.3499C103.8 36.9499 103.5 36.9499 103 37.4499C102.7 37.7499 102.4 38.1499 101.9 37.9499C101.4 37.7499 101.3 37.2499 101.3 36.7499C101.3 35.9499 101.3 35.2499 101.3 34.4499C101.5 31.3499 102.2 28.3499 102.8 25.3499C104.3 18.3499 106 11.3499 107.9 4.44992C108.1 3.54992 107.9 3.14992 107 3.14992C105.5 3.04992 104.1 3.34992 102.7 3.84992C102 4.04992 101.6 4.64992 101.4 5.44992C100.6 9.04992 99.7 12.5499 98.8999 16.1499C98.3999 17.9499 97.8999 19.9499 97.3999 22.1499ZM44.4 47.8499C44.4 49.5499 44.5 51.1499 45.1 52.7499C45.8 54.5499 47.1 55.5499 48.9 55.6499C50.2 55.7499 51.4 55.5499 52.6 55.1499C57.1 53.5499 59.7999 49.9499 61.3999 45.4499C62.0999 43.2499 62.5 41.0499 62.6 38.6499C62.7 36.9499 62.7 35.2499 62.2 33.6499C61.6 31.6499 60.3999 30.2499 58.2999 29.8499C57.2 29.6499 56.0999 29.7499 55 29.9499C52.4 30.5499 50.2999 32.0499 48.7 34.2499C45.9 38.1499 44.5 42.8499 44.4 47.8499ZM82.2 33.2499C82.2 31.9499 82.1 30.7499 81.7999 29.5499C81.1 27.0499 79.5 25.6499 77.2 25.4499C75.7 25.3499 74.2 25.6499 72.8999 26.2499C70.4999 27.3499 68.7 29.1499 67.3999 31.4499C65.2999 34.9499 64.0999 38.7499 63.8999 42.8499C63.7999 44.5499 63.8999 46.1499 64.3999 47.8499C65.0999 50.3499 66.6 51.5499 69 51.4499C73.1 51.3499 76.2999 49.2499 78.7 45.9499C81.2 42.1499 82 37.7499 82.2 33.2499Z" fill="black"></path>
  <path d="M18.2999 29.7501C18.5999 29.6501 18.7999 29.5501 18.8999 29.4501C19.1999 29.1501 19.5999 28.8501 19.8999 28.4501C20.8999 27.1501 21.8999 25.8501 23.2999 25.0501C24.4999 24.2501 25.8999 23.9501 27.2999 24.1501C28.8999 24.3501 29.9999 25.3501 30.3999 26.9501C30.6999 27.9501 31.1999 27.9501 31.7999 27.2501C32.7999 26.1501 33.6999 24.9501 34.6999 23.9501C35.9999 22.5501 37.4999 21.4501 39.2999 20.7501C40.1999 20.4501 41.0999 20.3501 42.0999 20.4501C43.4999 20.6501 44.3999 21.4501 44.9999 22.7501C45.6999 24.2501 45.6999 25.8501 45.6999 27.4501C45.5999 29.7501 45.1999 31.9501 44.6999 34.1501C43.2999 40.7501 41.9999 47.3501 40.5999 53.8501C40.2999 55.5501 40.1999 57.1501 40.5999 58.8501C40.7999 59.7501 41.2999 60.5501 42.1999 60.8501C42.7999 61.0501 43.4999 60.9501 44.0999 60.8501C46.9999 60.2501 49.8999 59.5501 52.7999 58.9501C60.4999 57.1501 68.2999 55.2501 75.9999 53.4501C84.1999 51.4501 92.3999 49.5501 100.6 47.5501C101.6 47.3501 102.4 46.6501 103.1 46.0501C105.1 44.2501 106.7 42.0501 108.1 39.6501C108.2 39.5501 108.3 39.3501 108.4 39.2501C108.7 38.8501 109 38.7501 109.4 38.9501C109.6 39.0501 109.9 39.1501 110.1 39.3501C110.7 39.7501 111 40.3501 110.7 41.1501C109.3 44.8501 107.5 48.2501 104.6 50.9501C103.1 52.3501 101.3 52.9501 99.3999 53.4501C87.3999 56.3501 75.2999 59.2501 63.2999 62.1501C55.2999 64.0501 47.2999 66.0501 39.1999 67.9501C36.1999 68.6501 33.6999 66.9501 33.1999 63.7501C32.8999 62.0501 32.9999 60.3501 33.1999 58.5501C34.1999 49.5501 36.0999 40.7501 37.9999 31.9501C38.2999 30.7501 38.4999 29.5501 38.2999 28.3501C38.0999 27.2501 37.4999 26.8501 36.4999 27.3501C35.3999 27.8501 34.5999 28.7501 33.8999 29.6501C32.0999 32.0501 30.9999 34.8501 30.3999 37.8501C28.8999 45.1501 27.3999 52.3501 25.8999 59.5501C25.6999 60.7501 25.3999 61.8501 25.1999 63.0501C24.8999 64.5501 24.1999 65.6501 22.7999 66.2501C21.6999 66.6501 20.5999 67.0501 19.3999 67.1501C19.0999 67.1501 18.7999 67.1501 18.5999 67.1501C17.7999 67.0501 17.3999 66.4501 17.5999 65.6501C17.8999 63.9501 18.2999 62.2501 18.6999 60.4501C20.3999 52.2501 22.1999 44.0501 23.8999 35.8501C24.0999 34.6501 24.2999 33.4501 24.0999 32.2501C23.8999 30.7501 23.0999 30.2501 21.7999 30.9501C20.6999 31.4501 19.8999 32.4501 19.1999 33.4501C17.7999 35.5501 16.8999 37.8501 16.3999 40.2501C15.7999 42.5501 15.3999 44.9501 14.8999 47.3501C13.5999 53.8501 12.1999 60.3501 10.8999 66.7501C10.5999 68.2501 9.6999 69.3501 8.1999 69.7501C6.9999 70.0501 5.8999 70.3501 4.6999 70.2501C3.8999 70.1501 3.3999 69.8501 3.3999 69.1501C3.3999 68.9501 3.3999 68.6501 3.4999 68.4501C5.1999 60.5501 6.7999 52.6501 8.4999 44.7501C9.4999 40.0501 10.5999 35.3501 11.7999 30.6501C11.9999 29.9501 12.2999 29.1501 12.4999 28.4501C12.5999 27.9501 12.9999 27.6501 13.3999 27.3501C14.1999 26.8501 15.0999 26.6501 15.9999 26.5501C16.6999 26.5501 17.3999 26.5501 18.1999 26.6501C18.9999 26.7501 19.0999 27.0501 18.8999 27.8501C18.5999 28.4501 18.4999 29.0501 18.2999 29.7501Z" fill="white"></path>
  <path d="M97.3999 22.1498C97.8999 20.0498 98.3999 17.9498 98.8999 15.9498C99.6999 12.3498 100.6 8.84982 101.4 5.24982C101.6 4.44982 102 3.84982 102.7 3.64982C104.1 3.14982 105.5 2.84982 107 2.94982C107.9 3.04982 108.1 3.44982 107.9 4.24982C106 11.1498 104.3 18.1498 102.8 25.1498C102.2 28.1498 101.6 31.1498 101.3 34.2498C101.2 35.0498 101.2 35.7498 101.3 36.5498C101.3 37.0498 101.4 37.5498 101.9 37.7498C102.4 37.9498 102.7 37.5498 103 37.2498C103.5 36.7498 103.9 36.7498 104.4 37.1498C104.6 37.2498 104.7 37.4498 104.9 37.5498C105.3 37.9498 105.4 38.3498 105.1 38.8498C104.1 40.2498 103.1 41.4498 101.8 42.4498C101 43.0498 100.1 43.5498 99.0999 43.6498C98.1999 43.7498 97.3999 43.5498 96.7999 42.8498C96.3999 43.2498 95.9999 43.5498 95.5999 43.9498C93.4999 45.6498 91.1999 46.6498 88.5999 46.7498C86.5999 46.7498 85.2999 46.3498 84.0999 43.5498C83.2999 41.7498 83.1999 39.8498 83.3999 37.9498C83.6999 33.5498 84.9999 29.5498 87.3999 25.8498C88.8999 23.5498 90.7999 21.8498 93.3999 21.0498C93.9999 20.8498 94.5999 20.7498 95.1999 20.7498C96.0999 20.8498 96.8999 21.1498 97.3999 22.1498ZM95.9999 29.0498C95.9999 28.9498 95.9999 28.9498 95.9999 28.8498C95.9999 28.0498 95.9999 27.1498 95.5999 26.3498C95.2999 25.6498 94.6999 25.3498 93.9999 25.6498C93.5999 25.7498 93.2999 26.0498 92.9999 26.3498C92.2999 27.0498 91.7999 27.8498 91.3999 28.7498C90.0999 31.7498 89.2999 34.9498 88.9999 38.2498C88.8999 39.1498 88.8999 40.1498 89.2999 40.9498C89.5999 41.5498 90.0999 41.8498 90.6999 41.7498C91.2999 41.6498 91.8999 41.3498 92.2999 40.8498C92.7999 40.1498 93.3999 39.4498 93.7999 38.6498C95.2999 35.7498 95.6999 32.4498 95.9999 29.0498Z" fill="white"></path>
  <path d="M44.3999 47.8501C44.4999 42.8501 45.8999 38.1501 48.8999 34.1501C50.4999 31.9501 52.5999 30.4501 55.1999 29.8501C56.2999 29.6501 57.3999 29.5501 58.4999 29.7501C60.4999 30.1501 61.6999 31.5501 62.3999 33.5501C62.8999 35.1501 62.8999 36.8501 62.7999 38.5501C62.6999 40.8501 62.2999 43.1501 61.5999 45.3501C59.9999 49.9501 57.2999 53.4501 52.7999 55.0501C51.5999 55.4501 50.3999 55.6501 49.0999 55.5501C47.1999 55.4501 45.9999 54.4501 45.2999 52.6501C44.4999 51.1501 44.3999 49.5501 44.3999 47.8501ZM56.9999 37.7501C56.9999 37.6501 56.9999 37.5501 56.9999 37.3501C56.9999 36.5501 56.8999 35.8501 56.5999 35.0501C56.2999 34.4501 55.7999 34.1501 55.0999 34.3501C54.6999 34.4501 54.1999 34.7501 53.9999 35.0501C53.4999 35.6501 52.9999 36.3501 52.5999 37.1501C51.1999 40.1501 50.3999 43.3501 50.0999 46.6501C49.9999 47.5501 49.9999 48.5501 50.2999 49.4501C50.5999 50.4501 51.2999 50.7501 52.1999 50.4501C52.5999 50.3501 52.8999 50.1501 53.1999 49.8501C53.9999 49.1501 54.5999 48.2501 54.9999 47.2501C56.3999 44.3501 56.7999 41.0501 56.9999 37.7501Z" fill="white"></path>
  <path d="M82.2 33.25C82 37.85 81.2 42.15 78.5 45.85C76.1 49.25 72.9 51.35 68.7999 51.35C66.3999 51.35 64.9 50.15 64.2 47.75C63.7 46.15 63.7 44.45 63.7 42.75C63.9 38.65 65.1 34.75 67.2 31.35C68.6 29.05 70.3 27.25 72.7 26.15C74.1 25.55 75.5 25.25 77 25.35C79.3 25.45 80.9 26.95 81.6 29.45C82.1 30.75 82.2 31.95 82.2 33.25ZM76.3999 33.55C76.2999 33.05 76.3 32.45 76.2 31.85C75.9 30.25 74.8 29.75 73.5 30.85C73.4 30.95 73.2999 30.95 73.2999 31.05C72.9 31.65 72.4 32.25 72 32.95C70.4 36.15 69.5999 39.65 69.2999 43.25C69.1999 44.15 69.3 44.95 69.7 45.75C70 46.45 70.5 46.65 71.2 46.55C71.8 46.45 72.3 46.15 72.7 45.75C73.5 44.95 73.9999 44.05 74.3999 43.05C75.6999 40.05 76.0999 36.95 76.3999 33.55Z" fill="white"></path>
  <path d="M96 29.0497C95.8 32.4497 95.4 35.7497 93.9 38.8497C93.5 39.6497 93 40.3497 92.4 41.0497C92 41.5497 91.5 41.8497 90.8 41.9497C90.1 42.0497 89.7 41.7497 89.4 41.1497C89 40.2497 89 39.3497 89.1 38.4497C89.4 35.1497 90.2 31.9497 91.5 28.9497C91.9 28.0497 92.4 27.1497 93.1 26.5497C93.4 26.2497 93.8 26.0497 94.1 25.8497C94.8 25.5497 95.4 25.8497 95.7 26.5497C96.1 27.3497 96.1 28.1497 96.1 29.0497C96 28.9497 96 29.0497 96 29.0497Z" fill="black"></path>
  <path d="M56.9998 37.75C56.7998 41.05 56.3998 44.35 54.9998 47.35C54.5998 48.35 53.9998 49.25 53.1998 49.95C52.8998 50.25 52.4998 50.45 52.1998 50.55C51.2998 50.85 50.5998 50.55 50.2998 49.55C49.9998 48.65 49.9998 47.65 50.0998 46.75C50.3998 43.45 51.1998 40.25 52.5998 37.25C52.9998 36.45 53.4998 35.85 53.9998 35.15C54.2998 34.85 54.6998 34.55 55.0998 34.45C55.7998 34.25 56.2998 34.45 56.5998 35.15C56.8998 35.85 56.9998 36.65 56.9998 37.45C56.9998 37.55 56.9998 37.65 56.9998 37.75Z" fill="black"></path>
  <path d="M76.3999 33.55C76.0999 36.85 75.6999 40.05 74.4999 42.95C74.0999 43.95 73.5999 44.85 72.7999 45.65C72.3999 46.05 71.8999 46.35 71.2999 46.45C70.5999 46.55 70.0999 46.35 69.7999 45.65C69.3999 44.85 69.3999 43.95 69.3999 43.15C69.6999 39.55 70.4999 36.05 72.0999 32.85C72.3999 32.15 72.8999 31.55 73.3999 30.95C73.4999 30.85 73.5999 30.75 73.5999 30.75C74.8999 29.65 75.9999 30.15 76.2999 31.75C76.2999 32.45 76.2999 33.05 76.3999 33.55Z" fill="black"></path>
</svg>
