<svg xmlns="http://www.w3.org/2000/svg" width="214" height="48" viewBox="0 0 214 48" fill="none"><path opacity="0.76" d="M25.1177 15.8058L25.3255 16.1261L25.6481 15.9168L25.4365 15.5957L25.1177 15.8058ZM10.5432 25.2612L10.3354 24.9408L9.84988 25.2558L10.3305 25.5782L10.5432 25.2612ZM24.9972 34.9574L25.3184 35.1639L25.5209 34.8489L25.2099 34.6403L24.9972 34.9574ZM23.3711 37.4868L23.1882 37.822L23.5002 37.9922L23.6923 37.6933L23.3711 37.4868ZM0.967416 25.2612L0.785912 24.9252L0.167289 25.2595L0.784519 25.5963L0.967416 25.2612ZM23.3711 13.1559L23.6899 12.9458L23.4974 12.6537L23.1896 12.82L23.3711 13.1559ZM24.9098 15.4855L10.3354 24.9408L10.751 25.5815L25.3255 16.1261L24.9098 15.4855ZM10.3305 25.5782L24.7845 35.2745L25.2099 34.6403L10.7559 24.9441L10.3305 25.5782ZM24.676 34.7509L23.05 37.2804L23.6923 37.6933L25.3184 35.1639L24.676 34.7509ZM23.554 37.1517L1.15031 24.926L0.784519 25.5963L23.1882 37.822L23.554 37.1517ZM1.14892 25.5971L23.5526 13.4918L23.1896 12.82L0.785912 24.9252L1.14892 25.5971ZM23.0523 13.366L24.7989 16.0159L25.4365 15.5957L23.6899 12.9458L23.0523 13.366ZM41.8969 21.8886H41.5151V23.0039L42.1986 22.1225L41.8969 21.8886ZM47.4376 17.0706L47.6277 17.4017L47.6296 17.4006L47.4376 17.0706ZM62.0121 17.2512L61.757 17.5354H61.7571L62.0121 17.2512ZM69.6004 42.9673H69.9822V42.5855H69.6004V42.9673ZM69.6004 46.4001V46.782H69.9822V46.4001H69.6004ZM52.0749 46.4001H51.6931V46.782H52.0749V46.4001ZM52.0749 42.9673V42.5855H51.6931V42.9673H52.0749ZM55.0862 21.3465L55.4093 21.1431L55.0862 21.3465ZM48.9432 20.3227L48.8014 19.9682L48.7964 19.9703L48.9432 20.3227ZM46.1127 22.009L45.8773 21.7083L45.8709 21.7135L46.1127 22.009ZM43.7037 24.5987L44.0092 24.8278L44.0135 24.8218L43.7037 24.5987ZM41.8969 27.7304L41.546 27.58L41.5151 27.652V27.7304H41.8969ZM45.932 42.9673H46.3138V42.5855H45.932V42.9673ZM45.932 46.4001V46.782H46.3138V46.4001H45.932ZM28.4667 46.4001H28.0849V46.782H28.4667V46.4001ZM28.4667 42.9673V42.5855H28.0849V42.9673H28.4667ZM28.527 3.4597H28.1451V3.84151H28.527V3.4597ZM28.527 0.0268717V-0.354945H28.1451V0.0268717H28.527ZM41.8969 0.0268717H42.2787V-0.354945H41.8969V0.0268717ZM42.1986 22.1225C43.6937 20.1947 45.5026 18.6217 47.6277 17.4017L47.2475 16.7394C45.0364 18.0088 43.1515 19.6477 41.5952 21.6546L42.1986 22.1225ZM47.6296 17.4006C49.7714 16.1544 52.2728 15.5252 55.1464 15.5252V14.7615C52.1581 14.7615 49.5203 15.4171 47.2456 16.7405L47.6296 17.4006ZM55.1464 15.5252C58.1037 15.5252 60.2863 16.2155 61.757 17.5354L62.2671 16.9671C60.6061 15.4765 58.2116 14.7615 55.1464 14.7615V15.5252ZM61.7571 17.5354C63.2087 18.8381 63.979 20.9982 63.979 24.1169H64.7427C64.7427 20.8918 63.9472 18.4748 62.2671 16.9671L61.7571 17.5354ZM63.979 24.1169V40.2572H64.7427V24.1169H63.979ZM63.979 40.2572C63.979 40.7731 64.1046 41.242 64.3674 41.6497C64.629 42.0556 65.0124 42.3791 65.4953 42.6289C66.45 43.1227 67.8334 43.3491 69.6004 43.3491V42.5855C67.8744 42.5855 66.638 42.3602 65.8462 41.9507C65.4558 41.7487 65.1843 41.5077 65.0093 41.236C64.8354 40.9662 64.7427 40.6447 64.7427 40.2572H63.979ZM69.2186 42.9673V46.4001H69.9822V42.9673H69.2186ZM69.6004 46.0183H52.0749V46.782H69.6004V46.0183ZM52.4568 46.4001V42.9673H51.6931V46.4001H52.4568ZM52.0749 43.3491C53.4507 43.3491 54.5495 43.1203 55.3141 42.6068C56.1057 42.0751 56.4918 41.2706 56.4918 40.2572H55.7282C55.7282 41.0506 55.4418 41.6011 54.8884 41.9728C54.308 42.3626 53.3892 42.5855 52.0749 42.5855V43.3491ZM56.4918 40.2572V26.7668H55.7282V40.2572H56.4918ZM56.4918 26.7668C56.4918 24.2234 56.1524 22.3234 55.4093 21.1431L54.7631 21.55C55.385 22.5378 55.7282 24.2513 55.7282 26.7668H56.4918ZM55.4093 21.1431C54.6515 19.9395 53.5007 19.3386 52.0147 19.3386V20.1023C53.259 20.1023 54.1558 20.5854 54.7631 21.55L55.4093 21.1431ZM52.0147 19.3386C50.9205 19.3386 49.8487 19.5493 48.8014 19.9682L49.085 20.6772C50.0453 20.2931 51.0211 20.1023 52.0147 20.1023V19.3386ZM48.7964 19.9703C47.7975 20.3865 46.8246 20.967 45.8773 21.7083L46.348 22.3097C47.2477 21.6056 48.1618 21.0619 49.0901 20.6752L48.7964 19.9703ZM45.8709 21.7135C44.9598 22.4589 44.1343 23.3471 43.3938 24.3756L44.0135 24.8218C44.7184 23.8428 45.4989 23.0045 46.3544 22.3045L45.8709 21.7135ZM43.3982 24.3696C42.657 25.3579 42.0396 26.4283 41.546 27.58L42.2479 27.8808C42.7179 26.7841 43.3049 25.7667 44.0091 24.8278L43.3982 24.3696ZM41.5151 27.7304V40.2572H42.2787V27.7304H41.5151ZM41.5151 40.2572C41.5151 41.2706 41.9012 42.0751 42.6928 42.6068C43.4574 43.1203 44.5562 43.3491 45.932 43.3491V42.5855C44.6177 42.5855 43.6989 42.3626 43.1186 41.9728C42.5652 41.6011 42.2787 41.0506 42.2787 40.2572H41.5151ZM45.5502 42.9673V46.4001H46.3138V42.9673H45.5502ZM45.932 46.0183H28.4667V46.782H45.932V46.0183ZM28.8485 46.4001V42.9673H28.0849V46.4001H28.8485ZM28.4667 43.3491C30.214 43.3491 31.5831 43.1227 32.5283 42.6281C33.0065 42.3779 33.3858 42.0539 33.6444 41.648C33.904 41.2405 34.0279 40.7722 34.0279 40.2572H33.2643C33.2643 40.6455 33.1724 40.9677 33.0003 41.2377C32.8273 41.5093 32.5592 41.75 32.1742 41.9515C31.3929 42.3603 30.1723 42.5855 28.4667 42.5855V43.3491ZM34.0279 40.2572V6.16982H33.2643V40.2572H34.0279ZM34.0279 6.16982C34.0279 5.65564 33.9057 5.18796 33.6492 4.78071C33.3937 4.37481 33.0184 4.05046 32.5449 3.79978C31.6093 3.30443 30.2546 3.07788 28.527 3.07788V3.84151C30.2121 3.84151 31.417 4.06666 32.1877 4.47467C32.5673 4.67568 32.832 4.91594 33.003 5.18758C33.1732 5.45786 33.2643 5.78063 33.2643 6.16982H34.0279ZM28.9088 3.4597V0.0268717H28.1451V3.4597H28.9088ZM28.527 0.408689H41.8969V-0.354945H28.527V0.408689ZM41.5151 0.0268717V21.8886H42.2787V0.0268717H41.5151ZM81.3904 30.6212V30.2394H81.0011L81.0087 30.6286L81.3904 30.6212ZM83.679 40.197L83.3578 40.4034L83.3595 40.4061L83.679 40.197ZM96.3262 41.823L96.1212 41.5009L96.3262 41.823ZM99.9999 36.3426L100.073 35.9677L99.7238 35.9002L99.6313 36.2431L99.9999 36.3426ZM103.734 37.0653L104.102 37.1657L104.211 36.7686L103.806 36.6904L103.734 37.0653ZM102.108 40.9197L101.778 40.7279L101.773 40.7361L102.108 40.9197ZM99.3977 44.232L99.6462 44.5219L99.3977 44.232ZM95.3024 46.5206L95.1762 46.16L95.1653 46.1642L95.3024 46.5206ZM83.679 46.641L83.7769 46.2719L83.7698 46.2702L83.679 46.641ZM78.3792 44.0514L78.1378 44.3473L78.1416 44.3503L78.3792 44.0514ZM74.6452 39.0527L74.2949 39.2047L74.2985 39.2127L74.6452 39.0527ZM74.3441 24.3578L73.9863 24.2245L73.9848 24.2285L74.3441 24.3578ZM77.5962 19.1182L77.87 19.3844L77.5962 19.1182ZM82.7154 15.7456L82.576 15.3901L82.5736 15.3911L82.7154 15.7456ZM104.878 30.6212V31.003H105.26V30.6212H104.878ZM97.4103 27.4293V27.8111H97.7921V27.4293H97.4103ZM96.9285 23.7555L96.5604 23.8571L96.5613 23.8604L96.9285 23.7555ZM95.4831 20.7443L95.1742 20.9689L95.1794 20.9757L95.4831 20.7443ZM93.0741 18.6966L92.8862 19.029L92.8946 19.0338L92.9033 19.0381L93.0741 18.6966ZM84.2812 20.142L84.5476 20.4156L84.2812 20.142ZM81.5109 27.4293L81.1308 27.3931L81.091 27.8111H81.5109V27.4293ZM81.0087 30.6286C81.0896 34.7991 81.8586 38.0714 83.3578 40.4034L84.0001 39.9905C82.6085 37.8257 81.8518 34.7141 81.7722 30.6138L81.0087 30.6286ZM83.3595 40.4061C84.8842 42.7354 87.2005 43.8912 90.2435 43.8912V43.1275C87.4245 43.1275 85.3646 42.075 83.9984 39.9879L83.3595 40.4061ZM90.2435 43.8912C92.5976 43.8912 94.6977 43.312 96.5312 42.1452L96.1212 41.5009C94.4215 42.5825 92.4664 43.1275 90.2435 43.1275V43.8912ZM96.5312 42.1452C98.3971 40.9578 99.6677 39.0395 100.369 36.442L99.6313 36.2431C98.9671 38.7046 97.7886 40.4399 96.1212 41.5009L96.5312 42.1452ZM99.9274 36.7174L103.661 37.4401L103.806 36.6904L100.073 35.9677L99.9274 36.7174ZM103.366 36.9648C103.013 38.2563 102.485 39.5106 101.778 40.7279L102.438 41.1114C103.177 39.8395 103.732 38.5241 104.102 37.1657L103.366 36.9648ZM101.773 40.7361C101.114 41.9387 100.24 43.0072 99.1492 43.9422L99.6462 44.5219C100.804 43.5297 101.737 42.39 102.443 41.1033L101.773 40.7361ZM99.1492 43.9422C98.066 44.8706 96.7441 45.6115 95.1763 46.1602L95.4285 46.881C97.0727 46.3055 98.481 45.5207 99.6462 44.5219L99.1492 43.9422ZM95.1653 46.1642C93.6532 46.7458 91.8548 47.0422 89.7617 47.0422V47.8058C91.9245 47.8058 93.8199 47.4999 95.4395 46.877L95.1653 46.1642ZM89.7617 47.0422C87.7061 47.0422 85.7115 46.7853 83.7769 46.272L83.5811 47.0101C85.5812 47.5407 87.6417 47.8058 89.7617 47.8058V47.0422ZM83.7698 46.2702C81.8553 45.8013 80.1389 44.9624 78.6167 43.7525L78.1416 44.3503C79.7511 45.6297 81.5679 46.5172 83.5881 47.0119L83.7698 46.2702ZM78.6205 43.7555C77.1468 42.5532 75.9352 40.9366 74.9919 38.8927L74.2985 39.2127C75.2824 41.3444 76.5602 43.0602 78.1378 44.3472L78.6205 43.7555ZM74.9955 38.9007C74.0992 36.8354 73.6419 34.2213 73.6419 31.0428H72.8782C72.8782 34.2882 73.3443 37.0141 74.295 39.2047L74.9955 38.9007ZM73.6419 31.0428C73.6419 28.6313 73.9976 26.4475 74.7033 24.4871L73.9848 24.2285C73.2452 26.2831 72.8782 28.5559 72.8782 31.0428H73.6419ZM74.7019 24.4911C75.4478 22.4888 76.5047 20.7887 77.87 19.3844L77.3225 18.8521C75.8773 20.3385 74.7661 22.1314 73.9863 24.2245L74.7019 24.4911ZM77.87 19.3844C79.2353 17.9801 80.8957 16.8847 82.8572 16.1001L82.5736 15.3911C80.52 16.2125 78.7677 17.3655 77.3225 18.8521L77.87 19.3844ZM82.8548 16.1011C84.8506 15.3184 87.1307 14.9229 89.7015 14.9229V14.1593C87.0527 14.1593 84.6755 14.5668 82.576 15.3901L82.8548 16.1011ZM89.7015 14.9229C94.6957 14.9229 98.3727 16.2447 100.806 18.8232C103.244 21.4058 104.496 25.3147 104.496 30.6212H105.26C105.26 25.2076 103.983 21.0765 101.362 18.2991C98.7364 15.5175 94.8251 14.1593 89.7015 14.1593V14.9229ZM104.878 30.2394H81.3904V31.003H104.878V30.2394ZM97.7921 27.4293C97.7921 26.0735 97.6277 24.8131 97.2956 23.6506L96.5613 23.8604C96.8716 24.9463 97.0285 26.1352 97.0285 27.4293H97.7921ZM97.2965 23.654C96.9642 22.4492 96.4626 21.3998 95.7868 20.5129L95.1794 20.9757C95.7884 21.775 96.2504 22.7332 96.5604 23.8571L97.2965 23.654ZM95.7919 20.5197C95.114 19.5876 94.2639 18.8647 93.2448 18.3551L92.9033 19.0381C93.8114 19.4922 94.5673 20.1343 95.1743 20.9689L95.7919 20.5197ZM93.2619 18.3642C92.2719 17.8047 91.1209 17.5319 89.8219 17.5319V18.2955C91.0122 18.2955 92.0293 18.5447 92.8862 19.029L93.2619 18.3642ZM89.8219 17.5319C87.5563 17.5319 85.6133 18.3121 84.0149 19.8685L84.5476 20.4156C86.0006 19.0009 87.7513 18.2955 89.8219 18.2955V17.5319ZM84.0149 19.8685C82.3956 21.4451 81.4558 23.9805 81.1308 27.3931L81.891 27.4655C82.2084 24.1328 83.1155 21.81 84.5476 20.4156L84.0149 19.8685ZM81.5109 27.8111H97.4103V27.0474H81.5109V27.8111ZM142.002 42.3651L142.339 42.5462L142.344 42.5358L142.002 42.3651ZM142.424 36.9448V36.563H142.042V36.9448H142.424ZM145.254 36.9448H145.636V36.563H145.254V36.9448ZM144.773 43.0275L144.412 42.9021L144.773 43.0275ZM143.387 45.2559L143.127 44.9767L143.387 45.2559ZM141.219 46.4604L141.114 46.0932L141.11 46.0947L141.219 46.4604ZM135.799 46.3399L135.636 46.685L135.643 46.6886L135.651 46.6918L135.799 46.3399ZM133.872 44.9547L133.592 45.2146L133.872 44.9547ZM132.005 40.739L132.379 40.6641L132.161 39.5729L131.663 40.5682L132.005 40.739ZM130.138 43.2684L129.868 42.9984L129.861 43.0055L130.138 43.2684ZM127.368 45.4365L127.553 45.7704L127.562 45.765L127.368 45.4365ZM123.694 46.8819L123.596 46.5128L123.694 46.8819ZM110.986 45.1354L110.73 45.4183L110.737 45.4244L110.986 45.1354ZM109.3 34.8369L108.972 34.6423L108.969 34.6461L109.3 34.8369ZM111.89 32.1268L111.683 31.8056L111.678 31.8091L111.89 32.1268ZM115.744 30.4405L115.846 30.8085L115.853 30.8065L115.744 30.4405ZM120.442 29.2962L120.515 29.6711L120.522 29.6696L120.442 29.2962ZM125.621 28.2724L125.554 27.8965L125.553 27.8968L125.621 28.2724ZM130.981 27.0679L131.081 27.4363L131.363 27.3595V27.0679H130.981ZM130.559 22.3704L130.191 22.4708L130.193 22.4785L130.196 22.4861L130.559 22.3704ZM129.295 20.0818L129 20.3245L129.008 20.334L129.016 20.3429L129.295 20.0818ZM127.127 18.516L126.969 18.8635L126.975 18.8666L126.982 18.8693L127.127 18.516ZM118.816 18.516L118.711 18.1488L118.708 18.1497L118.816 18.516ZM115.503 20.142L115.263 19.8453L114.528 20.4405L115.47 20.5224L115.503 20.142ZM117.852 21.0454L118.093 20.7491L117.852 21.0454ZM117.732 26.0441L117.994 26.3218L118.002 26.3141L117.732 26.0441ZM111.348 25.9839L111.063 26.2385L111.07 26.2464L111.078 26.2538L111.348 25.9839ZM114.058 17.191L114.262 17.5137L114.27 17.5087L114.058 17.191ZM118.514 15.2638L118.416 14.8949L118.414 14.8954L118.514 15.2638ZM130.017 15.0831L129.939 15.4569L129.948 15.4585L130.017 15.0831ZM134.595 16.8297L134.389 17.1519L134.397 17.1562L134.595 16.8297ZM137.726 20.2023L137.388 20.3806L137.395 20.3917L137.726 20.2023ZM131.041 29.4167H131.423V28.9277L130.949 29.0463L131.041 29.4167ZM124.356 31.2234L124.458 31.5915L124.465 31.5894L124.356 31.2234ZM119.659 32.97L119.825 33.3138L119.834 33.3093L119.659 32.97ZM117.491 41.4617L117.729 41.1635L117.491 41.4617ZM127.488 41.2208L127.688 41.546L127.69 41.5446L127.488 41.2208ZM131.041 37.788L131.37 37.9829L131.423 37.8928V37.788H131.041ZM138.549 40.4981C138.549 41.4129 138.703 42.1663 139.067 42.7006C139.449 43.2611 140.028 43.5298 140.737 43.5298V42.7662C140.243 42.7662 139.918 42.5932 139.698 42.2704C139.46 41.9214 139.313 41.3499 139.313 40.4981H138.549ZM140.737 43.5298C141.08 43.5298 141.397 43.4496 141.676 43.2769C141.954 43.1049 142.172 42.8544 142.338 42.5461L141.666 42.1841C141.551 42.3977 141.418 42.5387 141.274 42.6276C141.132 42.7159 140.957 42.7662 140.737 42.7662V43.5298ZM142.344 42.5358C142.654 41.9162 142.806 41.2347 142.806 40.4981H142.042C142.042 41.1266 141.913 41.6897 141.661 42.1943L142.344 42.5358ZM142.806 40.4981V36.9448H142.042V40.4981H142.806ZM142.424 37.3266H145.254V36.563H142.424V37.3266ZM144.873 36.9448V39.6549H145.636V36.9448H144.873ZM144.873 39.6549C144.873 40.9513 144.715 42.0305 144.412 42.9021L145.133 43.153C145.472 42.1777 145.636 41.0085 145.636 39.6549H144.873ZM144.412 42.9021C144.107 43.7779 143.676 44.4642 143.127 44.9767L143.648 45.535C144.303 44.9233 144.795 44.1241 145.133 43.153L144.412 42.9021ZM143.127 44.9767C142.572 45.495 141.903 45.8679 141.114 46.0932L141.324 46.8275C142.222 46.5711 142.999 46.141 143.648 45.535L143.127 44.9767ZM141.11 46.0947C140.347 46.3234 139.501 46.4399 138.569 46.4399V47.2035C139.565 47.2035 140.486 47.0791 141.329 46.8261L141.11 46.0947ZM138.569 46.4399C137.521 46.4399 136.651 46.2844 135.947 45.988L135.651 46.6918C136.473 47.0379 137.449 47.2035 138.569 47.2035V46.4399ZM135.962 45.9949C135.239 45.6522 134.637 45.2181 134.152 44.6949L133.592 45.2146C134.15 45.8156 134.833 46.305 135.636 46.685L135.962 45.9949ZM134.152 44.6949C133.663 44.1685 133.287 43.5674 133.023 42.8892L132.311 43.1659C132.61 43.933 133.037 44.6167 133.592 45.2146L134.152 44.6949ZM133.023 42.8892C132.751 42.1882 132.536 41.4467 132.379 40.6641L131.63 40.8139C131.795 41.6373 132.022 42.4215 132.311 43.1659L133.023 42.8892ZM131.663 40.5682C131.243 41.4098 130.646 42.2202 129.868 42.9985L130.408 43.5384C131.236 42.7107 131.884 41.8348 132.346 40.9097L131.663 40.5682ZM129.861 43.0055C129.126 43.7797 128.231 44.4812 127.173 45.1081L127.562 45.765C128.672 45.1071 129.625 44.3632 130.415 43.5314L129.861 43.0055ZM127.182 45.1028C126.129 45.6877 124.935 46.1585 123.596 46.5128L123.791 47.251C125.183 46.8827 126.438 46.3899 127.553 45.7703L127.182 45.1028ZM123.596 46.5128C122.266 46.8649 120.834 47.0422 119.297 47.0422V47.8058C120.893 47.8058 122.391 47.6217 123.791 47.251L123.596 46.5128ZM119.297 47.0422C115.562 47.0422 112.901 46.2849 111.236 44.8465L110.737 45.4244C112.604 47.0374 115.485 47.8058 119.297 47.8058V47.0422ZM111.243 44.8526C109.607 43.3694 108.778 41.3703 108.778 38.8118H108.015C108.015 41.5531 108.912 43.7697 110.73 45.4182L111.243 44.8526ZM108.778 38.8118C108.778 37.2512 109.071 35.9974 109.631 35.0277L108.969 34.6461C108.324 35.7642 108.015 37.1604 108.015 38.8118H108.778ZM109.628 35.0316C110.241 33.9985 111.063 33.1366 112.101 32.4445L111.678 31.8091C110.548 32.5625 109.644 33.5073 108.972 34.6423L109.628 35.0316ZM112.096 32.448C113.184 31.7484 114.433 31.2009 115.846 30.8084L115.642 30.0726C114.164 30.4831 112.843 31.0599 111.683 31.8056L112.096 32.448ZM115.853 30.8065C117.326 30.3686 118.88 29.99 120.515 29.671L120.369 28.9215C118.711 29.2448 117.133 29.6291 115.635 30.0745L115.853 30.8065ZM120.522 29.6696C122.204 29.3091 123.926 28.9686 125.689 28.6481L125.553 27.8968C123.782 28.2186 122.052 28.5607 120.362 28.9229L120.522 29.6696ZM125.688 28.6483C127.506 28.3251 129.304 27.9211 131.081 27.4363L130.881 26.6995C129.125 27.1783 127.35 27.5773 125.554 27.8965L125.688 28.6483ZM131.363 27.0679V25.2009H130.599V27.0679H131.363ZM131.363 25.2009C131.363 24.1611 131.217 23.1783 130.923 22.2546L130.196 22.4861C130.464 23.329 130.599 24.2332 130.599 25.2009H131.363ZM130.928 22.2699C130.671 21.329 130.22 20.5103 129.573 19.8207L129.016 20.3429C129.574 20.9381 129.966 21.6451 130.191 22.4708L130.928 22.2699ZM129.589 19.8391C128.984 19.104 128.208 18.5459 127.271 18.1626L126.982 18.8693C127.812 19.2087 128.481 19.6945 129 20.3245L129.589 19.8391ZM127.285 18.1684C126.341 17.7396 125.241 17.5319 123.995 17.5319V18.2955C125.158 18.2955 126.145 18.4894 126.969 18.8635L127.285 18.1684ZM123.995 17.5319C121.925 17.5319 120.161 17.7346 118.711 18.1488L118.92 18.8831C120.281 18.4944 121.97 18.2955 123.995 18.2955V17.5319ZM118.708 18.1497C117.309 18.5612 116.155 19.1228 115.263 19.8453L115.743 20.4388C116.537 19.7961 117.592 19.2738 118.923 18.8823L118.708 18.1497ZM115.47 20.5224C116.327 20.5969 117.035 20.8736 117.611 21.3417L118.093 20.7491C117.384 20.1733 116.526 19.8477 115.536 19.7617L115.47 20.5224ZM117.611 21.3417C118.149 21.7788 118.434 22.404 118.434 23.2737H119.197C119.197 22.2163 118.84 21.3559 118.093 20.7491L117.611 21.3417ZM118.434 23.2737C118.434 24.3078 118.105 25.1305 117.462 25.7741L118.002 26.3141C118.803 25.5123 119.197 24.4881 119.197 23.2737H118.434ZM117.469 25.7665C116.842 26.3587 115.888 26.6861 114.54 26.6861V27.4497C116.002 27.4497 117.175 27.0945 117.994 26.3217L117.469 25.7665ZM114.54 26.6861C113.197 26.6861 112.245 26.3416 111.618 25.7139L111.078 26.2538C111.895 27.0716 113.072 27.4497 114.54 27.4497V26.6861ZM111.632 25.7293C111.029 25.055 110.706 24.1116 110.706 22.8522H109.942C109.942 24.2427 110.301 25.387 111.063 26.2385L111.632 25.7293ZM110.706 22.8522C110.706 21.9341 110.998 21.0007 111.609 20.0467L110.966 19.6351C110.292 20.6886 109.942 21.7627 109.942 22.8522H110.706ZM111.609 20.0467C112.216 19.0983 113.096 18.2523 114.262 17.5136L113.853 16.8684C112.611 17.6554 111.644 18.576 110.966 19.6351L111.609 20.0467ZM114.27 17.5087C115.432 16.7336 116.878 16.1059 118.615 15.6322L118.414 14.8954C116.618 15.3853 115.092 16.0424 113.846 16.8733L114.27 17.5087ZM118.613 15.6327C120.381 15.1611 122.395 14.9229 124.657 14.9229V14.1593C122.343 14.1593 120.261 14.4029 118.416 14.8949L118.613 15.6327ZM124.657 14.9229C126.479 14.9229 128.24 15.1011 129.939 15.4568L130.096 14.7094C128.342 14.3424 126.529 14.1593 124.657 14.1593V14.9229ZM129.948 15.4585C131.632 15.7718 133.11 16.3378 134.39 17.1518L134.8 16.5075C133.429 15.6352 131.856 15.0368 130.087 14.7078L129.948 15.4585ZM134.397 17.1562C135.659 17.9213 136.656 18.9928 137.389 20.3805L138.064 20.024C137.271 18.521 136.18 17.344 134.792 16.5031L134.397 17.1562ZM137.395 20.3917C138.155 21.7229 138.549 23.4389 138.549 25.5623H139.313C139.313 23.3495 138.903 21.4921 138.058 20.0128L137.395 20.3917ZM138.549 25.5623V40.4981H139.313V25.5623H138.549ZM130.949 29.0463C128.375 29.6896 126.141 30.2934 124.247 30.8575L124.465 31.5894C126.345 31.0293 128.568 30.4286 131.134 29.7871L130.949 29.0463ZM124.254 30.8554C122.351 31.3819 120.759 31.9725 119.484 32.6307L119.834 33.3093C121.048 32.6826 122.587 32.1089 124.458 31.5914L124.254 30.8554ZM119.492 32.6263C118.213 33.2456 117.233 33.9821 116.583 34.8488L117.194 35.3069C117.748 34.5676 118.616 33.8989 119.825 33.3137L119.492 32.6263ZM116.583 34.8488C115.922 35.7303 115.603 36.819 115.603 38.0891H116.367C116.367 36.9502 116.65 36.0314 117.194 35.3069L116.583 34.8488ZM115.603 38.0891C115.603 39.6341 116.146 40.8747 117.252 41.7598L117.729 41.1635C116.828 40.4426 116.367 39.4349 116.367 38.0891H115.603ZM117.252 41.7598C118.353 42.6409 119.981 43.048 122.068 43.048V42.2844C120.059 42.2844 118.635 41.8885 117.729 41.1635L117.252 41.7598ZM122.068 43.048C124.178 43.048 126.055 42.5507 127.688 41.546L127.288 40.8956C125.789 41.8181 124.053 42.2844 122.068 42.2844V43.048ZM127.69 41.5446C129.335 40.517 130.568 39.3322 131.37 37.9829L130.713 37.593C129.988 38.8133 128.853 39.9171 127.286 40.897L127.69 41.5446ZM131.423 37.788V29.4167H130.659V37.788H131.423ZM186.609 42.9673H186.991V42.5855H186.609V42.9673ZM186.609 46.4001V46.782H186.991V46.4001H186.609ZM175.226 46.4001L174.846 46.4368L174.879 46.782H175.226V46.4001ZM174.744 41.4015L175.124 41.3648L174.991 39.9806L174.399 41.2389L174.744 41.4015ZM170.167 45.9786L170.327 46.3253L170.333 46.3227L170.167 45.9786ZM157.219 46.5206L157.342 46.1592L157.219 46.5206ZM152.521 43.6298L152.251 43.8998L152.255 43.9038L152.521 43.6298ZM149.329 38.5709L148.971 38.702L148.974 38.7103L149.329 38.5709ZM149.51 23.3942L149.158 23.2454L149.51 23.3942ZM158.002 15.4445L158.111 15.8105L158.118 15.8082L158.002 15.4445ZM169.204 15.324L169.086 15.6872L169.088 15.688L169.204 15.324ZM173.058 17.4921L172.788 17.7621L173.44 18.4139V17.4921H173.058ZM167.818 3.4597H167.437V3.84151H167.818V3.4597ZM167.818 0.0268717V-0.354945H167.437V0.0268717H167.818ZM181.309 0.0268717H181.691V-0.354945H181.309V0.0268717ZM161.254 19.3591L161.074 19.0225L161.254 19.3591ZM158.484 21.8886L158.166 21.6767L158.161 21.6851L158.484 21.8886ZM156.918 25.8032L156.546 25.7152L156.545 25.7225L156.918 25.8032ZM156.918 35.6801L156.544 35.7608L156.547 35.7703L156.918 35.6801ZM158.484 39.5345L158.16 39.738L158.166 39.7463L158.484 39.5345ZM161.254 42.0639L161.074 42.4005L161.254 42.0639ZM169.264 42.0639L169.449 42.3977L169.264 42.0639ZM171.854 39.5345L171.53 39.331L171.525 39.3398L171.854 39.5345ZM173.299 35.6801L172.926 35.5994L172.924 35.6091L173.299 35.6801ZM173.299 25.8032L172.923 25.8724L172.926 25.8839L173.299 25.8032ZM171.854 21.8886L171.525 22.0833L171.53 22.092L171.854 21.8886ZM169.264 19.3591L169.449 19.0253L169.264 19.3591ZM180.927 40.2572C180.927 40.774 181.054 41.2435 181.32 41.6514C181.585 42.0573 181.972 42.3804 182.46 42.6297C183.424 43.1228 184.822 43.3491 186.609 43.3491V42.5855C184.862 42.5855 183.61 42.3602 182.808 41.9498C182.412 41.7475 182.137 41.506 181.96 41.2344C181.784 40.9647 181.691 40.6438 181.691 40.2572H180.927ZM186.227 42.9673V46.4001H186.991V42.9673H186.227ZM186.609 46.0183H175.226V46.782H186.609V46.0183ZM175.606 46.3635L175.124 41.3648L174.364 41.4381L174.846 46.4368L175.606 46.3635ZM174.399 41.2389C173.474 43.2051 172.013 44.6678 170.002 45.6345L170.333 46.3227C172.498 45.2819 174.088 43.6931 175.09 41.564L174.399 41.2389ZM170.007 45.6319C167.98 46.5678 165.587 47.0422 162.82 47.0422V47.8058C165.674 47.8058 168.179 47.3166 170.327 46.3252L170.007 45.6319ZM162.82 47.0422C160.892 47.0422 159.067 46.7472 157.342 46.1592L157.096 46.882C158.904 47.4985 160.813 47.8058 162.82 47.8058V47.0422ZM157.342 46.1592C155.63 45.5755 154.113 44.6422 152.787 43.3558L152.255 43.9038C153.66 45.2673 155.275 46.2612 157.096 46.882L157.342 46.1592ZM152.791 43.3598C151.509 42.0779 150.472 40.4386 149.685 38.4315L148.974 38.7103C149.793 40.7985 150.883 42.5318 152.251 43.8998L152.791 43.3598ZM149.688 38.4399C148.945 36.405 148.567 33.9424 148.567 31.0428H147.803C147.803 34.005 148.189 36.5611 148.971 38.7019L149.688 38.4399ZM148.567 31.0428C148.567 28.0667 149.004 25.571 149.862 23.543L149.158 23.2454C148.25 25.393 147.803 27.9963 147.803 31.0428H148.567ZM149.862 23.543C150.727 21.4977 151.862 19.8391 153.261 18.5565L152.745 17.9936C151.254 19.3609 150.06 21.115 149.158 23.2454L149.862 23.543ZM153.261 18.5565C154.664 17.2708 156.279 16.3561 158.111 15.8104L157.893 15.0786C155.951 15.6571 154.233 16.6294 152.745 17.9936L153.261 18.5565ZM158.118 15.8082C159.966 15.2183 161.894 14.9229 163.904 14.9229V14.1593C161.818 14.1593 159.812 14.4661 157.886 15.0807L158.118 15.8082ZM163.904 14.9229C165.797 14.9229 167.523 15.1792 169.086 15.6872L169.322 14.9609C167.673 14.425 165.866 14.1593 163.904 14.1593V14.9229ZM169.088 15.688C170.694 16.1972 171.92 16.8936 172.788 17.7621L173.328 17.2221C172.35 16.2438 171.005 15.4948 169.319 14.9601L169.088 15.688ZM173.44 17.4921V6.16982H172.676V17.4921H173.44ZM173.44 6.16982C173.44 5.65392 173.314 5.18501 173.052 4.77731C172.79 4.37139 172.407 4.04787 171.924 3.79809C170.969 3.3043 169.586 3.07788 167.818 3.07788V3.84151C169.545 3.84151 170.781 4.06678 171.573 4.47637C171.963 4.67827 172.235 4.91937 172.41 5.19098C172.584 5.46081 172.676 5.78235 172.676 6.16982H173.44ZM168.2 3.4597V0.0268717H167.437V3.4597H168.2ZM167.818 0.408689H181.309V-0.354945H167.818V0.408689ZM180.927 0.0268717V40.2572H181.691V0.0268717H180.927ZM165.289 18.0739C163.674 18.0739 162.265 18.3846 161.074 19.0225L161.434 19.6957C162.492 19.1292 163.772 18.8375 165.289 18.8375V18.0739ZM161.074 19.0225C159.893 19.6551 158.923 20.5416 158.166 21.6768L158.801 22.1004C159.49 21.0674 160.367 20.2676 161.434 19.6957L161.074 19.0225ZM158.161 21.6851C157.451 22.8117 156.915 24.1574 156.546 25.7152L157.289 25.8912C157.643 24.3975 158.151 23.1336 158.807 22.092L158.161 21.6851ZM156.545 25.7225C156.217 27.239 156.054 28.9127 156.054 30.7416H156.818C156.818 28.9571 156.976 27.3385 157.291 25.8839L156.545 25.7225ZM156.054 30.7416C156.054 32.5706 156.217 34.2443 156.545 35.7608L157.291 35.5994C156.976 34.1448 156.818 32.5262 156.818 30.7416H156.054ZM156.547 35.7703C156.916 37.2884 157.452 38.613 158.161 39.7379L158.807 39.3311C158.15 38.2879 157.642 37.0429 157.289 35.5898L156.547 35.7703ZM158.166 39.7463C158.923 40.8814 159.893 41.7679 161.074 42.4005L161.434 41.7274C160.367 41.1554 159.49 40.3557 158.801 39.3227L158.166 39.7463ZM161.074 42.4005C162.265 43.0385 163.674 43.3491 165.289 43.3491V42.5855C163.772 42.5855 162.492 42.2939 161.434 41.7274L161.074 42.4005ZM165.289 43.3491C166.903 43.3491 168.296 43.0387 169.449 42.3977L169.078 41.7302C168.064 42.2937 166.807 42.5855 165.289 42.5855V43.3491ZM169.449 42.3977C170.594 41.762 171.506 40.8704 172.182 39.7291L171.525 39.3398C170.917 40.3666 170.102 41.1614 169.078 41.7302L169.449 42.3977ZM172.177 39.7379C172.889 38.6068 173.386 37.2753 173.674 35.7511L172.924 35.6091C172.65 37.056 172.183 38.2941 171.53 39.3311L172.177 39.7379ZM173.672 35.7608C174 34.2443 174.163 32.5706 174.163 30.7416H173.399C173.399 32.5262 173.24 34.1448 172.926 35.5994L173.672 35.7608ZM174.163 30.7416C174.163 28.9127 174 27.239 173.672 25.7225L172.926 25.8839C173.24 27.3385 173.399 28.9571 173.399 30.7416H174.163ZM173.674 25.734C173.386 24.1704 172.89 22.8179 172.177 21.6851L171.53 22.092C172.182 23.1274 172.649 24.3845 172.923 25.8724L173.674 25.734ZM172.182 21.6939C171.506 20.5526 170.594 19.661 169.449 19.0253L169.078 19.6929C170.102 20.2617 170.917 21.0564 171.525 22.0832L172.182 21.6939ZM169.449 19.0253C168.296 18.3843 166.903 18.0739 165.289 18.0739V18.8375C166.807 18.8375 168.064 19.1294 169.078 19.6929L169.449 19.0253ZM191.598 37.4868L191.28 37.6986L191.474 37.9897L191.781 37.8218L191.598 37.4868ZM189.912 34.9574L189.698 34.6411L189.384 34.8536L189.594 35.1692L189.912 34.9574ZM204.245 25.2612L204.459 25.5774L204.933 25.2572L204.455 24.9424L204.245 25.2612ZM189.912 15.8058L189.584 15.6094L189.396 15.9231L189.701 16.1245L189.912 15.8058ZM191.538 13.0957L191.72 12.7602L191.399 12.5856L191.21 12.8993L191.538 13.0957ZM213.941 25.2612L214.125 25.5961L214.739 25.2599L214.124 24.9256L213.941 25.2612ZM191.916 37.275L190.229 34.7456L189.594 35.1692L191.28 37.6986L191.916 37.275ZM190.126 35.2736L204.459 25.5774L204.031 24.9449L189.698 34.6411L190.126 35.2736ZM204.455 24.9424L190.122 15.4871L189.701 16.1245L204.035 25.5799L204.455 24.9424ZM190.239 16.0023L191.865 13.2921L191.21 12.8993L189.584 15.6094L190.239 16.0023ZM191.356 13.4312L213.759 25.5967L214.124 24.9256L191.72 12.7602L191.356 13.4312ZM213.758 24.9262L191.415 37.1519L191.781 37.8218L214.125 25.5961L213.758 24.9262Z" fill="#00FF00"></path></svg>