<?xml version="1.0" encoding="UTF-8"?>
<svg xmlns="http://www.w3.org/2000/svg" width="166" height="34" viewBox="0 0 166 34" fill="none">
  <path d="M82.2 2.75024C79.7 2.75024 77.5 4.15024 76 6.45024V6.15024V3.35024H71.5H68.6V6.15024H71.5V30.7502H69.6V33.5502H78.3V30.7502H76V21.9502C77.5 24.2502 79.8 25.6502 82.2 25.6502C86.9 25.6502 90.7 20.5502 90.7 14.2502C90.7 7.85024 86.9 2.75024 82.2 2.75024ZM81.2 22.8502C78.8 22.8502 76.8 20.4502 76.1 17.1502V11.2502C76.9 7.95024 78.9 5.55024 81.2 5.55024C84.2 5.55024 86.7 9.45024 86.7 14.2502C86.6 18.9502 84.2 22.8502 81.2 22.8502Z" fill="#000100"></path>
  <path d="M15.8 6.85015C14.2 4.25015 11.9 2.65015 9.29999 2.65015C4.59999 2.65015 0.799988 7.75015 0.799988 14.0501C0.799988 20.3501 4.59999 25.4501 9.29999 25.4501C11.9 25.4501 14.3 23.8501 15.8 21.2501C15.8 22.6501 15.8 24.9501 15.8 26.4501C15.8 28.6501 14.3 31.7501 9.29999 31.7501C4.29999 31.7501 3.79999 27.6501 3.79999 27.6501H1.99998V32.1502C4.99998 33.9501 10.4 33.8501 10.4 33.8501C19.1 33.8501 19.5 26.1501 19.5 26.1501V5.85015H22.4V3.35015H15.9V6.85015H15.8ZM10.3 22.8501C7.29999 22.8501 4.79999 18.9501 4.79999 14.1501C4.79999 9.35015 7.29999 5.45015 10.3 5.45015C13.3 5.45015 15.8 9.35015 15.8 14.1501C15.8 18.9501 13.4 22.8501 10.3 22.8501Z" fill="#000100"></path>
  <path d="M32.6 6.95005V6.15005V3.35005H28.1H25.2V6.15005H28.1V22.35H25.2V25.15H36.5V22.35H32.6V10.85C32.6 10.85 32.8 5.45005 38.1 5.45005C38.1 5.45005 41.1 5.55005 41.1 8.65005H43.3999V3.35005C43.3999 3.35005 35.1 0.750048 32.6 6.95005Z" fill="#000100"></path>
  <path d="M65.9 6.1501V3.3501H62.1H59.4V6.1501H62.1V16.0501C62.1 20.9501 58.7 22.9501 55.7 22.9501C52.7 22.9501 52.8 18.2501 52.8 18.2501V6.2501V3.3501H46.3V6.1501H48.7C48.7 8.0501 48.7 13.5501 48.7 17.8501C48.7 23.2501 51 25.5501 55.7 25.5501C60.4 25.5501 62.2 21.4501 62.2 21.4501V22.3501V25.1501H66H68.7V22.3501H66V6.1501H65.9Z" fill="#000100"></path>
  <path d="M103.7 2.55005C98.2 2.55005 93.7 7.75005 93.7 14.05C93.7 20.45 98.2 25.55 103.7 25.55C109.2 25.55 113.7 20.35 113.7 14.05C113.7 7.65005 109.2 2.55005 103.7 2.55005ZM103.8 23.75C100.6 23.75 98.0999 19.55 98.0999 14.35C98.0999 9.15005 100.7 4.95005 103.8 4.95005C107 4.95005 109.5 9.15005 109.5 14.35C109.5 19.55 106.9 23.75 103.8 23.75Z" fill="#000100"></path>
  <path d="M131.8 14.3502C127.9 13.7502 123.3 12.5502 123.3 8.45024C123.3 4.35024 129.4 4.65024 129.4 4.65024C129.4 4.65024 135.5 4.45024 135 10.8502H139.8V2.45024C139.8 2.45024 135.8 0.250244 128.1 0.250244C120.4 0.250244 117.4 4.65024 117.4 9.55024C117.4 14.4502 119.8 17.1502 128 19.5502C136.2 21.9502 134.8 25.9502 134.8 25.9502C134.8 25.9502 134.4 29.1502 128.7 29.1502C123 29.1502 122.1 25.6502 122.1 22.2502H117.4V31.2502C117.4 31.2502 121.8 33.9502 128.6 33.9502C135.4 33.9502 141.6 30.9502 141.6 24.0502C141.4 17.1502 135.6 14.9502 131.8 14.3502Z" fill="#000100"></path>
  <path d="M165.4 10.8501C165.4 -0.149872 155.6 0.25013 155.6 0.25013H141.4V5.35013H144V28.4501H141.4V33.0501H154V28.5501H150.6V20.1501C150.5 20.2501 165.4 21.8501 165.4 10.8501ZM150.3 15.4501V5.45013H153.4C153.4 5.45013 158.6 5.45013 158.6 10.4501C158.6 16.0501 153.4 15.4501 153.4 15.4501H150.3Z" fill="#000100"></path>
</svg>
