<?xml version="1.0" encoding="UTF-8"?>
<svg xmlns="http://www.w3.org/2000/svg" width="135" height="95" viewBox="0 0 135 95" fill="none">
  <g clip-path="url(#clip0_427_390)">
    <path d="M39.5 74.0499C39.4 74.6499 39.3 75.2499 39.2 75.7499C38.6 78.0499 37.3 79.7499 35.2 80.6499C33.4 81.4499 31.6 82.0499 29.6 82.1499C27.7 82.2499 26 81.5499 24.7 79.6499C24.6 79.9499 24.5 80.1499 24.4 80.3499C23.4 82.4499 21.9 83.8499 19.8 84.5499C18 85.0499 16.1 85.4499 14.2 85.1499C11.5 84.7499 9.70001 82.7499 9.70001 80.0499C9.70001 79.2499 9.90001 78.3499 10 77.5499C11.8 68.7499 13.7 59.9499 15.6 51.1499C16.5 47.0499 17.6 43.0499 18.6 38.9499C18.9 37.6499 19.5 36.4499 20.5 35.5499C21.5 34.6499 22.7 34.1499 24 33.8499C25.9 33.4499 27.7 33.2499 29.6 33.8499C29.7 33.8499 29.9 33.7499 30 33.6499C31.5 32.3499 33.3 31.4499 35.2 31.0499C37.5 30.6499 39.6 30.9499 41.6 32.4499C42.2 31.8499 42.8 31.2499 43.4 30.7499C45.2 29.1499 47.2 27.9499 49.5 27.4499C51.4 27.0499 53.3 27.0499 55.1 28.0499C57.4 29.2499 58.7 31.2499 59.3 33.8499C59.6 35.0499 59.6 36.3499 59.8 37.6499C59.8 38.0499 59.8 38.4499 59.8 38.8499C60.5 38.4499 61.1 38.1499 61.7 37.8499C64.4 36.5499 67.2 36.1499 70.2 36.8499C71.9 37.3499 73.3 38.2499 74.5 39.7499C74.6 39.5499 74.8 39.3499 74.9 39.2499C76.5 36.9499 78.4 35.0499 80.9 33.8499C83.7 32.4499 86.6 31.9499 89.6 32.7499C91.2 33.1499 92.5 34.0499 93.6 35.3499C93.7 35.4499 93.7 35.4499 93.8 35.5499C93.8 35.5499 93.8 35.5499 93.9 35.5499C94.3 34.9499 94.7 34.3499 95.1 33.8499C97 31.2499 99.5 29.3499 102.5 28.4499C103.3 28.2499 104.1 28.1499 105 28.3499C105.1 27.7499 105.3 27.2499 105.4 26.6499C106.3 22.8499 107.1 19.1499 107.9 15.3499C108.4 13.1499 109.7 11.5499 111.7 10.8499C113.7 10.1499 115.7 9.74992 117.9 9.94992C120.3 10.2499 122 11.9499 122.2 14.5499C122.2 15.1499 122.1 15.8499 122 16.4499C120 23.8499 118.2 31.3499 116.6 38.8499C116.3 40.5499 116 42.3499 115.7 44.0499C116.7 44.4499 117.4 45.1499 118.2 45.8499C118.3 45.9499 118.4 45.9499 118.5 45.9499C122.5 45.2499 126 49.5499 124.6 53.5499C123.3 57.4499 121.3 60.9499 118.6 63.8499C116.5 66.1499 113.9 67.5499 110.8 68.2499C102.8 70.0499 94.9 72.0499 86.9 73.9499C77.3 76.2499 67.8 78.5499 58.2 80.8499C55.5 81.4499 52.9 82.1499 50.2 82.7499C45.9 83.7499 40.9 81.6499 39.7 75.6499C39.6 75.1499 39.6 74.6499 39.5 74.0499ZM27.3 38.7499C27.5 38.0499 27.6 37.4499 27.7 36.9499C27.9 36.1499 27.7 35.8499 27 35.7499C26.3 35.6499 25.6 35.6499 24.8 35.6499C23.9 35.6499 23 35.9499 22.2 36.3499C21.8 36.5499 21.5 36.9499 21.3 37.4499C21.1 38.1499 20.8 38.9499 20.6 39.6499C19.4 44.3499 18.3 49.0499 17.3 53.7499C15.7 61.6499 14 69.5499 12.3 77.4499C12.3 77.6499 12.2 77.9499 12.2 78.1499C12.3 78.7499 12.7 79.1499 13.5 79.2499C14.7 79.3499 15.9 79.0499 17 78.7499C18.5 78.3499 19.4 77.3499 19.7 75.7499C21 69.2499 22.4 62.7499 23.7 56.3499C24.2 53.9499 24.6 51.5499 25.2 49.2499C25.8 46.8499 26.7 44.5499 28 42.4499C28.7 41.4499 29.5 40.4499 30.6 39.9499C31.9 39.3499 32.7 39.8499 32.9 41.2499C33.1 42.4499 33 43.6499 32.7 44.8499C31 53.0499 29.2 61.2499 27.5 69.4499C27.1 71.1499 26.8 72.8499 26.4 74.6499C26.2 75.4499 26.6 76.0499 27.4 76.1499C27.7 76.1499 28 76.1499 28.2 76.1499C29.4 76.0499 30.5 75.6499 31.6 75.2499C33.1 74.7499 33.8 73.6499 34 72.0499C34.2 70.8499 34.4 69.7499 34.7 68.5499C36.2 61.3499 37.8 54.0499 39.2 46.8499C39.8 43.8499 40.9 41.0499 42.7 38.6499C43.4 37.7499 44.2 36.8499 45.3 36.3499C46.3 35.9499 46.9 36.3499 47.1 37.3499C47.3 38.5499 47.1 39.7499 46.8 40.9499C45.2 49.7499 43.3 58.5499 42.3 67.4499C42.1 69.1499 42 70.8499 42.3 72.6499C42.8 75.8499 45.3 77.5499 48.3 76.8499C56.3 74.9499 64.3 72.9499 72.3 71.0499C84.3 68.1499 96.4 65.2499 108.4 62.3499C110.3 61.8499 112.1 61.2499 113.6 59.8499C116.5 57.1499 118.3 53.7499 119.7 50.0499C120 49.3499 119.7 48.7499 119.1 48.2499C118.9 48.1499 118.7 47.9499 118.4 47.8499C117.9 47.6499 117.7 47.6499 117.4 48.1499C117.3 48.2499 117.2 48.4499 117.1 48.5499C115.7 50.9499 114.2 53.1499 112.1 54.9499C111.4 55.6499 110.6 56.2499 109.6 56.4499C101.4 58.4499 93.2 60.3499 85 62.3499C77.3 64.1499 69.5 66.0499 61.8 67.8499C58.9 68.5499 56 69.1499 53.1 69.7499C52.5 69.8499 51.8 69.9499 51.2 69.7499C50.3 69.5499 49.8 68.6499 49.6 67.7499C49.1 66.0499 49.2 64.4499 49.6 62.7499C50.9 56.1499 52.3 49.5499 53.7 43.0499C54.2 40.8499 54.6 38.6499 54.7 36.3499C54.7 34.7499 54.7 33.1499 54 31.6499C53.4 30.3499 52.5 29.5499 51.1 29.3499C50.1 29.2499 49.2 29.3499 48.3 29.6499C46.5 30.2499 45 31.3499 43.7 32.8499C42.7 33.9499 41.8 35.0499 40.8 36.1499C40.2 36.8499 39.7 36.8499 39.4 35.8499C39 34.2499 37.9 33.2499 36.3 33.0499C34.9 32.8499 33.5 33.2499 32.3 33.9499C30.9 34.8499 29.9 36.0499 28.9 37.3499C28.6 37.7499 28.3 38.0499 27.9 38.3499C27.8 38.5499 27.6 38.6499 27.3 38.7499ZM106.4 31.1499C105.8 30.2499 105.1 29.9499 104.2 29.9499C103.6 29.9499 103 30.0499 102.4 30.2499C99.8 31.0499 97.9 32.7499 96.4 35.0499C94 38.6499 92.7 42.6499 92.4 47.1499C92.3 49.0499 92.4 50.9499 93.1 52.7499C94.3 55.5499 95.6 55.9499 97.6 55.9499C100.3 55.9499 102.6 54.8499 104.6 53.1499C105 52.8499 105.4 52.4499 105.8 52.0499C106.4 52.7499 107.2 52.9499 108.1 52.8499C109.1 52.6499 110 52.2499 110.8 51.6499C112.1 50.6499 113.2 49.3499 114.1 48.0499C114.4 47.5499 114.4 47.1499 113.9 46.7499C113.7 46.6499 113.6 46.4499 113.4 46.3499C112.8 45.9499 112.5 45.9499 112 46.4499C111.7 46.7499 111.4 47.1499 110.9 46.9499C110.4 46.7499 110.3 46.2499 110.3 45.7499C110.3 44.9499 110.3 44.2499 110.3 43.4499C110.5 40.3499 111.2 37.3499 111.8 34.3499C113.3 27.3499 115 20.3499 116.9 13.4499C117.1 12.5499 116.9 12.1499 116 12.1499C114.5 12.0499 113.1 12.3499 111.7 12.8499C111 13.0499 110.6 13.6499 110.4 14.4499C109.6 18.0499 108.7 21.5499 107.9 25.1499C107.4 26.9499 106.9 28.9499 106.4 31.1499ZM53.4 56.8499C53.4 58.5499 53.5 60.1499 54.1 61.7499C54.8 63.5499 56.1 64.5499 57.9 64.6499C59.2 64.7499 60.4 64.5499 61.6 64.1499C66.1 62.5499 68.8 58.9499 70.4 54.4499C71.1 52.2499 71.5 50.0499 71.6 47.6499C71.7 45.9499 71.7 44.2499 71.2 42.6499C70.6 40.6499 69.4 39.2499 67.3 38.8499C66.2 38.6499 65.1 38.7499 64 38.9499C61.4 39.5499 59.3 41.0499 57.7 43.2499C54.9 47.1499 53.5 51.8499 53.4 56.8499ZM91.2 42.2499C91.2 40.9499 91.1 39.7499 90.8 38.5499C90.1 36.0499 88.5 34.6499 86.2 34.4499C84.7 34.3499 83.2 34.6499 81.9 35.2499C79.5 36.3499 77.7 38.1499 76.4 40.4499C74.3 43.9499 73.1 47.7499 72.9 51.8499C72.8 53.5499 72.9 55.1499 73.4 56.8499C74.1 59.3499 75.6 60.5499 78 60.4499C82.1 60.3499 85.3 58.2499 87.7 54.9499C90.2 51.1499 91 46.7499 91.2 42.2499Z" fill="black"></path>
    <path d="M27.3 38.7501C27.6 38.6501 27.8 38.5501 27.9 38.4501C28.2 38.1501 28.6 37.8501 28.9 37.4501C29.9 36.1501 30.9 34.8501 32.3 34.0501C33.5 33.2501 34.9 32.9501 36.3 33.1501C37.9 33.3501 39 34.3501 39.4 35.9501C39.7 36.9501 40.2 36.9501 40.8 36.2501C41.8 35.1501 42.7 33.9501 43.7 32.9501C45 31.5501 46.5 30.4501 48.3 29.7501C49.2 29.4501 50.1 29.3501 51.1 29.4501C52.5 29.6501 53.4 30.4501 54 31.7501C54.7 33.2501 54.7 34.8501 54.7 36.4501C54.6 38.7501 54.2 40.9501 53.7 43.1501C52.3 49.7501 51 56.3501 49.6 62.8501C49.3 64.5501 49.2 66.1501 49.6 67.8501C49.8 68.7501 50.3 69.5501 51.2 69.8501C51.8 70.0501 52.5 69.9501 53.1 69.8501C56 69.2501 58.9 68.5501 61.8 67.9501C69.5 66.1501 77.3 64.2501 85 62.4501C93.2 60.4501 101.4 58.5501 109.6 56.5501C110.6 56.3501 111.4 55.6501 112.1 55.0501C114.1 53.2501 115.7 51.0501 117.1 48.6501C117.2 48.5501 117.3 48.3501 117.4 48.2501C117.7 47.8501 118 47.7501 118.4 47.9501C118.6 48.0501 118.9 48.1501 119.1 48.3501C119.7 48.7501 120 49.3501 119.7 50.1501C118.3 53.8501 116.5 57.2501 113.6 59.9501C112.1 61.3501 110.3 61.9501 108.4 62.4501C96.4 65.3501 84.3 68.2501 72.3 71.1501C64.3 73.0501 56.3 75.0501 48.2 76.9501C45.2 77.6501 42.7 75.9501 42.2 72.7501C41.9 71.0501 42 69.3501 42.2 67.5501C43.2 58.5501 45.1 49.7501 47 40.9501C47.3 39.7501 47.5 38.5501 47.3 37.3501C47.1 36.2501 46.5 35.8501 45.5 36.3501C44.4 36.8501 43.6 37.7501 42.9 38.6501C41.1 41.0501 40 43.8501 39.4 46.8501C37.9 54.1501 36.4 61.3501 34.9 68.5501C34.7 69.7501 34.4 70.8501 34.2 72.0501C33.9 73.5501 33.2 74.6501 31.8 75.2501C30.7 75.6501 29.6 76.0501 28.4 76.1501C28.1 76.1501 27.8 76.1501 27.6 76.1501C26.8 76.0501 26.4 75.4501 26.6 74.6501C26.9 72.9501 27.3 71.2501 27.7 69.4501C29.4 61.2501 31.2 53.0501 32.9 44.8501C33.1 43.6501 33.3 42.4501 33.1 41.2501C32.9 39.7501 32.1 39.2501 30.8 39.9501C29.7 40.4501 28.9 41.4501 28.2 42.4501C26.8 44.5501 25.9 46.8501 25.4 49.2501C24.8 51.5501 24.4 53.9501 23.9 56.3501C22.6 62.8501 21.2 69.3501 19.9 75.7501C19.6 77.2501 18.7 78.3501 17.2 78.7501C16 79.0501 14.9 79.3501 13.7 79.2501C12.9 79.1501 12.4 78.8501 12.4 78.1501C12.4 77.9501 12.4 77.6501 12.5 77.4501C14.2 69.5501 15.8 61.6501 17.5 53.7501C18.5 49.0501 19.6 44.3501 20.8 39.6501C21 38.9501 21.3 38.1501 21.5 37.4501C21.6 36.9501 22 36.6501 22.4 36.3501C23.2 35.8501 24.1 35.6501 25 35.5501C25.7 35.5501 26.4 35.5501 27.2 35.6501C28 35.7501 28.1 36.0501 27.9 36.8501C27.6 37.4501 27.5 38.0501 27.3 38.7501Z" fill="white"></path>
    <path d="M106.4 31.1498C106.9 29.0498 107.4 26.9498 107.9 24.9498C108.7 21.3498 109.6 17.8498 110.4 14.2498C110.6 13.4498 111 12.8498 111.7 12.6498C113.1 12.1498 114.5 11.8498 116 11.9498C116.9 12.0498 117.1 12.4498 116.9 13.2498C115 20.1498 113.3 27.1498 111.8 34.1498C111.2 37.1498 110.6 40.1498 110.3 43.2498C110.2 44.0498 110.2 44.7498 110.3 45.5498C110.3 46.0498 110.4 46.5498 110.9 46.7498C111.4 46.9498 111.7 46.5498 112 46.2498C112.5 45.7498 112.9 45.7498 113.4 46.1498C113.6 46.2498 113.7 46.4498 113.9 46.5498C114.3 46.9498 114.4 47.3498 114.1 47.8498C113.1 49.2498 112.1 50.4498 110.8 51.4498C110 52.0498 109.1 52.5498 108.1 52.6498C107.2 52.7498 106.4 52.5498 105.8 51.8498C105.4 52.2498 105 52.5498 104.6 52.9498C102.5 54.6498 100.2 55.6498 97.6 55.7498C95.6 55.7498 94.3 55.3498 93.1 52.5498C92.3 50.7498 92.2 48.8498 92.4 46.9498C92.7 42.5498 94 38.5498 96.4 34.8498C97.9 32.5498 99.8 30.8498 102.4 30.0498C103 29.8498 103.6 29.7498 104.2 29.7498C105.1 29.8498 105.9 30.1498 106.4 31.1498ZM105 38.0498C105 37.9498 105 37.9498 105 37.8498C105 37.0498 105 36.1498 104.6 35.3498C104.3 34.6498 103.7 34.3498 103 34.6498C102.6 34.7498 102.3 35.0498 102 35.3498C101.3 36.0498 100.8 36.8498 100.4 37.7498C99.1 40.7498 98.3 43.9498 98 47.2498C97.9 48.1498 97.9 49.1498 98.3 49.9498C98.6 50.5498 99.1 50.8498 99.7 50.7498C100.3 50.6498 100.9 50.3498 101.3 49.8498C101.8 49.1498 102.4 48.4498 102.8 47.6498C104.3 44.7498 104.7 41.4498 105 38.0498Z" fill="white"></path>
    <path d="M53.4 56.8501C53.5 51.8501 54.9 47.1501 57.9 43.1501C59.5 40.9501 61.6 39.4501 64.2 38.8501C65.3 38.6501 66.4 38.5501 67.5 38.7501C69.5 39.1501 70.7 40.5501 71.4 42.5501C71.9 44.1501 71.9 45.8501 71.8 47.5501C71.7 49.8501 71.3 52.1501 70.6 54.3501C69 58.9501 66.3 62.4501 61.8 64.0501C60.6 64.4501 59.4 64.6501 58.1 64.5501C56.2 64.4501 55 63.4501 54.3 61.6501C53.5 60.1501 53.4 58.5501 53.4 56.8501ZM66 46.7501C66 46.6501 66 46.5501 66 46.3501C66 45.5501 65.9 44.8501 65.6 44.0501C65.3 43.4501 64.8 43.1501 64.1 43.3501C63.7 43.4501 63.2 43.7501 63 44.0501C62.5 44.6501 62 45.3501 61.6 46.1501C60.2 49.1501 59.4 52.3501 59.1 55.6501C59 56.5501 59 57.5501 59.3 58.4501C59.6 59.4501 60.3 59.7501 61.2 59.4501C61.6 59.3501 61.9 59.1501 62.2 58.8501C63 58.1501 63.6 57.2501 64 56.2501C65.4 53.3501 65.8 50.0501 66 46.7501Z" fill="white"></path>
    <path d="M91.2 42.25C91 46.85 90.2 51.15 87.5 54.85C85.1 58.25 81.9 60.35 77.8 60.35C75.4 60.35 73.9 59.15 73.2 56.75C72.7 55.15 72.7 53.45 72.7 51.75C72.9 47.65 74.1 43.75 76.2 40.35C77.6 38.05 79.3 36.25 81.7 35.15C83.1 34.55 84.5 34.25 86 34.35C88.3 34.45 89.9 35.95 90.6 38.45C91.1 39.75 91.2 40.95 91.2 42.25ZM85.4 42.55C85.3 42.05 85.3 41.45 85.2 40.85C84.9 39.25 83.8 38.75 82.5 39.85C82.4 39.95 82.3 39.95 82.3 40.05C81.9 40.65 81.4 41.25 81 41.95C79.4 45.15 78.6 48.65 78.3 52.25C78.2 53.15 78.3 53.95 78.7 54.75C79 55.45 79.5 55.65 80.2 55.55C80.8 55.45 81.3 55.15 81.7 54.75C82.5 53.95 83 53.05 83.4 52.05C84.7 49.05 85.1 45.95 85.4 42.55Z" fill="white"></path>
    <path d="M105 38.0497C104.8 41.4497 104.4 44.7497 102.9 47.8497C102.5 48.6497 102 49.3497 101.4 50.0497C101 50.5497 100.5 50.8497 99.8 50.9497C99.1 51.0497 98.7 50.7497 98.4 50.1497C98 49.2497 98 48.3497 98.1 47.4497C98.4 44.1497 99.2 40.9497 100.5 37.9497C100.9 37.0497 101.4 36.1497 102.1 35.5497C102.4 35.2497 102.8 35.0497 103.1 34.8497C103.8 34.5497 104.4 34.8497 104.7 35.5497C105.1 36.3497 105.1 37.1497 105.1 38.0497C105 37.9497 105 38.0497 105 38.0497Z" fill="black"></path>
    <path d="M66 46.75C65.8 50.05 65.4 53.35 64 56.35C63.6 57.35 63 58.25 62.2 58.95C61.9 59.25 61.5 59.45 61.2 59.55C60.3 59.85 59.6 59.55 59.3 58.55C59 57.65 59 56.65 59.1 55.75C59.4 52.45 60.2 49.25 61.6 46.25C62 45.45 62.5 44.85 63 44.15C63.3 43.85 63.7 43.55 64.1 43.45C64.8 43.25 65.3 43.45 65.6 44.15C65.9 44.85 66 45.65 66 46.45C66 46.55 66 46.65 66 46.75Z" fill="black"></path>
    <path d="M85.4 42.55C85.1 45.85 84.7 49.05 83.5 51.95C83.1 52.95 82.6 53.85 81.8 54.65C81.4 55.05 80.9 55.35 80.3 55.45C79.6 55.55 79.1 55.35 78.8 54.65C78.4 53.85 78.4 52.95 78.4 52.15C78.7 48.55 79.5 45.05 81.1 41.85C81.4 41.15 81.9 40.55 82.4 39.95C82.5 39.85 82.6 39.75 82.6 39.75C83.9 38.65 85 39.15 85.3 40.75C85.3 41.45 85.3 42.05 85.4 42.55Z" fill="black"></path>
  </g>
  <defs>
    <clipPath id="clip0_427_390">
      <rect width="134.6" height="93.5" fill="white" transform="translate(0.200012 0.75)"></rect>
    </clipPath>
  </defs>
</svg>
