<?xml version="1.0" standalone="no"?>
<!DOCTYPE svg PUBLIC "-//W3C//DTD SVG 1.1//EN" "http://www.w3.org/Graphics/SVG/1.1/DTD/svg11.dtd" >
<svg xmlns="http://www.w3.org/2000/svg" xmlns:xlink="http://www.w3.org/1999/xlink" version="1.1">
<metadata>
Created by FontForge 20201107 at Tue Feb 16 02:57:21 2021
 By 
Copyright 2018 The Niramit Project Authors (https://github.com/cadsondemak/Niramit)
</metadata>
<defs>
<font id="Niramit-SemiBold" horiz-adv-x="0" >
  <font-face 
    font-family="Niramit SemiBold"
    font-weight="600"
    font-stretch="normal"
    units-per-em="1000"
    panose-1="0 0 7 0 0 0 0 0 0 0"
    ascent="800"
    descent="-200"
    x-height="485"
    cap-height="700"
    bbox="-676 -501 1155 1232"
    underline-thickness="50"
    underline-position="-150"
    unicode-range="U+000D-FB02"
  />
<missing-glyph horiz-adv-x="364" 
d="M33 0v666h265v-666h-265zM66 33h199v600h-199v-600z" />
    <glyph glyph-name="fi" unicode="fi" horiz-adv-x="560" 
d="M484 0h-116v391h-136v-391h-116v391h-88l25 94h63v75q0 50 23.5 90t68 63t104.5 23q33 0 72.5 -8.5t63.5 -18.5l-19 -89q-20 9 -49.5 15t-57.5 6q-49 0 -69.5 -20t-20.5 -61v-75h252v-485z" />
    <glyph glyph-name="fl" unicode="fl" horiz-adv-x="534" 
d="M484 734v-734h-116v391h-136v-391h-116v391h-88l25 94h63v75q0 50 23.5 90t68 63t104.5 23q22 0 56 -8v6h116zM368 485v150q-22 6 -46 6q-49 0 -69.5 -20t-20.5 -61v-75h136z" />
    <glyph glyph-name="uni0E240E45" unicode="&#xe24;&#xe45;" horiz-adv-x="996" 
d="M465 395q0 28 7 43q-25 35 -61 53.5t-89 18.5q-64 0 -107.5 -24t-68.5 -67l43 -27q27 32 70 45l38 -70q-33 -15 -48.5 -40t-15.5 -63v-77q15 5 29 5q39 0 63 -26.5t24 -71.5t-31.5 -74.5t-83.5 -29.5t-84.5 31t-32.5 82v140q0 49 23 78l-108 70q12 56 53.5 104.5t103 78
t132.5 29.5q68 0 116.5 -20.5t84.5 -60.5q36 39 82 60t97 21q117 0 187 -87q8 7 19 7q13 0 25 -12q22 -22 22 -45q0 -16 -14 -28q-8 -9 -11.5 -15.5t-3.5 -18.5v-763h-116v764q0 25 7 44q-22 32 -48.5 46.5t-65.5 14.5q-56 0 -88.5 -34t-32.5 -85v-750h-116v754zM263.5 65.5
q11.5 11.5 11.5 28.5q0 18 -11.5 29.5t-29.5 11.5t-30 -11.5t-12 -29.5q0 -17 12.5 -28.5t29.5 -11.5q18 0 29.5 11.5z" />
    <glyph glyph-name="uni0E260E45" unicode="&#xe26;&#xe45;" horiz-adv-x="996" 
d="M465 395q0 28 7 43q-51 72 -142 72q-64 0 -108 -24t-68 -67l47 -28q12 15 31 27t39 18l38 -70q-33 -15 -48 -40t-15 -64v-117q12 -21 12 -51q0 -46 -31.5 -75t-83.5 -29t-83.5 30t-31.5 74q0 42 24.5 71.5t64.5 29.5q9 0 15 -2v48q0 55 20 80l-112 70q13 56 54 105
t102.5 78t132.5 29t116.5 -20.5t80.5 -61.5q74 82 175 82q62 0 107 -23t80 -65q10 8 19 8q11 0 25 -12q22 -21 22 -45q0 -17 -13 -28q-8 -9 -11.5 -15.5t-3.5 -18.5v-763h-116v764q0 28 6 44q-22 32 -48.5 46.5t-65.5 14.5q-56 0 -88.5 -34t-32.5 -85v-750h-116v754z
M172.5 65.5q12.5 11.5 12.5 28.5q0 18 -12 29.5t-30 11.5t-29.5 -11.5t-11.5 -29.5q0 -17 11.5 -28.5t29.5 -11.5q17 0 29.5 11.5z" />
    <glyph glyph-name=".notdef" horiz-adv-x="364" 
d="M33 0v666h265v-666h-265zM66 33h199v600h-199v-600z" />
    <glyph glyph-name=".null" 
 />
    <glyph glyph-name="nonmarkingreturn" unicode="&#xd;" horiz-adv-x="258" 
 />
    <glyph glyph-name="NULL" 
 />
    <glyph glyph-name="NULL" 
 />
    <glyph glyph-name="space" unicode=" " horiz-adv-x="258" 
 />
    <glyph glyph-name="exclam" unicode="!" horiz-adv-x="254" 
d="M66 700h119l-8 -494h-100zM71.5 20.5q-21.5 20.5 -21.5 53.5t21.5 53.5t55.5 20.5t55.5 -20.5t21.5 -53.5t-21.5 -53.5t-55.5 -20.5t-55.5 20.5z" />
    <glyph glyph-name="quotedbl" unicode="&#x22;" horiz-adv-x="352" 
d="M38 693h117l-8 -190h-99zM198 693h116l-8 -190h-99z" />
    <glyph glyph-name="numbersign" unicode="#" horiz-adv-x="710" 
d="M562 417l-17 -147h100v-94h-111l-20 -176h-115l20 176h-152l-20 -176h-115l20 176h-114v94h125l17 147h-117v94h128l20 179h115l-20 -179h152l20 179h115l-20 -179h98v-94h-109zM447 417h-152l-17 -147h152z" />
    <glyph glyph-name="dollar" unicode="$" horiz-adv-x="596" 
d="M497 41.5q-61 -47.5 -168 -51.5v-88h-50v89q-74 6 -136 35.5t-105 78.5l71 71q38 -41 79 -61.5t91 -25.5v212l-3 1q-116 42 -167.5 93.5t-51.5 128.5q0 83 60 132t162 54v89h50v-90q60 -4 114 -26t95 -57l-62 -79q-36 31 -70 46t-77 19v-214l11 -4q83 -32 129.5 -61.5
t67.5 -67t21 -93.5q0 -83 -61 -130.5zM199.5 467q22.5 -23 79.5 -48v193q-102 -6 -102 -87q0 -35 22.5 -58zM410 112q28 22 28 60q0 25 -8.5 42t-32 33t-68.5 35v-195q53 3 81 25z" />
    <glyph glyph-name="percent" unicode="%" horiz-adv-x="791" 
d="M82 411.5q-44 45.5 -44 126.5t44.5 126.5t118.5 45.5q75 0 119 -45.5t44 -126.5q0 -82 -44 -127t-119 -45t-119 45.5zM508 710h120l-345 -720h-120zM238 479q13 21 13 59q0 37 -13 58t-37 21t-37 -21.5t-13 -57.5q0 -38 13 -59t37 -21t37 21zM470 35.5
q-44 45.5 -44 126.5t44.5 126.5t118.5 45.5q75 0 119 -45.5t44 -126.5q0 -82 -44 -127t-119 -45t-119 45.5zM626 103q13 21 13 59q0 37 -13 58t-37 21t-37 -21.5t-13 -57.5q0 -38 13 -59t37 -21t37 21z" />
    <glyph glyph-name="ampersand" unicode="&#x26;" horiz-adv-x="740" 
d="M155 16.5q-56 26.5 -86.5 73.5t-30.5 107q0 63 39 118t112 99q-36 40 -53.5 72.5t-17.5 74.5q0 66 46.5 107.5t123.5 41.5q76 0 122.5 -42t46.5 -108q0 -50 -24 -85t-82 -78l136 -149q10 44 9 97h116q1 -11 1 -31q0 -92 -43 -164l131 -150h-137l-64 73q-80 -83 -214 -83
q-75 0 -131 26.5zM327.5 509.5q14.5 20.5 14.5 49.5q0 25 -15 41.5t-39 16.5t-39 -16.5t-15 -41.5t11 -45t38 -46q30 21 44.5 41.5zM372 102.5q38 15.5 62 44.5l-175 191q-52 -32 -76.5 -64.5t-24.5 -75.5q0 -50 35.5 -80.5t95.5 -30.5q45 0 83 15.5z" />
    <glyph glyph-name="quotesingle" unicode="'" horiz-adv-x="196" 
d="M38 693h120l-8 -190h-102z" />
    <glyph glyph-name="parenleft" unicode="(" horiz-adv-x="333" 
d="M70.5 80.5q-32.5 101.5 -32.5 224.5t32.5 224.5t105.5 200.5h118q-74 -102 -105 -202t-31 -223q0 -124 31.5 -223t105.5 -200h-119q-73 97 -105.5 198.5z" />
    <glyph glyph-name="parenright" unicode=")" horiz-adv-x="333" 
d="M143.5 82q31.5 99 31.5 223q0 123 -31 223t-105 202h118q73 -99 105.5 -200.5t32.5 -224.5t-32.5 -224.5t-105.5 -198.5h-119q74 101 105.5 200z" />
    <glyph glyph-name="asterisk" unicode="*" horiz-adv-x="436" 
d="M176.5 354.5q-16.5 13.5 -16.5 34.5q0 7 1 11l10 57l-43 -34q-16 -13 -35 -13q-15 0 -27.5 7.5t-20.5 21.5q-7 13 -7 26q0 15 9.5 27t26.5 18l69 27l-69 27q-17 6 -26 18t-9 27q0 26 16 40.5t38 14.5t36 -13l42 -34l-10 57q-1 4 -1 11q0 21 16.5 34.5t40.5 13.5
q25 0 41.5 -13.5t16.5 -34.5q0 -7 -1 -11l-9 -57l42 34q14 13 35 13q15 0 27.5 -7t19.5 -20q8 -16 8 -28q0 -15 -9 -27t-26 -18l-69 -27l69 -27q17 -6 26.5 -18t9.5 -26t-7 -27q-8 -14 -20.5 -21.5t-27.5 -7.5q-19 0 -35 13l-43 34l9 -57q1 -4 1 -11q0 -21 -16.5 -34.5
t-41.5 -13.5q-24 0 -40.5 13.5z" />
    <glyph glyph-name="plus" unicode="+" horiz-adv-x="548" 
d="M511 238h-178v-182h-118v182h-178v94h178v182h118v-182h178v-94z" />
    <glyph glyph-name="comma" unicode="," horiz-adv-x="239" 
d="M38 -60q24 11 43.5 28.5t26.5 35.5q-26 0 -44 18t-18 43q0 33 21 52.5t55 19.5q37 0 58 -22t21 -59q0 -54 -34 -99t-98 -74z" />
    <glyph glyph-name="hyphen" unicode="-" horiz-adv-x="513" 
d="M38 332h436v-94h-436v94z" />
    <glyph glyph-name="period" unicode="." horiz-adv-x="217" 
d="M58 19.5q-20 19.5 -20 48.5t20 48.5t51 19.5q30 0 50 -19.5t20 -48.5t-20 -48.5t-50 -19.5q-31 0 -51 19.5z" />
    <glyph glyph-name="slash" unicode="/" horiz-adv-x="467" 
d="M310 710h118l-271 -712h-119z" />
    <glyph glyph-name="zero" unicode="0" horiz-adv-x="645" 
d="M169.5 33q-63.5 43 -97.5 124.5t-34 194.5q0 112 34 192.5t98 123t152 42.5q134 0 209 -94.5t75 -263.5q0 -171 -75 -266.5t-209 -95.5q-89 0 -152.5 43zM443 155q43 68 43 197q0 127 -43 194t-121 67t-121 -67t-43 -194q0 -128 43.5 -196.5t120.5 -68.5q78 0 121 68z
" />
    <glyph glyph-name="one" unicode="1" horiz-adv-x="370" 
d="M188 521l-92 -77l-68 77l203 169q25 20 47 20q20 0 38 -19q19 -20 19 -38q0 -17 -19 -33l-10 -9v-611h-118v521z" />
    <glyph glyph-name="two" unicode="2" horiz-adv-x="631" 
d="M50 8q-12 8 -12 31l1 13q3 30 13.5 39t33.5 9q25 49 68 86.5t116 87.5q59 41 91.5 68t55 61.5t22.5 76.5q0 133 -123 133q-73 0 -109.5 -39.5t-43.5 -128.5l-112 11q4 118 75.5 186t189.5 68q115 0 179 -62t64 -168q0 -57 -27 -102.5t-66 -79.5t-101 -77
q-54 -39 -84.5 -64.5t-49.5 -54.5h231l27 62l104 -35l-57 -129h-442q-32 0 -44 8z" />
    <glyph glyph-name="three" unicode="3" horiz-adv-x="659" 
d="M147.5 42q-76.5 52 -109.5 154l109 36q37 -145 190 -145q83 0 123.5 37t40.5 103q0 62 -30 94t-84 32q-24 0 -48 -7l-15 -20q-15 -20 -32 -20q-19 0 -46 20q-18 12 -18 28q0 14 13 34l142 218h-180l-30 -89l-92 59l43 124h410q26 0 38 -6t12 -23q0 -9 -5 -26
q-8 -24 -19.5 -31.5t-35.5 -7.5h-21l-111 -170q24 8 50 8q50 0 90.5 -25t64.5 -74t24 -118q0 -71 -33.5 -124.5t-97.5 -83t-153 -29.5q-113 0 -189.5 52z" />
    <glyph glyph-name="four" unicode="4" horiz-adv-x="628" 
d="M385 145h-304q-24 0 -38.5 12.5t-14.5 31.5q0 20 14 35l379 461q21 24 44 24q18 0 35 -13q26 -21 26 -40q0 -12 -10 -25l-13 -18v-374h90v-94h-90v-145h-118v145zM391 239v257l-211 -257h211z" />
    <glyph glyph-name="five" unicode="5" horiz-adv-x="632" 
d="M157.5 21q-70.5 31 -119.5 90l73 71q48 -52 93.5 -73.5t108.5 -21.5q74 0 117 40.5t43 122.5q0 80 -40.5 119t-108.5 39q-57 0 -97.5 -25.5t-72.5 -79.5l-88 31l38 279q-19 6 -19 27q0 12 2 19q4 25 13.5 33t32.5 8h415v-98h-342l-20 -148q62 51 149 51q118 0 188 -66
t70 -189q0 -83 -35.5 -141.5t-98.5 -88.5t-145 -30q-86 0 -156.5 31z" />
    <glyph glyph-name="six" unicode="6" horiz-adv-x="632" 
d="M113.5 78q-75.5 88 -75.5 256q0 120 36 204.5t102 128t157 43.5q100 0 158.5 -44.5t76.5 -124.5l-98 -33q-16 53 -47.5 79t-91.5 26q-56 0 -98 -30.5t-65.5 -87.5t-23.5 -133h4q32 50 83.5 77.5t116.5 27.5q75 0 130 -29t85 -82t30 -124q0 -72 -31.5 -126.5t-91 -85
t-141.5 -30.5q-140 0 -215.5 88zM435 125.5q38 38.5 38 106.5q0 65 -37.5 101.5t-104.5 36.5q-69 0 -109.5 -38t-40.5 -104q0 -65 40 -103t108 -38t106 38.5z" />
    <glyph glyph-name="seven" unicode="7" horiz-adv-x="607" 
d="M212.5 206q23.5 90 73 169.5t132.5 172.5q16 18 16 54h-287l9 -50l-105 -44l-22 124q-1 4 -1 12q0 25 15.5 40.5t42.5 15.5h449q26 0 35 -8.5t9 -36.5q0 -29 -9 -39.5t-26 -10.5q-2 -34 -8.5 -54.5t-28.5 -46.5q-83 -97 -125 -166t-58.5 -145.5t-14.5 -192.5h-118
q-2 116 21.5 206z" />
    <glyph glyph-name="eight" unicode="8" horiz-adv-x="631" 
d="M111 44q-73 54 -73 153q0 57 35 101t93 66q-44 20 -71.5 60t-27.5 86q0 92 66.5 146t181.5 54t181.5 -54t66.5 -146q0 -46 -27.5 -86t-71.5 -60q58 -22 93 -65.5t35 -101.5q0 -99 -72.5 -153t-204.5 -54q-131 0 -204 54zM408 432q35 28 35 78t-34.5 76.5t-93.5 26.5
t-93.5 -26.5t-34.5 -76.5t35 -78t93 -28t93 28zM431.5 116q40.5 29 40.5 81q0 56 -40.5 87t-116.5 31q-75 0 -116 -31t-41 -87q0 -52 41 -81t116 -29q76 0 116.5 29z" />
    <glyph glyph-name="nine" unicode="9" horiz-adv-x="632" 
d="M147.5 34.5q-62.5 44.5 -79.5 121.5l97 34q16 -51 52 -77t96 -26q83 0 129 67t46 184h-4q-68 -105 -191 -105q-77 0 -134.5 29t-89 82t-31.5 124q0 72 32 126.5t92 85t142 30.5q140 0 214.5 -88.5t74.5 -257.5q0 -182 -73 -278t-209 -96q-101 0 -163.5 44.5zM410.5 367.5
q39.5 37.5 39.5 104.5q0 65 -39 103t-107 38t-107 -38.5t-39 -106.5q0 -65 38.5 -101.5t105.5 -36.5q69 0 108.5 37.5z" />
    <glyph glyph-name="colon" unicode=":" horiz-adv-x="226" 
d="M59.5 391q-21.5 21 -21.5 51q0 31 21.5 52.5t53.5 21.5t53 -21.5t21 -52.5q0 -30 -21.5 -51t-52.5 -21q-32 0 -53.5 21zM60 24q-21 21 -21 51q0 31 21 52.5t53 21.5t53.5 -21.5t21.5 -52.5q0 -30 -22 -51t-53 -21q-32 0 -53 21z" />
    <glyph glyph-name="semicolon" unicode=";" horiz-adv-x="235" 
d="M68 390q-21 21 -21 51q0 31 21 52.5t53 21.5t53.5 -21.5t21.5 -52.5q0 -29 -22 -50.5t-53 -21.5q-32 0 -53 21zM38 -60q25 11 44 28.5t26 35.5q-26 0 -44 18t-18 43q0 33 21 52.5t55 19.5q37 0 56 -22t19 -60q0 -54 -32.5 -99t-95.5 -74z" />
    <glyph glyph-name="less" unicode="&#x3c;" horiz-adv-x="615" 
d="M76 217q-20 9 -29 19.5t-9 29.5q0 25 11.5 40t32.5 15q8 0 12 -1l11 -2l472 203v-111l-368 -149l368 -149v-111z" />
    <glyph glyph-name="equal" unicode="=" horiz-adv-x="548" 
d="M65 422h418v-94h-418v94zM65 242h418v-94h-418v94z" />
    <glyph glyph-name="greater" unicode="&#x3e;" horiz-adv-x="615" 
d="M38 112l368 149l-368 149v111l472 -203l11 2q4 1 12 1q21 0 32.5 -15t11.5 -40q0 -19 -9 -29.5t-29 -19.5l-501 -216v111z" />
    <glyph glyph-name="question" unicode="?" horiz-adv-x="526" 
d="M200 244q0 36 13 64.5t31.5 49t49.5 48.5q38 34 56 58t18 56q0 45 -24 69t-72 24q-50 0 -83.5 -26.5t-53.5 -81.5l-97 45q26 76 89.5 118t147.5 42q99 0 156 -52.5t57 -137.5q0 -51 -23.5 -83.5t-68.5 -70.5q-40 -35 -59 -60t-19 -62v-38h-118v38zM204.5 20.5
q-21.5 20.5 -21.5 53.5t21.5 53.5t55.5 20.5t55.5 -20.5t21.5 -53.5t-21.5 -53.5t-55.5 -20.5t-55.5 20.5z" />
    <glyph glyph-name="at" unicode="@" horiz-adv-x="870" 
d="M218.5 10q-86.5 44 -133.5 127t-47 196q0 121 49 211.5t139 140t209 49.5q122 0 211.5 -41.5t137 -119.5t47.5 -183q0 -79 -26.5 -139t-74 -93t-107.5 -33q-34 0 -64 20t-44 54h-2q-20 -36 -54.5 -55.5t-76.5 -19.5q-73 0 -118 51.5t-45 139.5q0 83 27 143t73.5 91
t105.5 31q34 0 60 -14.5t42 -37.5l8 38h89l-51 -287q-1 -6 -1 -16q0 -23 11 -36t29 -13q46 0 72.5 47t26.5 129q0 125 -69.5 186t-206.5 61q-131 0 -204 -80t-73 -224q0 -129 69 -199.5t195 -70.5q112 0 196 38v-90q-78 -45 -196 -45q-117 0 -203.5 44zM452.5 244.5
q22.5 29.5 33.5 97.5q5 35 5 56q0 48 -16.5 73.5t-45.5 25.5q-45 0 -72 -48.5t-27 -131.5q0 -49 17.5 -75.5t48.5 -26.5q34 0 56.5 29.5z" />
    <glyph glyph-name="A" unicode="A" horiz-adv-x="697" 
d="M283 664q20 54 70 54q32 0 51 -14t19 -36q0 -6 -4 -18l241 -650h-124l-66 187h-244l-66 -187h-123zM444 281l-95 273l-95 -273h190z" />
    <glyph glyph-name="B" unicode="B" horiz-adv-x="612" 
d="M67 587q0 20 -5 30t-14 19q-7 8 -9 12t1 13q6 20 23 38.5t36 18.5q18 0 36 -18h200q101 0 159.5 -51t58.5 -137q0 -56 -24.5 -90t-73.5 -55v-3q118 -48 118 -155q0 -99 -62.5 -154t-172.5 -55h-271v587zM321 411q53 0 82.5 26t29.5 75q0 44 -27 69t-78 25h-145v-195h138z
M334 94q119 0 119 115q0 52 -32 80t-93 28h-145v-223h151z" />
    <glyph glyph-name="C" unicode="C" horiz-adv-x="643" 
d="M192 33.5q-75 43.5 -114.5 124.5t-39.5 193q0 111 38.5 192t112 124t175.5 43q68 0 125.5 -23.5t93.5 -65.5l-46 -81q-35 37 -74.5 55t-98.5 18q-98 0 -152 -69.5t-54 -192.5q0 -124 56.5 -194t159.5 -70q51 0 90 17t71 53l70 -66q-40 -47 -102.5 -74t-130.5 -27
q-105 0 -180 43.5z" />
    <glyph glyph-name="D" unicode="D" horiz-adv-x="653" 
d="M67 587q0 20 -5 30t-14 19.5t-9 16.5q0 5 1 8q7 21 23.5 39t35.5 18q18 0 36 -18h137q106 0 183 -42.5t118 -121t41 -184.5q0 -166 -87.5 -259t-249.5 -93h-210v587zM277 102q110 0 163.5 62.5t53.5 187.5q0 121 -57.5 183.5t-167.5 62.5h-84v-496h92z" />
    <glyph glyph-name="E" unicode="E" horiz-adv-x="543" 
d="M68 587q0 20 -5.5 30.5t-14.5 19.5q-6 7 -8.5 11.5t0.5 12.5q7 21 23.5 39t35.5 18q18 0 36 -18h361v-102h-310v-182h226v-98h-226v-216h319v-102h-437v587z" />
    <glyph glyph-name="F" unicode="F" horiz-adv-x="534" 
d="M68 587q0 20 -5.5 30.5t-14.5 19.5q-6 7 -8.5 11.5t0.5 12.5q7 21 23.5 39t35.5 18q18 0 36 -18h361v-102h-310v-195h226v-97h-226v-306h-118v587z" />
    <glyph glyph-name="G" unicode="G" horiz-adv-x="666" 
d="M188.5 33.5q-73.5 43.5 -112 125t-38.5 192.5t38.5 192t112 124t175.5 43q70 0 127 -23.5t93 -65.5l-46 -81q-35 38 -74 55.5t-100 17.5q-98 0 -152 -69.5t-54 -192.5q0 -124 54.5 -194t152.5 -70q40 0 66 6t51 21v174h-157v98h208q15 17 35 17q19 0 36 -18.5t23 -38.5
q3 -9 1 -13t-9 -11q-9 -9 -14 -19t-5 -30v-210q-63 -40 -116 -56.5t-121 -16.5q-101 0 -174.5 43.5z" />
    <glyph glyph-name="H" unicode="H" horiz-adv-x="625" 
d="M50 700h118v-282h289v282h118v-700h-118v318h-289v-318h-118v700z" />
    <glyph glyph-name="I" unicode="I" horiz-adv-x="298" 
d="M90 700h118v-700h-118v700z" />
    <glyph glyph-name="J" unicode="J" horiz-adv-x="444" 
d="M104.5 3.5q-43.5 13.5 -76.5 38.5l47 82q55 -35 115 -35q46 0 68 23.5t22 72.5v515h118v-512q0 -91 -55 -144.5t-151 -53.5q-44 0 -87.5 13.5z" />
    <glyph glyph-name="K" unicode="K" horiz-adv-x="614" 
d="M50 700h118v-259l233 259h144l-304 -334l335 -366h-146l-262 290v-290h-118v700z" />
    <glyph glyph-name="L" unicode="L" horiz-adv-x="521" 
d="M61.5 5q-15.5 15 -21.5 35q-3 9 -1 13t9 12q9 9 14 19t5 30v586h118v-598h301v-102h-353q-14 -10 -37 -10q-19 0 -34.5 15z" />
    <glyph glyph-name="M" unicode="M" horiz-adv-x="790" 
d="M362.5 -1q-14.5 9 -19.5 25l-143 443l-43 -468h-119l69 638l-5 9q-5 10 -5 21q0 20 15.5 35.5t45.5 15.5q36 0 52.5 -14t26.5 -45l158 -487l158 487q11 32 27.5 45.5t52.5 13.5q30 0 45.5 -15t15.5 -35q0 -13 -6 -22l-4 -8l68 -639h-119l-43 469l-131 -408l3 -10
q2 -10 2 -14q0 -21 -19 -33.5t-47 -12.5q-21 0 -35.5 9z" />
    <glyph glyph-name="N" unicode="N" horiz-adv-x="623" 
d="M61 604q0 11 -3.5 18t-9.5 14q-10 12 -10 21q0 2 2 12q7 23 25 36t41 13q35 0 52 -27l297 -478v487h118v-700h-100l-294 470v-470h-118v604z" />
    <glyph glyph-name="O" unicode="O" horiz-adv-x="683" 
d="M177.5 34.5q-68.5 44.5 -104 125.5t-35.5 190t35.5 190t104 125.5t163.5 44.5q96 0 164 -44.5t103.5 -125.5t35.5 -190t-35.5 -190t-103.5 -125.5t-164 -44.5q-95 0 -163.5 44.5zM478 157q46 70 46 193t-46 193t-137 70q-90 0 -136.5 -70t-46.5 -193t46.5 -193t136.5 -70
q91 0 137 70z" />
    <glyph glyph-name="P" unicode="P" horiz-adv-x="603" 
d="M64 601q0 13 -3.5 19.5t-10.5 13.5t-10 13.5t-1 17.5q5 22 22 37.5t39 15.5q24 0 44 -18h138q136 0 209.5 -60.5t73.5 -172.5t-72.5 -173t-204.5 -61h-106v-233h-118v601zM285 335q78 0 119 33t41 99q0 65 -41 98t-120 33h-102v-263h103z" />
    <glyph glyph-name="Q" unicode="Q" horiz-adv-x="683" 
d="M591.5 126q-52.5 -91 -150.5 -122l133 -166h-142l-113 153q-89 5 -152 50.5t-96 124.5t-33 184q0 109 35.5 190t104 125.5t163.5 44.5q96 0 164 -44.5t103.5 -125.5t35.5 -190q0 -133 -52.5 -224zM204.5 157q46.5 -70 136.5 -70q91 0 137 70t46 193t-46 193t-137 70
q-90 0 -136.5 -70t-46.5 -193t46.5 -193z" />
    <glyph glyph-name="R" unicode="R" horiz-adv-x="603" 
d="M64 601q0 12 -4 19t-11 14q-6 6 -8.5 10.5t-2.5 11.5q0 6 1 9q6 22 22.5 37.5t38.5 15.5q24 0 44 -18h138q138 0 210 -54.5t72 -164.5q0 -91 -51 -144t-143 -64l179 -273h-134l-174 264h-59v-264h-118v601zM285 365q81 0 120 26.5t39 89.5t-39.5 90t-119.5 27h-103v-233
h103z" />
    <glyph glyph-name="S" unicode="S" horiz-adv-x="596" 
d="M157.5 20.5q-71.5 30.5 -119.5 84.5l71 71q44 -48 94 -68.5t113 -20.5q59 0 90.5 22.5t31.5 62.5q0 29 -12.5 48t-46.5 38t-103 44q-116 42 -167.5 93.5t-51.5 128.5q0 88 66 137t176 49q68 0 130.5 -22.5t108.5 -61.5l-62 -79q-43 36 -82 51t-95 15q-59 0 -90.5 -22
t-31.5 -66q0 -29 15 -49.5t49 -38.5t99 -43q83 -32 129.5 -61.5t67.5 -67t21 -93.5q0 -86 -65 -134t-179 -48q-85 0 -156.5 30.5z" />
    <glyph glyph-name="T" unicode="T" horiz-adv-x="588" 
d="M235 598h-200v102h518v-102h-200v-598h-118v598z" />
    <glyph glyph-name="U" unicode="U" horiz-adv-x="640" 
d="M118 60q-73 70 -73 196v444h118v-450q0 -78 41.5 -120.5t115.5 -42.5t115.5 42.5t41.5 120.5v450h118v-444q0 -126 -73 -196t-202 -70t-202 70z" />
    <glyph glyph-name="V" unicode="V" horiz-adv-x="682" 
d="M270 37q0 12 7 25l-239 638h122l182 -515l181 515h121l-246 -664q-8 -22 -25 -34t-38 -12q-18 0 -33 7q-32 15 -32 40z" />
    <glyph glyph-name="W" unicode="W" horiz-adv-x="839" 
d="M147 40q0 9 3 18l3 10l-115 632h119l77 -484l133 459q4 17 18 26t34 9q33 0 51.5 -11.5t18.5 -30.5q0 -4 -2 -12l-3 -10l122 -429l76 483h119l-117 -632l4 -10q3 -9 3 -18q0 -33 -40 -44q-15 -5 -33 -5q-23 0 -38 14t-23 44l-137 477l-139 -477q-8 -30 -23 -44t-38 -14
q-18 0 -33 5q-40 11 -40 44z" />
    <glyph glyph-name="X" unicode="X" horiz-adv-x="690" 
d="M279 375l-219 325h132l153 -234l154 234h132l-220 -325l241 -375h-132l-175 285l-175 -285h-132z" />
    <glyph glyph-name="Y" unicode="Y" horiz-adv-x="653" 
d="M270 269l-232 431h128l161 -323l160 323h128l-231 -431v-269h-114v269z" />
    <glyph glyph-name="Z" unicode="Z" horiz-adv-x="628" 
d="M98 -11q-20 0 -51 34q-9 11 -9 19t7.5 18.5t9.5 13.5l365 524h-357v102h428l7 8q11 11 30 11q20 0 36 -13q25 -19 25 -41q0 -16 -16 -40l-366 -523h383v-102h-465l-12 -7q-5 -4 -15 -4z" />
    <glyph glyph-name="bracketleft" unicode="[" horiz-adv-x="265" 
d="M47 746h203v-94h-85v-692h85v-94h-203v880z" />
    <glyph glyph-name="backslash" unicode="\" horiz-adv-x="470" 
d="M38 710h119l275 -722h-119z" />
    <glyph glyph-name="bracketright" unicode="]" horiz-adv-x="265" 
d="M15 -40h85v692h-85v94h203v-880h-203v94z" />
    <glyph glyph-name="asciicircum" unicode="^" horiz-adv-x="477" 
d="M188 697q8 15 20.5 22t33.5 7q24 0 39.5 -11.5t15.5 -29.5q0 -10 -4 -18l-2 -5l148 -229h-122l-83 158l-74 -158h-122z" />
    <glyph glyph-name="underscore" unicode="_" horiz-adv-x="583" 
d="M38 -48h506v-94h-506v94z" />
    <glyph glyph-name="grave" unicode="`" horiz-adv-x="293" 
d="M39 726h131l84 -186h-95z" />
    <glyph glyph-name="a" unicode="a" horiz-adv-x="579" 
d="M140.5 20q-48.5 30 -75.5 85.5t-27 129.5q0 79 27.5 137.5t78.5 90.5t120 32q86 0 141 -67v57h112v-353q0 -36 5.5 -59.5t18.5 -45.5l-94 -37q-28 31 -32 78h-3q-28 -37 -68.5 -57.5t-90.5 -20.5q-64 0 -112.5 30zM370 123q33 40 33 106v26q0 60 -32.5 103.5t-92.5 43.5
q-59 0 -91 -44t-32 -123q0 -72 31 -112t89 -40q62 0 95 40z" />
    <glyph glyph-name="b" unicode="b" horiz-adv-x="583" 
d="M38 27q13 22 19 45.5t6 60.5v601h116v-304q27 29 66 47t84 18q101 0 158.5 -67t57.5 -185q0 -73 -28.5 -131t-79 -90t-113.5 -32q-100 0 -158 79q-3 -48 -33 -80zM397.5 126.5q31.5 43.5 31.5 116.5q0 77 -31 118t-94 41q-60 0 -93.5 -43.5t-33.5 -103.5v-26
q0 -64 34 -105t96 -41q59 0 90.5 43.5z" />
    <glyph glyph-name="c" unicode="c" horiz-adv-x="528" 
d="M108 57q-70 67 -70 185t68.5 185.5t188.5 67.5q54 0 101.5 -17.5t77.5 -46.5l-41 -78q-26 22 -60 34.5t-73 12.5q-67 0 -105.5 -39.5t-38.5 -118.5q0 -77 39 -117t109 -40q75 0 123 48l62 -64q-32 -36 -82.5 -57.5t-106.5 -21.5q-122 0 -192 67z" />
    <glyph glyph-name="d" unicode="d" horiz-adv-x="583" 
d="M418 69q-60 -79 -158 -79q-65 0 -115.5 29.5t-78.5 85t-28 130.5q0 79 28 138t79.5 90.5t120.5 31.5q83 0 139 -65v304h116v-601q0 -37 5.5 -61t18.5 -45l-95 -38q-29 32 -32 80zM372.5 124q33.5 41 33.5 105v26q0 61 -32.5 104t-92.5 43q-63 0 -94.5 -44.5t-31.5 -122.5
q0 -72 30.5 -112t91.5 -40q62 0 95.5 41z" />
    <glyph glyph-name="e" unicode="e" horiz-adv-x="554" 
d="M156 20.5q-57 30.5 -87.5 87t-30.5 131.5q0 73 26.5 131t80.5 91.5t131 33.5t131.5 -33.5t81.5 -88t27 -117.5q0 -30 -19.5 -46t-53.5 -16h-289q0 -49 37.5 -79t99.5 -30q85 0 138 51l58 -63q-32 -39 -82.5 -61t-113.5 -22q-78 0 -135 30.5zM401 286q0 50 -34.5 83
t-90.5 33q-54 0 -88 -33.5t-34 -82.5h247z" />
    <glyph glyph-name="f" unicode="f" horiz-adv-x="418" 
d="M116 391h-88l25 94h63v90q0 72 47 116.5t126 44.5q24 0 52.5 -7t47.5 -17l-21 -86q-13 6 -32.5 10.5t-35.5 4.5q-33 0 -50.5 -17t-17.5 -51v-88h143l-24 -94h-119v-391h-116v391z" />
    <glyph glyph-name="g" unicode="g" horiz-adv-x="583" 
d="M92 -177l35 85q59 -31 133 -31q78 0 111 39t33 114v35q-26 -31 -62 -48t-81 -17q-103 0 -163 66t-60 184q0 115 59 180.5t158 65.5q97 0 162 -78q3 47 32 79l95 -37q-13 -22 -18.5 -45.5t-5.5 -60.5v-317q0 -125 -67.5 -190t-192.5 -65q-86 0 -168 41zM372 136
q33 43 33 104v18q0 64 -33.5 104.5t-95.5 40.5q-60 0 -90.5 -40.5t-30.5 -112.5q0 -157 124 -157q60 0 93 43z" />
    <glyph glyph-name="h" unicode="h" horiz-adv-x="549" 
d="M374 120v171q0 109 -92 109q-53 0 -86 -41.5t-33 -103.5v-255h-116v734h116v-307q27 32 65.5 50t82.5 18q179 0 179 -204v-169q0 -53 21 -93l-105 -39q-32 54 -32 130z" />
    <glyph glyph-name="i" unicode="i" horiz-adv-x="268" 
d="M76 578.5q-23 21.5 -23 54.5q0 34 23 55.5t58 21.5t58 -21.5t23 -55.5q0 -33 -23 -54.5t-58 -21.5t-58 21.5zM76 485h116v-485h-116v485z" />
    <glyph glyph-name="j" unicode="j" horiz-adv-x="441" 
d="M249.5 578.5q-22.5 21.5 -22.5 54.5q0 34 22.5 55.5t57.5 21.5t58 -21.5t23 -55.5q0 -33 -23 -54.5t-58 -21.5t-57.5 21.5zM96.5 -203.5q-43.5 14.5 -68.5 37.5l43 79q49 -36 104 -36q39 0 56.5 21.5t17.5 72.5v514h116v-507q0 -97 -46 -146.5t-136 -49.5
q-43 0 -86.5 14.5z" />
    <glyph glyph-name="k" unicode="k" horiz-adv-x="503" 
d="M50 734h116v-400l151 151h143l-234 -227l260 -258h-149l-171 174v-174h-116v734z" />
    <glyph glyph-name="l" unicode="l" horiz-adv-x="216" 
d="M50 734h116v-734h-116v734z" />
    <glyph glyph-name="m" unicode="m" horiz-adv-x="798" 
d="M623 120v173q0 55 -18 81t-58 26q-44 0 -66.5 -29t-22.5 -80v-291h-114v294q0 54 -18 80t-56 26q-47 0 -70.5 -34.5t-23.5 -97.5v-268h-116v354q0 33 -4.5 55t-17.5 46l99 40q9 -16 16.5 -37.5t8.5 -40.5q20 37 56 57.5t76 20.5q84 0 121 -80q29 41 67 60.5t89 19.5
q82 0 125 -48t43 -127v-198q0 -53 21 -93l-105 -39q-32 56 -32 130z" />
    <glyph glyph-name="n" unicode="n" horiz-adv-x="563" 
d="M387 120v171q0 56 -22.5 82.5t-68.5 26.5q-54 0 -87 -42t-33 -103v-255h-116v354q0 32 -4.5 54.5t-17.5 46.5l103 40q9 -15 16.5 -37.5t8.5 -41.5q28 35 71.5 57t91.5 22q174 0 174 -204v-169q0 -53 21 -93l-105 -39q-32 56 -32 130z" />
    <glyph glyph-name="o" unicode="o" horiz-adv-x="561" 
d="M151 21q-55 32 -84 89.5t-29 131.5t29 131.5t84 89.5t130 32t129.5 -32t83.5 -89.5t29 -131.5t-29 -131.5t-83.5 -89.5t-129.5 -32t-130 32zM373.5 126.5q31.5 42.5 31.5 115.5q0 74 -31.5 116t-92.5 42t-93 -42t-32 -116q0 -73 32 -115.5t93 -42.5t92.5 42.5z" />
    <glyph glyph-name="p" unicode="p" horiz-adv-x="583" 
d="M63 353q0 38 -6 61t-19 45l96 38q29 -32 32 -79q65 78 163 78q64 0 113 -30.5t76 -87.5t27 -134q0 -118 -60.5 -185.5t-163.5 -67.5q-44 0 -80.5 17.5t-61.5 47.5v-275h-116v572zM397.5 126q31.5 41 31.5 118q0 74 -31.5 116.5t-90.5 42.5q-62 0 -96 -41t-34 -105v-26
q0 -60 33 -103t93 -43q63 0 94.5 41z" />
    <glyph glyph-name="q" unicode="q" horiz-adv-x="585" 
d="M405 -97v153q-26 -30 -62.5 -47.5t-80.5 -17.5q-103 0 -163.5 67.5t-60.5 185.5q0 77 27 134t76.5 87.5t113.5 30.5q99 0 162 -78q5 49 33 79l95 -37q-13 -22 -18.5 -45.5t-5.5 -61.5v-450q0 -55 26 -95l-102 -40q-40 60 -40 135zM373.5 128q32.5 43 32.5 103v26
q0 64 -33.5 105t-95.5 41q-60 0 -91 -42.5t-31 -116.5q0 -77 31.5 -118t94.5 -41q60 0 92.5 43z" />
    <glyph glyph-name="r" unicode="r" horiz-adv-x="409" 
d="M60 354q0 32 -4.5 54.5t-17.5 46.5l103 40q9 -15 16.5 -37.5t8.5 -41.5q26 40 56.5 59.5t70.5 19.5q28 0 49 -7t46 -25l-44 -81q-29 18 -60 18q-54 0 -81 -36t-27 -102v-262h-116v354z" />
    <glyph glyph-name="s" unicode="s" horiz-adv-x="500" 
d="M142 14q-60 24 -104 69l67 71q32 -35 75.5 -53.5t91.5 -18.5q36 0 55 11.5t19 32.5q0 16 -7.5 26.5t-30 21t-71.5 26.5q-97 31 -137 66.5t-40 93.5q0 63 50 99t142 36q101 0 183 -57l-41 -78q-40 24 -73 33.5t-70 9.5q-38 0 -56.5 -11.5t-18.5 -31.5q0 -16 10 -26.5
t31.5 -19.5t67.5 -24q67 -22 104.5 -43.5t55 -50.5t17.5 -72q0 -61 -50.5 -97.5t-139.5 -36.5q-70 0 -130 24z" />
    <glyph glyph-name="t" unicode="t" horiz-adv-x="389" 
d="M151.5 28q-35.5 37 -35.5 108v255h-88l25 94h65v108l112 52v-160h128l-23 -94h-103v-258q0 -27 10.5 -38t34.5 -11q29 0 49 10l27 -84q-15 -8 -43.5 -13.5t-54.5 -5.5q-68 0 -103.5 37z" />
    <glyph glyph-name="u" unicode="u" horiz-adv-x="548" 
d="M96.5 45q-51.5 55 -51.5 149v291h116v-291q0 -55 25 -82t77 -27q53 0 81 37.5t28 95.5v267h116v-354q0 -32 4.5 -54.5t17.5 -46.5l-103 -40q-9 14 -16.5 37t-8.5 42q-51 -79 -149 -79q-85 0 -136.5 55z" />
    <glyph glyph-name="v" unicode="v" horiz-adv-x="562" 
d="M229.5 2q-15.5 12 -15.5 30q0 8 2 13l2 6l-180 434h122l122 -331l121 331h121l-190 -462q-7 -17 -21.5 -25t-42.5 -8q-25 0 -40.5 12z" />
    <glyph glyph-name="w" unicode="w" horiz-adv-x="719" 
d="M172.5 2q-14.5 12 -14.5 33q0 8 1 12l2 7l-123 431h120l71 -313l86 296q8 27 53 27q57 0 57 -40q0 -9 -1 -14l-4 -21l71 -248l69 313h120l-122 -431l1 -7q1 -5 1 -13q0 -21 -14 -32.5t-41 -11.5q-29 0 -43 9.5t-20 30.5l-83 289l-83 -289q-6 -21 -19.5 -30.5t-42.5 -9.5
q-27 0 -41.5 12z" />
    <glyph glyph-name="x" unicode="x" horiz-adv-x="539" 
d="M194 251l-156 234h131l100 -163l101 163h130l-155 -234l155 -251h-132l-99 175l-98 -175h-133z" />
    <glyph glyph-name="y" unicode="y" horiz-adv-x="582" 
d="M74 -135q66 23 106.5 63.5t56.5 108.5l-199 448h135l124 -322l113 322h134l-198 -491q-37 -91 -90.5 -141.5t-147.5 -81.5z" />
    <glyph glyph-name="z" unicode="z" horiz-adv-x="539" 
d="M98 -10q-13 0 -27.5 10t-26.5 32q-5 9 -5 20q0 16 19 29q7 5 16 14l265 296h-275v94h333q21 0 28 5t17 5q24 0 45 -24q14 -17 14 -32q0 -16 -14 -31l-282 -314h293v-94h-353q-17 0 -31 -6q-8 -4 -16 -4z" />
    <glyph glyph-name="braceleft" unicode="{" horiz-adv-x="358" 
d="M140.5 -105q-30.5 29 -30.5 76v245q0 43 -35 43h-37v94h37q35 0 35 43v245q0 47 30.5 76t81.5 29h97v-94h-67q-24 0 -24 -26v-220q0 -38 -9 -60.5t-37 -39.5q28 -17 37 -39.5t9 -60.5v-220q0 -26 24 -26h67v-94h-97q-51 0 -81.5 29z" />
    <glyph glyph-name="bar" unicode="|" horiz-adv-x="211" 
d="M47 800h118v-940h-118v940z" />
    <glyph glyph-name="braceright" unicode="}" horiz-adv-x="358" 
d="M38 -40h68q11 0 17 7t6 19v220q0 37 9.5 60t37.5 40q-28 17 -37.5 40t-9.5 60v220q0 12 -6 19t-17 7h-68v94h97q51 0 81.5 -29t30.5 -76v-245q0 -43 36 -43h36v-94h-36q-36 0 -36 -43v-245q0 -47 -30.5 -76t-81.5 -29h-97v94z" />
    <glyph glyph-name="asciitilde" unicode="~" horiz-adv-x="598" 
d="M38 238q26 47 65 71t88 24q25 0 49.5 -7.5t60.5 -21.5q32 -13 55 -20t45 -7q35 0 56 14.5t37 44.5l66 -61q-23 -49 -61 -73.5t-87 -24.5q-25 0 -51 7.5t-62 22.5q-33 13 -56 20t-45 7q-56 0 -90 -62z" />
    <glyph glyph-name="uni00A0" unicode="&#xa0;" horiz-adv-x="258" 
 />
    <glyph glyph-name="exclamdown" unicode="&#xa1;" horiz-adv-x="254" 
d="M71.5 336.5q-21.5 20.5 -21.5 53.5t21.5 53.5t55.5 20.5t55.5 -20.5t21.5 -53.5t-21.5 -53.5t-55.5 -20.5t-55.5 20.5zM77 258h100l8 -494h-119z" />
    <glyph glyph-name="cent" unicode="&#xa2;" horiz-adv-x="528" 
d="M416 15.5q-44 -20.5 -94 -24.5v-89h-52v89q-109 8 -170.5 74.5t-61.5 176.5q0 112 62 178.5t170 73.5v94h52v-94q47 -4 86.5 -21t65.5 -42l-41 -78q-47 40 -111 46v-313q63 5 105 47l62 -64q-29 -33 -73 -53.5zM186 136q30 -39 84 -48v310q-54 -9 -84 -48t-30 -108
q0 -67 30 -106z" />
    <glyph glyph-name="sterling" unicode="&#xa3;" horiz-adv-x="586" 
d="M46 83q40 10 73.5 40.5t53 72.5t19.5 85q0 7 -2 23h-152l23 94h99q-35 57 -35 115q0 56 29 100.5t81.5 70.5t118.5 26q60 0 111 -22.5t83 -60.5l-43 -79q-58 65 -151 65q-55 0 -82 -26.5t-27 -73.5q0 -64 37 -115h173l-25 -94h-121q2 -56 -19 -110.5t-70 -99.5h323v-94
h-497v83z" />
    <glyph glyph-name="currency" unicode="&#xa4;" horiz-adv-x="607" 
d="M31 127l84 88q-46 49 -46 122q0 67 38 113l-82 87l74 71l87 -92q57 27 118 27q60 0 117 -27l87 92l74 -71l-82 -87q38 -46 38 -113q0 -74 -45 -122l83 -88l-74 -71l-92 97q-54 -23 -106 -23q-53 0 -107 23l-92 -97zM395 253.5q33 29.5 33 83.5q0 53 -33 82.5t-91 29.5
q-59 0 -92 -29.5t-33 -82.5q0 -54 33 -83.5t92 -29.5q58 0 91 29.5z" />
    <glyph glyph-name="yen" unicode="&#xa5;" horiz-adv-x="653" 
d="M385 270h149v-46h-150v-67h150v-46h-150v-111h-114v111h-148v46h148v67h-148v46h147l-231 430h128l161 -323l160 323h128z" />
    <glyph glyph-name="brokenbar" unicode="&#xa6;" horiz-adv-x="211" 
d="M47 800h118v-394h-118v394zM47 254h118v-394h-118v394z" />
    <glyph glyph-name="section" unicode="&#xa7;" horiz-adv-x="503" 
d="M140.5 -35q-58.5 23 -100.5 66l64 71q31 -33 73 -50.5t90 -17.5q37 0 57 16.5t20 41.5q0 27 -22.5 45.5t-90.5 41.5q-95 31 -136 70.5t-41 99.5q0 67 60 117q-28 20 -40.5 47t-12.5 64q0 65 51.5 105t140.5 40q103 0 184 -57l-41 -77q-38 22 -72 32t-72 10
q-36 0 -55.5 -15t-19.5 -38q0 -20 9.5 -32.5t32.5 -23t70 -25.5q96 -30 136 -66.5t40 -100.5q0 -34 -15 -66t-43 -57q53 -41 53 -117q0 -42 -23.5 -75.5t-67 -52.5t-102.5 -19q-68 0 -126.5 23zM350 322q0 45 -68 73q-31 11 -76 26q-37 -23 -37 -68q0 -22 13.5 -38t48.5 -30
l53 -21l37 -14q29 36 29 72z" />
    <glyph glyph-name="dieresis" unicode="&#xa8;" horiz-adv-x="418" 
d="M56 574.5q-20 19.5 -20 48.5t20 48.5t50 19.5t49 -19.5t19 -48.5t-19 -48.5t-49 -19.5t-50 19.5zM264 574.5q-20 19.5 -20 48.5t20 48.5t50 19.5t49 -19.5t19 -48.5t-19 -48.5t-49 -19.5t-50 19.5z" />
    <glyph glyph-name="copyright" unicode="&#xa9;" horiz-adv-x="846" 
d="M227 34q-88 45 -138.5 127t-50.5 188t50.5 188.5t138.5 127.5t196 45q109 0 196.5 -45t138 -127.5t50.5 -188.5t-50.5 -188t-138 -127t-196.5 -45q-108 0 -196 45zM562.5 115.5q62.5 29.5 99 89t36.5 144.5t-36.5 144.5t-99 89.5t-139.5 30q-76 0 -138.5 -30t-99.5 -89.5
t-37 -144.5t36.5 -144.5t99 -89t139.5 -29.5t139.5 29.5zM314.5 158.5q-51.5 25.5 -80.5 74t-29 115.5t28.5 116t79.5 74.5t115 25.5q48 0 92.5 -17t76.5 -49l-46 -70q-51 45 -120 45q-52 0 -82.5 -32t-30.5 -93q0 -59 33 -91.5t90 -32.5q30 0 56 10.5t50 34.5l61 -62
q-74 -74 -177 -74q-65 0 -116.5 25.5z" />
    <glyph glyph-name="ordfeminine" unicode="&#xaa;" horiz-adv-x="425" 
d="M79 427.5q-41 43.5 -41 118.5q0 79 43.5 125.5t111.5 46.5q56 0 91 -42v36h87v-237q0 -23 4 -38.5t12 -28.5l-75 -24q-18 22 -21 50h-1q-18 -24 -45 -37t-59 -13q-66 0 -107 43.5zM263 476q21 23 21 66v17q0 38 -20 64t-58 26q-37 0 -57.5 -26t-20.5 -77q0 -93 75 -93
q39 0 60 23z" />
    <glyph glyph-name="guillemotleft" unicode="&#xab;" horiz-adv-x="498" 
d="M46 236q-8 11 -8 24t8 24l127 193h115l-139 -217l139 -217h-115zM218 236q-8 11 -8 24t8 24l127 193h115l-139 -217l139 -217h-115z" />
    <glyph glyph-name="logicalnot" unicode="&#xac;" horiz-adv-x="477" 
d="M320 238h-282v94h400v-227h-118v133z" />
    <glyph glyph-name="uni00AD" unicode="&#xad;" horiz-adv-x="513" 
d="M38 332h436v-94h-436v94z" />
    <glyph glyph-name="registered" unicode="&#xae;" horiz-adv-x="846" 
d="M227 34q-88 45 -138.5 127t-50.5 188t50.5 188.5t138.5 127.5t196 45q109 0 196.5 -45t138 -127.5t50.5 -188.5t-50.5 -188t-138 -127t-196.5 -45q-108 0 -196 45zM562.5 115.5q62.5 29.5 99 89t36.5 144.5t-36.5 144.5t-99 89.5t-139.5 30q-76 0 -138.5 -30t-99.5 -89.5
t-37 -144.5t36.5 -144.5t99 -89t139.5 -29.5t139.5 29.5zM272 479q0 7 -3 12t-7 9q-9 9 -9 18q0 5 3 12q7 18 20.5 28.5t31.5 10.5t30 -16h107q75 0 117.5 -35t42.5 -103q0 -49 -30.5 -79.5t-81.5 -42.5l97 -143h-110l-82 130h-28v-130h-98v329zM431 355q76 0 76 60
q0 63 -73 63h-64v-123h61z" />
    <glyph glyph-name="macron" unicode="&#xaf;" horiz-adv-x="414" 
d="M39 637h336v-89h-336v89z" />
    <glyph glyph-name="degree" unicode="&#xb0;" horiz-adv-x="342" 
d="M67 509.5q-42 36.5 -42 94.5t42 95t104 37t104 -37t42 -95t-42 -94.5t-104 -36.5t-104 36.5zM209 566q15 14 15 38t-15 39t-38 15t-38 -15t-15 -39t15 -38t38 -14t38 14z" />
    <glyph glyph-name="plusminus" unicode="&#xb1;" horiz-adv-x="548" 
d="M496 369v-94h-163v-142h-118v142h-163v94h163v143h118v-143h163zM52 94h444v-94h-444v94z" />
    <glyph glyph-name="uni00B2" unicode="&#xb2;" horiz-adv-x="497" 
d="M50 422q-11 8 -11 31q0 33 9 44t28 12q20 37 52 62.5t84 56.5q53 31 79 55.5t26 58.5q0 39 -18 59.5t-53 20.5q-46 0 -68 -23.5t-27 -87.5l-105 10q2 86 55.5 138t143.5 52q89 0 136.5 -45.5t47.5 -123.5q0 -38 -17.5 -66.5t-42.5 -48t-67 -45.5q-35 -21 -56 -37t-33 -35
h129l21 47l96 -33l-47 -110h-324q-27 0 -38 8z" />
    <glyph glyph-name="uni00B3" unicode="&#xb3;" horiz-adv-x="516" 
d="M120 441q-58 38 -82 113l102 32q13 -50 44 -72t80 -22q102 0 102 83q0 35 -19.5 53.5t-52.5 18.5q-4 0 -22 -3l-8 -12q-15 -18 -29 -18q-15 0 -44 19q-17 12 -17 24q0 11 12 30l84 126h-95l-20 -61l-84 55l32 93h302q23 0 34.5 -6t11.5 -22q0 -9 -5 -24
q-7 -22 -17.5 -28.5t-32.5 -6.5h-14l-60 -88q14 5 35 5q32 0 59.5 -18t44.5 -53.5t17 -83.5q0 -78 -57 -125t-157 -47q-86 0 -144 38z" />
    <glyph glyph-name="acute" unicode="&#xb4;" horiz-adv-x="293" 
d="M124 726h130l-119 -186h-96z" />
    <glyph glyph-name="paragraph" unicode="&#xb6;" horiz-adv-x="669" 
d="M279 286q-112 0 -176.5 54.5t-64.5 148.5q0 99 64.5 155t175.5 56h353v-94h-53v-786h-118v786h-63v-786h-118v466z" />
    <glyph glyph-name="periodcentered" unicode="&#xb7;" horiz-adv-x="217" 
d="M58 291.5q-20 19.5 -20 48.5t20 48.5t51 19.5q30 0 50 -19.5t20 -48.5t-20 -48.5t-50 -19.5q-31 0 -51 19.5z" />
    <glyph glyph-name="cedilla" unicode="&#xb8;" horiz-adv-x="316" 
d="M39 -184l30 56q36 -25 70 -25q36 0 36 32q0 31 -38 31q-5 0 -21 -2l-23 24l45 74h86l-32 -51q77 -15 77 -85q0 -41 -31.5 -67.5t-85.5 -26.5q-61 0 -113 40z" />
    <glyph glyph-name="uni00B9" unicode="&#xb9;" horiz-adv-x="312" 
d="M146 740l-52 -45l-62 71l149 125q27 22 45 22q19 0 34 -22q13 -19 13 -30q0 -8 -8 -18l-8 -8v-423h-111v328z" />
    <glyph glyph-name="ordmasculine" unicode="&#xba;" horiz-adv-x="413" 
d="M84.5 430.5q-46.5 46.5 -46.5 120.5t46.5 120.5t121.5 46.5q76 0 122.5 -46.5t46.5 -120.5t-46.5 -120.5t-122.5 -46.5q-75 0 -121.5 46.5zM283 551q0 98 -77 98t-77 -98t77 -98t77 98z" />
    <glyph glyph-name="guillemotright" unicode="&#xbb;" horiz-adv-x="498" 
d="M177 260l-139 217h115l127 -193q8 -11 8 -24t-8 -24l-127 -193h-115zM349 260l-139 217h115l127 -193q8 -11 8 -24t-8 -24l-127 -193h-115z" />
    <glyph glyph-name="onequarter" unicode="&#xbc;" horiz-adv-x="885" 
d="M153 571l-53 -45l-62 71l150 125q27 22 45 22t34 -22q13 -19 13 -30q0 -9 -9 -18l-8 -7l1 -424h-111v328zM531 710h120l-345 -720h-120zM675 94h-200q-23 0 -36 11.5t-13 29.5q0 16 13 32l264 307q19 22 42 22q16 0 30 -11q26 -20 26 -38q0 -9 -9 -23l-7 -9v-234h62v-87
h-62v-94h-110v94zM681 181v131l-112 -131h112z" />
    <glyph glyph-name="onehalf" unicode="&#xbd;" horiz-adv-x="967" 
d="M153 571l-53 -45l-62 71l150 125q27 22 45 22t34 -22q13 -19 13 -30q0 -9 -9 -18l-8 -7l1 -424h-111v328zM531 710h120l-345 -720h-120zM519 7q-11 8 -11 31q0 34 9 44.5t29 11.5q20 37 52 62.5t83 56.5q55 33 80 56.5t25 58.5q0 79 -70 79q-46 0 -68.5 -23.5
t-26.5 -87.5l-105 11q1 85 54.5 137t144.5 52q89 0 136.5 -45.5t47.5 -122.5q0 -38 -17.5 -66.5t-42.5 -48t-66 -45.5q-38 -24 -58 -39t-32 -34h129l20 48l97 -34l-47 -110h-324q-28 0 -39 8z" />
    <glyph glyph-name="threequarters" unicode="&#xbe;" horiz-adv-x="1043" 
d="M689 710h120l-345 -720h-120zM120 249q-58 38 -82 113l102 32q13 -50 44 -72t80 -22q102 0 102 83q0 35 -19.5 53.5t-52.5 18.5q-4 0 -22 -3l-8 -12q-15 -18 -29 -18q-15 0 -44 19q-17 12 -17 24q0 11 12 30l84 126h-95l-20 -61l-84 55l32 93h302q23 0 34.5 -6t11.5 -22
q0 -9 -5 -24q-7 -22 -17.5 -28.5t-32.5 -6.5h-14l-60 -88q14 5 35 5q32 0 59.5 -18t44.5 -53.5t17 -83.5q0 -78 -57 -125t-157 -47q-86 0 -144 38zM833 94h-200q-23 0 -36 11.5t-13 29.5q0 16 13 32l264 307q19 22 42 22q16 0 30 -11q26 -20 26 -38q0 -9 -9 -23l-7 -9v-234
h62v-87h-62v-94h-110v94zM839 181v131l-112 -131h112z" />
    <glyph glyph-name="questiondown" unicode="&#xbf;" horiz-adv-x="526" 
d="M210.5 332.5q-21.5 20.5 -21.5 53.5t21.5 53.5t55.5 20.5t55.5 -20.5t21.5 -53.5t-21.5 -53.5t-55.5 -20.5t-55.5 20.5zM95 -197.5q-57 52.5 -57 137.5q0 51 23.5 83.5t68.5 70.5q40 35 59 60t19 62v38h118v-38q0 -36 -13 -64.5t-31.5 -49t-49.5 -48.5q-38 -34 -56 -58
t-18 -56q0 -45 24 -69t72 -24q50 0 83.5 26.5t53.5 81.5l97 -45q-26 -76 -89.5 -118t-147.5 -42q-99 0 -156 52.5z" />
    <glyph glyph-name="Agrave" unicode="&#xc0;" horiz-adv-x="697" 
d="M283 664q20 54 70 54q32 0 51 -14t19 -36q0 -6 -4 -18l241 -650h-124l-66 187h-244l-66 -187h-123zM444 281l-95 273l-95 -273h190zM186 956h131l85 -186h-96z" />
    <glyph glyph-name="Aacute" unicode="&#xc1;" horiz-adv-x="697" 
d="M283 664q20 54 70 54q32 0 51 -14t19 -36q0 -6 -4 -18l241 -650h-124l-66 187h-244l-66 -187h-123zM444 281l-95 273l-95 -273h190zM387 956h131l-120 -186h-95z" />
    <glyph glyph-name="Acircumflex" unicode="&#xc2;" horiz-adv-x="697" 
d="M283 664q20 54 70 54q32 0 51 -14t19 -36q0 -6 -4 -18l241 -650h-124l-66 187h-244l-66 -187h-123zM444 281l-95 273l-95 -273h190zM303 929q14 17 25.5 23.5t30.5 6.5q26 0 40 -10.5t14 -24.5q0 -3 -2 -9l-2 -5l128 -138h-120l-66 87l-61 -87h-118z" />
    <glyph glyph-name="Atilde" unicode="&#xc3;" horiz-adv-x="697" 
d="M283 664q20 54 70 54q32 0 51 -14t19 -36q0 -6 -4 -18l241 -650h-124l-66 187h-244l-66 -187h-123zM444 281l-95 273l-95 -273h190zM181 812q7 42 36 69t65 27q25 0 45 -8t44 -23q29 -18 43 -18q19 0 29.5 11t14.5 37l60 -30q-1 -46 -25 -72.5t-64 -26.5q-22 0 -41 7.5
t-44 20.5q-34 19 -50 19q-38 0 -47 -47z" />
    <glyph glyph-name="Adieresis" unicode="&#xc4;" horiz-adv-x="697" 
d="M283 664q20 54 70 54q32 0 51 -14t19 -36q0 -6 -4 -18l241 -650h-124l-66 187h-244l-66 -187h-123zM444 281l-95 273l-95 -273h190zM194.5 798.5q-20.5 19.5 -20.5 48.5t20.5 48.5t51.5 19.5q30 0 49.5 -19.5t19.5 -48.5t-19.5 -48.5t-49.5 -19.5q-31 0 -51.5 19.5z
M413 798.5q-20 19.5 -20 48.5t20 48.5t51 19.5q30 0 50 -19.5t20 -48.5t-20 -48.5t-50 -19.5q-31 0 -51 19.5z" />
    <glyph glyph-name="Aring" unicode="&#xc5;" horiz-adv-x="697" 
d="M283 664q20 54 70 54q32 0 51 -14t19 -36q0 -6 -4 -18l241 -650h-124l-66 187h-244l-66 -187h-123zM444 281l-95 273l-95 -273h190zM269.5 774.5q-35.5 27.5 -35.5 77.5q0 51 35.5 79t83.5 28t83.5 -28t35.5 -79q0 -50 -35.5 -77.5t-83.5 -27.5t-83.5 27.5zM384.5 822
q12.5 11 12.5 30q0 21 -12.5 32.5t-31.5 11.5t-31.5 -11.5t-12.5 -32.5q0 -19 12.5 -30t31.5 -11t31.5 11z" />
    <glyph glyph-name="AE" unicode="&#xc6;" horiz-adv-x="827" 
d="M312 700h468v-102h-290v-182h206v-98h-206v-216h299v-102h-415v187h-142l-70 -187h-124zM374 281v297l-113 -297h113z" />
    <glyph glyph-name="Ccedilla" unicode="&#xc7;" horiz-adv-x="643" 
d="M515.5 22.5q-54.5 -26.5 -115.5 -31.5l-23 -36q77 -15 77 -85q0 -41 -31.5 -67.5t-85.5 -26.5q-61 0 -114 40l31 56q36 -25 70 -25q36 0 36 32q0 15 -10 23t-29 8q-5 0 -21 -2l-22 24l37 62q-132 16 -204.5 110t-72.5 247q0 111 38.5 192t112 124t175.5 43
q68 0 125.5 -23.5t93.5 -65.5l-46 -81q-35 37 -74.5 55t-98.5 18q-98 0 -152 -69.5t-54 -192.5q0 -124 56.5 -194t159.5 -70q51 0 90 17t71 53l70 -66q-35 -42 -89.5 -68.5z" />
    <glyph glyph-name="Egrave" unicode="&#xc8;" horiz-adv-x="543" 
d="M68 587q0 20 -5.5 30.5t-14.5 19.5q-6 7 -8.5 11.5t0.5 12.5q7 21 23.5 39t35.5 18q18 0 36 -18h361v-102h-310v-182h226v-98h-226v-216h319v-102h-437v587zM117 956h131l85 -186h-96z" />
    <glyph glyph-name="Eacute" unicode="&#xc9;" horiz-adv-x="543" 
d="M68 587q0 20 -5.5 30.5t-14.5 19.5q-6 7 -8.5 11.5t0.5 12.5q7 21 23.5 39t35.5 18q18 0 36 -18h361v-102h-310v-182h226v-98h-226v-216h319v-102h-437v587zM318 956h131l-120 -186h-95z" />
    <glyph glyph-name="Ecircumflex" unicode="&#xca;" horiz-adv-x="543" 
d="M68 587q0 20 -5.5 30.5t-14.5 19.5q-6 7 -8.5 11.5t0.5 12.5q7 21 23.5 39t35.5 18q18 0 36 -18h361v-102h-310v-182h226v-98h-226v-216h319v-102h-437v587zM234 929q14 17 25.5 23.5t30.5 6.5q26 0 40 -10.5t14 -24.5q0 -3 -2 -9l-2 -5l128 -138h-120l-66 87l-61 -87
h-118z" />
    <glyph glyph-name="Edieresis" unicode="&#xcb;" horiz-adv-x="543" 
d="M68 587q0 20 -5.5 30.5t-14.5 19.5q-6 7 -8.5 11.5t0.5 12.5q7 21 23.5 39t35.5 18q18 0 36 -18h361v-102h-310v-182h226v-98h-226v-216h319v-102h-437v587zM125.5 798.5q-20.5 19.5 -20.5 48.5t20.5 48.5t51.5 19.5q30 0 49.5 -19.5t19.5 -48.5t-19.5 -48.5t-49.5 -19.5
q-31 0 -51.5 19.5zM344 798.5q-20 19.5 -20 48.5t20 48.5t51 19.5q30 0 50 -19.5t20 -48.5t-20 -48.5t-50 -19.5q-31 0 -51 19.5z" />
    <glyph glyph-name="Igrave" unicode="&#xcc;" horiz-adv-x="298" 
d="M90 700h118v-700h-118v700zM-18 956h131l85 -186h-96z" />
    <glyph glyph-name="Iacute" unicode="&#xcd;" horiz-adv-x="298" 
d="M90 700h118v-700h-118v700zM183 956h131l-120 -186h-95z" />
    <glyph glyph-name="Icircumflex" unicode="&#xce;" horiz-adv-x="298" 
d="M90 700h118v-700h-118v700zM99 929q14 17 25.5 23.5t30.5 6.5q26 0 40 -10.5t14 -24.5q0 -3 -2 -9l-2 -5l128 -138h-120l-66 87l-61 -87h-118z" />
    <glyph glyph-name="Idieresis" unicode="&#xcf;" horiz-adv-x="298" 
d="M90 700h118v-700h-118v700zM-9.5 798.5q-20.5 19.5 -20.5 48.5t20.5 48.5t51.5 19.5q30 0 49.5 -19.5t19.5 -48.5t-19.5 -48.5t-49.5 -19.5q-31 0 -51.5 19.5zM209 798.5q-20 19.5 -20 48.5t20 48.5t51 19.5q30 0 50 -19.5t20 -48.5t-20 -48.5t-50 -19.5q-31 0 -51 19.5z
" />
    <glyph glyph-name="Eth" unicode="&#xd0;" horiz-adv-x="679" 
d="M481.5 657.5q77.5 -42.5 118.5 -121t41 -184.5q0 -166 -87.5 -259t-249.5 -93h-210v306h-56v86h56v195q0 20 -5.5 30.5t-14.5 19.5q-6 7 -8.5 11.5t0.5 12.5q7 21 23.5 39t35.5 18q18 0 36 -18h138q105 0 182.5 -42.5zM521 352q0 120 -57.5 183t-167.5 63h-84v-206h154
v-86h-154v-204h92q217 0 217 250z" />
    <glyph glyph-name="Ntilde" unicode="&#xd1;" horiz-adv-x="623" 
d="M61 604q0 11 -3.5 18t-9.5 14q-10 12 -10 21q0 2 2 12q7 23 25 36t41 13q35 0 52 -27l297 -478v487h118v-700h-100l-294 470v-470h-118v604zM152 812q7 42 36 69t65 27q25 0 45 -8t44 -23q29 -18 43 -18q19 0 29.5 11t14.5 37l60 -30q-1 -46 -25 -72.5t-64 -26.5
q-22 0 -41 7.5t-44 20.5q-34 19 -50 19q-38 0 -47 -47z" />
    <glyph glyph-name="Ograve" unicode="&#xd2;" horiz-adv-x="683" 
d="M177.5 34.5q-68.5 44.5 -104 125.5t-35.5 190t35.5 190t104 125.5t163.5 44.5q96 0 164 -44.5t103.5 -125.5t35.5 -190t-35.5 -190t-103.5 -125.5t-164 -44.5q-95 0 -163.5 44.5zM478 157q46 70 46 193t-46 193t-137 70q-90 0 -136.5 -70t-46.5 -193t46.5 -193t136.5 -70
q91 0 137 70zM174 956h131l85 -186h-96z" />
    <glyph glyph-name="Oacute" unicode="&#xd3;" horiz-adv-x="683" 
d="M177.5 34.5q-68.5 44.5 -104 125.5t-35.5 190t35.5 190t104 125.5t163.5 44.5q96 0 164 -44.5t103.5 -125.5t35.5 -190t-35.5 -190t-103.5 -125.5t-164 -44.5q-95 0 -163.5 44.5zM478 157q46 70 46 193t-46 193t-137 70q-90 0 -136.5 -70t-46.5 -193t46.5 -193t136.5 -70
q91 0 137 70zM375 956h131l-120 -186h-95z" />
    <glyph glyph-name="Ocircumflex" unicode="&#xd4;" horiz-adv-x="683" 
d="M177.5 34.5q-68.5 44.5 -104 125.5t-35.5 190t35.5 190t104 125.5t163.5 44.5q96 0 164 -44.5t103.5 -125.5t35.5 -190t-35.5 -190t-103.5 -125.5t-164 -44.5q-95 0 -163.5 44.5zM478 157q46 70 46 193t-46 193t-137 70q-90 0 -136.5 -70t-46.5 -193t46.5 -193t136.5 -70
q91 0 137 70zM291 929q14 17 25.5 23.5t30.5 6.5q26 0 40 -10.5t14 -24.5q0 -3 -2 -9l-2 -5l128 -138h-120l-66 87l-61 -87h-118z" />
    <glyph glyph-name="Otilde" unicode="&#xd5;" horiz-adv-x="683" 
d="M177.5 34.5q-68.5 44.5 -104 125.5t-35.5 190t35.5 190t104 125.5t163.5 44.5q96 0 164 -44.5t103.5 -125.5t35.5 -190t-35.5 -190t-103.5 -125.5t-164 -44.5q-95 0 -163.5 44.5zM478 157q46 70 46 193t-46 193t-137 70q-90 0 -136.5 -70t-46.5 -193t46.5 -193t136.5 -70
q91 0 137 70zM169 812q7 42 36 69t65 27q25 0 45 -8t44 -23q29 -18 43 -18q19 0 29.5 11t14.5 37l60 -30q-1 -46 -25 -72.5t-64 -26.5q-22 0 -41 7.5t-44 20.5q-34 19 -50 19q-38 0 -47 -47z" />
    <glyph glyph-name="Odieresis" unicode="&#xd6;" horiz-adv-x="683" 
d="M177.5 34.5q-68.5 44.5 -104 125.5t-35.5 190t35.5 190t104 125.5t163.5 44.5q96 0 164 -44.5t103.5 -125.5t35.5 -190t-35.5 -190t-103.5 -125.5t-164 -44.5q-95 0 -163.5 44.5zM478 157q46 70 46 193t-46 193t-137 70q-90 0 -136.5 -70t-46.5 -193t46.5 -193t136.5 -70
q91 0 137 70zM182.5 798.5q-20.5 19.5 -20.5 48.5t20.5 48.5t51.5 19.5q30 0 49.5 -19.5t19.5 -48.5t-19.5 -48.5t-49.5 -19.5q-31 0 -51.5 19.5zM401 798.5q-20 19.5 -20 48.5t20 48.5t51 19.5q30 0 50 -19.5t20 -48.5t-20 -48.5t-50 -19.5q-31 0 -51 19.5z" />
    <glyph glyph-name="multiply" unicode="&#xd7;" horiz-adv-x="548" 
d="M60 143l142 139l-142 141l73 71l142 -140l140 140l73 -71l-141 -141l141 -142l-73 -71l-140 141l-142 -138z" />
    <glyph glyph-name="Oslash" unicode="&#xd8;" horiz-adv-x="683" 
d="M614 528q30 -77 30 -178q0 -109 -35.5 -190t-103.5 -125.5t-164 -44.5q-93 0 -158 41l-57 -102l-45 25l60 109q-50 47 -76.5 120t-26.5 167q0 109 35.5 190t104 125.5t163.5 44.5q80 0 142 -32l51 93l45 -25l-53 -95q58 -46 88 -123zM199 166l234 422q-41 25 -92 25
q-90 0 -136.5 -70t-46.5 -193q0 -117 41 -184zM478 157q46 70 46 193q0 134 -53 202l-237 -428q43 -37 107 -37q91 0 137 70z" />
    <glyph glyph-name="Ugrave" unicode="&#xd9;" horiz-adv-x="640" 
d="M118 60q-73 70 -73 196v444h118v-450q0 -78 41.5 -120.5t115.5 -42.5t115.5 42.5t41.5 120.5v450h118v-444q0 -126 -73 -196t-202 -70t-202 70zM153 956h131l85 -186h-96z" />
    <glyph glyph-name="Uacute" unicode="&#xda;" horiz-adv-x="640" 
d="M118 60q-73 70 -73 196v444h118v-450q0 -78 41.5 -120.5t115.5 -42.5t115.5 42.5t41.5 120.5v450h118v-444q0 -126 -73 -196t-202 -70t-202 70zM354 956h131l-120 -186h-95z" />
    <glyph glyph-name="Ucircumflex" unicode="&#xdb;" horiz-adv-x="640" 
d="M118 60q-73 70 -73 196v444h118v-450q0 -78 41.5 -120.5t115.5 -42.5t115.5 42.5t41.5 120.5v450h118v-444q0 -126 -73 -196t-202 -70t-202 70zM270 929q14 17 25.5 23.5t30.5 6.5q26 0 40 -10.5t14 -24.5q0 -3 -2 -9l-2 -5l128 -138h-120l-66 87l-61 -87h-118z" />
    <glyph glyph-name="Udieresis" unicode="&#xdc;" horiz-adv-x="640" 
d="M118 60q-73 70 -73 196v444h118v-450q0 -78 41.5 -120.5t115.5 -42.5t115.5 42.5t41.5 120.5v450h118v-444q0 -126 -73 -196t-202 -70t-202 70zM161.5 798.5q-20.5 19.5 -20.5 48.5t20.5 48.5t51.5 19.5q30 0 49.5 -19.5t19.5 -48.5t-19.5 -48.5t-49.5 -19.5
q-31 0 -51.5 19.5zM380 798.5q-20 19.5 -20 48.5t20 48.5t51 19.5q30 0 50 -19.5t20 -48.5t-20 -48.5t-50 -19.5q-31 0 -51 19.5z" />
    <glyph glyph-name="Yacute" unicode="&#xdd;" horiz-adv-x="653" 
d="M270 269l-232 431h128l161 -323l160 323h128l-231 -431v-269h-114v269zM361 956h131l-120 -186h-95z" />
    <glyph glyph-name="Thorn" unicode="&#xde;" horiz-adv-x="588" 
d="M57 700h118v-129h105q126 0 198 -57.5t72 -163.5t-72 -163.5t-198 -57.5h-105v-129h-118v700zM277 231q73 0 113 31t40 88t-40 88t-113 31h-102v-238h102z" />
    <glyph glyph-name="germandbls" unicode="&#xdf;" horiz-adv-x="607" 
d="M45 493q0 62 31 111.5t86.5 77.5t126.5 28t126 -23.5t85.5 -67t30.5 -99.5q0 -55 -30.5 -92.5t-83.5 -53.5v-2q152 -34 152 -170q0 -96 -57 -154t-161 -58q-38 0 -77 7t-69 19l31 88q45 -21 106 -21q53 0 80 32.5t27 87.5q0 64 -42 91.5t-127 27.5h-41v93h41
q66 0 98.5 25.5t32.5 79.5q0 48 -31.5 72.5t-90.5 24.5q-62 0 -94.5 -31.5t-32.5 -90.5v-745h-117v743z" />
    <glyph glyph-name="agrave" unicode="&#xe0;" horiz-adv-x="579" 
d="M140.5 20q-48.5 30 -75.5 85.5t-27 129.5q0 79 27.5 137.5t78.5 90.5t120 32q86 0 141 -67v57h112v-353q0 -36 5.5 -59.5t18.5 -45.5l-94 -37q-28 31 -32 78h-3q-28 -37 -68.5 -57.5t-90.5 -20.5q-64 0 -112.5 30zM370 123q33 40 33 106v26q0 60 -32.5 103.5t-92.5 43.5
q-59 0 -91 -44t-32 -123q0 -72 31 -112t89 -40q62 0 95 40zM111 741h131l85 -186h-96z" />
    <glyph glyph-name="aacute" unicode="&#xe1;" horiz-adv-x="579" 
d="M140.5 20q-48.5 30 -75.5 85.5t-27 129.5q0 79 27.5 137.5t78.5 90.5t120 32q86 0 141 -67v57h112v-353q0 -36 5.5 -59.5t18.5 -45.5l-94 -37q-28 31 -32 78h-3q-28 -37 -68.5 -57.5t-90.5 -20.5q-64 0 -112.5 30zM370 123q33 40 33 106v26q0 60 -32.5 103.5t-92.5 43.5
q-59 0 -91 -44t-32 -123q0 -72 31 -112t89 -40q62 0 95 40zM312 741h131l-120 -186h-95z" />
    <glyph glyph-name="acircumflex" unicode="&#xe2;" horiz-adv-x="579" 
d="M140.5 20q-48.5 30 -75.5 85.5t-27 129.5q0 79 27.5 137.5t78.5 90.5t120 32q86 0 141 -67v57h112v-353q0 -36 5.5 -59.5t18.5 -45.5l-94 -37q-28 31 -32 78h-3q-28 -37 -68.5 -57.5t-90.5 -20.5q-64 0 -112.5 30zM370 123q33 40 33 106v26q0 60 -32.5 103.5t-92.5 43.5
q-59 0 -91 -44t-32 -123q0 -72 31 -112t89 -40q62 0 95 40zM228 714q14 17 25.5 23.5t30.5 6.5q26 0 40 -10.5t14 -24.5q0 -3 -2 -9l-2 -5l128 -138h-120l-66 87l-61 -87h-118z" />
    <glyph glyph-name="atilde" unicode="&#xe3;" horiz-adv-x="579" 
d="M140.5 20q-48.5 30 -75.5 85.5t-27 129.5q0 79 27.5 137.5t78.5 90.5t120 32q86 0 141 -67v57h112v-353q0 -36 5.5 -59.5t18.5 -45.5l-94 -37q-28 31 -32 78h-3q-28 -37 -68.5 -57.5t-90.5 -20.5q-64 0 -112.5 30zM370 123q33 40 33 106v26q0 60 -32.5 103.5t-92.5 43.5
q-59 0 -91 -44t-32 -123q0 -72 31 -112t89 -40q62 0 95 40zM106 597q7 42 36 69t65 27q25 0 45 -8t44 -23q29 -18 43 -18q19 0 29.5 11t14.5 37l60 -30q-1 -46 -25 -72.5t-64 -26.5q-22 0 -41 7.5t-44 20.5q-34 19 -50 19q-38 0 -47 -47z" />
    <glyph glyph-name="adieresis" unicode="&#xe4;" horiz-adv-x="579" 
d="M140.5 20q-48.5 30 -75.5 85.5t-27 129.5q0 79 27.5 137.5t78.5 90.5t120 32q86 0 141 -67v57h112v-353q0 -36 5.5 -59.5t18.5 -45.5l-94 -37q-28 31 -32 78h-3q-28 -37 -68.5 -57.5t-90.5 -20.5q-64 0 -112.5 30zM370 123q33 40 33 106v26q0 60 -32.5 103.5t-92.5 43.5
q-59 0 -91 -44t-32 -123q0 -72 31 -112t89 -40q62 0 95 40zM119.5 583.5q-20.5 19.5 -20.5 48.5t20.5 48.5t51.5 19.5q30 0 49.5 -19.5t19.5 -48.5t-19.5 -48.5t-49.5 -19.5q-31 0 -51.5 19.5zM338 583.5q-20 19.5 -20 48.5t20 48.5t51 19.5q30 0 50 -19.5t20 -48.5
t-20 -48.5t-50 -19.5q-31 0 -51 19.5z" />
    <glyph glyph-name="aring" unicode="&#xe5;" horiz-adv-x="579" 
d="M140.5 20q-48.5 30 -75.5 85.5t-27 129.5q0 79 27.5 137.5t78.5 90.5t120 32q86 0 141 -67v57h112v-353q0 -36 5.5 -59.5t18.5 -45.5l-94 -37q-28 31 -32 78h-3q-28 -37 -68.5 -57.5t-90.5 -20.5q-64 0 -112.5 30zM370 123q33 40 33 106v26q0 60 -32.5 103.5t-92.5 43.5
q-59 0 -91 -44t-32 -123q0 -72 31 -112t89 -40q62 0 95 40zM194.5 559.5q-35.5 27.5 -35.5 77.5q0 51 35.5 79t83.5 28t83.5 -28t35.5 -79q0 -50 -35.5 -77.5t-83.5 -27.5t-83.5 27.5zM309.5 607q12.5 11 12.5 30q0 21 -12.5 32.5t-31.5 11.5t-31.5 -11.5t-12.5 -32.5
q0 -19 12.5 -30t31.5 -11t31.5 11z" />
    <glyph glyph-name="ae" unicode="&#xe6;" horiz-adv-x="901" 
d="M90.5 32.5q-52.5 42.5 -52.5 115.5q0 74 54.5 115t148.5 41h136v9q0 36 -32 62.5t-81 26.5q-45 0 -80 -14t-70 -43l-59 66q39 38 95 61t117 23q57 0 101 -23t70 -63h1q27 38 76.5 62t108.5 24q119 0 179 -66t60 -171q0 -31 -18 -44.5t-55 -13.5h-295v-10q-1 -44 37 -74.5
t101 -30.5q87 0 144 57l59 -67q-83 -85 -203 -85q-69 0 -122 29.5t-76 72.5h-1q-30 -44 -86 -73t-120 -29q-85 0 -137.5 42.5zM746 290q0 51 -32 81.5t-92 30.5q-37 0 -66.5 -14.5t-45.5 -38.5t-16 -49v-10h252zM341.5 115.5q36.5 30.5 36.5 73.5v25h-141q-83 0 -83 -63
q0 -66 88 -66q63 0 99.5 30.5z" />
    <glyph glyph-name="ccedilla" unicode="&#xe7;" horiz-adv-x="528" 
d="M419 16.5q-42 -20.5 -90 -25.5l-24 -36q77 -15 77 -85q0 -41 -31.5 -67.5t-85.5 -26.5q-61 0 -114 40l31 56q36 -25 70 -25q36 0 36 32q0 15 -10 23t-29 8q-5 0 -21 -2l-22 24l38 62q-97 15 -151.5 80t-54.5 168q0 118 68.5 185.5t188.5 67.5q54 0 101.5 -17.5
t77.5 -46.5l-41 -78q-26 22 -60 34.5t-73 12.5q-67 0 -105.5 -39.5t-38.5 -118.5q0 -77 39 -117t109 -40q75 0 123 48l62 -64q-28 -32 -70 -52.5z" />
    <glyph glyph-name="egrave" unicode="&#xe8;" horiz-adv-x="554" 
d="M156 20.5q-57 30.5 -87.5 87t-30.5 131.5q0 73 26.5 131t80.5 91.5t131 33.5t131.5 -33.5t81.5 -88t27 -117.5q0 -30 -19.5 -46t-53.5 -16h-289q0 -49 37.5 -79t99.5 -30q85 0 138 51l58 -63q-32 -39 -82.5 -61t-113.5 -22q-78 0 -135 30.5zM401 286q0 50 -34.5 83
t-90.5 33q-54 0 -88 -33.5t-34 -82.5h247zM117 741h131l85 -186h-96z" />
    <glyph glyph-name="eacute" unicode="&#xe9;" horiz-adv-x="554" 
d="M156 20.5q-57 30.5 -87.5 87t-30.5 131.5q0 73 26.5 131t80.5 91.5t131 33.5t131.5 -33.5t81.5 -88t27 -117.5q0 -30 -19.5 -46t-53.5 -16h-289q0 -49 37.5 -79t99.5 -30q85 0 138 51l58 -63q-32 -39 -82.5 -61t-113.5 -22q-78 0 -135 30.5zM401 286q0 50 -34.5 83
t-90.5 33q-54 0 -88 -33.5t-34 -82.5h247zM318 741h131l-120 -186h-95z" />
    <glyph glyph-name="ecircumflex" unicode="&#xea;" horiz-adv-x="554" 
d="M156 20.5q-57 30.5 -87.5 87t-30.5 131.5q0 73 26.5 131t80.5 91.5t131 33.5t131.5 -33.5t81.5 -88t27 -117.5q0 -30 -19.5 -46t-53.5 -16h-289q0 -49 37.5 -79t99.5 -30q85 0 138 51l58 -63q-32 -39 -82.5 -61t-113.5 -22q-78 0 -135 30.5zM401 286q0 50 -34.5 83
t-90.5 33q-54 0 -88 -33.5t-34 -82.5h247zM234 714q14 17 25.5 23.5t30.5 6.5q26 0 40 -10.5t14 -24.5q0 -3 -2 -9l-2 -5l128 -138h-120l-66 87l-61 -87h-118z" />
    <glyph glyph-name="edieresis" unicode="&#xeb;" horiz-adv-x="554" 
d="M156 20.5q-57 30.5 -87.5 87t-30.5 131.5q0 73 26.5 131t80.5 91.5t131 33.5t131.5 -33.5t81.5 -88t27 -117.5q0 -30 -19.5 -46t-53.5 -16h-289q0 -49 37.5 -79t99.5 -30q85 0 138 51l58 -63q-32 -39 -82.5 -61t-113.5 -22q-78 0 -135 30.5zM401 286q0 50 -34.5 83
t-90.5 33q-54 0 -88 -33.5t-34 -82.5h247zM125.5 583.5q-20.5 19.5 -20.5 48.5t20.5 48.5t51.5 19.5q30 0 49.5 -19.5t19.5 -48.5t-19.5 -48.5t-49.5 -19.5q-31 0 -51.5 19.5zM344 583.5q-20 19.5 -20 48.5t20 48.5t51 19.5q30 0 50 -19.5t20 -48.5t-20 -48.5t-50 -19.5
q-31 0 -51 19.5z" />
    <glyph glyph-name="igrave" unicode="&#xec;" horiz-adv-x="268" 
d="M76 485h116v-485h-116v485zM-33 741h131l85 -186h-96z" />
    <glyph glyph-name="iacute" unicode="&#xed;" horiz-adv-x="268" 
d="M76 485h116v-485h-116v485zM168 741h131l-120 -186h-95z" />
    <glyph glyph-name="icircumflex" unicode="&#xee;" horiz-adv-x="268" 
d="M76 485h116v-485h-116v485zM84 714q14 17 25.5 23.5t30.5 6.5q26 0 40 -10.5t14 -24.5q0 -3 -2 -9l-2 -5l128 -138h-120l-66 87l-61 -87h-118z" />
    <glyph glyph-name="idieresis" unicode="&#xef;" horiz-adv-x="268" 
d="M76 485h116v-485h-116v485zM-24.5 583.5q-20.5 19.5 -20.5 48.5t20.5 48.5t51.5 19.5q30 0 49.5 -19.5t19.5 -48.5t-19.5 -48.5t-49.5 -19.5q-31 0 -51.5 19.5zM194 583.5q-20 19.5 -20 48.5t20 48.5t51 19.5q30 0 50 -19.5t20 -48.5t-20 -48.5t-50 -19.5q-31 0 -51 19.5
z" />
    <glyph glyph-name="eth" unicode="&#xf0;" horiz-adv-x="647" 
d="M172.5 22.5q-64.5 32.5 -100 91t-35.5 136.5q0 77 34 135t98 90t150 32q53 0 96 -23l3 3q-39 62 -97 99l-150 -69l-39 84l99 44q-39 24 -103 45l42 83q55 -18 92.5 -34.5t77.5 -41.5l152 71l40 -84l-107 -50q87 -74 136.5 -171t49.5 -202q0 -75 -36 -137t-102 -98
t-152 -36q-84 0 -148.5 32.5zM442.5 132q46.5 45 46.5 120q0 73 -46 116t-120 43t-120 -44t-46 -117q0 -74 45 -118.5t119 -44.5q75 0 121.5 45z" />
    <glyph glyph-name="ntilde" unicode="&#xf1;" horiz-adv-x="563" 
d="M387 120v171q0 56 -22.5 82.5t-68.5 26.5q-54 0 -87 -42t-33 -103v-255h-116v354q0 32 -4.5 54.5t-17.5 46.5l103 40q9 -15 16.5 -37.5t8.5 -41.5q28 35 71.5 57t91.5 22q174 0 174 -204v-169q0 -53 21 -93l-105 -39q-32 56 -32 130zM114 597q7 42 36 69t65 27
q25 0 45 -8t44 -23q29 -18 43 -18q19 0 29.5 11t14.5 37l60 -30q-1 -46 -25 -72.5t-64 -26.5q-22 0 -41 7.5t-44 20.5q-34 19 -50 19q-38 0 -47 -47z" />
    <glyph glyph-name="ograve" unicode="&#xf2;" horiz-adv-x="561" 
d="M151 21q-55 32 -84 89.5t-29 131.5t29 131.5t84 89.5t130 32t129.5 -32t83.5 -89.5t29 -131.5t-29 -131.5t-83.5 -89.5t-129.5 -32t-130 32zM373.5 126.5q31.5 42.5 31.5 115.5q0 74 -31.5 116t-92.5 42t-93 -42t-32 -116q0 -73 32 -115.5t93 -42.5t92.5 42.5zM114 741
h131l85 -186h-96z" />
    <glyph glyph-name="oacute" unicode="&#xf3;" horiz-adv-x="561" 
d="M151 21q-55 32 -84 89.5t-29 131.5t29 131.5t84 89.5t130 32t129.5 -32t83.5 -89.5t29 -131.5t-29 -131.5t-83.5 -89.5t-129.5 -32t-130 32zM373.5 126.5q31.5 42.5 31.5 115.5q0 74 -31.5 116t-92.5 42t-93 -42t-32 -116q0 -73 32 -115.5t93 -42.5t92.5 42.5zM315 741
h131l-120 -186h-95z" />
    <glyph glyph-name="ocircumflex" unicode="&#xf4;" horiz-adv-x="561" 
d="M151 21q-55 32 -84 89.5t-29 131.5t29 131.5t84 89.5t130 32t129.5 -32t83.5 -89.5t29 -131.5t-29 -131.5t-83.5 -89.5t-129.5 -32t-130 32zM373.5 126.5q31.5 42.5 31.5 115.5q0 74 -31.5 116t-92.5 42t-93 -42t-32 -116q0 -73 32 -115.5t93 -42.5t92.5 42.5zM231 714
q14 17 25.5 23.5t30.5 6.5q26 0 40 -10.5t14 -24.5q0 -3 -2 -9l-2 -5l128 -138h-120l-66 87l-61 -87h-118z" />
    <glyph glyph-name="otilde" unicode="&#xf5;" horiz-adv-x="561" 
d="M151 21q-55 32 -84 89.5t-29 131.5t29 131.5t84 89.5t130 32t129.5 -32t83.5 -89.5t29 -131.5t-29 -131.5t-83.5 -89.5t-129.5 -32t-130 32zM373.5 126.5q31.5 42.5 31.5 115.5q0 74 -31.5 116t-92.5 42t-93 -42t-32 -116q0 -73 32 -115.5t93 -42.5t92.5 42.5zM109 597
q7 42 36 69t65 27q25 0 45 -8t44 -23q29 -18 43 -18q19 0 29.5 11t14.5 37l60 -30q-1 -46 -25 -72.5t-64 -26.5q-22 0 -41 7.5t-44 20.5q-34 19 -50 19q-38 0 -47 -47z" />
    <glyph glyph-name="odieresis" unicode="&#xf6;" horiz-adv-x="561" 
d="M151 21q-55 32 -84 89.5t-29 131.5t29 131.5t84 89.5t130 32t129.5 -32t83.5 -89.5t29 -131.5t-29 -131.5t-83.5 -89.5t-129.5 -32t-130 32zM373.5 126.5q31.5 42.5 31.5 115.5q0 74 -31.5 116t-92.5 42t-93 -42t-32 -116q0 -73 32 -115.5t93 -42.5t92.5 42.5z
M122.5 583.5q-20.5 19.5 -20.5 48.5t20.5 48.5t51.5 19.5q30 0 49.5 -19.5t19.5 -48.5t-19.5 -48.5t-49.5 -19.5q-31 0 -51.5 19.5zM341 583.5q-20 19.5 -20 48.5t20 48.5t51 19.5q30 0 50 -19.5t20 -48.5t-20 -48.5t-50 -19.5q-31 0 -51 19.5z" />
    <glyph glyph-name="divide" unicode="&#xf7;" horiz-adv-x="548" 
d="M226 408.5q-19 18.5 -19 45.5t19 46t48 19t48 -19t19 -46t-19 -45.5t-48 -18.5t-48 18.5zM52 332h444v-94h-444v94zM226 66.5q-19 18.5 -19 45.5t19 46t48 19t48 -19t19 -46t-19 -45.5t-48 -18.5t-48 18.5z" />
    <glyph glyph-name="oslash" unicode="&#xf8;" horiz-adv-x="561" 
d="M497.5 366q25.5 -55 25.5 -124q0 -74 -29 -131.5t-83.5 -89.5t-129.5 -32q-55 0 -103 19l-44 -79l-45 25l44 79q-46 33 -70.5 87t-24.5 122q0 74 29 131.5t84 89.5t130 32q54 0 99 -17l43 78l45 -25l-43 -77q47 -33 72.5 -88zM186 129l145 262q-21 9 -50 9q-61 0 -93 -42
t-32 -116q0 -71 30 -113zM373.5 126.5q31.5 42.5 31.5 115.5q0 74 -32 117l-147 -264q25 -11 55 -11q61 0 92.5 42.5z" />
    <glyph glyph-name="ugrave" unicode="&#xf9;" horiz-adv-x="548" 
d="M96.5 45q-51.5 55 -51.5 149v291h116v-291q0 -55 25 -82t77 -27q53 0 81 37.5t28 95.5v267h116v-354q0 -32 4.5 -54.5t17.5 -46.5l-103 -40q-9 14 -16.5 37t-8.5 42q-51 -79 -149 -79q-85 0 -136.5 55zM110 741h131l85 -186h-96z" />
    <glyph glyph-name="uacute" unicode="&#xfa;" horiz-adv-x="548" 
d="M96.5 45q-51.5 55 -51.5 149v291h116v-291q0 -55 25 -82t77 -27q53 0 81 37.5t28 95.5v267h116v-354q0 -32 4.5 -54.5t17.5 -46.5l-103 -40q-9 14 -16.5 37t-8.5 42q-51 -79 -149 -79q-85 0 -136.5 55zM311 741h131l-120 -186h-95z" />
    <glyph glyph-name="ucircumflex" unicode="&#xfb;" horiz-adv-x="548" 
d="M96.5 45q-51.5 55 -51.5 149v291h116v-291q0 -55 25 -82t77 -27q53 0 81 37.5t28 95.5v267h116v-354q0 -32 4.5 -54.5t17.5 -46.5l-103 -40q-9 14 -16.5 37t-8.5 42q-51 -79 -149 -79q-85 0 -136.5 55zM227 714q14 17 25.5 23.5t30.5 6.5q26 0 40 -10.5t14 -24.5
q0 -3 -2 -9l-2 -5l128 -138h-120l-66 87l-61 -87h-118z" />
    <glyph glyph-name="udieresis" unicode="&#xfc;" horiz-adv-x="548" 
d="M96.5 45q-51.5 55 -51.5 149v291h116v-291q0 -55 25 -82t77 -27q53 0 81 37.5t28 95.5v267h116v-354q0 -32 4.5 -54.5t17.5 -46.5l-103 -40q-9 14 -16.5 37t-8.5 42q-51 -79 -149 -79q-85 0 -136.5 55zM118.5 583.5q-20.5 19.5 -20.5 48.5t20.5 48.5t51.5 19.5
q30 0 49.5 -19.5t19.5 -48.5t-19.5 -48.5t-49.5 -19.5q-31 0 -51.5 19.5zM337 583.5q-20 19.5 -20 48.5t20 48.5t51 19.5q30 0 50 -19.5t20 -48.5t-20 -48.5t-50 -19.5q-31 0 -51 19.5z" />
    <glyph glyph-name="yacute" unicode="&#xfd;" horiz-adv-x="582" 
d="M74 -135q66 23 106.5 63.5t56.5 108.5l-199 448h135l124 -322l113 322h134l-198 -491q-37 -91 -90.5 -141.5t-147.5 -81.5zM326 741h131l-120 -186h-95z" />
    <glyph glyph-name="thorn" unicode="&#xfe;" horiz-adv-x="567" 
d="M47 704h116v-272q25 30 63 47.5t85 17.5q65 0 114.5 -31t76.5 -88t27 -134q0 -118 -60.5 -185t-163.5 -67q-44 0 -80.5 17.5t-61.5 47.5v-276h-116v923zM381 126q31 41 31 118q0 74 -31 116.5t-90 42.5q-62 0 -96 -40.5t-34 -104.5v-26q0 -61 33 -104t93 -43q63 0 94 41z
" />
    <glyph glyph-name="ydieresis" unicode="&#xff;" horiz-adv-x="582" 
d="M74 -135q66 23 106.5 63.5t56.5 108.5l-199 448h135l124 -322l113 322h134l-198 -491q-37 -91 -90.5 -141.5t-147.5 -81.5zM133.5 583.5q-20.5 19.5 -20.5 48.5t20.5 48.5t51.5 19.5q30 0 49.5 -19.5t19.5 -48.5t-19.5 -48.5t-49.5 -19.5q-31 0 -51.5 19.5zM352 583.5
q-20 19.5 -20 48.5t20 48.5t51 19.5q30 0 50 -19.5t20 -48.5t-20 -48.5t-50 -19.5q-31 0 -51 19.5z" />
    <glyph glyph-name="Amacron" unicode="&#x100;" horiz-adv-x="697" 
d="M283 664q20 54 70 54q32 0 51 -14t19 -36q0 -6 -4 -18l241 -650h-124l-66 187h-244l-66 -187h-123zM444 281l-95 273l-95 -273h190zM185 867h336v-89h-336v89z" />
    <glyph glyph-name="amacron" unicode="&#x101;" horiz-adv-x="579" 
d="M140.5 20q-48.5 30 -75.5 85.5t-27 129.5q0 79 27.5 137.5t78.5 90.5t120 32q86 0 141 -67v57h112v-353q0 -36 5.5 -59.5t18.5 -45.5l-94 -37q-28 31 -32 78h-3q-28 -37 -68.5 -57.5t-90.5 -20.5q-64 0 -112.5 30zM370 123q33 40 33 106v26q0 60 -32.5 103.5t-92.5 43.5
q-59 0 -91 -44t-32 -123q0 -72 31 -112t89 -40q62 0 95 40zM110 652h336v-89h-336v89z" />
    <glyph glyph-name="Abreve" unicode="&#x102;" horiz-adv-x="697" 
d="M283 664q20 54 70 54q32 0 51 -14t19 -36q0 -6 -4 -18l241 -650h-124l-66 187h-244l-66 -187h-123zM444 281l-95 273l-95 -273h190zM241.5 804q-43.5 39 -43.5 112v11h99v-11q0 -34 14.5 -52t41.5 -18t41.5 18t14.5 52v11h99v-11q0 -73 -43.5 -112t-111.5 -39t-111.5 39z
" />
    <glyph glyph-name="abreve" unicode="&#x103;" horiz-adv-x="579" 
d="M140.5 20q-48.5 30 -75.5 85.5t-27 129.5q0 79 27.5 137.5t78.5 90.5t120 32q86 0 141 -67v57h112v-353q0 -36 5.5 -59.5t18.5 -45.5l-94 -37q-28 31 -32 78h-3q-28 -37 -68.5 -57.5t-90.5 -20.5q-64 0 -112.5 30zM370 123q33 40 33 106v26q0 60 -32.5 103.5t-92.5 43.5
q-59 0 -91 -44t-32 -123q0 -72 31 -112t89 -40q62 0 95 40zM166.5 589q-43.5 39 -43.5 112v11h99v-11q0 -34 14.5 -52t41.5 -18t41.5 18t14.5 52v11h99v-11q0 -73 -43.5 -112t-111.5 -39t-111.5 39z" />
    <glyph glyph-name="Aogonek" unicode="&#x104;" horiz-adv-x="697" 
d="M283 664q20 54 70 54q32 0 51 -14t19 -36q0 -6 -4 -18l241 -650h-124l-66 187h-244l-66 -187h-123zM444 281l-95 273l-95 -273h190zM504 -200q-32 28 -32 76q0 41 26 73.5t68 50.5h94q-46 -27 -68.5 -53.5t-22.5 -55.5q0 -17 10 -26.5t30 -9.5q25 0 48 15l24 -68
q-40 -30 -95 -30q-50 0 -82 28z" />
    <glyph glyph-name="aogonek" unicode="&#x105;" horiz-adv-x="579" 
d="M562 -170q-40 -31 -95 -31q-51 0 -82 28.5t-31 77.5q0 35 20 64t54 49q-10 20 -13 50h-3q-28 -37 -68.5 -57.5t-90.5 -20.5q-64 0 -112.5 30t-75.5 85.5t-27 129.5q0 79 27.5 137.5t78.5 90.5t120 32q86 0 141 -67v57h112v-353q0 -36 5.5 -59.5t18.5 -45.5
q-46 -28 -68.5 -54t-22.5 -54q0 -36 41 -36q24 0 48 15zM403 255q0 60 -32.5 103.5t-92.5 43.5q-59 0 -91 -44t-32 -123q0 -72 31 -112t89 -40q62 0 95 40t33 106v26z" />
    <glyph glyph-name="Cacute" unicode="&#x106;" horiz-adv-x="643" 
d="M192 33.5q-75 43.5 -114.5 124.5t-39.5 193q0 111 38.5 192t112 124t175.5 43q68 0 125.5 -23.5t93.5 -65.5l-46 -81q-35 37 -74.5 55t-98.5 18q-98 0 -152 -69.5t-54 -192.5q0 -124 56.5 -194t159.5 -70q51 0 90 17t71 53l70 -66q-40 -47 -102.5 -74t-130.5 -27
q-105 0 -180 43.5zM382 956h131l-120 -186h-95z" />
    <glyph glyph-name="cacute" unicode="&#x107;" horiz-adv-x="528" 
d="M108 57q-70 67 -70 185t68.5 185.5t188.5 67.5q54 0 101.5 -17.5t77.5 -46.5l-41 -78q-26 22 -60 34.5t-73 12.5q-67 0 -105.5 -39.5t-38.5 -118.5q0 -77 39 -117t109 -40q75 0 123 48l62 -64q-32 -36 -82.5 -57.5t-106.5 -21.5q-122 0 -192 67zM320 741h131l-120 -186
h-95z" />
    <glyph glyph-name="Ccircumflex" unicode="&#x108;" horiz-adv-x="643" 
d="M192 33.5q-75 43.5 -114.5 124.5t-39.5 193q0 111 38.5 192t112 124t175.5 43q68 0 125.5 -23.5t93.5 -65.5l-46 -81q-35 37 -74.5 55t-98.5 18q-98 0 -152 -69.5t-54 -192.5q0 -124 56.5 -194t159.5 -70q51 0 90 17t71 53l70 -66q-40 -47 -102.5 -74t-130.5 -27
q-105 0 -180 43.5zM298 929q14 17 25.5 23.5t30.5 6.5q26 0 40 -10.5t14 -24.5q0 -3 -2 -9l-2 -5l128 -138h-120l-66 87l-61 -87h-118z" />
    <glyph glyph-name="ccircumflex" unicode="&#x109;" horiz-adv-x="528" 
d="M108 57q-70 67 -70 185t68.5 185.5t188.5 67.5q54 0 101.5 -17.5t77.5 -46.5l-41 -78q-26 22 -60 34.5t-73 12.5q-67 0 -105.5 -39.5t-38.5 -118.5q0 -77 39 -117t109 -40q75 0 123 48l62 -64q-32 -36 -82.5 -57.5t-106.5 -21.5q-122 0 -192 67zM236 714q14 17 25.5 23.5
t30.5 6.5q26 0 40 -10.5t14 -24.5q0 -3 -2 -9l-2 -5l128 -138h-120l-66 87l-61 -87h-118z" />
    <glyph glyph-name="Cdotaccent" unicode="&#x10a;" horiz-adv-x="643" 
d="M192 33.5q-75 43.5 -114.5 124.5t-39.5 193q0 111 38.5 192t112 124t175.5 43q68 0 125.5 -23.5t93.5 -65.5l-46 -81q-35 37 -74.5 55t-98.5 18q-98 0 -152 -69.5t-54 -192.5q0 -124 56.5 -194t159.5 -70q51 0 90 17t71 53l70 -66q-40 -47 -102.5 -74t-130.5 -27
q-105 0 -180 43.5zM299 804.5q-20 19.5 -20 48.5t20 48.5t50 19.5t49 -19.5t19 -48.5t-19 -48.5t-49 -19.5t-50 19.5z" />
    <glyph glyph-name="cdotaccent" unicode="&#x10b;" horiz-adv-x="528" 
d="M108 57q-70 67 -70 185t68.5 185.5t188.5 67.5q54 0 101.5 -17.5t77.5 -46.5l-41 -78q-26 22 -60 34.5t-73 12.5q-67 0 -105.5 -39.5t-38.5 -118.5q0 -77 39 -117t109 -40q75 0 123 48l62 -64q-32 -36 -82.5 -57.5t-106.5 -21.5q-122 0 -192 67zM237 589.5
q-20 19.5 -20 48.5t20 48.5t50 19.5t49 -19.5t19 -48.5t-19 -48.5t-49 -19.5t-50 19.5z" />
    <glyph glyph-name="Ccaron" unicode="&#x10c;" horiz-adv-x="643" 
d="M192 33.5q-75 43.5 -114.5 124.5t-39.5 193q0 111 38.5 192t112 124t175.5 43q68 0 125.5 -23.5t93.5 -65.5l-46 -81q-35 37 -74.5 55t-98.5 18q-98 0 -152 -69.5t-54 -192.5q0 -124 56.5 -194t159.5 -70q51 0 90 17t71 53l70 -66q-40 -47 -102.5 -74t-130.5 -27
q-105 0 -180 43.5zM299.5 786.5q-13.5 14.5 -8.5 29.5l2 6l-128 137h120l66 -86l61 86h118l-131 -156q-15 -17 -26.5 -24t-29.5 -7q-30 0 -43.5 14.5z" />
    <glyph glyph-name="ccaron" unicode="&#x10d;" horiz-adv-x="528" 
d="M108 57q-70 67 -70 185t68.5 185.5t188.5 67.5q54 0 101.5 -17.5t77.5 -46.5l-41 -78q-26 22 -60 34.5t-73 12.5q-67 0 -105.5 -39.5t-38.5 -118.5q0 -77 39 -117t109 -40q75 0 123 48l62 -64q-32 -36 -82.5 -57.5t-106.5 -21.5q-122 0 -192 67zM237.5 571.5
q-13.5 14.5 -8.5 29.5l2 6l-128 137h120l66 -86l61 86h118l-131 -156q-15 -17 -26.5 -24t-29.5 -7q-30 0 -43.5 14.5z" />
    <glyph glyph-name="Dcaron" unicode="&#x10e;" horiz-adv-x="653" 
d="M67 587q0 20 -5 30t-14 19.5t-9 16.5q0 5 1 8q7 21 23.5 39t35.5 18q18 0 36 -18h137q106 0 183 -42.5t118 -121t41 -184.5q0 -166 -87.5 -259t-249.5 -93h-210v587zM277 102q110 0 163.5 62.5t53.5 187.5q0 121 -57.5 183.5t-167.5 62.5h-84v-496h92zM263.5 786.5
q-13.5 14.5 -8.5 29.5l2 6l-128 137h120l66 -86l61 86h118l-131 -156q-15 -17 -26.5 -24t-29.5 -7q-30 0 -43.5 14.5z" />
    <glyph glyph-name="dcaron" unicode="&#x10f;" horiz-adv-x="766" 
d="M564 548q23 11 40 25.5t23 29.5q-22 2 -38.5 19.5t-16.5 39.5q0 33 21 53t56 20q36 0 57 -22t21 -60q0 -47 -38 -90t-93 -68zM418 69q-60 -79 -158 -79q-65 0 -115.5 29.5t-78.5 85t-28 130.5q0 79 28 138t79.5 90.5t120.5 31.5q83 0 139 -65v304h116v-601q0 -37 5.5 -61
t18.5 -45l-95 -38q-29 32 -32 80zM372.5 124q33.5 41 33.5 105v26q0 61 -32.5 104t-92.5 43q-63 0 -94.5 -44.5t-31.5 -122.5q0 -72 30.5 -112t91.5 -40q62 0 95.5 41z" />
    <glyph glyph-name="Dcroat" unicode="&#x110;" horiz-adv-x="679" 
d="M481.5 657.5q77.5 -42.5 118.5 -121t41 -184.5q0 -166 -87.5 -259t-249.5 -93h-210v306h-56v86h56v195q0 20 -5.5 30.5t-14.5 19.5q-6 7 -8.5 11.5t0.5 12.5q7 21 23.5 39t35.5 18q18 0 36 -18h138q105 0 182.5 -42.5zM521 352q0 120 -57.5 183t-167.5 63h-84v-206h154
v-86h-154v-204h92q217 0 217 250z" />
    <glyph glyph-name="dcroat" unicode="&#x111;" horiz-adv-x="612" 
d="M521 561v-428q0 -37 5.5 -61t18.5 -45l-95 -38q-29 32 -32 80q-60 -79 -158 -79q-65 0 -115.5 29.5t-78.5 85t-28 130.5q0 79 28 138t79.5 90.5t120.5 31.5q83 0 139 -65v131h-104v86h104v87h116v-87h52v-86h-52zM406 255q0 61 -32.5 104t-92.5 43q-63 0 -94.5 -44.5
t-31.5 -122.5q0 -72 30.5 -112t91.5 -40q62 0 95.5 41t33.5 105v26z" />
    <glyph glyph-name="Emacron" unicode="&#x112;" horiz-adv-x="543" 
d="M68 587q0 20 -5.5 30.5t-14.5 19.5q-6 7 -8.5 11.5t0.5 12.5q7 21 23.5 39t35.5 18q18 0 36 -18h361v-102h-310v-182h226v-98h-226v-216h319v-102h-437v587zM116 867h336v-89h-336v89z" />
    <glyph glyph-name="emacron" unicode="&#x113;" horiz-adv-x="554" 
d="M156 20.5q-57 30.5 -87.5 87t-30.5 131.5q0 73 26.5 131t80.5 91.5t131 33.5t131.5 -33.5t81.5 -88t27 -117.5q0 -30 -19.5 -46t-53.5 -16h-289q0 -49 37.5 -79t99.5 -30q85 0 138 51l58 -63q-32 -39 -82.5 -61t-113.5 -22q-78 0 -135 30.5zM401 286q0 50 -34.5 83
t-90.5 33q-54 0 -88 -33.5t-34 -82.5h247zM116 652h336v-89h-336v89z" />
    <glyph glyph-name="Ebreve" unicode="&#x114;" horiz-adv-x="543" 
d="M68 587q0 20 -5.5 30.5t-14.5 19.5q-6 7 -8.5 11.5t0.5 12.5q7 21 23.5 39t35.5 18q18 0 36 -18h361v-102h-310v-182h226v-98h-226v-216h319v-102h-437v587zM172.5 804q-43.5 39 -43.5 112v11h99v-11q0 -34 14.5 -52t41.5 -18t41.5 18t14.5 52v11h99v-11
q0 -73 -43.5 -112t-111.5 -39t-111.5 39z" />
    <glyph glyph-name="ebreve" unicode="&#x115;" horiz-adv-x="554" 
d="M156 20.5q-57 30.5 -87.5 87t-30.5 131.5q0 73 26.5 131t80.5 91.5t131 33.5t131.5 -33.5t81.5 -88t27 -117.5q0 -30 -19.5 -46t-53.5 -16h-289q0 -49 37.5 -79t99.5 -30q85 0 138 51l58 -63q-32 -39 -82.5 -61t-113.5 -22q-78 0 -135 30.5zM401 286q0 50 -34.5 83
t-90.5 33q-54 0 -88 -33.5t-34 -82.5h247zM172.5 589q-43.5 39 -43.5 112v11h99v-11q0 -34 14.5 -52t41.5 -18t41.5 18t14.5 52v11h99v-11q0 -73 -43.5 -112t-111.5 -39t-111.5 39z" />
    <glyph glyph-name="Edotaccent" unicode="&#x116;" horiz-adv-x="543" 
d="M68 587q0 20 -5.5 30.5t-14.5 19.5q-6 7 -8.5 11.5t0.5 12.5q7 21 23.5 39t35.5 18q18 0 36 -18h361v-102h-310v-182h226v-98h-226v-216h319v-102h-437v587zM235 804.5q-20 19.5 -20 48.5t20 48.5t50 19.5t49 -19.5t19 -48.5t-19 -48.5t-49 -19.5t-50 19.5z" />
    <glyph glyph-name="edotaccent" unicode="&#x117;" horiz-adv-x="554" 
d="M156 20.5q-57 30.5 -87.5 87t-30.5 131.5q0 73 26.5 131t80.5 91.5t131 33.5t131.5 -33.5t81.5 -88t27 -117.5q0 -30 -19.5 -46t-53.5 -16h-289q0 -49 37.5 -79t99.5 -30q85 0 138 51l58 -63q-32 -39 -82.5 -61t-113.5 -22q-78 0 -135 30.5zM401 286q0 50 -34.5 83
t-90.5 33q-54 0 -88 -33.5t-34 -82.5h247zM235 589.5q-20 19.5 -20 48.5t20 48.5t50 19.5t49 -19.5t19 -48.5t-19 -48.5t-49 -19.5t-50 19.5z" />
    <glyph glyph-name="Eogonek" unicode="&#x118;" horiz-adv-x="543" 
d="M516 -192q-42 -30 -95 -30q-51 0 -82.5 28t-31.5 76q0 37 22 68t58 50h-319v587q0 20 -5.5 30.5t-14.5 19.5q-6 7 -8.5 11.5t0.5 12.5q7 21 23.5 39t35.5 18q18 0 36 -18h361v-102h-310v-182h226v-98h-226v-216h319v-102h-21q-41 -26 -61 -51t-20 -52q0 -17 10.5 -26.5
t30.5 -9.5q24 0 48 15z" />
    <glyph glyph-name="eogonek" unicode="&#x119;" horiz-adv-x="554" 
d="M496.5 210q-19.5 -16 -53.5 -16h-289q0 -49 37.5 -79t99.5 -30q85 0 138 51l58 -63q-55 -66 -148 -79q-71 -48 -71 -97q0 -17 10.5 -26.5t30.5 -9.5q24 0 48 15l23 -68q-40 -30 -95 -30q-51 0 -82 28.5t-31 77.5q0 33 18.5 62t50.5 48q-95 14 -149 79t-54 166
q0 73 26.5 131t80.5 91.5t131 33.5t131.5 -33.5t81.5 -88t27 -117.5q0 -30 -19.5 -46zM401 286q0 50 -34.5 83t-90.5 33q-54 0 -88 -33.5t-34 -82.5h247z" />
    <glyph glyph-name="Ecaron" unicode="&#x11a;" horiz-adv-x="543" 
d="M68 587q0 20 -5.5 30.5t-14.5 19.5q-6 7 -8.5 11.5t0.5 12.5q7 21 23.5 39t35.5 18q18 0 36 -18h361v-102h-310v-182h226v-98h-226v-216h319v-102h-437v587zM235.5 786.5q-13.5 14.5 -8.5 29.5l2 6l-128 137h120l66 -86l61 86h118l-131 -156q-15 -17 -26.5 -24t-29.5 -7
q-30 0 -43.5 14.5z" />
    <glyph glyph-name="ecaron" unicode="&#x11b;" horiz-adv-x="554" 
d="M156 20.5q-57 30.5 -87.5 87t-30.5 131.5q0 73 26.5 131t80.5 91.5t131 33.5t131.5 -33.5t81.5 -88t27 -117.5q0 -30 -19.5 -46t-53.5 -16h-289q0 -49 37.5 -79t99.5 -30q85 0 138 51l58 -63q-32 -39 -82.5 -61t-113.5 -22q-78 0 -135 30.5zM401 286q0 50 -34.5 83
t-90.5 33q-54 0 -88 -33.5t-34 -82.5h247zM235.5 571.5q-13.5 14.5 -8.5 29.5l2 6l-128 137h120l66 -86l61 86h118l-131 -156q-15 -17 -26.5 -24t-29.5 -7q-30 0 -43.5 14.5z" />
    <glyph glyph-name="Gcircumflex" unicode="&#x11c;" horiz-adv-x="666" 
d="M188.5 33.5q-73.5 43.5 -112 125t-38.5 192.5t38.5 192t112 124t175.5 43q70 0 127 -23.5t93 -65.5l-46 -81q-35 38 -74 55.5t-100 17.5q-98 0 -152 -69.5t-54 -192.5q0 -124 54.5 -194t152.5 -70q40 0 66 6t51 21v174h-157v98h208q15 17 35 17q19 0 36 -18.5t23 -38.5
q3 -9 1 -13t-9 -11q-9 -9 -14 -19t-5 -30v-210q-63 -40 -116 -56.5t-121 -16.5q-101 0 -174.5 43.5zM310 929q14 17 25.5 23.5t30.5 6.5q26 0 40 -10.5t14 -24.5q0 -3 -2 -9l-2 -5l128 -138h-120l-66 87l-61 -87h-118z" />
    <glyph glyph-name="gcircumflex" unicode="&#x11d;" horiz-adv-x="583" 
d="M92 -177l35 85q59 -31 133 -31q78 0 111 39t33 114v35q-26 -31 -62 -48t-81 -17q-103 0 -163 66t-60 184q0 115 59 180.5t158 65.5q97 0 162 -78q3 47 32 79l95 -37q-13 -22 -18.5 -45.5t-5.5 -60.5v-317q0 -125 -67.5 -190t-192.5 -65q-86 0 -168 41zM372 136
q33 43 33 104v18q0 64 -33.5 104.5t-95.5 40.5q-60 0 -90.5 -40.5t-30.5 -112.5q0 -157 124 -157q60 0 93 43zM249 714q14 17 25.5 23.5t30.5 6.5q26 0 40 -10.5t14 -24.5q0 -3 -2 -9l-2 -5l128 -138h-120l-66 87l-61 -87h-118z" />
    <glyph glyph-name="Gbreve" unicode="&#x11e;" horiz-adv-x="666" 
d="M188.5 33.5q-73.5 43.5 -112 125t-38.5 192.5t38.5 192t112 124t175.5 43q70 0 127 -23.5t93 -65.5l-46 -81q-35 38 -74 55.5t-100 17.5q-98 0 -152 -69.5t-54 -192.5q0 -124 54.5 -194t152.5 -70q40 0 66 6t51 21v174h-157v98h208q15 17 35 17q19 0 36 -18.5t23 -38.5
q3 -9 1 -13t-9 -11q-9 -9 -14 -19t-5 -30v-210q-63 -40 -116 -56.5t-121 -16.5q-101 0 -174.5 43.5zM248.5 804q-43.5 39 -43.5 112v11h99v-11q0 -34 14.5 -52t41.5 -18t41.5 18t14.5 52v11h99v-11q0 -73 -43.5 -112t-111.5 -39t-111.5 39z" />
    <glyph glyph-name="gbreve" unicode="&#x11f;" horiz-adv-x="583" 
d="M92 -177l35 85q59 -31 133 -31q78 0 111 39t33 114v35q-26 -31 -62 -48t-81 -17q-103 0 -163 66t-60 184q0 115 59 180.5t158 65.5q97 0 162 -78q3 47 32 79l95 -37q-13 -22 -18.5 -45.5t-5.5 -60.5v-317q0 -125 -67.5 -190t-192.5 -65q-86 0 -168 41zM372 136
q33 43 33 104v18q0 64 -33.5 104.5t-95.5 40.5q-60 0 -90.5 -40.5t-30.5 -112.5q0 -157 124 -157q60 0 93 43zM187.5 589q-43.5 39 -43.5 112v11h99v-11q0 -34 14.5 -52t41.5 -18t41.5 18t14.5 52v11h99v-11q0 -73 -43.5 -112t-111.5 -39t-111.5 39z" />
    <glyph glyph-name="Gdotaccent" unicode="&#x120;" horiz-adv-x="666" 
d="M188.5 33.5q-73.5 43.5 -112 125t-38.5 192.5t38.5 192t112 124t175.5 43q70 0 127 -23.5t93 -65.5l-46 -81q-35 38 -74 55.5t-100 17.5q-98 0 -152 -69.5t-54 -192.5q0 -124 54.5 -194t152.5 -70q40 0 66 6t51 21v174h-157v98h208q15 17 35 17q19 0 36 -18.5t23 -38.5
q3 -9 1 -13t-9 -11q-9 -9 -14 -19t-5 -30v-210q-63 -40 -116 -56.5t-121 -16.5q-101 0 -174.5 43.5zM311 804.5q-20 19.5 -20 48.5t20 48.5t50 19.5t49 -19.5t19 -48.5t-19 -48.5t-49 -19.5t-50 19.5z" />
    <glyph glyph-name="gdotaccent" unicode="&#x121;" horiz-adv-x="583" 
d="M92 -177l35 85q59 -31 133 -31q78 0 111 39t33 114v35q-26 -31 -62 -48t-81 -17q-103 0 -163 66t-60 184q0 115 59 180.5t158 65.5q97 0 162 -78q3 47 32 79l95 -37q-13 -22 -18.5 -45.5t-5.5 -60.5v-317q0 -125 -67.5 -190t-192.5 -65q-86 0 -168 41zM372 136
q33 43 33 104v18q0 64 -33.5 104.5t-95.5 40.5q-60 0 -90.5 -40.5t-30.5 -112.5q0 -157 124 -157q60 0 93 43zM250 589.5q-20 19.5 -20 48.5t20 48.5t50 19.5t49 -19.5t19 -48.5t-19 -48.5t-49 -19.5t-50 19.5z" />
    <glyph glyph-name="uni0122" unicode="&#x122;" horiz-adv-x="666" 
d="M188.5 33.5q-73.5 43.5 -112 125t-38.5 192.5t38.5 192t112 124t175.5 43q70 0 127 -23.5t93 -65.5l-46 -81q-35 38 -74 55.5t-100 17.5q-98 0 -152 -69.5t-54 -192.5q0 -124 54.5 -194t152.5 -70q40 0 66 6t51 21v174h-157v98h208q15 17 35 17q19 0 36 -18.5t23 -38.5
q3 -9 1 -13t-9 -11q-9 -9 -14 -19t-5 -30v-210q-63 -40 -116 -56.5t-121 -16.5q-101 0 -174.5 43.5zM292 -230q43 19 63 55q-28 -4 -47.5 14t-19.5 44q0 31 20 50t53 19q36 0 55.5 -22t19.5 -60q0 -45 -32.5 -83.5t-82.5 -60.5z" />
    <glyph glyph-name="uni0123" unicode="&#x123;" horiz-adv-x="583" 
d="M92 -177l35 85q59 -31 133 -31q78 0 111 39t33 114v35q-26 -31 -62 -48t-81 -17q-103 0 -163 66t-60 184q0 115 59 180.5t158 65.5q97 0 162 -78q3 47 32 79l95 -37q-13 -22 -18.5 -45.5t-5.5 -60.5v-317q0 -125 -67.5 -190t-192.5 -65q-86 0 -168 41zM372 136
q33 43 33 104v18q0 64 -33.5 104.5t-95.5 40.5q-60 0 -90.5 -40.5t-30.5 -112.5q0 -157 124 -157q60 0 93 43zM250 563q-21 22 -21 60q0 47 37.5 90t92.5 68l33 -54q-23 -10 -40 -24.5t-24 -29.5q22 -2 38.5 -19.5t16.5 -39.5q0 -33 -21 -53t-55 -20q-36 0 -57 22z" />
    <glyph glyph-name="Hcircumflex" unicode="&#x124;" horiz-adv-x="625" 
d="M50 700h118v-282h289v282h118v-700h-118v318h-289v-318h-118v700zM263 929q14 17 25.5 23.5t30.5 6.5q26 0 40 -10.5t14 -24.5q0 -3 -2 -9l-2 -5l128 -138h-120l-66 87l-61 -87h-118z" />
    <glyph glyph-name="hcircumflex" unicode="&#x125;" horiz-adv-x="549" 
d="M374 120v171q0 109 -92 109q-53 0 -86 -41.5t-33 -103.5v-255h-116v734h116v-307q27 32 65.5 50t82.5 18q179 0 179 -204v-169q0 -53 21 -93l-105 -39q-32 54 -32 130zM174 963q14 17 25.5 23.5t30.5 6.5q26 0 40 -10.5t14 -24.5q0 -3 -2 -9l-2 -5l128 -138h-120l-66 87
l-61 -87h-118z" />
    <glyph glyph-name="Hbar" unicode="&#x126;" horiz-adv-x="706" 
d="M671 514h-56v-514h-118v318h-289v-318h-118v514h-55v86h55v100h118v-100h289v100h118v-100h56v-86zM497 514h-289v-96h289v96z" />
    <glyph glyph-name="hbar" unicode="&#x127;" horiz-adv-x="596" 
d="M558 29l-105 -39q-32 56 -32 130v171q0 56 -23 82.5t-69 26.5q-53 0 -86 -41.5t-33 -103.5v-255h-116v562h-56v78h56v94h116v-94h112v-78h-112v-135q28 32 66 50t82 18q179 0 179 -204v-169q0 -53 21 -93z" />
    <glyph glyph-name="Itilde" unicode="&#x128;" horiz-adv-x="298" 
d="M90 700h118v-700h-118v700zM-23 812q7 42 36 69t65 27q25 0 45 -8t44 -23q29 -18 43 -18q19 0 29.5 11t14.5 37l60 -30q-1 -46 -25 -72.5t-64 -26.5q-22 0 -41 7.5t-44 20.5q-34 19 -50 19q-38 0 -47 -47z" />
    <glyph glyph-name="itilde" unicode="&#x129;" horiz-adv-x="268" 
d="M76 485h116v-485h-116v485zM-38 597q7 42 36 69t65 27q25 0 45 -8t44 -23q29 -18 43 -18q19 0 29.5 11t14.5 37l60 -30q-1 -46 -25 -72.5t-64 -26.5q-22 0 -41 7.5t-44 20.5q-34 19 -50 19q-38 0 -47 -47z" />
    <glyph glyph-name="Imacron" unicode="&#x12a;" horiz-adv-x="298" 
d="M90 700h118v-700h-118v700zM-19 867h336v-89h-336v89z" />
    <glyph glyph-name="imacron" unicode="&#x12b;" horiz-adv-x="268" 
d="M76 485h116v-485h-116v485zM-34 652h336v-89h-336v89z" />
    <glyph glyph-name="Ibreve" unicode="&#x12c;" horiz-adv-x="298" 
d="M90 700h118v-700h-118v700zM37.5 804q-43.5 39 -43.5 112v11h99v-11q0 -34 14.5 -52t41.5 -18t41.5 18t14.5 52v11h99v-11q0 -73 -43.5 -112t-111.5 -39t-111.5 39z" />
    <glyph glyph-name="ibreve" unicode="&#x12d;" horiz-adv-x="268" 
d="M76 485h116v-485h-116v485zM22.5 589q-43.5 39 -43.5 112v11h99v-11q0 -34 14.5 -52t41.5 -18t41.5 18t14.5 52v11h99v-11q0 -73 -43.5 -112t-111.5 -39t-111.5 39z" />
    <glyph glyph-name="Iogonek" unicode="&#x12e;" horiz-adv-x="298" 
d="M218 -192q-40 -30 -95 -30q-50 0 -82 28t-32 76q0 37 22 68t59 50v700h118v-700h-21q-41 -26 -61 -51t-20 -52q0 -17 10 -26.5t30 -9.5q25 0 48 15z" />
    <glyph glyph-name="iogonek" unicode="&#x12f;" horiz-adv-x="268" 
d="M76 578.5q-23 21.5 -23 54.5q0 34 23 55.5t58 21.5t58 -21.5t23 -55.5q0 -33 -23 -54.5t-58 -21.5t-58 21.5zM76 485h116v-485h-116v485zM36 -200q-32 28 -32 76q0 41 26 73.5t68 50.5h94q-46 -27 -68.5 -53.5t-22.5 -55.5q0 -17 10 -26.5t30 -9.5q25 0 48 15l24 -68
q-40 -30 -95 -30q-50 0 -82 28z" />
    <glyph glyph-name="Idotaccent" unicode="&#x130;" horiz-adv-x="298" 
d="M90 700h118v-700h-118v700zM100 804.5q-20 19.5 -20 48.5t20 48.5t50 19.5t49 -19.5t19 -48.5t-19 -48.5t-49 -19.5t-50 19.5z" />
    <glyph glyph-name="dotlessi" unicode="&#x131;" horiz-adv-x="268" 
d="M76 485h116v-485h-116v485z" />
    <glyph glyph-name="IJ" unicode="&#x132;" horiz-adv-x="742" 
d="M90 700h118v-700h-118v700zM402.5 3.5q-43.5 13.5 -76.5 38.5l47 82q55 -35 115 -35q46 0 68 23.5t22 72.5v515h118v-512q0 -91 -55 -144.5t-151 -53.5q-44 0 -87.5 13.5z" />
    <glyph glyph-name="ij" unicode="&#x133;" horiz-adv-x="617" 
d="M76 583.5q-23 21.5 -23 54.5q0 34 23 55.5t58 21.5t58 -21.5t23 -55.5q0 -33 -23 -54.5t-58 -21.5t-58 21.5zM425 583.5q-23 21.5 -23 54.5q0 34 23 55.5t58 21.5t58 -21.5t23 -55.5q0 -33 -23 -54.5t-58 -21.5t-58 21.5zM76 485h116v-485h-116v485zM272.5 -204.5
q-43.5 14.5 -68.5 37.5l43 79q48 -36 104 -36q39 0 56.5 21.5t17.5 72.5v515h116v-508q0 -97 -46 -146.5t-136 -49.5q-43 0 -86.5 14.5z" />
    <glyph glyph-name="Jcircumflex" unicode="&#x134;" horiz-adv-x="444" 
d="M104.5 3.5q-43.5 13.5 -76.5 38.5l47 82q55 -35 115 -35q46 0 68 23.5t22 72.5v515h118v-512q0 -91 -55 -144.5t-151 -53.5q-44 0 -87.5 13.5zM290 929q14 17 25.5 23.5t30.5 6.5q26 0 40 -10.5t14 -24.5q0 -3 -2 -9l-2 -5l128 -138h-120l-66 87l-61 -87h-118z" />
    <glyph glyph-name="jcircumflex" unicode="&#x135;" horiz-adv-x="441" 
d="M96.5 -204.5q-43.5 14.5 -68.5 37.5l43 79q49 -36 104 -36q39 0 56.5 21.5t17.5 72.5v515h116v-508q0 -97 -46 -146.5t-136 -49.5q-43 0 -86.5 14.5zM258 714q14 17 25.5 23.5t30.5 6.5q26 0 40 -10.5t14 -24.5q0 -3 -2 -9l-2 -5l128 -138h-120l-66 87l-61 -87h-118z" />
    <glyph glyph-name="uni0136" unicode="&#x136;" horiz-adv-x="614" 
d="M50 700h118v-259l233 259h144l-304 -334l335 -366h-146l-262 290v-290h-118v700zM224 -230q43 19 63 55q-28 -4 -47.5 14t-19.5 44q0 31 20 50t53 19q36 0 55.5 -22t19.5 -60q0 -45 -32.5 -83.5t-82.5 -60.5z" />
    <glyph glyph-name="uni0137" unicode="&#x137;" horiz-adv-x="503" 
d="M50 734h116v-400l151 151h143l-234 -227l260 -258h-149l-171 174v-174h-116v734zM164 -230q43 19 63 55q-28 -4 -47.5 14t-19.5 44q0 31 20 50t53 19q36 0 55.5 -22t19.5 -60q0 -45 -32.5 -83.5t-82.5 -60.5z" />
    <glyph glyph-name="kgreenlandic" unicode="&#x138;" horiz-adv-x="525" 
d="M50 487h116v-167l151 167h143l-236 -242l262 -245h-149l-171 163v-163h-116v487z" />
    <glyph glyph-name="Lacute" unicode="&#x139;" horiz-adv-x="521" 
d="M61.5 5q-15.5 15 -21.5 35q-3 9 -1 13t9 12q9 9 14 19t5 30v586h118v-598h301v-102h-353q-14 -10 -37 -10q-19 0 -34.5 15zM162 956h131l-120 -186h-95z" />
    <glyph glyph-name="lacute" unicode="&#x13a;" horiz-adv-x="216" 
d="M50 734h116v-734h-116v734zM142 990h131l-120 -186h-95z" />
    <glyph glyph-name="uni013B" unicode="&#x13b;" horiz-adv-x="521" 
d="M61.5 5q-15.5 15 -21.5 35q-3 9 -1 13t9 12q9 9 14 19t5 30v586h118v-598h301v-102h-353q-14 -10 -37 -10q-19 0 -34.5 15zM195 -230q43 19 63 55q-28 -4 -47.5 14t-19.5 44q0 31 20 50t53 19q36 0 55.5 -22t19.5 -60q0 -45 -32.5 -83.5t-82.5 -60.5z" />
    <glyph glyph-name="uni013C" unicode="&#x13c;" horiz-adv-x="216" 
d="M50 734h116v-734h-116v734zM40 -230q43 19 63 55q-28 -4 -47.5 14t-19.5 44q0 31 20 50t53 19q36 0 55.5 -22t19.5 -60q0 -45 -32.5 -83.5t-82.5 -60.5z" />
    <glyph glyph-name="Lcaron" unicode="&#x13d;" horiz-adv-x="521" 
d="M61.5 5q-15.5 15 -21.5 35q-3 9 -1 13t9 12q9 9 14 19t5 30v586h118v-598h301v-102h-353q-14 -10 -37 -10q-19 0 -34.5 15zM319 555q23 10 40 24.5t24 29.5q-22 2 -38.5 19.5t-16.5 39.5q0 33 21 53t55 20q36 0 57 -22t21 -60q0 -47 -37.5 -90t-92.5 -68z" />
    <glyph glyph-name="lcaron" unicode="&#x13e;" horiz-adv-x="212" 
d="M50 734h116v-734h-116v734zM243 547q23 10 40 24.5t24 29.5q-22 2 -38.5 19.5t-16.5 39.5q0 33 21 53t55 20q36 0 57 -22t21 -60q0 -47 -37.5 -90t-92.5 -68z" />
    <glyph glyph-name="Ldot" unicode="&#x13f;" horiz-adv-x="521" 
d="M61.5 5q-15.5 15 -21.5 35q-3 9 -1 13t9 12q9 9 14 19t5 30v586h118v-598h301v-102h-353q-14 -10 -37 -10q-19 0 -34.5 15zM298 291.5q-20 19.5 -20 48.5t20 48.5t51 19.5q30 0 50 -19.5t20 -48.5t-20 -48.5t-50 -19.5q-31 0 -51 19.5z" />
    <glyph glyph-name="ldot" unicode="&#x140;" horiz-adv-x="361" 
d="M50 734h116v-734h-116v734zM228 317.5q-20 19.5 -20 48.5t20 48.5t51 19.5q30 0 50 -19.5t20 -48.5t-20 -48.5t-50 -19.5q-31 0 -51 19.5z" />
    <glyph glyph-name="Lslash" unicode="&#x141;" horiz-adv-x="563" 
d="M528 102v-102h-353q-14 -10 -37 -10q-19 0 -34.5 15t-21.5 35q-3 9 -1 13t9 12q9 9 14 19t5 30v157l-72 -33v98l72 33v331h118v-277l154 71v-98l-154 -71v-223h301z" />
    <glyph glyph-name="lslash" unicode="&#x142;" horiz-adv-x="273" 
d="M261 346l-67 -31v-315h-116v261l-67 -31v98l67 31v375h116v-321l67 31v-98z" />
    <glyph glyph-name="Nacute" unicode="&#x143;" horiz-adv-x="623" 
d="M61 604q0 11 -3.5 18t-9.5 14q-10 12 -10 21q0 2 2 12q7 23 25 36t41 13q35 0 52 -27l297 -478v487h118v-700h-100l-294 470v-470h-118v604zM358 956h131l-120 -186h-95z" />
    <glyph glyph-name="nacute" unicode="&#x144;" horiz-adv-x="563" 
d="M387 120v171q0 56 -22.5 82.5t-68.5 26.5q-54 0 -87 -42t-33 -103v-255h-116v354q0 32 -4.5 54.5t-17.5 46.5l103 40q9 -15 16.5 -37.5t8.5 -41.5q28 35 71.5 57t91.5 22q174 0 174 -204v-169q0 -53 21 -93l-105 -39q-32 56 -32 130zM320 741h131l-120 -186h-95z" />
    <glyph glyph-name="uni0145" unicode="&#x145;" horiz-adv-x="623" 
d="M61 604q0 11 -3.5 18t-9.5 14q-10 12 -10 21q0 2 2 12q7 23 25 36t41 13q35 0 52 -27l297 -478v487h118v-700h-100l-294 470v-470h-118v604zM256 -230q43 19 63 55q-28 -4 -47.5 14t-19.5 44q0 31 20 50t53 19q36 0 55.5 -22t19.5 -60q0 -45 -32.5 -83.5t-82.5 -60.5z
" />
    <glyph glyph-name="uni0146" unicode="&#x146;" horiz-adv-x="563" 
d="M387 120v171q0 56 -22.5 82.5t-68.5 26.5q-54 0 -87 -42t-33 -103v-255h-116v354q0 32 -4.5 54.5t-17.5 46.5l103 40q9 -15 16.5 -37.5t8.5 -41.5q28 35 71.5 57t91.5 22q174 0 174 -204v-169q0 -53 21 -93l-105 -39q-32 56 -32 130zM218 -230q43 19 63 55
q-28 -4 -47.5 14t-19.5 44q0 31 20 50t53 19q36 0 55.5 -22t19.5 -60q0 -45 -32.5 -83.5t-82.5 -60.5z" />
    <glyph glyph-name="Ncaron" unicode="&#x147;" horiz-adv-x="623" 
d="M61 604q0 11 -3.5 18t-9.5 14q-10 12 -10 21q0 2 2 12q7 23 25 36t41 13q35 0 52 -27l297 -478v487h118v-700h-100l-294 470v-470h-118v604zM275.5 786.5q-13.5 14.5 -8.5 29.5l2 6l-128 137h120l66 -86l61 86h118l-131 -156q-15 -17 -26.5 -24t-29.5 -7
q-30 0 -43.5 14.5z" />
    <glyph glyph-name="ncaron" unicode="&#x148;" horiz-adv-x="563" 
d="M387 120v171q0 56 -22.5 82.5t-68.5 26.5q-54 0 -87 -42t-33 -103v-255h-116v354q0 32 -4.5 54.5t-17.5 46.5l103 40q9 -15 16.5 -37.5t8.5 -41.5q28 35 71.5 57t91.5 22q174 0 174 -204v-169q0 -53 21 -93l-105 -39q-32 56 -32 130zM237.5 571.5q-13.5 14.5 -8.5 29.5
l2 6l-128 137h120l66 -86l61 86h118l-131 -156q-15 -17 -26.5 -24t-29.5 -7q-30 0 -43.5 14.5z" />
    <glyph glyph-name="napostrophe" unicode="&#x149;" horiz-adv-x="563" 
d="M387 120v171q0 56 -22.5 82.5t-68.5 26.5q-54 0 -87 -42t-33 -103v-255h-116v354q0 32 -4.5 54.5t-17.5 46.5l103 40q9 -15 16.5 -37.5t8.5 -41.5q28 35 71.5 57t91.5 22q174 0 174 -204v-169q0 -53 21 -93l-105 -39q-32 56 -32 130zM-92 497q23 10 40 24.5t24 29.5
q-22 2 -38.5 19.5t-16.5 39.5q0 33 21 53t55 20q36 0 57 -22t21 -60q0 -47 -37.5 -90t-92.5 -68z" />
    <glyph glyph-name="Eng" unicode="&#x14a;" horiz-adv-x="623" 
d="M282.5 -253q-42.5 14 -75.5 38l47 82q54 -35 113 -35q45 0 66.5 23.5t21.5 72.5v100l-276 442v-470h-118v604q0 11 -3.5 18t-9.5 14q-10 12 -10 21q0 2 2 12q7 22 25 35.5t41 13.5q16 0 30 -7t22 -20l297 -478v487h118v-769q0 -91 -54 -144.5t-150 -53.5q-44 0 -86.5 14z
" />
    <glyph glyph-name="eng" unicode="&#x14b;" horiz-adv-x="580" 
d="M235 -204.5q-43 14.5 -68 37.5l43 79q48 -36 103 -36q39 0 56.5 21.5t17.5 72.5v321q0 56 -22.5 82.5t-68.5 26.5q-54 0 -87 -42t-33 -103v-255h-116v354q0 32 -4.5 54.5t-17.5 46.5l103 40q9 -15 16.5 -37.5t8.5 -41.5q28 35 71.5 57t91.5 22q175 0 175 -204l-1 -314
q0 -196 -182 -196q-43 0 -86 14.5z" />
    <glyph glyph-name="Omacron" unicode="&#x14c;" horiz-adv-x="683" 
d="M177.5 34.5q-68.5 44.5 -104 125.5t-35.5 190t35.5 190t104 125.5t163.5 44.5q96 0 164 -44.5t103.5 -125.5t35.5 -190t-35.5 -190t-103.5 -125.5t-164 -44.5q-95 0 -163.5 44.5zM478 157q46 70 46 193t-46 193t-137 70q-90 0 -136.5 -70t-46.5 -193t46.5 -193t136.5 -70
q91 0 137 70zM173 867h336v-89h-336v89z" />
    <glyph glyph-name="omacron" unicode="&#x14d;" horiz-adv-x="561" 
d="M151 21q-55 32 -84 89.5t-29 131.5t29 131.5t84 89.5t130 32t129.5 -32t83.5 -89.5t29 -131.5t-29 -131.5t-83.5 -89.5t-129.5 -32t-130 32zM373.5 126.5q31.5 42.5 31.5 115.5q0 74 -31.5 116t-92.5 42t-93 -42t-32 -116q0 -73 32 -115.5t93 -42.5t92.5 42.5zM113 652
h336v-89h-336v89z" />
    <glyph glyph-name="Obreve" unicode="&#x14e;" horiz-adv-x="683" 
d="M177.5 34.5q-68.5 44.5 -104 125.5t-35.5 190t35.5 190t104 125.5t163.5 44.5q96 0 164 -44.5t103.5 -125.5t35.5 -190t-35.5 -190t-103.5 -125.5t-164 -44.5q-95 0 -163.5 44.5zM478 157q46 70 46 193t-46 193t-137 70q-90 0 -136.5 -70t-46.5 -193t46.5 -193t136.5 -70
q91 0 137 70zM229.5 804q-43.5 39 -43.5 112v11h99v-11q0 -34 14.5 -52t41.5 -18t41.5 18t14.5 52v11h99v-11q0 -73 -43.5 -112t-111.5 -39t-111.5 39z" />
    <glyph glyph-name="obreve" unicode="&#x14f;" horiz-adv-x="561" 
d="M151 21q-55 32 -84 89.5t-29 131.5t29 131.5t84 89.5t130 32t129.5 -32t83.5 -89.5t29 -131.5t-29 -131.5t-83.5 -89.5t-129.5 -32t-130 32zM373.5 126.5q31.5 42.5 31.5 115.5q0 74 -31.5 116t-92.5 42t-93 -42t-32 -116q0 -73 32 -115.5t93 -42.5t92.5 42.5zM169.5 589
q-43.5 39 -43.5 112v11h99v-11q0 -34 14.5 -52t41.5 -18t41.5 18t14.5 52v11h99v-11q0 -73 -43.5 -112t-111.5 -39t-111.5 39z" />
    <glyph glyph-name="Ohungarumlaut" unicode="&#x150;" horiz-adv-x="683" 
d="M177.5 34.5q-68.5 44.5 -104 125.5t-35.5 190t35.5 190t104 125.5t163.5 44.5q96 0 164 -44.5t103.5 -125.5t35.5 -190t-35.5 -190t-103.5 -125.5t-164 -44.5q-95 0 -163.5 44.5zM478 157q46 70 46 193t-46 193t-137 70q-90 0 -136.5 -70t-46.5 -193t46.5 -193t136.5 -70
q91 0 137 70zM295 956h116l-126 -186h-90zM475 956h120l-152 -186h-90z" />
    <glyph glyph-name="ohungarumlaut" unicode="&#x151;" horiz-adv-x="561" 
d="M151 21q-55 32 -84 89.5t-29 131.5t29 131.5t84 89.5t130 32t129.5 -32t83.5 -89.5t29 -131.5t-29 -131.5t-83.5 -89.5t-129.5 -32t-130 32zM373.5 126.5q31.5 42.5 31.5 115.5q0 74 -31.5 116t-92.5 42t-93 -42t-32 -116q0 -73 32 -115.5t93 -42.5t92.5 42.5zM235 741
h116l-126 -186h-90zM415 741h120l-152 -186h-90z" />
    <glyph glyph-name="OE" unicode="&#x152;" horiz-adv-x="980" 
d="M176 34.5q-68 44.5 -103 125.5t-35 190t35 190t103 125.5t164 44.5q115 0 184 -84v74h409v-102h-294v-182h210v-98h-210v-216h303v-102h-418v74q-69 -84 -184 -84q-96 0 -164 44.5zM477 157.5q47 70.5 47 192.5t-47 192.5t-137 70.5t-136 -70t-46 -193t46 -193t136 -70
t137 70.5z" />
    <glyph glyph-name="oe" unicode="&#x153;" horiz-adv-x="909" 
d="M151 22q-55 32 -84 89t-29 131t29 131.5t84 89.5t130 32q110 0 176 -79q31 39 73 59t101 20q77 0 131.5 -33.5t81.5 -88t27 -117.5q0 -30 -19.5 -46t-53.5 -16h-288q0 -49 36.5 -79t97.5 -30q85 0 138 51l59 -63q-33 -39 -83.5 -61t-113.5 -22q-120 0 -186 79
q-66 -79 -177 -79q-75 0 -130 32zM755 286q0 52 -34 84t-90 32q-55 0 -88 -33t-33 -83h245zM373.5 127q31.5 42 31.5 115q0 74 -31.5 116t-92.5 42t-93 -42t-32 -116q0 -73 32 -115t93 -42t92.5 42z" />
    <glyph glyph-name="Racute" unicode="&#x154;" horiz-adv-x="603" 
d="M64 601q0 12 -4 19t-11 14q-6 6 -8.5 10.5t-2.5 11.5q0 6 1 9q6 22 22.5 37.5t38.5 15.5q24 0 44 -18h138q138 0 210 -54.5t72 -164.5q0 -91 -51 -144t-143 -64l179 -273h-134l-174 264h-59v-264h-118v601zM285 365q81 0 120 26.5t39 89.5t-39.5 90t-119.5 27h-103v-233
h103zM310 956h131l-120 -186h-95z" />
    <glyph glyph-name="racute" unicode="&#x155;" horiz-adv-x="409" 
d="M60 354q0 32 -4.5 54.5t-17.5 46.5l103 40q9 -15 16.5 -37.5t8.5 -41.5q26 40 56.5 59.5t70.5 19.5q28 0 49 -7t46 -25l-44 -81q-29 18 -60 18q-54 0 -81 -36t-27 -102v-262h-116v354zM220 741h131l-120 -186h-95z" />
    <glyph glyph-name="uni0156" unicode="&#x156;" horiz-adv-x="603" 
d="M64 601q0 12 -4 19t-11 14q-6 6 -8.5 10.5t-2.5 11.5q0 6 1 9q6 22 22.5 37.5t38.5 15.5q24 0 44 -18h138q138 0 210 -54.5t72 -164.5q0 -91 -51 -144t-143 -64l179 -273h-134l-174 264h-59v-264h-118v601zM285 365q81 0 120 26.5t39 89.5t-39.5 90t-119.5 27h-103v-233
h103zM228 -230q43 19 63 55q-28 -4 -47.5 14t-19.5 44q0 31 20 50t53 19q36 0 55.5 -22t19.5 -60q0 -45 -32.5 -83.5t-82.5 -60.5z" />
    <glyph glyph-name="uni0157" unicode="&#x157;" horiz-adv-x="409" 
d="M60 354q0 32 -4.5 54.5t-17.5 46.5l103 40q9 -15 16.5 -37.5t8.5 -41.5q26 40 56.5 59.5t70.5 19.5q28 0 49 -7t46 -25l-44 -81q-29 18 -60 18q-54 0 -81 -36t-27 -102v-262h-116v354zM51 -230q43 19 63 55q-28 -4 -47.5 14t-19.5 44q0 31 20 50t53 19q36 0 55.5 -22
t19.5 -60q0 -45 -32.5 -83.5t-82.5 -60.5z" />
    <glyph glyph-name="Rcaron" unicode="&#x158;" horiz-adv-x="603" 
d="M64 601q0 12 -4 19t-11 14q-6 6 -8.5 10.5t-2.5 11.5q0 6 1 9q6 22 22.5 37.5t38.5 15.5q24 0 44 -18h138q138 0 210 -54.5t72 -164.5q0 -91 -51 -144t-143 -64l179 -273h-134l-174 264h-59v-264h-118v601zM285 365q81 0 120 26.5t39 89.5t-39.5 90t-119.5 27h-103v-233
h103zM227.5 786.5q-13.5 14.5 -8.5 29.5l2 6l-128 137h120l66 -86l61 86h118l-131 -156q-15 -17 -26.5 -24t-29.5 -7q-30 0 -43.5 14.5z" />
    <glyph glyph-name="rcaron" unicode="&#x159;" horiz-adv-x="409" 
d="M60 354q0 32 -4.5 54.5t-17.5 46.5l103 40q9 -15 16.5 -37.5t8.5 -41.5q26 40 56.5 59.5t70.5 19.5q28 0 49 -7t46 -25l-44 -81q-29 18 -60 18q-54 0 -81 -36t-27 -102v-262h-116v354zM137.5 571.5q-13.5 14.5 -8.5 29.5l2 6l-128 137h120l66 -86l61 86h118l-131 -156
q-15 -17 -26.5 -24t-29.5 -7q-30 0 -43.5 14.5z" />
    <glyph glyph-name="Sacute" unicode="&#x15a;" horiz-adv-x="596" 
d="M157.5 20.5q-71.5 30.5 -119.5 84.5l71 71q44 -48 94 -68.5t113 -20.5q59 0 90.5 22.5t31.5 62.5q0 29 -12.5 48t-46.5 38t-103 44q-116 42 -167.5 93.5t-51.5 128.5q0 88 66 137t176 49q68 0 130.5 -22.5t108.5 -61.5l-62 -79q-43 36 -82 51t-95 15q-59 0 -90.5 -22
t-31.5 -66q0 -29 15 -49.5t49 -38.5t99 -43q83 -32 129.5 -61.5t67.5 -67t21 -93.5q0 -86 -65 -134t-179 -48q-85 0 -156.5 30.5zM334 956h131l-120 -186h-95z" />
    <glyph glyph-name="sacute" unicode="&#x15b;" horiz-adv-x="500" 
d="M142 14q-60 24 -104 69l67 71q32 -35 75.5 -53.5t91.5 -18.5q36 0 55 11.5t19 32.5q0 16 -7.5 26.5t-30 21t-71.5 26.5q-97 31 -137 66.5t-40 93.5q0 63 50 99t142 36q101 0 183 -57l-41 -78q-40 24 -73 33.5t-70 9.5q-38 0 -56.5 -11.5t-18.5 -31.5q0 -16 10 -26.5
t31.5 -19.5t67.5 -24q67 -22 104.5 -43.5t55 -50.5t17.5 -72q0 -61 -50.5 -97.5t-139.5 -36.5q-70 0 -130 24zM288 741h131l-120 -186h-95z" />
    <glyph glyph-name="Scircumflex" unicode="&#x15c;" horiz-adv-x="596" 
d="M157.5 20.5q-71.5 30.5 -119.5 84.5l71 71q44 -48 94 -68.5t113 -20.5q59 0 90.5 22.5t31.5 62.5q0 29 -12.5 48t-46.5 38t-103 44q-116 42 -167.5 93.5t-51.5 128.5q0 88 66 137t176 49q68 0 130.5 -22.5t108.5 -61.5l-62 -79q-43 36 -82 51t-95 15q-59 0 -90.5 -22
t-31.5 -66q0 -29 15 -49.5t49 -38.5t99 -43q83 -32 129.5 -61.5t67.5 -67t21 -93.5q0 -86 -65 -134t-179 -48q-85 0 -156.5 30.5zM250 929q14 17 25.5 23.5t30.5 6.5q26 0 40 -10.5t14 -24.5q0 -3 -2 -9l-2 -5l128 -138h-120l-66 87l-61 -87h-118z" />
    <glyph glyph-name="scircumflex" unicode="&#x15d;" horiz-adv-x="500" 
d="M142 14q-60 24 -104 69l67 71q32 -35 75.5 -53.5t91.5 -18.5q36 0 55 11.5t19 32.5q0 16 -7.5 26.5t-30 21t-71.5 26.5q-97 31 -137 66.5t-40 93.5q0 63 50 99t142 36q101 0 183 -57l-41 -78q-40 24 -73 33.5t-70 9.5q-38 0 -56.5 -11.5t-18.5 -31.5q0 -16 10 -26.5
t31.5 -19.5t67.5 -24q67 -22 104.5 -43.5t55 -50.5t17.5 -72q0 -61 -50.5 -97.5t-139.5 -36.5q-70 0 -130 24zM204 714q14 17 25.5 23.5t30.5 6.5q26 0 40 -10.5t14 -24.5q0 -3 -2 -9l-2 -5l128 -138h-120l-66 87l-61 -87h-118z" />
    <glyph glyph-name="Scedilla" unicode="&#x15e;" horiz-adv-x="596" 
d="M502.5 46q-55.5 -47 -153.5 -55l-23 -36q76 -14 76 -85q0 -41 -31.5 -67.5t-84.5 -26.5q-62 0 -115 40l31 56q36 -25 70 -25q37 0 37 32q0 14 -10.5 22.5t-29.5 8.5q-6 0 -20 -2l-23 24l37 61q-69 8 -127 37t-98 75l71 71q44 -48 94 -68.5t113 -20.5q59 0 90.5 22.5
t31.5 62.5q0 29 -12.5 48t-46.5 38t-103 44q-116 42 -167.5 93.5t-51.5 128.5q0 88 66 137t176 49q68 0 130.5 -22.5t108.5 -61.5l-62 -79q-43 36 -82 51t-95 15q-59 0 -90.5 -22t-31.5 -66q0 -29 15 -49.5t49 -38.5t99 -43q83 -32 129.5 -61.5t67.5 -67t21 -93.5
q0 -79 -55.5 -126z" />
    <glyph glyph-name="scedilla" unicode="&#x15f;" horiz-adv-x="500" 
d="M418 31q-44 -36 -123 -40l-22 -36q76 -14 76 -85q0 -41 -31.5 -67.5t-84.5 -26.5q-62 0 -115 40l31 56q36 -25 70 -25q37 0 37 32q0 14 -10.5 22.5t-29.5 8.5q-6 0 -20 -2l-23 24l38 63q-103 16 -173 88l67 71q32 -35 75.5 -53.5t91.5 -18.5q36 0 55 11.5t19 32.5
q0 16 -7.5 26.5t-30 21t-71.5 26.5q-97 31 -137 66.5t-40 93.5q0 63 50 99t142 36q101 0 183 -57l-41 -78q-40 24 -73 33.5t-70 9.5q-38 0 -56.5 -11.5t-18.5 -31.5q0 -16 10 -26.5t31.5 -19.5t67.5 -24q67 -22 104.5 -43.5t55 -50.5t17.5 -72q0 -57 -44 -93z" />
    <glyph glyph-name="Scaron" unicode="&#x160;" horiz-adv-x="596" 
d="M157.5 20.5q-71.5 30.5 -119.5 84.5l71 71q44 -48 94 -68.5t113 -20.5q59 0 90.5 22.5t31.5 62.5q0 29 -12.5 48t-46.5 38t-103 44q-116 42 -167.5 93.5t-51.5 128.5q0 88 66 137t176 49q68 0 130.5 -22.5t108.5 -61.5l-62 -79q-43 36 -82 51t-95 15q-59 0 -90.5 -22
t-31.5 -66q0 -29 15 -49.5t49 -38.5t99 -43q83 -32 129.5 -61.5t67.5 -67t21 -93.5q0 -86 -65 -134t-179 -48q-85 0 -156.5 30.5zM251.5 786.5q-13.5 14.5 -8.5 29.5l2 6l-128 137h120l66 -86l61 86h118l-131 -156q-15 -17 -26.5 -24t-29.5 -7q-30 0 -43.5 14.5z" />
    <glyph glyph-name="scaron" unicode="&#x161;" horiz-adv-x="500" 
d="M142 14q-60 24 -104 69l67 71q32 -35 75.5 -53.5t91.5 -18.5q36 0 55 11.5t19 32.5q0 16 -7.5 26.5t-30 21t-71.5 26.5q-97 31 -137 66.5t-40 93.5q0 63 50 99t142 36q101 0 183 -57l-41 -78q-40 24 -73 33.5t-70 9.5q-38 0 -56.5 -11.5t-18.5 -31.5q0 -16 10 -26.5
t31.5 -19.5t67.5 -24q67 -22 104.5 -43.5t55 -50.5t17.5 -72q0 -61 -50.5 -97.5t-139.5 -36.5q-70 0 -130 24zM205.5 571.5q-13.5 14.5 -8.5 29.5l2 6l-128 137h120l66 -86l61 86h118l-131 -156q-15 -17 -26.5 -24t-29.5 -7q-30 0 -43.5 14.5z" />
    <glyph glyph-name="uni0162" unicode="&#x162;" horiz-adv-x="588" 
d="M339 0l-29 -45q77 -15 77 -85q0 -41 -31.5 -67.5t-85.5 -26.5q-61 0 -114 40l31 56q36 -25 70 -25q36 0 36 32q0 15 -10 23t-29 8q-5 0 -21 -2l-22 24l41 68h-17v598h-200v102h518v-102h-200v-598h-14z" />
    <glyph glyph-name="uni0163" unicode="&#x163;" horiz-adv-x="389" 
d="M285 -7l-24 -38q77 -15 77 -85q0 -41 -31.5 -67.5t-85.5 -26.5q-62 0 -114 40l30 56q38 -25 70 -25q37 0 37 32q0 14 -10.5 22.5t-29.5 8.5q-6 0 -20 -2l-23 24l41 66q-86 26 -86 138v255h-88l25 94h65v108l112 52v-160h128l-23 -94h-103v-258q0 -27 10.5 -38t34.5 -11
q29 0 49 10l27 -84q-27 -12 -68 -17z" />
    <glyph glyph-name="Tcaron" unicode="&#x164;" horiz-adv-x="588" 
d="M235 598h-200v102h518v-102h-200v-598h-118v598zM245.5 786.5q-13.5 14.5 -8.5 29.5l2 6l-128 137h120l66 -86l61 86h118l-131 -156q-15 -17 -26.5 -24t-29.5 -7q-30 0 -43.5 14.5z" />
    <glyph glyph-name="tcaron" unicode="&#x165;" horiz-adv-x="457" 
d="M151.5 28q-35.5 37 -35.5 108v255h-88l25 94h65v108l112 52v-160h128l-23 -94h-103v-258q0 -27 10.5 -38t34.5 -11q29 0 49 10l27 -84q-15 -8 -43.5 -13.5t-54.5 -5.5q-68 0 -103.5 37zM352 580q23 10 40 24.5t24 29.5q-22 2 -38.5 19.5t-16.5 39.5q0 33 21 53t55 20
q36 0 57 -22t21 -60q0 -47 -37.5 -90t-92.5 -68z" />
    <glyph glyph-name="Tbar" unicode="&#x166;" horiz-adv-x="588" 
d="M353 598v-181h98v-102h-98v-315h-118v315h-98v102h98v181h-200v102h518v-102h-200z" />
    <glyph glyph-name="tbar" unicode="&#x167;" horiz-adv-x="389" 
d="M326 94l27 -84q-15 -8 -43.5 -13.5t-54.5 -5.5q-68 0 -103.5 37t-35.5 108v77h-82v83h82v95h-88l25 94h65v108l112 52v-160h128l-23 -94h-103v-95h104v-83h-104v-80q0 -27 10.5 -38t34.5 -11q29 0 49 10z" />
    <glyph glyph-name="Utilde" unicode="&#x168;" horiz-adv-x="640" 
d="M118 60q-73 70 -73 196v444h118v-450q0 -78 41.5 -120.5t115.5 -42.5t115.5 42.5t41.5 120.5v450h118v-444q0 -126 -73 -196t-202 -70t-202 70zM148 812q7 42 36 69t65 27q25 0 45 -8t44 -23q29 -18 43 -18q19 0 29.5 11t14.5 37l60 -30q-1 -46 -25 -72.5t-64 -26.5
q-22 0 -41 7.5t-44 20.5q-34 19 -50 19q-38 0 -47 -47z" />
    <glyph glyph-name="utilde" unicode="&#x169;" horiz-adv-x="548" 
d="M96.5 45q-51.5 55 -51.5 149v291h116v-291q0 -55 25 -82t77 -27q53 0 81 37.5t28 95.5v267h116v-354q0 -32 4.5 -54.5t17.5 -46.5l-103 -40q-9 14 -16.5 37t-8.5 42q-51 -79 -149 -79q-85 0 -136.5 55zM105 597q7 42 36 69t65 27q25 0 45 -8t44 -23q29 -18 43 -18
q19 0 29.5 11t14.5 37l60 -30q-1 -46 -25 -72.5t-64 -26.5q-22 0 -41 7.5t-44 20.5q-34 19 -50 19q-38 0 -47 -47z" />
    <glyph glyph-name="Umacron" unicode="&#x16a;" horiz-adv-x="640" 
d="M118 60q-73 70 -73 196v444h118v-450q0 -78 41.5 -120.5t115.5 -42.5t115.5 42.5t41.5 120.5v450h118v-444q0 -126 -73 -196t-202 -70t-202 70zM152 867h336v-89h-336v89z" />
    <glyph glyph-name="umacron" unicode="&#x16b;" horiz-adv-x="548" 
d="M96.5 45q-51.5 55 -51.5 149v291h116v-291q0 -55 25 -82t77 -27q53 0 81 37.5t28 95.5v267h116v-354q0 -32 4.5 -54.5t17.5 -46.5l-103 -40q-9 14 -16.5 37t-8.5 42q-51 -79 -149 -79q-85 0 -136.5 55zM109 652h336v-89h-336v89z" />
    <glyph glyph-name="Ubreve" unicode="&#x16c;" horiz-adv-x="640" 
d="M118 60q-73 70 -73 196v444h118v-450q0 -78 41.5 -120.5t115.5 -42.5t115.5 42.5t41.5 120.5v450h118v-444q0 -126 -73 -196t-202 -70t-202 70zM208.5 804q-43.5 39 -43.5 112v11h99v-11q0 -34 14.5 -52t41.5 -18t41.5 18t14.5 52v11h99v-11q0 -73 -43.5 -112t-111.5 -39
t-111.5 39z" />
    <glyph glyph-name="ubreve" unicode="&#x16d;" horiz-adv-x="548" 
d="M96.5 45q-51.5 55 -51.5 149v291h116v-291q0 -55 25 -82t77 -27q53 0 81 37.5t28 95.5v267h116v-354q0 -32 4.5 -54.5t17.5 -46.5l-103 -40q-9 14 -16.5 37t-8.5 42q-51 -79 -149 -79q-85 0 -136.5 55zM165.5 589q-43.5 39 -43.5 112v11h99v-11q0 -34 14.5 -52t41.5 -18
t41.5 18t14.5 52v11h99v-11q0 -73 -43.5 -112t-111.5 -39t-111.5 39z" />
    <glyph glyph-name="Uring" unicode="&#x16e;" horiz-adv-x="640" 
d="M118 60q-73 70 -73 196v444h118v-450q0 -78 41.5 -120.5t115.5 -42.5t115.5 42.5t41.5 120.5v450h118v-444q0 -126 -73 -196t-202 -70t-202 70zM236.5 774.5q-35.5 27.5 -35.5 77.5q0 51 35.5 79t83.5 28t83.5 -28t35.5 -79q0 -50 -35.5 -77.5t-83.5 -27.5t-83.5 27.5z
M351.5 822q12.5 11 12.5 30q0 21 -12.5 32.5t-31.5 11.5t-31.5 -11.5t-12.5 -32.5q0 -19 12.5 -30t31.5 -11t31.5 11z" />
    <glyph glyph-name="uring" unicode="&#x16f;" horiz-adv-x="548" 
d="M96.5 45q-51.5 55 -51.5 149v291h116v-291q0 -55 25 -82t77 -27q53 0 81 37.5t28 95.5v267h116v-354q0 -32 4.5 -54.5t17.5 -46.5l-103 -40q-9 14 -16.5 37t-8.5 42q-51 -79 -149 -79q-85 0 -136.5 55zM193.5 559.5q-35.5 27.5 -35.5 77.5q0 51 35.5 79t83.5 28t83.5 -28
t35.5 -79q0 -50 -35.5 -77.5t-83.5 -27.5t-83.5 27.5zM308.5 607q12.5 11 12.5 30q0 21 -12.5 32.5t-31.5 11.5t-31.5 -11.5t-12.5 -32.5q0 -19 12.5 -30t31.5 -11t31.5 11z" />
    <glyph glyph-name="Uhungarumlaut" unicode="&#x170;" horiz-adv-x="640" 
d="M118 60q-73 70 -73 196v444h118v-450q0 -78 41.5 -120.5t115.5 -42.5t115.5 42.5t41.5 120.5v450h118v-444q0 -126 -73 -196t-202 -70t-202 70zM274 956h116l-126 -186h-90zM454 956h120l-152 -186h-90z" />
    <glyph glyph-name="uhungarumlaut" unicode="&#x171;" horiz-adv-x="548" 
d="M96.5 45q-51.5 55 -51.5 149v291h116v-291q0 -55 25 -82t77 -27q53 0 81 37.5t28 95.5v267h116v-354q0 -32 4.5 -54.5t17.5 -46.5l-103 -40q-9 14 -16.5 37t-8.5 42q-51 -79 -149 -79q-85 0 -136.5 55zM231 741h116l-126 -186h-90zM411 741h120l-152 -186h-90z" />
    <glyph glyph-name="Uogonek" unicode="&#x172;" horiz-adv-x="640" 
d="M595 700v-444q0 -111 -57.5 -179.5t-161.5 -82.5q-36 -25 -53.5 -48t-17.5 -49q0 -17 10 -26.5t30 -9.5q26 0 48 15l24 -68q-40 -30 -95 -30q-50 0 -82 28t-32 76q0 34 18 62.5t50 47.5q-110 12 -170.5 81t-60.5 183v444h118v-450q0 -78 41.5 -120.5t115.5 -42.5
t115.5 42.5t41.5 120.5v450h118z" />
    <glyph glyph-name="uogonek" unicode="&#x173;" horiz-adv-x="548" 
d="M531 -168q-41 -30 -95 -30q-51 0 -82.5 27.5t-31.5 75.5q0 35 19.5 64.5t52.5 48.5q-11 30 -12 51q-51 -79 -149 -79q-85 0 -136.5 55t-51.5 149v291h116v-291q0 -55 25 -82t77 -27q53 0 81 37.5t28 95.5v267h116v-354q0 -32 4.5 -54.5t17.5 -46.5q-46 -28 -68.5 -54.5
t-22.5 -54.5q0 -36 40 -36q26 0 48 15z" />
    <glyph glyph-name="Wcircumflex" unicode="&#x174;" horiz-adv-x="839" 
d="M147 40q0 9 3 18l3 10l-115 632h119l77 -484l133 459q4 17 18 26t34 9q33 0 51.5 -11.5t18.5 -30.5q0 -4 -2 -12l-3 -10l122 -429l76 483h119l-117 -632l4 -10q3 -9 3 -18q0 -33 -40 -44q-15 -5 -33 -5q-23 0 -38 14t-23 44l-137 477l-139 -477q-8 -30 -23 -44t-38 -14
q-18 0 -33 5q-40 11 -40 44zM374 929q14 17 25.5 23.5t30.5 6.5q26 0 40 -10.5t14 -24.5q0 -3 -2 -9l-2 -5l128 -138h-120l-66 87l-61 -87h-118z" />
    <glyph glyph-name="wcircumflex" unicode="&#x175;" horiz-adv-x="719" 
d="M172.5 2q-14.5 12 -14.5 33q0 8 1 12l2 7l-123 431h120l71 -313l86 296q8 27 53 27q57 0 57 -40q0 -9 -1 -14l-4 -21l71 -248l69 313h120l-122 -431l1 -7q1 -5 1 -13q0 -21 -14 -32.5t-41 -11.5q-29 0 -43 9.5t-20 30.5l-83 289l-83 -289q-6 -21 -19.5 -30.5t-42.5 -9.5
q-27 0 -41.5 12zM308 714q14 17 25.5 23.5t30.5 6.5q26 0 40 -10.5t14 -24.5q0 -3 -2 -9l-2 -5l128 -138h-120l-66 87l-61 -87h-118z" />
    <glyph glyph-name="Ycircumflex" unicode="&#x176;" horiz-adv-x="653" 
d="M270 269l-232 431h128l161 -323l160 323h128l-231 -431v-269h-114v269zM277 929q14 17 25.5 23.5t30.5 6.5q26 0 40 -10.5t14 -24.5q0 -3 -2 -9l-2 -5l128 -138h-120l-66 87l-61 -87h-118z" />
    <glyph glyph-name="ycircumflex" unicode="&#x177;" horiz-adv-x="582" 
d="M74 -135q66 23 106.5 63.5t56.5 108.5l-199 448h135l124 -322l113 322h134l-198 -491q-37 -91 -90.5 -141.5t-147.5 -81.5zM242 714q14 17 25.5 23.5t30.5 6.5q26 0 40 -10.5t14 -24.5q0 -3 -2 -9l-2 -5l128 -138h-120l-66 87l-61 -87h-118z" />
    <glyph glyph-name="Ydieresis" unicode="&#x178;" horiz-adv-x="653" 
d="M270 269l-232 431h128l161 -323l160 323h128l-231 -431v-269h-114v269zM168.5 798.5q-20.5 19.5 -20.5 48.5t20.5 48.5t51.5 19.5q30 0 49.5 -19.5t19.5 -48.5t-19.5 -48.5t-49.5 -19.5q-31 0 -51.5 19.5zM387 798.5q-20 19.5 -20 48.5t20 48.5t51 19.5q30 0 50 -19.5
t20 -48.5t-20 -48.5t-50 -19.5q-31 0 -51 19.5z" />
    <glyph glyph-name="Zacute" unicode="&#x179;" horiz-adv-x="628" 
d="M98 -11q-20 0 -51 34q-9 11 -9 19t7.5 18.5t9.5 13.5l365 524h-357v102h428l7 8q11 11 30 11q20 0 36 -13q25 -19 25 -41q0 -16 -16 -40l-366 -523h383v-102h-465l-12 -7q-5 -4 -15 -4zM352 956h131l-120 -186h-95z" />
    <glyph glyph-name="zacute" unicode="&#x17a;" horiz-adv-x="539" 
d="M98 -10q-13 0 -27.5 10t-26.5 32q-5 9 -5 20q0 16 19 29q7 5 16 14l265 296h-275v94h333q21 0 28 5t17 5q24 0 45 -24q14 -17 14 -32q0 -16 -14 -31l-282 -314h293v-94h-353q-17 0 -31 -6q-8 -4 -16 -4zM311 741h131l-120 -186h-95z" />
    <glyph glyph-name="Zdotaccent" unicode="&#x17b;" horiz-adv-x="628" 
d="M98 -11q-20 0 -51 34q-9 11 -9 19t7.5 18.5t9.5 13.5l365 524h-357v102h428l7 8q11 11 30 11q20 0 36 -13q25 -19 25 -41q0 -16 -16 -40l-366 -523h383v-102h-465l-12 -7q-5 -4 -15 -4zM269 804.5q-20 19.5 -20 48.5t20 48.5t50 19.5t49 -19.5t19 -48.5t-19 -48.5
t-49 -19.5t-50 19.5z" />
    <glyph glyph-name="zdotaccent" unicode="&#x17c;" horiz-adv-x="539" 
d="M98 -10q-13 0 -27.5 10t-26.5 32q-5 9 -5 20q0 16 19 29q7 5 16 14l265 296h-275v94h333q21 0 28 5t17 5q24 0 45 -24q14 -17 14 -32q0 -16 -14 -31l-282 -314h293v-94h-353q-17 0 -31 -6q-8 -4 -16 -4zM228 589.5q-20 19.5 -20 48.5t20 48.5t50 19.5t49 -19.5t19 -48.5
t-19 -48.5t-49 -19.5t-50 19.5z" />
    <glyph glyph-name="Zcaron" unicode="&#x17d;" horiz-adv-x="628" 
d="M98 -11q-20 0 -51 34q-9 11 -9 19t7.5 18.5t9.5 13.5l365 524h-357v102h428l7 8q11 11 30 11q20 0 36 -13q25 -19 25 -41q0 -16 -16 -40l-366 -523h383v-102h-465l-12 -7q-5 -4 -15 -4zM269.5 786.5q-13.5 14.5 -8.5 29.5l2 6l-128 137h120l66 -86l61 86h118l-131 -156
q-15 -17 -26.5 -24t-29.5 -7q-30 0 -43.5 14.5z" />
    <glyph glyph-name="zcaron" unicode="&#x17e;" horiz-adv-x="539" 
d="M98 -10q-13 0 -27.5 10t-26.5 32q-5 9 -5 20q0 16 19 29q7 5 16 14l265 296h-275v94h333q21 0 28 5t17 5q24 0 45 -24q14 -17 14 -32q0 -16 -14 -31l-282 -314h293v-94h-353q-17 0 -31 -6q-8 -4 -16 -4zM228.5 571.5q-13.5 14.5 -8.5 29.5l2 6l-128 137h120l66 -86l61 86
h118l-131 -156q-15 -17 -26.5 -24t-29.5 -7q-30 0 -43.5 14.5z" />
    <glyph glyph-name="uni018F" unicode="&#x18f;" horiz-adv-x="690" 
d="M180.5 33q-68.5 43 -105.5 119.5t-37 176.5q0 30 19.5 46t53.5 16h421q0 112 -47 168t-147 56q-55 0 -105 -18.5t-103 -55.5l-62 76q58 44 129 68.5t141 24.5q156 0 234.5 -96t78.5 -268q0 -104 -38 -185t-108.5 -126t-163.5 -45q-92 0 -160.5 43zM484 141q49 56 49 156
h-378q0 -99 48.5 -155.5t137.5 -56.5q94 0 143 56z" />
    <glyph glyph-name="florin" unicode="&#x192;" horiz-adv-x="622" 
d="M38 -104l35 85q39 -19 73 -19q26 0 38.5 13.5t19.5 52.5l53 303h-107l41 94h83l27 158q26 153 176 153q24 0 53 -6.5t54 -17.5l-38 -87q-33 16 -65 16q-29 0 -44 -14t-21 -52l-25 -150h149l-41 -94h-125l-56 -311q-14 -79 -54 -116t-112 -37q-58 0 -114 29z" />
    <glyph glyph-name="Ohorn" unicode="&#x1a0;" horiz-adv-x="683" 
d="M693 792v-21q0 -68 -31 -110.5t-88 -59.5q70 -94 70 -251q0 -109 -35.5 -190t-103.5 -125.5t-164 -44.5q-95 0 -163.5 44.5t-104 125.5t-35.5 190t35.5 190t104 125.5t163.5 44.5q84 0 150 -36q51 1 73 23t22 67v28h107zM478 157q46 70 46 193t-46 193t-137 70
q-90 0 -136.5 -70t-46.5 -193t46.5 -193t136.5 -70q91 0 137 70z" />
    <glyph glyph-name="ohorn" unicode="&#x1a1;" horiz-adv-x="561" 
d="M612 578v-21q0 -69 -32.5 -112t-92.5 -60q36 -58 36 -143q0 -74 -29 -131.5t-83.5 -89.5t-129.5 -32t-130 32t-84 89.5t-29 131.5t29 131.5t84 89.5t130 32q78 0 134 -35q48 3 69 24.5t21 65.5v28h107zM373.5 126.5q31.5 42.5 31.5 115.5q0 74 -31.5 116t-92.5 42
t-93 -42t-32 -116q0 -73 32 -115.5t93 -42.5t92.5 42.5z" />
    <glyph glyph-name="Uhorn" unicode="&#x1af;" horiz-adv-x="717" 
d="M777 760v-21q0 -85 -48 -130t-134 -51v-302q0 -126 -73 -196t-202 -70t-202 70t-73 196v444h118v-450q0 -78 41.5 -120.5t115.5 -42.5t115.5 42.5t41.5 120.5v450h118v-56q40 5 57.5 26.5t17.5 61.5v28h107z" />
    <glyph glyph-name="uhorn" unicode="&#x1b0;" horiz-adv-x="548" 
d="M669 577v-21q0 -85 -47.5 -130t-133.5 -51v-244q0 -32 4.5 -54.5t17.5 -46.5l-103 -40q-9 14 -16.5 37t-8.5 42q-51 -79 -149 -79q-85 0 -136.5 55t-51.5 149v291h116v-291q0 -55 25 -82t77 -27q53 0 81 37.5t28 95.5v267h116v-24q40 5 57 26.5t17 61.5v28h107z" />
    <glyph glyph-name="uni01CD" unicode="&#x1cd;" horiz-adv-x="697" 
d="M283 664q20 54 70 54q32 0 51 -14t19 -36q0 -6 -4 -18l241 -650h-124l-66 187h-244l-66 -187h-123zM444 281l-95 273l-95 -273h190zM304.5 786.5q-13.5 14.5 -8.5 29.5l2 6l-128 137h120l66 -86l61 86h118l-131 -156q-15 -17 -26.5 -24t-29.5 -7q-30 0 -43.5 14.5z" />
    <glyph glyph-name="uni01CE" unicode="&#x1ce;" horiz-adv-x="579" 
d="M140.5 20q-48.5 30 -75.5 85.5t-27 129.5q0 79 27.5 137.5t78.5 90.5t120 32q86 0 141 -67v57h112v-353q0 -36 5.5 -59.5t18.5 -45.5l-94 -37q-28 31 -32 78h-3q-28 -37 -68.5 -57.5t-90.5 -20.5q-64 0 -112.5 30zM370 123q33 40 33 106v26q0 60 -32.5 103.5t-92.5 43.5
q-59 0 -91 -44t-32 -123q0 -72 31 -112t89 -40q62 0 95 40zM229.5 571.5q-13.5 14.5 -8.5 29.5l2 6l-128 137h120l66 -86l61 86h118l-131 -156q-15 -17 -26.5 -24t-29.5 -7q-30 0 -43.5 14.5z" />
    <glyph glyph-name="uni01CF" unicode="&#x1cf;" horiz-adv-x="298" 
d="M90 700h118v-700h-118v700zM100.5 786.5q-13.5 14.5 -8.5 29.5l2 6l-128 137h120l66 -86l61 86h118l-131 -156q-15 -17 -26.5 -24t-29.5 -7q-30 0 -43.5 14.5z" />
    <glyph glyph-name="uni01D0" unicode="&#x1d0;" horiz-adv-x="268" 
d="M76 485h116v-485h-116v485zM85.5 571.5q-13.5 14.5 -8.5 29.5l2 6l-128 137h120l66 -86l61 86h118l-131 -156q-15 -17 -26.5 -24t-29.5 -7q-30 0 -43.5 14.5z" />
    <glyph glyph-name="uni01D1" unicode="&#x1d1;" horiz-adv-x="683" 
d="M177.5 34.5q-68.5 44.5 -104 125.5t-35.5 190t35.5 190t104 125.5t163.5 44.5q96 0 164 -44.5t103.5 -125.5t35.5 -190t-35.5 -190t-103.5 -125.5t-164 -44.5q-95 0 -163.5 44.5zM478 157q46 70 46 193t-46 193t-137 70q-90 0 -136.5 -70t-46.5 -193t46.5 -193t136.5 -70
q91 0 137 70zM292.5 786.5q-13.5 14.5 -8.5 29.5l2 6l-128 137h120l66 -86l61 86h118l-131 -156q-15 -17 -26.5 -24t-29.5 -7q-30 0 -43.5 14.5z" />
    <glyph glyph-name="uni01D2" unicode="&#x1d2;" horiz-adv-x="561" 
d="M151 21q-55 32 -84 89.5t-29 131.5t29 131.5t84 89.5t130 32t129.5 -32t83.5 -89.5t29 -131.5t-29 -131.5t-83.5 -89.5t-129.5 -32t-130 32zM373.5 126.5q31.5 42.5 31.5 115.5q0 74 -31.5 116t-92.5 42t-93 -42t-32 -116q0 -73 32 -115.5t93 -42.5t92.5 42.5z
M232.5 571.5q-13.5 14.5 -8.5 29.5l2 6l-128 137h120l66 -86l61 86h118l-131 -156q-15 -17 -26.5 -24t-29.5 -7q-30 0 -43.5 14.5z" />
    <glyph glyph-name="uni01D3" unicode="&#x1d3;" horiz-adv-x="640" 
d="M118 60q-73 70 -73 196v444h118v-450q0 -78 41.5 -120.5t115.5 -42.5t115.5 42.5t41.5 120.5v450h118v-444q0 -126 -73 -196t-202 -70t-202 70zM271.5 786.5q-13.5 14.5 -8.5 29.5l2 6l-128 137h120l66 -86l61 86h118l-131 -156q-15 -17 -26.5 -24t-29.5 -7
q-30 0 -43.5 14.5z" />
    <glyph glyph-name="uni01D4" unicode="&#x1d4;" horiz-adv-x="548" 
d="M96.5 45q-51.5 55 -51.5 149v291h116v-291q0 -55 25 -82t77 -27q53 0 81 37.5t28 95.5v267h116v-354q0 -32 4.5 -54.5t17.5 -46.5l-103 -40q-9 14 -16.5 37t-8.5 42q-51 -79 -149 -79q-85 0 -136.5 55zM228.5 571.5q-13.5 14.5 -8.5 29.5l2 6l-128 137h120l66 -86l61 86
h118l-131 -156q-15 -17 -26.5 -24t-29.5 -7q-30 0 -43.5 14.5z" />
    <glyph glyph-name="uni01D5" unicode="&#x1d5;" horiz-adv-x="640" 
d="M118 60q-73 70 -73 196v444h118v-450q0 -78 41.5 -120.5t115.5 -42.5t115.5 42.5t41.5 120.5v450h118v-444q0 -126 -73 -196t-202 -70t-202 70zM161.5 798.5q-20.5 19.5 -20.5 48.5t20.5 48.5t51.5 19.5q30 0 49.5 -19.5t19.5 -48.5t-19.5 -48.5t-49.5 -19.5
q-31 0 -51.5 19.5zM380 798.5q-20 19.5 -20 48.5t20 48.5t51 19.5q30 0 50 -19.5t20 -48.5t-20 -48.5t-50 -19.5q-31 0 -51 19.5zM152 1058h336v-89h-336v89z" />
    <glyph glyph-name="uni01D6" unicode="&#x1d6;" horiz-adv-x="548" 
d="M96.5 45q-51.5 55 -51.5 149v291h116v-291q0 -55 25 -82t77 -27q53 0 81 37.5t28 95.5v267h116v-354q0 -32 4.5 -54.5t17.5 -46.5l-103 -40q-9 14 -16.5 37t-8.5 42q-51 -79 -149 -79q-85 0 -136.5 55zM118.5 583.5q-20.5 19.5 -20.5 48.5t20.5 48.5t51.5 19.5
q30 0 49.5 -19.5t19.5 -48.5t-19.5 -48.5t-49.5 -19.5q-31 0 -51.5 19.5zM337 583.5q-20 19.5 -20 48.5t20 48.5t51 19.5q30 0 50 -19.5t20 -48.5t-20 -48.5t-50 -19.5q-31 0 -51 19.5zM109 843h336v-89h-336v89z" />
    <glyph glyph-name="uni01D7" unicode="&#x1d7;" horiz-adv-x="640" 
d="M118 60q-73 70 -73 196v444h118v-450q0 -78 41.5 -120.5t115.5 -42.5t115.5 42.5t41.5 120.5v450h118v-444q0 -126 -73 -196t-202 -70t-202 70zM347 1066h115l-104 -154h-84zM172.5 789q-18.5 18 -18.5 44t18.5 44t46.5 18t46 -18t18 -44t-18 -44t-46 -18t-46.5 18z
M374.5 789q-18.5 18 -18.5 44t18.5 44t46.5 18q27 0 45.5 -18t18.5 -44t-18.5 -44t-45.5 -18q-28 0 -46.5 18z" />
    <glyph glyph-name="uni01D8" unicode="&#x1d8;" horiz-adv-x="548" 
d="M96.5 45q-51.5 55 -51.5 149v291h116v-291q0 -55 25 -82t77 -27q53 0 81 37.5t28 95.5v267h116v-354q0 -32 4.5 -54.5t17.5 -46.5l-103 -40q-9 14 -16.5 37t-8.5 42q-51 -79 -149 -79q-85 0 -136.5 55zM304 851h115l-104 -154h-84zM129.5 574q-18.5 18 -18.5 44t18.5 44
t46.5 18t46 -18t18 -44t-18 -44t-46 -18t-46.5 18zM331.5 574q-18.5 18 -18.5 44t18.5 44t46.5 18q27 0 45.5 -18t18.5 -44t-18.5 -44t-45.5 -18q-28 0 -46.5 18z" />
    <glyph glyph-name="uni01D9" unicode="&#x1d9;" horiz-adv-x="640" 
d="M118 60q-73 70 -73 196v444h118v-450q0 -78 41.5 -120.5t115.5 -42.5t115.5 42.5t41.5 120.5v450h118v-444q0 -126 -73 -196t-202 -70t-202 70zM271.5 914q-12.5 13 -7.5 27l2 6l-118 123h110l61 -76l55 76h108l-119 -141q-14 -16 -24.5 -22t-28.5 -6q-26 0 -38.5 13z
M172.5 789q-18.5 18 -18.5 44t18.5 44t46.5 18t46 -18t18 -44t-18 -44t-46 -18t-46.5 18zM374.5 789q-18.5 18 -18.5 44t18.5 44t46.5 18q27 0 45.5 -18t18.5 -44t-18.5 -44t-45.5 -18q-28 0 -46.5 18z" />
    <glyph glyph-name="uni01DA" unicode="&#x1da;" horiz-adv-x="548" 
d="M96.5 45q-51.5 55 -51.5 149v291h116v-291q0 -55 25 -82t77 -27q53 0 81 37.5t28 95.5v267h116v-354q0 -32 4.5 -54.5t17.5 -46.5l-103 -40q-9 14 -16.5 37t-8.5 42q-51 -79 -149 -79q-85 0 -136.5 55zM228.5 699q-12.5 13 -7.5 27l2 6l-118 123h110l61 -76l55 76h108
l-119 -141q-14 -16 -24.5 -22t-28.5 -6q-26 0 -38.5 13zM129.5 574q-18.5 18 -18.5 44t18.5 44t46.5 18t46 -18t18 -44t-18 -44t-46 -18t-46.5 18zM331.5 574q-18.5 18 -18.5 44t18.5 44t46.5 18q27 0 45.5 -18t18.5 -44t-18.5 -44t-45.5 -18q-28 0 -46.5 18z" />
    <glyph glyph-name="uni01DB" unicode="&#x1db;" horiz-adv-x="640" 
d="M118 60q-73 70 -73 196v444h118v-450q0 -78 41.5 -120.5t115.5 -42.5t115.5 42.5t41.5 120.5v450h118v-444q0 -126 -73 -196t-202 -70t-202 70zM176 1066h115l72 -154h-83zM172.5 789q-18.5 18 -18.5 44t18.5 44t45.5 18q28 0 46.5 -18t18.5 -44t-18.5 -44t-46.5 -18
q-27 0 -45.5 18zM374 789q-18 18 -18 44t18 44t46 18t46.5 -18t18.5 -44t-18.5 -44t-46.5 -18t-46 18z" />
    <glyph glyph-name="uni01DC" unicode="&#x1dc;" horiz-adv-x="548" 
d="M96.5 45q-51.5 55 -51.5 149v291h116v-291q0 -55 25 -82t77 -27q53 0 81 37.5t28 95.5v267h116v-354q0 -32 4.5 -54.5t17.5 -46.5l-103 -40q-9 14 -16.5 37t-8.5 42q-51 -79 -149 -79q-85 0 -136.5 55zM133 851h115l72 -154h-83zM129.5 574q-18.5 18 -18.5 44t18.5 44
t45.5 18q28 0 46.5 -18t18.5 -44t-18.5 -44t-46.5 -18q-27 0 -45.5 18zM331 574q-18 18 -18 44t18 44t46 18t46.5 -18t18.5 -44t-18.5 -44t-46.5 -18t-46 18z" />
    <glyph glyph-name="Gcaron" unicode="&#x1e6;" horiz-adv-x="666" 
d="M188.5 33.5q-73.5 43.5 -112 125t-38.5 192.5t38.5 192t112 124t175.5 43q70 0 127 -23.5t93 -65.5l-46 -81q-35 38 -74 55.5t-100 17.5q-98 0 -152 -69.5t-54 -192.5q0 -124 54.5 -194t152.5 -70q40 0 66 6t51 21v174h-157v98h208q15 17 35 17q19 0 36 -18.5t23 -38.5
q3 -9 1 -13t-9 -11q-9 -9 -14 -19t-5 -30v-210q-63 -40 -116 -56.5t-121 -16.5q-101 0 -174.5 43.5zM311.5 786.5q-13.5 14.5 -8.5 29.5l2 6l-128 137h120l66 -86l61 86h118l-131 -156q-15 -17 -26.5 -24t-29.5 -7q-30 0 -43.5 14.5z" />
    <glyph glyph-name="gcaron" unicode="&#x1e7;" horiz-adv-x="583" 
d="M92 -177l35 85q59 -31 133 -31q78 0 111 39t33 114v35q-26 -31 -62 -48t-81 -17q-103 0 -163 66t-60 184q0 115 59 180.5t158 65.5q97 0 162 -78q3 47 32 79l95 -37q-13 -22 -18.5 -45.5t-5.5 -60.5v-317q0 -125 -67.5 -190t-192.5 -65q-86 0 -168 41zM372 136
q33 43 33 104v18q0 64 -33.5 104.5t-95.5 40.5q-60 0 -90.5 -40.5t-30.5 -112.5q0 -157 124 -157q60 0 93 43zM250.5 571.5q-13.5 14.5 -8.5 29.5l2 6l-128 137h120l66 -86l61 86h118l-131 -156q-15 -17 -26.5 -24t-29.5 -7q-30 0 -43.5 14.5z" />
    <glyph glyph-name="Aringacute" unicode="&#x1fa;" horiz-adv-x="697" 
d="M283 664q20 54 70 54q32 0 51 -14t19 -36q0 -6 -4 -18l241 -650h-124l-66 187h-244l-66 -187h-123zM444 281l-95 273l-95 -273h190zM269.5 774.5q-35.5 27.5 -35.5 77.5q0 51 35.5 79t83.5 28t83.5 -28t35.5 -79q0 -50 -35.5 -77.5t-83.5 -27.5t-83.5 27.5zM384.5 822
q12.5 11 12.5 30q0 21 -12.5 32.5t-31.5 11.5t-31.5 -11.5t-12.5 -32.5q0 -19 12.5 -30t31.5 -11t31.5 11zM387 1176h131l-120 -186h-95z" />
    <glyph glyph-name="aringacute" unicode="&#x1fb;" horiz-adv-x="579" 
d="M140.5 20q-48.5 30 -75.5 85.5t-27 129.5q0 79 27.5 137.5t78.5 90.5t120 32q86 0 141 -67v57h112v-353q0 -36 5.5 -59.5t18.5 -45.5l-94 -37q-28 31 -32 78h-3q-28 -37 -68.5 -57.5t-90.5 -20.5q-64 0 -112.5 30zM370 123q33 40 33 106v26q0 60 -32.5 103.5t-92.5 43.5
q-59 0 -91 -44t-32 -123q0 -72 31 -112t89 -40q62 0 95 40zM194.5 559.5q-35.5 27.5 -35.5 77.5q0 51 35.5 79t83.5 28t83.5 -28t35.5 -79q0 -50 -35.5 -77.5t-83.5 -27.5t-83.5 27.5zM309.5 607q12.5 11 12.5 30q0 21 -12.5 32.5t-31.5 11.5t-31.5 -11.5t-12.5 -32.5
q0 -19 12.5 -30t31.5 -11t31.5 11zM312 961h131l-120 -186h-95z" />
    <glyph glyph-name="AEacute" unicode="&#x1fc;" horiz-adv-x="827" 
d="M312 700h468v-102h-290v-182h206v-98h-206v-216h299v-102h-415v187h-142l-70 -187h-124zM374 281v297l-113 -297h113zM519 956h131l-120 -186h-95z" />
    <glyph glyph-name="aeacute" unicode="&#x1fd;" horiz-adv-x="901" 
d="M90.5 32.5q-52.5 42.5 -52.5 115.5q0 74 54.5 115t148.5 41h136v9q0 36 -32 62.5t-81 26.5q-45 0 -80 -14t-70 -43l-59 66q39 38 95 61t117 23q57 0 101 -23t70 -63h1q27 38 76.5 62t108.5 24q119 0 179 -66t60 -171q0 -31 -18 -44.5t-55 -13.5h-295v-10q-1 -44 37 -74.5
t101 -30.5q87 0 144 57l59 -67q-83 -85 -203 -85q-69 0 -122 29.5t-76 72.5h-1q-30 -44 -86 -73t-120 -29q-85 0 -137.5 42.5zM746 290q0 51 -32 81.5t-92 30.5q-37 0 -66.5 -14.5t-45.5 -38.5t-16 -49v-10h252zM341.5 115.5q36.5 30.5 36.5 73.5v25h-141q-83 0 -83 -63
q0 -66 88 -66q63 0 99.5 30.5zM469 741h131l-120 -186h-95z" />
    <glyph glyph-name="Oslashacute" unicode="&#x1fe;" horiz-adv-x="683" 
d="M614 528q30 -77 30 -178q0 -109 -35.5 -190t-103.5 -125.5t-164 -44.5q-93 0 -158 41l-57 -102l-45 25l60 109q-50 47 -76.5 120t-26.5 167q0 109 35.5 190t104 125.5t163.5 44.5q80 0 142 -32l51 93l45 -25l-53 -95q58 -46 88 -123zM199 166l234 422q-41 25 -92 25
q-90 0 -136.5 -70t-46.5 -193q0 -117 41 -184zM478 157q46 70 46 193q0 134 -53 202l-237 -428q43 -37 107 -37q91 0 137 70zM360 956h131l-120 -186h-95z" />
    <glyph glyph-name="oslashacute" unicode="&#x1ff;" horiz-adv-x="561" 
d="M497.5 366q25.5 -55 25.5 -124q0 -74 -29 -131.5t-83.5 -89.5t-129.5 -32q-55 0 -103 19l-44 -79l-45 25l44 79q-46 33 -70.5 87t-24.5 122q0 74 29 131.5t84 89.5t130 32q54 0 99 -17l43 78l45 -25l-43 -77q47 -33 72.5 -88zM186 129l145 262q-21 9 -50 9q-61 0 -93 -42
t-32 -116q0 -71 30 -113zM373.5 126.5q31.5 42.5 31.5 115.5q0 74 -32 117l-147 -264q25 -11 55 -11q61 0 92.5 42.5zM315 741h131l-120 -186h-95z" />
    <glyph glyph-name="uni0218" unicode="&#x218;" horiz-adv-x="596" 
d="M157.5 20.5q-71.5 30.5 -119.5 84.5l71 71q44 -48 94 -68.5t113 -20.5q59 0 90.5 22.5t31.5 62.5q0 29 -12.5 48t-46.5 38t-103 44q-116 42 -167.5 93.5t-51.5 128.5q0 88 66 137t176 49q68 0 130.5 -22.5t108.5 -61.5l-62 -79q-43 36 -82 51t-95 15q-59 0 -90.5 -22
t-31.5 -66q0 -29 15 -49.5t49 -38.5t99 -43q83 -32 129.5 -61.5t67.5 -67t21 -93.5q0 -86 -65 -134t-179 -48q-85 0 -156.5 30.5zM239 -230q43 19 63 55q-28 -4 -47.5 14t-19.5 44q0 31 20 50t53 19q36 0 55.5 -22t19.5 -60q0 -45 -32.5 -83.5t-82.5 -60.5z" />
    <glyph glyph-name="uni0219" unicode="&#x219;" horiz-adv-x="500" 
d="M142 14q-60 24 -104 69l67 71q32 -35 75.5 -53.5t91.5 -18.5q36 0 55 11.5t19 32.5q0 16 -7.5 26.5t-30 21t-71.5 26.5q-97 31 -137 66.5t-40 93.5q0 63 50 99t142 36q101 0 183 -57l-41 -78q-40 24 -73 33.5t-70 9.5q-38 0 -56.5 -11.5t-18.5 -31.5q0 -16 10 -26.5
t31.5 -19.5t67.5 -24q67 -22 104.5 -43.5t55 -50.5t17.5 -72q0 -61 -50.5 -97.5t-139.5 -36.5q-70 0 -130 24zM186 -230q43 19 63 55q-28 -4 -47.5 14t-19.5 44q0 31 20 50t53 19q36 0 55.5 -22t19.5 -60q0 -45 -32.5 -83.5t-82.5 -60.5z" />
    <glyph glyph-name="uni021A" unicode="&#x21a;" horiz-adv-x="588" 
d="M235 598h-200v102h518v-102h-200v-598h-118v598zM223 -230q43 19 63 55q-28 -4 -47.5 14t-19.5 44q0 31 20 50t53 19q36 0 55.5 -22t19.5 -60q0 -45 -32.5 -83.5t-82.5 -60.5z" />
    <glyph glyph-name="uni021B" unicode="&#x21b;" horiz-adv-x="389" 
d="M151.5 28q-35.5 37 -35.5 108v255h-88l25 94h65v108l112 52v-160h128l-23 -94h-103v-258q0 -27 10.5 -38t34.5 -11q29 0 49 10l27 -84q-15 -8 -43.5 -13.5t-54.5 -5.5q-68 0 -103.5 37zM174 -230q43 19 63 55q-28 -4 -47.5 14t-19.5 44q0 31 20 50t53 19q36 0 55.5 -22
t19.5 -60q0 -45 -32.5 -83.5t-82.5 -60.5z" />
    <glyph glyph-name="uni0237" unicode="&#x237;" horiz-adv-x="441" 
d="M96.5 -204.5q-43.5 14.5 -68.5 37.5l43 79q49 -36 104 -36q39 0 56.5 21.5t17.5 72.5v515h116v-508q0 -97 -46 -146.5t-136 -49.5q-43 0 -86.5 14.5z" />
    <glyph glyph-name="uni0251" unicode="&#x251;" horiz-adv-x="580" 
d="M141 20q-49 30 -76 85.5t-27 129.5q0 120 65.5 190t181.5 70q119 0 175.5 -63t56.5 -165v-135q0 -36 5.5 -59.5t18.5 -45.5l-94 -37q-28 31 -32 78h-2q-29 -37 -70 -57.5t-90 -20.5q-63 0 -112 30zM370 123q33 40 33 106v26q0 63 -31 105t-93 42q-60 0 -92 -44t-32 -123
q0 -72 31 -112t89 -40q62 0 95 40z" />
    <glyph glyph-name="uni0259" unicode="&#x259;" horiz-adv-x="554" 
d="M147 23.5q-54 33.5 -81.5 88t-27.5 117.5q0 30 19.5 46t53.5 16h288q0 49 -36.5 79t-97.5 30q-89 0 -138 -51l-60 63q32 39 83 61t115 22q77 0 133.5 -30.5t87 -87t30.5 -131.5q0 -73 -26.5 -131t-80 -91.5t-131.5 -33.5q-77 0 -131 33.5zM366.5 116.5
q33.5 33.5 33.5 82.5h-246q0 -50 34 -83t90 -33q55 0 88.5 33.5z" />
    <glyph glyph-name="uni02BB" unicode="&#x2bb;" horiz-adv-x="241" 
d="M60 548q-21 22 -21 60q0 47 37.5 90t92.5 68l33 -54q-23 -10 -40 -24.5t-24 -29.5q22 -2 38.5 -19.5t16.5 -39.5q0 -33 -21 -53t-55 -20q-36 0 -57 22z" />
    <glyph glyph-name="uni02BC" unicode="&#x2bc;" horiz-adv-x="247" 
d="M42 580q23 10 40 24.5t24 29.5q-22 2 -38.5 19.5t-16.5 39.5q0 33 21 53t55 20q36 0 57 -22t21 -60q0 -47 -37.5 -90t-92.5 -68z" />
    <glyph glyph-name="uni02BE" unicode="&#x2be;" 
d="M-74 590h12q19 0 29 10t10 26t-10 26t-29 10h-12v74h13q56 0 90.5 -30t34.5 -80t-34.5 -80.5t-90.5 -30.5h-13v75z" />
    <glyph glyph-name="uni02BF" unicode="&#x2bf;" 
d="M-47.5 545.5q-34.5 30.5 -34.5 80.5t34.5 80t90.5 30h13v-74h-12q-19 0 -29 -10t-10 -26t10 -26t29 -10h12v-75h-13q-56 0 -90.5 30.5z" />
    <glyph glyph-name="circumflex" unicode="&#x2c6;" horiz-adv-x="435" 
d="M166 699q14 17 25.5 23.5t30.5 6.5q26 0 39.5 -11t13.5 -25q0 -5 -1 -8l-3 -5l129 -138h-121l-65 87l-61 -87h-118z" />
    <glyph glyph-name="caron" unicode="&#x2c7;" horiz-adv-x="435" 
d="M169.5 556.5q-13.5 14.5 -8.5 29.5l2 6l-128 137h120l66 -86l61 86h118l-131 -156q-15 -17 -26.5 -24t-29.5 -7q-30 0 -43.5 14.5z" />
    <glyph glyph-name="uni02C8" unicode="&#x2c8;" 
d="M-54 754h108v-200h-108v200z" />
    <glyph glyph-name="uni02C9" unicode="&#x2c9;" horiz-adv-x="444" 
d="M39 649h366v-91h-366v91z" />
    <glyph glyph-name="uni02CA" unicode="&#x2ca;" 
d="M-107 589l158 160l76 -76l-170 -149z" />
    <glyph glyph-name="uni02CB" unicode="&#x2cb;" 
d="M-114 673l76 76l158 -160l-64 -65z" />
    <glyph glyph-name="uni02CC" unicode="&#x2cc;" 
d="M-54 -14h108v-200h-108v200z" />
    <glyph glyph-name="breve" unicode="&#x2d8;" horiz-adv-x="389" 
d="M83 574q-44 39 -44 112v11h100v-11q0 -34 14.5 -52t40.5 -18q27 0 41.5 18t14.5 52v11h100v-11q0 -73 -44 -112t-112 -39q-67 0 -111 39z" />
    <glyph glyph-name="dotaccent" unicode="&#x2d9;" horiz-adv-x="216" 
d="M59 574.5q-20 19.5 -20 48.5t20 48.5t50 19.5t49 -19.5t19 -48.5t-19 -48.5t-49 -19.5t-50 19.5z" />
    <glyph glyph-name="ring" unicode="&#x2da;" horiz-adv-x="314" 
d="M73.5 544.5q-35.5 27.5 -35.5 77.5q0 51 35.5 79t83.5 28t83.5 -28t35.5 -79q0 -50 -35.5 -77.5t-83.5 -27.5t-83.5 27.5zM188.5 592q12.5 11 12.5 30q0 21 -12.5 32.5t-31.5 11.5t-31.5 -11.5t-12.5 -32.5q0 -19 12.5 -30t31.5 -11t31.5 11z" />
    <glyph glyph-name="ogonek" unicode="&#x2db;" horiz-adv-x="287" 
d="M70.5 -194q-31.5 28 -31.5 76q0 41 25.5 73.5t68.5 50.5h94q-47 -28 -69.5 -54t-22.5 -55q0 -17 10.5 -26.5t30.5 -9.5q24 0 48 15l24 -68q-42 -30 -95 -30q-51 0 -82.5 28z" />
    <glyph glyph-name="tilde" unicode="&#x2dc;" horiz-adv-x="416" 
d="M39 582q7 42 36 69t65 27q26 0 46 -8t44 -23q27 -18 42 -18q19 0 29.5 11t14.5 37l61 -30q-1 -45 -25.5 -72t-64.5 -27q-22 0 -41 7.5t-44 20.5q-18 10 -28.5 14.5t-20.5 4.5q-39 0 -47 -47z" />
    <glyph glyph-name="hungarumlaut" unicode="&#x2dd;" horiz-adv-x="477" 
d="M139 726h116l-127 -186h-89zM319 726h119l-151 -186h-90z" />
    <glyph glyph-name="gravecomb" unicode="&#x300;" 
d="M-101 726h131l85 -186h-96z" />
    <glyph glyph-name="acutecomb" unicode="&#x301;" 
d="M3 726h131l-120 -186h-95z" />
    <glyph glyph-name="uni0302" unicode="&#x302;" 
d="M-51 699q14 17 25.5 23.5t30.5 6.5q26 0 40 -10.5t14 -24.5q0 -3 -2 -9l-2 -5l128 -138h-120l-66 87l-61 -87h-118z" />
    <glyph glyph-name="tildecomb" unicode="&#x303;" 
d="M-172 582q7 42 36 69t65 27q25 0 45 -8t44 -23q29 -18 43 -18q19 0 29.5 11t14.5 37l60 -30q-1 -46 -25 -72.5t-64 -26.5q-22 0 -41 7.5t-44 20.5q-34 19 -50 19q-38 0 -47 -47z" />
    <glyph glyph-name="uni0304" unicode="&#x304;" 
d="M-168 637h336v-89h-336v89z" />
    <glyph glyph-name="uni0306" unicode="&#x306;" 
d="M-111.5 574q-43.5 39 -43.5 112v11h99v-11q0 -34 14.5 -52t41.5 -18t41.5 18t14.5 52v11h99v-11q0 -73 -43.5 -112t-111.5 -39t-111.5 39z" />
    <glyph glyph-name="uni0307" unicode="&#x307;" 
d="M-50 574.5q-20 19.5 -20 48.5t20 48.5t50 19.5t49 -19.5t19 -48.5t-19 -48.5t-49 -19.5t-50 19.5z" />
    <glyph glyph-name="uni0308" unicode="&#x308;" 
d="M-158.5 568.5q-20.5 19.5 -20.5 48.5t20.5 48.5t51.5 19.5q30 0 49.5 -19.5t19.5 -48.5t-19.5 -48.5t-49.5 -19.5q-31 0 -51.5 19.5zM60 568.5q-20 19.5 -20 48.5t20 48.5t51 19.5q30 0 50 -19.5t20 -48.5t-20 -48.5t-50 -19.5q-31 0 -51 19.5z" />
    <glyph glyph-name="hookabovecomb" unicode="&#x309;" 
d="M-220.5 580q9.5 16 26.5 34q13 15 19.5 25.5t6.5 21.5t-6.5 17t-18.5 6q-30 0 -53 -30l-62 46q50 69 134 69q51 0 81.5 -25t30.5 -66q0 -22 -8 -36.5t-24 -33.5q-16 -18 -23.5 -31.5t-7.5 -34.5h-105q0 22 9.5 38z" />
    <glyph glyph-name="uni030A" unicode="&#x30a;" 
d="M-83.5 544.5q-35.5 27.5 -35.5 77.5q0 51 35.5 79t83.5 28t83.5 -28t35.5 -79q0 -50 -35.5 -77.5t-83.5 -27.5t-83.5 27.5zM31.5 592q12.5 11 12.5 30q0 21 -12.5 32.5t-31.5 11.5t-31.5 -11.5t-12.5 -32.5q0 -19 12.5 -30t31.5 -11t31.5 11z" />
    <glyph glyph-name="uni030B" unicode="&#x30b;" 
d="M-46 726h116l-126 -186h-90zM134 726h120l-152 -186h-90z" />
    <glyph glyph-name="uni030C" unicode="&#x30c;" 
d="M-49.5 556.5q-13.5 14.5 -8.5 29.5l2 6l-128 137h120l66 -86l61 86h118l-131 -156q-15 -17 -26.5 -24t-29.5 -7q-30 0 -43.5 14.5z" />
    <glyph glyph-name="uni031B" unicode="&#x31b;" 
d="M-105 425q55 0 79 22t24 68v28h107v-21q0 -92 -56 -137t-154 -45v85z" />
    <glyph glyph-name="dotbelowcomb" unicode="&#x323;" 
d="M-50 -136.5q-20 19.5 -20 48.5t19.5 48.5t50.5 19.5q30 0 49 -19.5t19 -48.5q0 -28 -19 -48t-49 -20t-50 19.5z" />
    <glyph glyph-name="uni0324" unicode="&#x324;" 
d="M-152.5 -137.5q-19.5 19.5 -19.5 48.5t19.5 48.5t49.5 19.5t49 -19.5t19 -48.5t-19 -48.5t-49 -19.5t-49.5 19.5zM56 -137.5q-20 19.5 -20 48.5t20 48.5t50 19.5t48.5 -19.5t18.5 -48.5t-18.5 -48.5t-48.5 -19.5t-50 19.5z" />
    <glyph glyph-name="uni0326" unicode="&#x326;" 
d="M-183 -230q43 19 63 55q-28 -4 -47.5 14t-19.5 44q0 31 20 50t53 19q36 0 55.5 -22t19.5 -60q0 -45 -32.5 -83.5t-82.5 -60.5z" />
    <glyph glyph-name="uni0327" unicode="&#x327;" 
d="M-126 -184l30 56q37 -25 70 -25q37 0 37 32q0 14 -10.5 22.5t-29.5 8.5q-6 0 -20 -2l-23 24l46 74h86l-32 -51q77 -15 77 -85q0 -41 -31.5 -67.5t-85.5 -26.5q-62 0 -114 40z" />
    <glyph glyph-name="uni0328" unicode="&#x328;" 
d="M-92 -194q-32 28 -32 76q0 41 26 73.5t68 50.5h94q-46 -27 -68.5 -53.5t-22.5 -55.5q0 -17 10 -26.5t30 -9.5q25 0 48 15l24 -68q-40 -30 -95 -30q-50 0 -82 28z" />
    <glyph glyph-name="uni032E" unicode="&#x32e;" 
d="M-111.5 -162.5q-43.5 37.5 -43.5 110.5v11h99v-11q0 -68 56 -68t56 68v11h99v-11q0 -73 -43.5 -110.5t-111.5 -37.5t-111.5 37.5z" />
    <glyph glyph-name="uni0331" unicode="&#x331;" 
d="M-168 -55h336v-89h-336v89z" />
    <glyph glyph-name="uni0394" unicode="&#x394;" horiz-adv-x="699" 
d="M285 664q10 28 27 41t45 13q34 0 51.5 -13.5t17.5 -36.5q0 -10 -6 -19l241 -649h-623zM505 105l-154 420l-154 -420h308z" />
    <glyph glyph-name="uni03A9" unicode="&#x3a9;" horiz-adv-x="725" 
d="M79 102h145v55q-90 27 -138 94t-48 169q0 88 40.5 153.5t114 101t169.5 35.5t169.5 -35.5t114 -101t40.5 -153.5q0 -103 -48 -170t-138 -93v-55h145v-102h-263v229q96 9 140 57t44 134q0 90 -55.5 141.5t-148.5 51.5t-148.5 -51.5t-55.5 -141.5q0 -86 44.5 -134
t139.5 -57v-229h-263v102z" />
    <glyph glyph-name="uni03BC" unicode="&#x3bc;" horiz-adv-x="555" 
d="M52 485h116v-291q0 -55 25 -82t76 -27q53 0 81 37.5t28 95.5v267h116v-354q0 -31 5 -53.5t17 -47.5l-103 -40q-9 15 -16.5 37.5t-8.5 41.5q-50 -79 -138 -79q-24 0 -46.5 7t-35.5 20v-267h-116v735z" />
    <glyph glyph-name="pi" unicode="&#x3c0;" horiz-adv-x="651" 
d="M423.5 28.5q-34.5 37.5 -34.5 107.5v240h-143v-376h-118v376h-100v94h588v-94h-111v-242q0 -27 10.5 -38.5t32.5 -11.5q27 0 47 10l28 -84q-16 -8 -44 -13.5t-54 -5.5q-67 0 -101.5 37.5z" />
    <glyph glyph-name="uni0E01" unicode="&#xe01;" horiz-adv-x="649" 
d="M117 243q0 49 23 78l-108 70q12 56 53 104.5t102.5 78t132.5 29.5q79 0 131.5 -25t89.5 -74q8 7 19 7q13 0 25 -12q22 -22 22 -45q0 -9 -3.5 -15.5t-9.5 -12.5q-7 -7 -11 -14t-4 -19v-393h-116v395q0 28 7 43q-25 35 -61 53.5t-88 18.5q-123 0 -175 -91l43 -27
q27 32 70 45l38 -70q-33 -15 -48.5 -40t-15.5 -63v-264h-116v243z" />
    <glyph glyph-name="uni0E02" unicode="&#xe02;" horiz-adv-x="603" 
d="M175 -11q-28 0 -48 33q-9 17 -9 27q0 9 5.5 16.5t17.5 16.5q9 6 12 17.5t3 32.5v36q0 35 15.5 61.5t46.5 65.5q33 40 49.5 70t16.5 70q0 43 -21.5 68t-58.5 25q-22 0 -48 -12v-3q43 -1 67 -26.5t24 -62.5q0 -42 -29.5 -70t-77.5 -28t-78 31t-30 85q0 46 22.5 82.5
t63.5 57.5t94 21q80 0 128 -45t48 -123q0 -46 -17.5 -81.5t-50.5 -79.5q-26 -35 -38 -57t-12 -47v-41q0 -24 -13 -40h180v504h114v-516q0 -35 -22 -56t-58 -21h-243q-24 0 -33 -6q-10 -5 -20 -5zM170 395.5q12 11.5 12 29.5q0 17 -12.5 29t-29.5 12q-18 0 -30 -12t-12 -29
q0 -18 12 -29.5t30 -11.5t30 11.5z" />
    <glyph glyph-name="uni0E03" unicode="&#xe03;" horiz-adv-x="639" 
d="M212 -11q-28 0 -48 33q-10 18 -10 27t6 16.5t18 16.5q8 6 11 17.5t3 32.5v39q0 52 23 94.5t66 96.5q30 38 44.5 62t14.5 47q0 17 -4 26.5t-13 19.5l-23 -17q7 -13 7 -22q0 -14 -18 -23q-12 -5 -19 -5q-13 0 -19 14q-27 64 -75 64q-44 0 -56 -53h1q8 6 20 9t23 3
q36 0 59 -26t23 -61q0 -42 -29 -70t-75 -28q-50 0 -80 35t-30 96q0 75 38.5 122.5t105.5 47.5q35 0 56.5 -9.5t41.5 -29.5l28 21q23 18 39 18q21 0 35 -12q31 -27 44.5 -53t13.5 -67q0 -36 -15.5 -68t-46.5 -78q-33 -50 -49 -84t-16 -74v-38q0 -22 -13 -40h178v504h115v-516
q0 -35 -22 -56t-58 -21h-243q-22 0 -33 -6q-8 -5 -19 -5zM172 371.5q12 11.5 12 29.5q0 17 -12.5 29t-29.5 12q-18 0 -30 -12t-12 -29q0 -18 12 -29.5t30 -11.5t30 11.5z" />
    <glyph glyph-name="uni0E04" unicode="&#xe04;" horiz-adv-x="646" 
d="M462 395q0 25 7 44q-50 73 -150 73q-78 0 -121 -38.5t-43 -116.5q0 -41 8 -95q8 -50 8 -86h3q9 24 14 45.5t7.5 39.5t3.5 24q5 45 13 67q25 68 104 68q52 0 82 -28.5t30 -77.5q0 -46 -30 -73.5t-81 -27.5q-28 0 -51 15q-10 -60 -29.5 -107.5t-59.5 -101.5
q-21 -27 -45 -27q-17 0 -36 13q-26 16 -26 33q0 12 13 30q6 8 6 27q0 26 -20 93q-15 53 -23 91.5t-8 77.5q0 74 35.5 129.5t99 86t146.5 30.5q142 0 221 -99q8 7 18 7q12 0 24 -12q23 -22 23 -45q0 -9 -3.5 -15.5t-9.5 -12.5q-7 -7 -11 -14t-4 -19v-393h-115v395zM345 284.5
q12 11.5 12 29.5q0 17 -12 28.5t-29 11.5q-18 0 -30 -11.5t-12 -28.5q0 -18 12 -29.5t30 -11.5q17 0 29 11.5z" />
    <glyph glyph-name="uni0E05" unicode="&#xe05;" horiz-adv-x="646" 
d="M462 415q0 25 7 44q-7 27 -20.5 40t-36.5 13q-27 0 -51 -17q3 -8 -3 -18t-21 -17q-15 -6 -26 -6q-20 0 -32 22q-12 18 -25 27t-30 9q-35 0 -52 -36t-17 -119q0 -41 8 -95q8 -50 8 -86h3q9 24 14 45.5t7.5 39.5t3.5 24q5 45 13 67q25 68 104 68q52 0 82 -28.5t30 -77.5
q0 -46 -30 -73.5t-81 -27.5q-28 0 -51 15q-10 -60 -29.5 -107.5t-59.5 -101.5q-21 -27 -45 -27q-17 0 -36 13q-26 16 -26 33q0 12 13 30q6 8 6 27q0 26 -20 93q-15 53 -23 91.5t-8 77.5q0 120 44.5 183t131.5 63q67 0 106 -52q19 24 46.5 38t58.5 14q86 0 115 -79q8 7 18 7
q12 0 24 -12q23 -22 23 -45q0 -9 -3.5 -15.5t-9.5 -12.5q-7 -7 -11 -14t-4 -19v-413h-115v415zM345 284.5q12 11.5 12 29.5q0 17 -12 28.5t-29 11.5q-18 0 -30 -11.5t-12 -28.5q0 -18 12 -29.5t30 -11.5q17 0 29 11.5z" />
    <glyph glyph-name="uni0E06" unicode="&#xe06;" horiz-adv-x="672" 
d="M117 21q-32 31 -32 85q0 62 37.5 101.5t101.5 48.5v8q0 21 14.5 44t43.5 58q29 37 44 60.5t15 46.5q0 17 -4 25.5t-13 18.5l-23 -17q7 -13 7 -22q0 -14 -18 -23q-12 -5 -19 -5q-13 0 -19 14q-27 64 -75 64q-23 0 -38.5 -13.5t-20.5 -36.5h2q8 5 20 8.5t22 3.5
q36 0 59.5 -26t23.5 -61q0 -42 -29 -70t-75 -28q-51 0 -80 35t-29 96q0 74 39 120.5t106 46.5q35 0 56.5 -9.5t41.5 -29.5l28 21q23 18 39 18q21 0 35 -12q31 -27 44.5 -52t13.5 -66q0 -32 -15 -57.5t-44 -59.5q-25 -30 -37 -49.5t-12 -42.5v-8q50 -6 97 -24.5t83 -51.5v413
h114v-593h-114v64q-33 46 -79.5 71t-107.5 35v-68q0 -51 -31 -81.5t-86 -30.5q-54 0 -86 31zM170 374.5q12 11.5 12 29.5q0 17 -12 28.5t-29 11.5q-18 0 -30 -11.5t-12 -28.5q0 -18 12 -29.5t30 -11.5q17 0 29 11.5zM227 67q9 10 9 28v89q-37 -5 -54.5 -24.5t-17.5 -55.5
q0 -23 10 -35t29 -12q15 0 24 10z" />
    <glyph glyph-name="uni0E07" unicode="&#xe07;" horiz-adv-x="522" 
d="M373 -10q-23 0 -42 16q-21 17 -21 31q0 9 5 15l-290 277l72 71l253 -242q5 12 5 25v215q-11 -4 -27 -4q-41 0 -69 28t-28 73q0 46 31.5 77t87.5 31q55 0 87.5 -30.5t32.5 -81.5v-351q0 -40 -13 -71.5t-45 -62.5q-16 -16 -39 -16zM379 465.5q12 11.5 12 29.5
q0 17 -12 28.5t-29 11.5q-18 0 -30 -11.5t-12 -28.5q0 -18 12 -29.5t30 -11.5q17 0 29 11.5z" />
    <glyph glyph-name="uni0E08" unicode="&#xe08;" horiz-adv-x="625" 
d="M400 -9q-29 0 -44 19q-13 16 -13 30q0 16 18 32l-35 148q-7 -7 -24 -11.5t-34 -4.5q-43 0 -74 29t-31 73q0 45 31.5 75t83.5 30q94 0 113 -99l32 -153l36 256q3 20 12 29q-58 66 -166 66q-63 0 -104.5 -27t-65.5 -84l-97 31q28 79 97 126t170 47q73 0 125.5 -26t94.5 -71
q7 5 14 5q16 0 33 -20q15 -18 15 -31q0 -15 -17 -29q-15 -13 -19 -34l-54 -316q-6 -35 -59 -78q-15 -12 -38 -12zM307 276.5q12 11.5 12 29.5q0 17 -12 29t-29 12q-18 0 -29.5 -12t-11.5 -29q0 -18 11.5 -29.5t29.5 -11.5q17 0 29 11.5z" />
    <glyph glyph-name="uni0E09" unicode="&#xe09;" horiz-adv-x="657" 
d="M409.5 20.5q-32.5 30.5 -32.5 71.5q0 28 12 50.5t35 36.5v3q-95 0 -172 -168q-5 -11 -15.5 -17t-22.5 -6q-19 0 -39 13q-26 18 -26 40q0 11 6 21q18 26 18 53v46q-14 -4 -25 -4q-41 0 -69.5 28.5t-28.5 73.5t32 76.5t87 31.5q53 0 86.5 -29.5t33.5 -75.5q0 -16 -6 -30
v-46q31 35 71.5 52.5t84.5 17.5q15 0 23 -1v139q0 31 10 47q-25 32 -64.5 49t-90.5 17q-65 0 -111.5 -24.5t-69.5 -74.5l-98 30q28 74 101 118t178 44q146 0 221 -95q8 6 17 6q17 0 35 -21q17 -23 17 -37q0 -9 -6 -15q-11 -13 -17 -25t-6 -30v-194q19 -15 29.5 -38.5
t10.5 -51.5t-15 -54t-42.5 -42t-63.5 -16q-55 0 -87.5 30.5zM198 232q12 11 12 29q0 17 -12 29t-29 12q-18 0 -30 -12t-12 -29q0 -18 12 -29t30 -11q17 0 29 11zM527.5 70q12.5 12 12.5 31q0 18 -12 30.5t-31 12.5t-31 -12.5t-12 -30.5q0 -19 12 -31t31 -12q18 0 30.5 12z
" />
    <glyph glyph-name="uni0E0A" unicode="&#xe0a;" horiz-adv-x="670" 
d="M195 -11q-28 0 -48 33q-9 17 -9 27q0 9 5.5 16.5t17.5 16.5q9 6 12 17.5t3 32.5v38q0 35 12.5 61.5t38.5 63.5q28 39 42 69t14 71q0 43 -21 68t-58 25q-22 0 -48 -12v-3q43 -1 67 -26.5t24 -62.5q0 -42 -29.5 -70t-77.5 -28t-78 31t-30 85q0 46 22.5 82.5t63.5 57.5
t94 21q80 0 127.5 -45t47.5 -123q0 -43 -14 -76.5t-40 -74.5q-22 -36 -32.5 -60t-10.5 -52v-43q0 -24 -13 -40h181v285q0 25 -5.5 35t-19.5 14q-12 4 -18.5 14t-6.5 22q0 14 7 25q28 46 69 88.5t92 73.5l66 -79q-37 -20 -72 -49t-55 -55q32 -10 44 -32t12 -61v-293
q0 -35 -22 -56t-58 -21h-244q-22 0 -33 -6q-8 -5 -19 -5zM170 395.5q12 11.5 12 29.5q0 17 -12.5 29t-29.5 12q-18 0 -30 -12t-12 -29q0 -18 12 -29.5t30 -11.5t30 11.5z" />
    <glyph glyph-name="uni0E0B" unicode="&#xe0b;" horiz-adv-x="706" 
d="M230 -11q-29 0 -47 33q-10 18 -10 27t6 16.5t18 16.5q8 6 11 17.5t3 32.5v39q0 52 19.5 93.5t55.5 94.5q27 42 38.5 64t11.5 46q0 18 -4 28t-13 20l-22 -17q7 -13 7 -22q0 -14 -18 -23q-10 -6 -18 -6q-13 0 -20 15q-13 32 -31 48t-43 16q-42 0 -54 -53h1q8 6 20 9t23 3
q36 0 59 -26t23 -61q0 -43 -28.5 -70.5t-75.5 -27.5q-51 0 -80.5 35t-29.5 96q0 75 37.5 122.5t104.5 47.5q35 0 56 -9.5t42 -30.5l26 22q13 10 21.5 14t18.5 4q21 0 34 -13q30 -26 43.5 -53t13.5 -68q0 -36 -12.5 -67t-37.5 -78q-27 -51 -40 -84t-13 -73v-38q0 -22 -13 -40
h181v285q0 24 -5 34.5t-17 14.5t-19 14t-7 22t8 25q27 47 67 89t91 73l65 -79q-36 -20 -70 -48.5t-54 -55.5q30 -10 41.5 -32t11.5 -61v-293q0 -35 -22 -56t-58 -21h-243q-22 0 -33 -6q-10 -5 -20 -5zM172 370.5q12 11.5 12 29.5q0 17 -12.5 29t-29.5 12q-18 0 -30 -12
t-12 -29q0 -18 12 -29.5t30 -11.5t30 11.5z" />
    <glyph glyph-name="uni0E0C" unicode="&#xe0c;" horiz-adv-x="925" 
d="M156.5 21q-32.5 31 -32.5 82v140q0 49 23 78l-109 70q12 56 52 104.5t100.5 78t131.5 29.5q76 0 126.5 -25t87.5 -74q8 7 19 7q13 0 25 -12q22 -22 22 -45q0 -9 -3.5 -15.5t-9.5 -12.5q-7 -7 -11 -14t-4 -19v-133q114 -16 185 -81v414h114v-593h-114v64
q-34 47 -74.5 72.5t-90.5 34.5q14 -26 14 -64q0 -55 -29.5 -86t-81.5 -31t-81.5 32t-29.5 91q0 45 20.5 80t53.5 55v147q0 27 6 43q-24 35 -58.5 53.5t-84.5 18.5q-64 0 -104.5 -23.5t-65.5 -67.5l42 -27q26 31 71 45l38 -70q-33 -15 -48.5 -40t-15.5 -63v-77q15 5 28 5
q39 0 63 -26.5t24 -71.5t-31 -74.5t-84 -29.5q-51 0 -83.5 31zM523 68q10 14 10 38q0 51 -24 82q-48 -22 -48 -82q0 -24 9.5 -38t25.5 -14q17 0 27 14zM270 65.5q12 11.5 12 28.5q0 18 -12 29.5t-30 11.5q-17 0 -29 -11.5t-12 -29.5q0 -17 12 -28.5t29 -11.5q18 0 30 11.5z
" />
    <glyph glyph-name="uni0E0D" unicode="&#xe0d;" horiz-adv-x="915" 
d="M496 -128q-44 31 -44 84q0 45 33 75t82 30t80.5 -26t31.5 -67q0 -23 -12 -36v-3q41 10 66 52.5t25 109.5h-233q-21 0 -33 -5q-10 -5 -20 -5q-28 0 -47 32q-10 18 -10 27t6 16.5t18 16.5q8 6 11 17.5t3 32.5v172q0 28 7 43q-25 35 -59.5 53.5t-84.5 18.5q-63 0 -104 -24
t-66 -67l43 -27q27 32 70 45l38 -70q-33 -15 -48.5 -40t-15.5 -63v-77q15 5 29 5q39 0 63 -26.5t24 -71.5t-31.5 -74.5t-83.5 -29.5t-84.5 31t-32.5 82v140q0 49 23 78l-108 70q12 56 52 104.5t100 78t131 29.5q76 0 126.5 -25t88.5 -74q8 7 18 7q13 0 25 -12q23 -22 23 -45
q0 -9 -3.5 -15.5t-9.5 -12.5q-7 -7 -11 -14t-4 -19v-177q0 -22 -12 -34h195v411h116v-491q0 -74 -31 -133.5t-89 -93.5t-135 -34q-72 0 -116 31zM263.5 65.5q11.5 11.5 11.5 28.5q0 18 -11.5 29.5t-29.5 11.5t-30 -11.5t-12 -29.5q0 -17 12.5 -28.5t29.5 -11.5
q18 0 29.5 11.5zM598 -75q12 11 12 28t-12 28.5t-29 11.5t-28.5 -11.5t-11.5 -28.5t11.5 -28t28.5 -11t29 11z" />
    <glyph glyph-name="uni0E0E" unicode="&#xe0e;" horiz-adv-x="651" 
d="M90.5 -328.5q-34.5 30.5 -34.5 82.5q0 60 45.5 92t118.5 29v47h94v-53q43 -12 75.5 -39t49.5 -63q26 22 26 81v547q0 28 7 43q-51 72 -142 72q-64 0 -108 -24t-68 -67l47 -28q12 15 31 27t39 18l38 -70q-33 -15 -48 -40t-15 -64v-117q12 -21 12 -51q0 -46 -31.5 -75
t-83.5 -29t-83.5 30t-31.5 74q0 42 24.5 71.5t64.5 29.5q9 0 15 -2v48q0 55 20 80l-112 70q13 56 54 105t102.5 78t132.5 29q73 0 125 -25.5t89 -73.5q8 7 19 7q13 0 25 -12q22 -22 22 -45q0 -9 -3.5 -15.5t-9.5 -12.5q-7 -7 -11 -14t-4 -19v-548q0 -127 -129 -193
q-22 -11 -41 -11q-25 0 -42 22q-10 13 -10 25q0 18 19 31q-8 24 -24.5 41.5t-40.5 26.5v-10q0 -59 -35 -97.5t-98 -38.5q-55 0 -89.5 30.5zM172.5 65.5q12.5 11.5 12.5 28.5q0 18 -12 29.5t-30 11.5t-29.5 -11.5t-11.5 -29.5q0 -17 11.5 -28.5t29.5 -11.5q17 0 29.5 11.5z
M224 -222v24q-37 3 -57 -10t-20 -37q0 -16 9.5 -26t26.5 -10q41 0 41 59z" />
    <glyph glyph-name="uni0E0F" unicode="&#xe0f;" horiz-adv-x="664" 
d="M54.5 -331q-26.5 28 -26.5 72q0 52 36 84t94 28v45h86v-52q33 -6 57 -24t35 -44q12 17 23 25.5t26 8.5q13 0 22.5 -6t19.5 -19l16 -23q5 -7 9 -10t10 -3q16 0 16 21v623q0 28 7 43q-51 72 -142 72q-64 0 -108 -24t-68 -67l47 -28q12 15 31 27t39 18l38 -70
q-33 -15 -48 -40t-15 -64v-117q12 -21 12 -51q0 -46 -31.5 -75t-83.5 -29t-83.5 30t-31.5 74q0 42 24.5 71.5t64.5 29.5q9 0 15 -2v48q0 55 20 80l-112 70q13 56 54 105t102.5 78t132.5 29q73 0 125 -25.5t89 -74.5q10 8 20 8q11 0 24 -12q22 -22 22 -45q0 -9 -3.5 -15.5
t-9.5 -12.5q-7 -7 -11 -14t-4 -19v-643q0 -52 -23 -80.5t-70 -28.5q-44 0 -72 33l-24 29q-12 15 -22 15q-5 0 -9 -3t-9 -10l-27 -47q-12 -17 -29 -17q-13 0 -27 9q-19 12 -19 27q0 8 7 22l10 21q-4 38 -37 49v-7q0 -54 -28 -87.5t-86 -33.5q-48 0 -74.5 28zM185.5 65.5
q12.5 11.5 12.5 28.5q0 18 -12 29.5t-30 11.5t-29.5 -11.5t-11.5 -29.5q0 -17 11.5 -28.5t29.5 -11.5q17 0 29.5 11.5zM157 -283.5q8 10.5 8 36.5v32q-31 1 -47 -10t-16 -34q0 -17 8.5 -26t21.5 -9q17 0 25 10.5z" />
    <glyph glyph-name="uni0E10" unicode="&#xe10;" horiz-adv-x="629" 
d="M386 -9q-28 0 -43 19q-14 17 -14 29q0 15 19 34l-33 107q-7 -7 -24 -11.5t-34 -4.5q-43 0 -74 28t-31 72q0 45 30.5 74.5t82.5 29.5q91 0 112 -98l28 -125l25 171q4 28 12 39q-30 18 -85.5 29t-112.5 11q-53 0 -94 -11l-6 -16q-2 -7 -11 -11.5t-22 -4.5t-28 6
q-29 11 -29 35q0 11 4 20q30 88 96 139t162 51q33 0 63.5 -5t75.5 -15q50 -10 76.5 -15t59.5 -6l-26 -89q-56 6 -112 20q-43 9 -74.5 14t-69.5 5q-90 0 -117 -53q25 4 62 4q63 0 125.5 -13t98.5 -35q9 7 18 7q15 0 30 -15q20 -20 20 -37q0 -12 -13 -25q-7 -7 -10.5 -16.5
t-5.5 -26.5l-33 -221q-6 -37 -59 -78q-16 -12 -39 -12zM296.5 235q11.5 11 11.5 29q0 17 -12 29t-29 12q-18 0 -30 -12t-12 -29q0 -18 12 -29t30 -11t29.5 11zM58 -331.5q-26 27.5 -26 71.5q0 51 37.5 82.5t91.5 26.5v57h85v-65q39 -10 65 -35.5t36 -62.5q31 21 65 21
t63 -19v48q-5 -2 -14.5 -3.5t-16.5 -1.5q-36 0 -60.5 23.5t-24.5 60.5q0 41 26.5 68.5t75.5 27.5t76 -26.5t27 -73.5v-139q7 -8 7 -19q0 -17 -19 -36t-38 -19q-20 0 -48 20q-22 18 -54 18q-19 0 -36.5 -8.5t-29.5 -25.5t-30 -17q-14 0 -26 8q-21 13 -21 30q0 8 5 20l9 20
q-3 19 -12 30t-26 17q2 -58 -28.5 -92t-83.5 -34q-49 0 -75 27.5zM493.5 -155.5q11.5 10.5 11.5 26.5q0 17 -11.5 29t-28.5 12t-28.5 -11t-11.5 -28t11.5 -28t29.5 -11q16 0 27.5 10.5zM159.5 -283.5q8.5 10.5 8.5 35.5v31q-5 1 -15 1q-23 0 -35.5 -11.5t-12.5 -32.5
q0 -17 8.5 -25.5t21.5 -8.5q16 0 24.5 10.5z" />
    <glyph glyph-name="uni0E11" unicode="&#xe11;" horiz-adv-x="766" 
d="M249 19q-11 12 -11 25q0 8 6 17q6 7 7.5 15t1.5 21v170q0 40 13 71.5t36 69.5q15 24 22 39.5t7 30.5q0 25 -17 40l-24 -16q7 -14 7 -21q0 -14 -18 -23q-10 -6 -18 -6q-13 0 -20 15q-14 31 -30.5 46t-40.5 15q-46 0 -51 -61h2q7 5 19.5 8t23.5 3q36 0 59 -26t23 -61
q0 -42 -29 -70t-75 -28q-50 0 -80 35.5t-30 96.5q0 76 35.5 127t100.5 51q34 0 55 -9.5t41 -29.5l27 20q14 10 22.5 14.5t18.5 4.5q21 0 36 -13q28 -25 40 -47.5t12 -59.5q0 -17 -6.5 -31.5t-20.5 -40.5q-19 -32 -29.5 -59t-10.5 -61v-79l160 389q47 0 77 -11.5t60 -36.5
q14 10 23 10q12 0 26 -11q13 -12 19 -22t6 -22q0 -9 -3 -15t-10 -14q-8 -12 -11.5 -19t-3.5 -20v-440h-113v440q0 32 10 48q-6 7 -16 12t-18 5l-200 -481q-13 -33 -47 -33q-15 0 -34 8q-18 8 -29 20zM171.5 363.5q12.5 11.5 12.5 28.5t-12.5 29t-29.5 12q-18 0 -30 -12
t-12 -29t12 -28.5t30 -11.5q17 0 29.5 11.5z" />
    <glyph glyph-name="uni0E12" unicode="&#xe12;" horiz-adv-x="929" 
d="M420.5 22q-29.5 32 -29.5 91q0 45 20.5 80t54.5 55v161q0 31 8 44q-6 29 -21 44t-43 15q-24 0 -50 -17q3 -8 -3 -18t-21 -17q-15 -6 -26 -6q-21 0 -33 22q-11 18 -24 27t-31 9q-35 0 -51 -30.5t-16 -102.5q0 -66 16 -140q10 -55 11 -79h3q19 29 35.5 47.5t39.5 31.5
q-25 10 -41.5 33t-16.5 54q0 45 32 75t82 30q51 0 82 -30t31 -76q0 -61 -68 -104q-55 -34 -94.5 -81t-82.5 -121q-17 -28 -43 -28q-17 0 -39 14q-27 18 -27 35q0 10 11 26q9 11 9 29q0 27 -6 53t-19 66q-16 51 -24 86.5t-8 78.5q0 107 44 165.5t131 58.5q67 0 106 -52
q19 24 46.5 38t58.5 14q45 0 74.5 -23t43.5 -62q11 7 19 7q11 0 24 -12q22 -21 22 -44q0 -9 -3 -14.5t-10 -13.5q-8 -8 -12 -15.5t-4 -19.5v-146q115 -16 186 -81v414h114v-593h-114l1 64q-34 47 -74.5 72.5t-90.5 34.5q14 -30 14 -64q0 -55 -29.5 -86t-81.5 -31
q-53 0 -82.5 32zM345 294.5q12 11.5 12 29.5q0 17 -12 29t-29 12q-18 0 -30 -12t-12 -29q0 -18 12 -29.5t30 -11.5q17 0 29 11.5zM529 68q10 14 10 38q0 51 -24 82q-48 -22 -48 -82q0 -24 9 -38t26 -14t27 14z" />
    <glyph glyph-name="uni0E13" unicode="&#xe13;" horiz-adv-x="946" 
d="M149.5 21q-32.5 31 -32.5 82v140q0 49 23 78l-108 70q12 56 52 104.5t100 78t131 29.5q76 0 126.5 -25t88.5 -74q8 7 18 7q13 0 25 -12q22 -21 22 -45q0 -9 -3.5 -15.5t-9.5 -12.5q-7 -7 -11 -14t-4 -19v-205q78 77 194 72v333h116v-419q31 -28 31 -76q0 -45 -33 -76.5
t-89 -31.5q-55 0 -87 30.5t-32 71.5q0 57 46 85v4q-53 -5 -96.5 -46.5t-82.5 -120.5q-10 -23 -38 -23q-20 0 -39 13q-27 19 -27 40q0 10 7 18q16 22 16 54v279q0 28 7 43q-25 35 -59.5 53.5t-84.5 18.5q-63 0 -104 -24t-66 -67l43 -27q27 32 70 45l38 -70q-33 -15 -48.5 -40
t-15.5 -63v-77q15 5 29 5q39 0 63 -26.5t24 -71.5t-31.5 -74.5t-83.5 -29.5t-84.5 31zM817.5 70q12.5 12 12.5 31q0 18 -12.5 30.5t-31.5 12.5t-31 -12.5t-12 -30.5q0 -19 12 -31t31 -12t31.5 12zM263.5 65.5q11.5 11.5 11.5 28.5q0 18 -11.5 29.5t-29.5 11.5t-30 -11.5
t-12 -29.5q0 -17 12.5 -28.5t29.5 -11.5q18 0 29.5 11.5z" />
    <glyph glyph-name="uni0E14" unicode="&#xe14;" horiz-adv-x="654" 
d="M470 395q0 29 7 44q-23 35 -62.5 54t-94.5 19q-77 0 -121 -40.5t-44 -120.5q0 -34 4 -58t11 -53q13 -43 13 -78h4q20 30 36 47.5t39 29.5q-25 10 -41.5 33t-16.5 54q0 45 32 75t82 30q51 0 82 -30t31 -76q0 -61 -68 -104q-56 -35 -96.5 -82t-82.5 -120q-17 -28 -43 -28
q-17 0 -39 14q-25 17 -25 33q0 11 12 30q7 11 7 27q0 17 -5.5 38t-17.5 58q-17 48 -26 85.5t-9 74.5q0 75 35 132t99 88.5t147 31.5q76 0 134 -26.5t94 -73.5q11 8 19 8q11 0 24 -12q23 -22 23 -45q0 -9 -3.5 -15.5t-9.5 -12.5q-7 -7 -11 -14t-4 -19v-393h-115v395z
M347 294.5q12 11.5 12 29.5q0 17 -12 29t-29 12q-18 0 -30 -12t-12 -29q0 -18 12 -29.5t30 -11.5q17 0 29 11.5z" />
    <glyph glyph-name="uni0E15" unicode="&#xe15;" horiz-adv-x="654" 
d="M470 417q0 28 8 43q-8 27 -23.5 39.5t-41.5 12.5q-24 0 -50 -17q3 -8 -3 -18t-21 -17q-15 -6 -26 -6q-21 0 -33 22q-11 18 -24 27t-30 9q-36 0 -53.5 -31t-17.5 -102q0 -66 16 -140q10 -55 11 -79h3q19 29 36.5 47.5t40.5 31.5q-25 10 -41.5 33t-16.5 54q0 45 32 75
t82 30q51 0 82 -30t31 -76q0 -61 -68 -104q-56 -35 -96.5 -82t-82.5 -120q-17 -28 -43 -28q-17 0 -39 14q-27 18 -27 35q0 10 11 26q9 11 9 29q0 27 -6 53t-19 66q-16 51 -24 86.5t-8 78.5q0 106 46.5 165t132.5 59q65 0 105 -52q19 24 47 38t59 14q44 0 75.5 -23t46.5 -60
q8 5 15 5q11 0 25 -12q23 -19 23 -44q0 -9 -3.5 -15.5t-9.5 -12.5q-7 -8 -11 -15.5t-4 -19.5v-406h-115v417zM347 294.5q12 11.5 12 29.5q0 17 -12 29t-29 12q-18 0 -30 -12t-12 -29q0 -18 12 -29.5t30 -11.5q17 0 29 11.5z" />
    <glyph glyph-name="uni0E16" unicode="&#xe16;" horiz-adv-x="649" 
d="M149.5 21q-32.5 31 -32.5 82v140q0 49 23 78l-108 70q12 56 53 104.5t102.5 78t132.5 29.5q79 0 131.5 -25t89.5 -74q8 7 19 7q13 0 25 -12q22 -22 22 -45q0 -9 -3.5 -15.5t-9.5 -12.5q-7 -7 -11 -14t-4 -19v-393h-116v395q0 28 7 43q-25 35 -60.5 53.5t-88.5 18.5
q-123 0 -175 -91l43 -27q27 32 70 45l38 -70q-33 -15 -48.5 -40t-15.5 -63v-77q15 5 29 5q39 0 63 -26.5t24 -71.5t-31.5 -74.5t-83.5 -29.5t-84.5 31zM263.5 65.5q11.5 11.5 11.5 28.5q0 18 -11.5 29.5t-29.5 11.5t-30 -11.5t-12 -29.5q0 -17 12.5 -28.5t29.5 -11.5
q18 0 29.5 11.5z" />
    <glyph glyph-name="uni0E17" unicode="&#xe17;" horiz-adv-x="664" 
d="M133 42q0 11 8 20q11 16 11 40v296q-11 -4 -26 -4q-42 0 -70 28t-28 73q0 46 32 77t87 31t85 -30t30 -82v-229l135 341q94 0 150 -48q12 10 24 10q14 0 26 -11q25 -22 25 -43q0 -15 -13 -30q-7 -9 -11 -17.5t-4 -21.5v-442h-113v440q0 30 9 49q-5 7 -16.5 13t-21.5 6
l-199 -484q-13 -33 -46 -33q-18 0 -35 8q-39 18 -39 43zM177 465.5q12 11.5 12 29.5q0 17 -12.5 28.5t-29.5 11.5q-18 0 -29.5 -11.5t-11.5 -28.5q0 -18 11.5 -29.5t29.5 -11.5t30 11.5z" />
    <glyph glyph-name="uni0E18" unicode="&#xe18;" horiz-adv-x="638" 
d="M222 491q-33 -19 -46 -53q16 2 54 2q74 0 153.5 -12.5t115.5 -33.5q8 8 18 8q14 0 30 -16q21 -21 21 -37q0 -13 -13 -24q-8 -7 -11 -17t-3 -26v-205q0 -35 -22 -56t-58 -21h-239q-22 0 -33 -6q-10 -5 -20 -5q-29 0 -47 33q-10 18 -10 27t6 16.5t18 16.5q20 15 20 50v232
l-24 -4l-6 -13q-9 -15 -31 -15q-12 0 -27 6q-29 11 -29 36q0 10 3 20q31 97 97.5 153t171.5 56q33 0 64.5 -5t80.5 -15q35 -7 72.5 -13.5t71.5 -7.5l-26 -92q-38 4 -119 20q-44 10 -77.5 15t-70.5 5q-52 0 -85 -19zM438 333q-22 13 -70 21.5t-103 10.5v-240q0 -23 -12 -34
h176v203q0 27 9 39z" />
    <glyph glyph-name="uni0E19" unicode="&#xe19;" horiz-adv-x="662" 
d="M415 20.5q-32 30.5 -32 72.5q0 59 47 86v3q-52 0 -103.5 -44t-93.5 -124q-6 -10 -17 -16t-24 -6q-19 0 -37 12q-27 19 -27 39q0 11 7 22q17 23 17 51v282q-11 -4 -26 -4q-42 0 -70 28t-28 73q0 46 32 77t87 31t88 -30.5t33 -81.5v-303q40 36 96.5 55t113.5 17v333h116
v-415q30 -28 30 -78q0 -46 -32.5 -78t-88.5 -32t-88 30.5zM177 465.5q12 11.5 12 29.5q0 17 -12.5 28.5t-29.5 11.5q-18 0 -29.5 -11.5t-11.5 -28.5q0 -18 11.5 -29.5t29.5 -11.5t30 11.5zM533.5 70q12.5 12 12.5 31q0 18 -12 30.5t-31 12.5t-31.5 -12.5t-12.5 -30.5
q0 -19 12.5 -31t31.5 -12q18 0 30.5 12z" />
    <glyph glyph-name="uni0E1A" unicode="&#xe1a;" horiz-adv-x="673" 
d="M171 -11q-28 0 -48 33q-9 17 -9 27q0 9 5.5 16.5t17.5 16.5q9 6 12 17.5t3 32.5v266q-11 -4 -26 -4q-42 0 -70 28t-28 73q0 46 32 77t87 31t88 -30.5t33 -81.5v-366q0 -23 -12 -34h250v502h116v-516q0 -35 -22 -56t-58 -21h-319q-22 0 -33 -6q-8 -5 -19 -5zM177 465.5
q12 11.5 12 29.5q0 17 -12.5 28.5t-29.5 11.5q-18 0 -29.5 -11.5t-11.5 -28.5q0 -18 11.5 -29.5t29.5 -11.5t30 11.5z" />
    <glyph glyph-name="uni0E1B" unicode="&#xe1b;" horiz-adv-x="675" 
d="M171 -11q-28 0 -48 33q-9 17 -9 27q0 9 5.5 16.5t17.5 16.5q9 6 12 17.5t3 32.5v266q-11 -4 -26 -4q-42 0 -70 28t-28 73q0 46 32 77t87 31t88 -30.5t33 -81.5v-366q0 -23 -12 -34h252v723h116v-737q0 -35 -22 -56t-58 -21h-321q-22 0 -33 -6q-8 -5 -19 -5zM177 465.5
q12 11.5 12 29.5q0 17 -12.5 28.5t-29.5 11.5q-18 0 -29.5 -11.5t-11.5 -28.5q0 -18 11.5 -29.5t29.5 -11.5t30 11.5z" />
    <glyph glyph-name="uni0E1C" unicode="&#xe1c;" horiz-adv-x="625" 
d="M511 -9q-26 0 -43 29l-144 247l-171 -250q-19 -27 -46 -27q-23 0 -41 17q-24 21 -24 37q0 10 8 20q15 18 15 43v383q0 51 32.5 82t87.5 31t87 -31t32 -77q0 -45 -28 -73t-70 -28q-16 0 -25 4v-202l90 134q21 31 53 31q18 0 29.5 -8t21.5 -23l83 -131v394h116v-544
q0 -25 -8 -36t-31 -18q-12 -4 -24 -4zM215 465.5q12 11.5 12 29.5q0 17 -12 28.5t-30 11.5q-17 0 -29.5 -11.5t-12.5 -28.5q0 -18 12 -29.5t30 -11.5t30 11.5z" />
    <glyph glyph-name="uni0E1D" unicode="&#xe1d;" horiz-adv-x="627" 
d="M513 -9q-26 0 -43 29l-145 247l-172 -250q-19 -27 -46 -27q-23 0 -41 17q-24 21 -24 37q0 10 8 20q15 18 15 43v383q0 51 32.5 82t87.5 31t87 -31t32 -77q0 -45 -28 -73t-70 -28q-16 0 -25 4v-202l91 134q21 31 53 31q18 0 29.5 -8t21.5 -23l84 -131v615h116v-765
q0 -25 -8 -36t-31 -18q-12 -4 -24 -4zM215 465.5q12 11.5 12 29.5q0 17 -12 28.5t-30 11.5q-17 0 -29.5 -11.5t-12.5 -28.5q0 -18 12 -29.5t30 -11.5t30 11.5z" />
    <glyph glyph-name="uni0E1E" unicode="&#xe1e;" horiz-adv-x="713" 
d="M565.5 -1q-12.5 9 -20.5 32l-133 406l-146 -402q-8 -22 -23 -33t-35 -11q-15 0 -31 6q-19 7 -29.5 18.5t-10.5 26.5q0 14 8 27q7 13 7 35v294q-11 -4 -26 -4q-42 0 -70 28t-28 73q0 46 32 77t87 31t86 -30t31 -82v-223l100 281q13 35 50 35q36 0 47 -36l89 -265v310h112
v-545q0 -28 -15 -43t-43 -15q-26 0 -38.5 9zM177 465.5q12 11.5 12 29.5q0 17 -12.5 28.5t-29.5 11.5q-18 0 -29.5 -11.5t-11.5 -28.5q0 -18 11.5 -29.5t29.5 -11.5t30 11.5z" />
    <glyph glyph-name="uni0E1F" unicode="&#xe1f;" horiz-adv-x="715" 
d="M567.5 -1q-12.5 9 -20.5 32l-134 406l-147 -402q-8 -22 -23 -33t-35 -11q-15 0 -31 6q-19 7 -29.5 18.5t-10.5 26.5q0 14 8 27q7 13 7 35v294q-11 -4 -26 -4q-42 0 -70 28t-28 73q0 46 32 77t87 31t86 -30t31 -82v-223l101 281q13 35 50 35q36 0 47 -36l90 -265v531h112
v-766q0 -28 -15 -43t-43 -15q-26 0 -38.5 9zM177 465.5q12 11.5 12 29.5q0 17 -12.5 28.5t-29.5 11.5q-18 0 -29.5 -11.5t-11.5 -28.5q0 -18 11.5 -29.5t29.5 -11.5t30 11.5z" />
    <glyph glyph-name="uni0E20" unicode="&#xe20;" horiz-adv-x="649" 
d="M59.5 20q-31.5 30 -31.5 74q0 42 24.5 71.5t64.5 29.5q9 0 15 -2v48q0 55 20 80l-112 70q13 56 54 105t102.5 78t131.5 29q73 0 124.5 -25.5t88.5 -73.5q8 7 19 7q13 0 25 -12q22 -22 22 -45q0 -9 -3.5 -15.5t-9.5 -12.5q-7 -7 -11 -14t-4 -19v-393h-116v395q0 28 7 43
q-51 72 -141 72q-63 0 -107 -24t-68 -67l47 -28q12 15 31 27t39 18l38 -70q-33 -15 -48 -40t-15 -64v-117q12 -21 12 -51q0 -46 -31.5 -75t-83.5 -29t-83.5 30zM172.5 65.5q12.5 11.5 12.5 28.5q0 18 -12 29.5t-30 11.5t-29.5 -11.5t-11.5 -29.5q0 -17 11.5 -28.5
t29.5 -11.5q17 0 29.5 11.5z" />
    <glyph glyph-name="uni0E21" unicode="&#xe21;" horiz-adv-x="630" 
d="M75 21q-32 31 -32 85q0 61 34.5 102.5t84.5 53.5v136q-11 -4 -26 -4q-42 0 -70 28t-28 73q0 46 32 77t87 31t88 -30.5t33 -81.5v-229q54 -7 102 -27.5t85 -54.5v413h114v-593h-114v64q-65 91 -187 113v-75q0 -51 -31 -81.5t-86 -30.5q-54 0 -86 31zM187 465.5
q12 11.5 12 29.5q0 17 -12.5 28.5t-29.5 11.5q-18 0 -29.5 -11.5t-11.5 -28.5q0 -18 11.5 -29.5t29.5 -11.5t30 11.5zM185 67q9 10 9 28v96q-35 -5 -53.5 -27.5t-18.5 -59.5q0 -23 10 -35t29 -12q15 0 24 10z" />
    <glyph glyph-name="uni0E22" unicode="&#xe22;" horiz-adv-x="613" 
d="M125 -10q-28 0 -47 32q-9 15 -9 27q0 17 24 33q8 6 11 16.5t3 31.5v112q-35 28 -52 65.5t-17 87.5q0 57 24.5 104.5t68.5 75.5t100 28t89.5 -30t33.5 -78q0 -46 -31 -73.5t-81 -27.5q-28 0 -52 13t-37 36h-2q-12 -21 -12 -52q0 -47 31.5 -73t86.5 -26q24 0 52.5 7
t54.5 19l27 -75q-27 -15 -63.5 -25t-64.5 -10q-26 0 -41 4v-88q0 -22 -12 -33h236v502h116v-516q0 -35 -22 -56t-58 -21h-303q-23 0 -33 -5t-21 -5zM264 465.5q12 11.5 12 29.5q0 17 -12 28.5t-29 11.5q-18 0 -30 -11.5t-12 -28.5q0 -18 12 -29.5t30 -11.5q17 0 29 11.5z
" />
    <glyph glyph-name="uni0E23" unicode="&#xe23;" horiz-adv-x="579" 
d="M248.5 18.5q-31.5 28.5 -31.5 72.5q0 43 26 72t63 29q13 0 26 -5v119q0 27 9 39q-28 16 -65 24.5t-76 8.5q-35 0 -66 -6l-6 -13q-3 -6 -12 -10.5t-21 -4.5q-13 0 -28 6q-29 11 -29 36q0 6 4 20q29 91 87.5 144t148.5 53q32 0 60.5 -4.5t68.5 -14.5q37 -10 67.5 -15.5
t66.5 -6.5l-26 -92q-46 5 -115 22q-45 10 -69.5 14t-56.5 4q-41 0 -62.5 -14.5t-35.5 -45.5q28 2 43 2q52 0 100 -12t87 -34q8 8 18 8q14 0 30 -16q20 -20 20 -37q0 -14 -13 -24q-7 -7 -10 -17.5t-3 -26.5v-189q0 -51 -32.5 -82.5t-83.5 -31.5q-52 0 -83.5 28.5zM361 65.5
q12 11.5 12 28.5q0 18 -12 29.5t-29 11.5q-18 0 -30 -11.5t-12 -29.5q0 -17 12 -28.5t30 -11.5q17 0 29 11.5z" />
    <glyph glyph-name="uni0E24" unicode="&#xe24;" horiz-adv-x="651" 
d="M465 395q0 28 7 43q-25 35 -61 53.5t-89 18.5q-64 0 -107.5 -24t-68.5 -67l43 -27q27 32 70 45l38 -70q-33 -15 -48.5 -40t-15.5 -63v-77q15 5 29 5q39 0 63 -26.5t24 -71.5t-31.5 -74.5t-83.5 -29.5t-84.5 31t-32.5 82v140q0 49 23 78l-108 70q12 56 53.5 104.5t103 78
t132.5 29.5q79 0 132 -25t90 -74q8 7 19 7q13 0 25 -12q22 -22 22 -45q0 -9 -3.5 -15.5t-9.5 -12.5q-7 -7 -11 -14t-4 -19v-752h-116v754zM263.5 65.5q11.5 11.5 11.5 28.5q0 18 -11.5 29.5t-29.5 11.5t-30 -11.5t-12 -29.5q0 -17 12.5 -28.5t29.5 -11.5q18 0 29.5 11.5z
" />
    <glyph glyph-name="uni0E25" unicode="&#xe25;" horiz-adv-x="632" 
d="M113.5 24q-32.5 34 -32.5 87q0 81 37.5 142t103.5 101q-5 7 -5 14q0 14 20 34q19 16 34 16q13 0 28 -9q41 -25 84 -65.5t66 -79.5v137q0 31 11 45q-27 31 -66.5 47.5t-88.5 16.5q-64 0 -105 -27t-65 -84l-97 31q28 79 96 126t171 47q142 0 220 -94q7 5 15 5q15 0 33 -22
t18 -37q0 -11 -9 -19q-20 -17 -20 -48v-388h-113v30q0 50 -21 104t-56.5 99t-76.5 68q-37 -15 -65.5 -46t-39.5 -69q15 6 33 6q39 0 64.5 -26.5t25.5 -71.5t-31 -74.5t-84 -29.5q-52 0 -84.5 34zM228 65.5q12 11.5 12 28.5q0 18 -12 29.5t-30 11.5q-17 0 -29 -11.5
t-12 -29.5q0 -17 12 -28.5t29 -11.5q18 0 30 11.5z" />
    <glyph glyph-name="uni0E26" unicode="&#xe26;" horiz-adv-x="650" 
d="M464 395q0 28 7 43q-50 72 -141 72q-64 0 -108 -24t-68 -67l47 -28q12 15 31 27t39 18l38 -70q-33 -15 -48 -40t-15 -64v-117q12 -21 12 -51q0 -46 -31.5 -75t-83.5 -29t-83.5 30t-31.5 74q0 42 24.5 71.5t64.5 29.5q9 0 15 -2v48q0 55 20 80l-112 70q13 56 54 105
t102.5 78t132.5 29q73 0 124.5 -25t88.5 -74q8 7 19 7q13 0 25 -12q22 -21 22 -45q0 -9 -3.5 -15.5t-9.5 -12.5q-7 -7 -11 -14t-4 -19v-752h-116v754zM172.5 65.5q12.5 11.5 12.5 28.5q0 18 -12 29.5t-30 11.5t-29.5 -11.5t-11.5 -29.5q0 -17 11.5 -28.5t29.5 -11.5
q17 0 29.5 11.5z" />
    <glyph glyph-name="uni0E27" unicode="&#xe27;" horiz-adv-x="571" 
d="M301.5 18.5q-31.5 28.5 -31.5 72.5t26.5 72.5t63.5 28.5q13 0 25 -5v217q0 35 10 47q-25 30 -53.5 44.5t-70.5 14.5q-50 0 -86 -26.5t-59 -82.5l-98 31q28 78 90.5 124.5t152.5 46.5q68 0 111.5 -21t80.5 -67q8 6 16 6q15 0 33 -21q17 -23 17 -37q0 -9 -6 -15
q-10 -12 -16 -24t-6 -30v-290q0 -51 -32 -82.5t-84 -31.5t-83.5 28.5zM414.5 65.5q12.5 11.5 12.5 28.5q0 18 -12 29.5t-30 11.5t-30 -11.5t-12 -29.5q0 -17 12 -28.5t30 -11.5q17 0 29.5 11.5z" />
    <glyph glyph-name="uni0E28" unicode="&#xe28;" horiz-adv-x="647" 
d="M606 454q0 -9 -3.5 -15t-10.5 -13t-11 -14t-4 -19v-393h-115v395q0 25 7 44q-50 73 -150 73q-77 0 -120.5 -39t-43.5 -116q0 -41 8 -95q8 -50 8 -86h3q9 24 14 45.5t7.5 39.5t3.5 24q5 45 13 67q25 68 104 68q52 0 82 -28.5t30 -77.5q0 -46 -30 -73.5t-81 -27.5
q-28 0 -51 15q-10 -60 -29.5 -107.5t-59.5 -101.5q-21 -27 -45 -27q-17 0 -36 13q-26 16 -26 33q0 12 13 30q6 8 6 27q0 26 -20 93q-15 53 -23 91.5t-8 77.5q0 73 36 129t100 86.5t145 30.5q84 0 146 -35q45 60 105 87l49 -70q-49 -25 -90 -68l11 -13q8 7 18 7q13 0 25 -12
q23 -22 23 -45zM286 342.5q-12 -11.5 -12 -28.5q0 -18 12 -29.5t30 -11.5q17 0 29 11.5t12 29.5q0 17 -12 28.5t-29 11.5q-18 0 -30 -11.5z" />
    <glyph glyph-name="uni0E29" unicode="&#xe29;" horiz-adv-x="674" 
d="M171 -11q-28 0 -48 33q-9 17 -9 27q0 9 5.5 16.5t17.5 16.5q9 6 12 17.5t3 32.5v266q-11 -4 -26 -4q-42 0 -70 28t-28 73q0 46 32 77t87 31t86 -30t31 -82v-366q0 -24 -11 -34h256v123q-13 -14 -36 -23t-48 -9q-56 0 -92 32.5t-36 85.5t34.5 86.5t87.5 33.5q44 0 44 -39
q0 -41 -36 -41q-16 0 -26 -10t-10 -27q0 -37 48 -37q33 0 51.5 20t18.5 57v250h113v-516q0 -35 -22 -56t-58 -21h-319q-22 0 -33 -6q-8 -5 -19 -5zM177 465.5q12 11.5 12 29.5q0 17 -12.5 28.5t-29.5 11.5q-18 0 -29.5 -11.5t-11.5 -28.5q0 -18 11.5 -29.5t29.5 -11.5
t30 11.5z" />
    <glyph glyph-name="uni0E2A" unicode="&#xe2a;" horiz-adv-x="640" 
d="M540 514q15 0 33 -22q18 -24 18 -37q0 -11 -10 -19q-19 -16 -19 -48v-388h-113v30q0 50 -21 104t-56.5 99t-76.5 68q-37 -15 -65.5 -46t-39.5 -69q15 6 33 6q39 0 64.5 -26.5t25.5 -71.5t-31 -74.5t-84 -29.5q-52 0 -84.5 34t-32.5 87q0 81 37.5 142t103.5 101
q-5 7 -5 14q0 14 20 34q19 16 34 16q13 0 28 -9q41 -25 84 -65.5t66 -79.5v137q0 31 11 45q-27 31 -66.5 47.5t-88.5 16.5q-64 0 -105 -27t-65 -84l-97 31q28 79 96 126t171 47q88 0 149 -35q51 59 114 87l47 -71q-58 -28 -97 -67l7 -8q7 5 15 5zM169 123.5
q-12 -11.5 -12 -29.5q0 -17 12 -28.5t29 -11.5q18 0 30 11.5t12 28.5q0 18 -12 29.5t-30 11.5q-17 0 -29 -11.5z" />
    <glyph glyph-name="uni0E2B" unicode="&#xe2b;" horiz-adv-x="650" 
d="M125 41q0 13 9 25q18 26 18 61v271q-11 -4 -26 -4q-42 0 -70 28t-28 73q0 46 32 77t87 31t88 -30.5t33 -81.5v-282l137 203q-41 32 -41 83q0 47 34 77.5t85 30.5q54 0 86.5 -30t32.5 -81q0 -25 -13.5 -48t-37.5 -35q19 -11 26.5 -30.5t7.5 -48.5v-330h-115v328
q0 10 -4 15.5t-11 5.5l-231 -339q-7 -10 -17.5 -15.5t-22.5 -5.5q-16 0 -32 10q-27 20 -27 42zM177 465.5q12 11.5 12 29.5q0 17 -12.5 28.5t-29.5 11.5q-18 0 -29.5 -11.5t-11.5 -28.5q0 -18 11.5 -29.5t29.5 -11.5t30 11.5zM512 465.5q12 11.5 12 29.5q0 17 -12 28.5
t-29 11.5q-18 0 -30 -11.5t-12 -28.5q0 -18 12 -29.5t30 -11.5q17 0 29 11.5z" />
    <glyph glyph-name="uni0E2C" unicode="&#xe2c;" horiz-adv-x="791" 
d="M568.5 -1q-12.5 9 -21.5 32l-134 349l-147 -345q-20 -44 -59 -44q-14 0 -30 6q-19 7 -29.5 18.5t-10.5 26.5q0 14 8 27q7 13 7 35v294q-11 -4 -26 -4q-42 0 -70 28t-28 73q0 46 32 77t87 31t86 -30t31 -82v-241l101 234q14 35 50 35q18 0 29 -9t18 -27l90 -219v345
q-7 -3 -16 -4.5t-18 -1.5q-47 0 -77.5 26.5t-30.5 76.5q0 49 33.5 78.5t85.5 29.5q33 0 59 -14.5t37 -38.5l57 63l81 -61l-99 -108v-607q0 -28 -15 -43t-43 -15q-25 0 -37.5 9zM559 676.5q12 11.5 12 29.5q0 17 -12 28.5t-29 11.5q-19 0 -30.5 -11.5t-11.5 -28.5
q0 -19 11.5 -30t30.5 -11q17 0 29 11.5zM177 465.5q12 11.5 12 29.5q0 17 -12.5 28.5t-29.5 11.5q-18 0 -29.5 -11.5t-11.5 -28.5q0 -18 11.5 -29.5t29.5 -11.5t30 11.5z" />
    <glyph glyph-name="uni0E2D" unicode="&#xe2d;" horiz-adv-x="623" 
d="M124 -11q-28 0 -48 33q-10 18 -10 27t6 16.5t18 16.5q8 6 11 17.5t3 32.5v129q0 51 33 82t88 31q56 0 87.5 -31t31.5 -77q0 -45 -29 -73t-70 -28q-17 0 -26 4v-46q0 -22 -12 -34h234v308q0 35 9 47q-26 33 -60.5 49.5t-84.5 16.5q-63 0 -103.5 -24.5t-65.5 -78.5l-98 30
q32 77 100 121.5t167 44.5q73 0 123 -24t87 -71q8 6 16 6q15 0 33 -21q17 -23 17 -37q0 -9 -6 -15q-10 -12 -16 -24.5t-6 -30.5v-310q0 -35 -22 -56t-58 -21l-297 1q-22 0 -33 -6q-8 -5 -19 -5zM254.5 236.5q11.5 11.5 11.5 29.5q0 17 -11.5 28.5t-29.5 11.5
q-17 0 -29.5 -11.5t-12.5 -28.5q0 -18 12 -29.5t30 -11.5t29.5 11.5z" />
    <glyph glyph-name="uni0E2E" unicode="&#xe2e;" horiz-adv-x="609" 
d="M96 -11q-28 0 -48 33q-9 17 -9 27q0 9 5.5 16.5t17.5 16.5q9 6 12 17.5t3 32.5v129q0 51 32.5 82t87.5 31q56 0 87.5 -31t31.5 -77q0 -45 -28.5 -73t-70.5 -28q-15 0 -26 4v-46q0 -23 -11 -34h233v286q0 39 12 55l-25 21q-40 -25 -81.5 -36t-99.5 -11q-83 0 -131.5 27
t-48.5 81q0 56 48.5 85.5t134.5 29.5q53 0 102.5 -17.5t86.5 -44.5q46 60 124 102l47 -71q-70 -34 -113 -91l15 -11q10 8 21 8q16 0 31 -18q18 -21 18 -37q0 -9 -6 -15q-11 -11 -16.5 -23.5t-5.5 -30.5v-302q0 -34 -22 -55t-58 -21h-297q-24 0 -33 -6q-10 -5 -20 -5z
M331 515q-47 31 -109 31q-44 0 -62.5 -8t-18.5 -24t18 -23.5t61 -7.5q69 0 111 32zM227 236.5q12 11.5 12 29.5q0 17 -12 28.5t-30 11.5q-17 0 -29 -11.5t-12 -28.5q0 -18 12 -29.5t29 -11.5q18 0 30 11.5z" />
    <glyph glyph-name="uni0E2F" unicode="&#xe2f;" horiz-adv-x="550" 
d="M399 -10q-30 0 -46 22q-10 14 -10 27q0 19 21 35q14 10 18.5 18t4.5 22v246q-50 -53 -139 -53q-56 0 -104 23.5t-77 63.5t-29 87q0 52 35 87t90 35q58 0 92.5 -31.5t34.5 -83.5q0 -38 -22.5 -63.5t-63.5 -34.5q24 -10 47 -10q57 0 100 45.5t64 143.5q6 34 40 34
q6 0 18 -2q38 -9 38 -38q0 -10 -2 -16l-6 -22v-419q0 -36 -17 -62t-52 -45q-15 -9 -35 -9zM197 449.5q14 13.5 14 32.5q0 22 -12.5 33.5t-35.5 11.5q-22 0 -33.5 -11.5t-11.5 -33.5q0 -19 13 -32.5t32 -13.5q20 0 34 13.5z" />
    <glyph glyph-name="uni0E30" unicode="&#xe30;" horiz-adv-x="541" 
d="M89 356q-51 36 -51 95q0 47 35 78t87 31q51 0 85 -30t34 -78q0 -27 -18 -44v-4q50 10 87 49t57 101l98 -45q-31 -89 -107 -139t-177 -50q-79 0 -130 36zM190 420.5q12 11.5 12 29.5q0 17 -12 29t-30 12t-29.5 -12t-11.5 -29q0 -18 11.5 -29.5t29.5 -11.5t30 11.5zM89 40
q-51 36 -51 94q0 47 35 78t87 31q51 0 85 -30t34 -77q0 -28 -18 -45v-3q50 10 87 48.5t57 99.5l98 -44q-30 -89 -106.5 -138.5t-177.5 -49.5q-79 0 -130 36zM190 104q12 11 12 29t-12 29.5t-30 11.5t-29.5 -11.5t-11.5 -29.5t11.5 -29t29.5 -11t30 11z" />
    <glyph glyph-name="uni0E31" unicode="&#xe31;" 
d="M-319 666.5q-44 17.5 -68 48.5t-24 68q0 47 32 77t83 30q50 0 81.5 -28.5t31.5 -74.5q0 -19 -9 -38t-23 -29v-3q76 0 134 45t90 131l87 -47q-40 -96 -116.5 -146.5t-197.5 -50.5q-57 0 -101 17.5zM-264.5 751.5q13.5 12.5 13.5 31.5t-13.5 32t-33.5 13q-18 0 -31 -13
t-13 -32t13 -31.5t31 -12.5q20 0 33.5 12.5z" />
    <glyph glyph-name="uni0E32" unicode="&#xe32;" horiz-adv-x="536" 
d="M349 405q0 29 7 44q-22 32 -47 46.5t-64 14.5q-45 0 -78 -19t-57 -60l-83 46q33 61 91 93.5t126 32.5q62 0 106.5 -23t77.5 -65q10 8 19 8q12 0 25 -12q22 -22 22 -45q0 -16 -14 -28q-8 -9 -11.5 -15.5t-3.5 -18.5v-404h-116v405z" />
    <glyph glyph-name="uni0E33" unicode="&#xe33;" horiz-adv-x="536" 
d="M-196.5 675.5q-37.5 32.5 -37.5 82.5t37.5 81.5t91.5 31.5t91.5 -31.5t37.5 -81.5t-37.5 -82.5t-91.5 -32.5t-91.5 32.5zM-75 727.5q12 11.5 12 29.5q0 17 -12.5 29t-29.5 12q-18 0 -30 -12t-12 -29q0 -18 12 -29.5t30 -11.5t30 11.5zM350 405q0 29 7 44q-23 32 -48 46.5
t-64 14.5q-89 0 -135 -79l-83 46q34 61 92 93.5t125 32.5q62 0 106.5 -23t78.5 -65q10 8 19 8q11 0 24 -12q22 -21 22 -45q0 -17 -13 -28q-8 -9 -11.5 -15.5t-3.5 -18.5v-404h-116v405z" />
    <glyph glyph-name="uni0E34" unicode="&#xe34;" 
d="M-377 693q-110 0 -154 -15q-9 -4 -21 -4q-27 0 -41 29q-6 12 -6 21q0 21 30 34q40 66 101 103.5t137 37.5q100 0 171 -45.5t110 -130.5q7 -17 7 -28q0 -23 -23 -40q-12 -9 -26 -9t-30 6q-112 41 -255 41zM-227.5 799q-45.5 21 -103.5 21q-41 0 -75 -14.5t-56 -42.5
q24 7 79 7q68 0 122.5 -7.5t107.5 -23.5q-29 39 -74.5 60z" />
    <glyph glyph-name="uni0E35" unicode="&#xe35;" 
d="M-40 696q0 -20 -27 -41q-12 -9 -26 -9t-30 6q-108 41 -254 41q-110 0 -154 -15q-9 -4 -21 -4q-27 0 -42 29q-6 12 -6 21q0 21 30 34q40 66 101 103.5t137 37.5q94 0 174 -57v79h106v-195l5 -8q7 -11 7 -22zM-261 762.5q55 -7.5 108 -23.5q-62 81 -179 81
q-41 0 -74.5 -14.5t-55.5 -42.5q24 7 79 7q67 0 122 -7.5z" />
    <glyph glyph-name="uni0E36" unicode="&#xe36;" 
d="M-377 693q-110 0 -154 -15q-9 -4 -21 -4q-27 0 -41 29q-6 12 -6 21q0 22 30 34q40 66 101 103.5t136 37.5q29 0 59.5 -7.5t53.5 -21.5q8 26 33 43t60 17q45 0 72 -25.5t27 -67.5q0 -26 -12.5 -45.5t-33.5 -30.5q13 -15 23 -38q7 -17 7 -28q0 -23 -23 -40q-12 -9 -27 -9
q-14 0 -30 6q-108 41 -254 41zM-98.5 810.5q10.5 10.5 10.5 26.5t-10.5 26.5t-26.5 10.5q-15 0 -26.5 -10.5t-11.5 -26.5q0 -15 11.5 -26t26.5 -11q16 0 26.5 10.5zM-332 820q-41 0 -74.5 -14.5t-55.5 -42.5q24 7 79 7q128 0 230 -31q-62 81 -179 81z" />
    <glyph glyph-name="uni0E37" unicode="&#xe37;" 
d="M-40 696q0 -20 -27 -41q-12 -9 -26 -9t-30 6q-108 41 -254 41q-110 0 -154 -15q-9 -4 -21 -4q-27 0 -42 29q-6 12 -6 21q0 21 30 34q40 66 101 103.5t137 37.5q37 0 75 -12v34h86v-76q16 -11 33 -24v100h86v-195l5 -8q7 -11 7 -22zM-261 762.5q55 -7.5 108 -23.5
q-62 81 -179 81q-41 0 -74.5 -14.5t-55.5 -42.5q24 7 79 7q67 0 122 -7.5z" />
    <glyph glyph-name="uni0E38" unicode="&#xe38;" 
d="M-159 -245q-12 -5 -24 -5q-47 0 -75.5 28t-28.5 74t34 75.5t85 29.5t83.5 -28t32.5 -72v-181h-107v79zM-138 -178.5q12 11.5 12 29.5t-12 30t-30 12q-19 0 -31.5 -11.5t-12.5 -30.5q0 -18 12.5 -29.5t31.5 -11.5q18 0 30 11.5z" />
    <glyph glyph-name="uni0E39" unicode="&#xe39;" 
d="M-272 -346q-20 0 -37 25q-8 12 -8 20q0 5 4.5 10t9 9.5t7.5 6.5q8 7 8 20v12q-12 -5 -24 -5q-46 0 -73.5 27.5t-27.5 73.5q0 45 33.5 74.5t82.5 29.5t78.5 -27.5t29.5 -72.5v-95q0 -16 -7 -26h50v212h94v-208q0 -34 -20 -50.5t-57 -16.5h-97l-12 -7q-19 -12 -34 -12z
M-267 -177.5q12 11.5 12 29.5t-12 30t-30 12q-19 0 -31.5 -11.5t-12.5 -30.5q0 -18 12.5 -29.5t31.5 -11.5q18 0 30 11.5z" />
    <glyph glyph-name="uni0E3A" unicode="&#xe3a;" 
d="M-160.5 -159q-19.5 19 -19.5 48t20 48.5t50 19.5t49.5 -19.5t19.5 -48.5t-19.5 -48t-49.5 -19q-31 0 -50.5 19z" />
    <glyph glyph-name="uni0E3F" unicode="&#xe3f;" horiz-adv-x="612" 
d="M573 209q0 -99 -62.5 -154t-172.5 -55h-24v-98h-50v98h-197v587q0 20 -5 30t-14 19q-7 8 -9 12t1 13q6 20 23 38.5t36 18.5q18 0 36 -18h129v99h50v-99h21q101 0 159.5 -51t58.5 -137q0 -56 -24.5 -90t-73.5 -55v-3q118 -48 118 -155zM183 411h81v195h-81v-195zM314 606
v-195h7q53 0 82.5 26t29.5 75q0 44 -27 69t-78 25h-14zM264 94v223h-81v-223h81zM453 209q0 52 -32 80t-93 28h-14v-223h20q119 0 119 115z" />
    <glyph glyph-name="uni0E40" unicode="&#xe40;" horiz-adv-x="311" 
d="M84 21q-32 31 -32 82v490h116v-406q15 5 28 5q39 0 63 -26.5t24 -71.5t-31.5 -74.5t-83.5 -29.5t-84 31zM198 65.5q12 11.5 12 28.5q0 18 -12 29.5t-30 11.5t-30 -11.5t-12 -29.5q0 -17 12.5 -28.5t29.5 -11.5q18 0 30 11.5z" />
    <glyph glyph-name="uni0E41" unicode="&#xe41;" horiz-adv-x="577" 
d="M84 21q-32 31 -32 82v490h116v-406q15 5 28 5q39 0 63 -26.5t24 -71.5t-31.5 -74.5t-83.5 -29.5t-84 31zM349.5 21q-32.5 31 -32.5 82v490h116v-406q15 5 29 5q39 0 63 -26.5t24 -71.5t-31.5 -74.5t-83.5 -29.5t-84.5 31zM198 65.5q12 11.5 12 28.5q0 18 -12 29.5
t-30 11.5t-30 -11.5t-12 -29.5q0 -17 12.5 -28.5t29.5 -11.5q18 0 30 11.5zM463.5 65.5q11.5 11.5 11.5 28.5q0 18 -11.5 29.5t-29.5 11.5t-30 -11.5t-12 -29.5q0 -17 12.5 -28.5t29.5 -11.5q18 0 29.5 11.5z" />
    <glyph glyph-name="uni0E42" unicode="&#xe42;" horiz-adv-x="424" 
d="M179.5 21q-32.5 31 -32.5 82v595q0 68 -30 99.5t-103 35.5l-11 -11q-11 -11 -24 -11q-15 0 -37 14q-21 12 -21 30q0 15 16 44q44 76 114.5 120t156.5 44q93 0 159.5 -38t100.5 -109l-81 -44q-34 53 -74.5 75.5t-104.5 22.5q-42 0 -79 -16t-62 -44q105 -18 150.5 -70.5
t45.5 -141.5v-511q15 5 28 5q39 0 63 -26.5t24 -71.5t-31 -74.5t-84 -29.5q-51 0 -83.5 31zM293 65.5q12 11.5 12 28.5q0 18 -12 29.5t-30 11.5q-17 0 -29 -11.5t-12 -29.5q0 -17 12 -28.5t29 -11.5q18 0 30 11.5z" />
    <glyph glyph-name="uni0E43" unicode="&#xe43;" horiz-adv-x="353" 
d="M129.5 21q-32.5 31 -32.5 82v415q0 121 41.5 204t128.5 133q-2 58 -36.5 87.5t-93.5 29.5q-91 0 -138 -54v-2q22 10 44 10q42 0 67.5 -27t25.5 -68q0 -48 -31.5 -76.5t-86.5 -28.5t-90.5 36.5t-35.5 94.5q0 56 32.5 103t88.5 75t124 28q67 0 120.5 -26.5t83.5 -75
t30 -110.5q0 -27 -10.5 -41.5t-40.5 -31.5q-57 -30 -82 -90t-25 -170v-331q15 5 28 5q39 0 63 -26.5t24 -71.5t-31 -74.5t-84 -29.5q-51 0 -83.5 31zM51.5 801.5q11.5 11.5 11.5 29.5t-11.5 29t-30.5 11q-17 0 -29 -11t-12 -29q0 -17 12 -29t29 -12q19 0 30.5 11.5z
M243 65.5q12 11.5 12 28.5q0 18 -12 29.5t-30 11.5q-17 0 -29 -11.5t-12 -29.5q0 -17 12 -28.5t29 -11.5q18 0 30 11.5z" />
    <glyph glyph-name="uni0E44" unicode="&#xe44;" horiz-adv-x="442" 
d="M192.5 21q-32.5 31 -32.5 82v475q0 105 55.5 184.5t155.5 124.5q-9 20 -24 40.5t-30 32.5q-91 -36 -154 -136q-9 -14 -17 -20.5t-18 -6.5q-7 0 -23 7q-26 13 -26 30q0 4 4 16q-21 47 -62 77.5t-105 49.5l51 78q62 -19 104 -53t71 -82q29 36 70.5 67t82.5 46q15 7 33 7
q20 0 30 -10q37 -32 67.5 -77t45.5 -86q7 -21 7 -31q0 -18 -21 -29q-13 -8 -26 -8q-14 0 -23 11q-69 -32 -100.5 -85.5t-31.5 -146.5v-391q15 5 28 5q39 0 63 -26.5t24 -71.5t-31 -74.5t-84 -29.5q-51 0 -83.5 31zM306 65.5q12 11.5 12 28.5q0 18 -12 29.5t-30 11.5
q-17 0 -29 -11.5t-12 -29.5q0 -17 12 -28.5t29 -11.5q18 0 30 11.5z" />
    <glyph glyph-name="uni0E45" unicode="&#xe45;" horiz-adv-x="536" 
d="M349 405q0 29 7 44q-22 32 -47 46.5t-64 14.5q-45 0 -78 -19t-57 -60l-83 46q33 61 91 93.5t126 32.5q62 0 106.5 -23t77.5 -65q10 8 19 8q12 0 25 -12q22 -22 22 -45q0 -16 -14 -28q-8 -9 -11.5 -15.5t-3.5 -18.5v-763h-116v764z" />
    <glyph glyph-name="uni0E46" unicode="&#xe46;" horiz-adv-x="622" 
d="M400 -363q-31 0 -55 44q-3 6 -3 12q0 19 27 37q13 8 13 30v538q0 100 66 172l-30 33l-28 -27q3 -7 3 -14q0 -21 -30 -36q-14 -7 -26 -7q-25 0 -40 30q-17 33 -34 47t-47 14q-33 0 -52.5 -25.5t-20.5 -67.5q29 20 64 20q38 0 69 -28t31 -76q0 -50 -35.5 -83t-89.5 -33
q-64 0 -104 46.5t-40 117.5q0 103 50.5 162.5t133.5 59.5q85 0 129 -57l43 42q15 15 37 15t34 -13l60 -69q6 3 12 3q18 0 32 -19q15 -19 15 -36q0 -21 -22 -37q-35 -25 -49.5 -54t-14.5 -80v-542q0 -37 -14.5 -61t-52.5 -48q-17 -10 -31 -10zM214.5 295q13.5 14 13.5 34
q0 19 -13.5 32t-32.5 13q-20 0 -33.5 -13t-13.5 -32q0 -20 13.5 -34t33.5 -14q19 0 32.5 14z" />
    <glyph glyph-name="uni0E47" unicode="&#xe47;" 
d="M-273.5 670.5q-36.5 19.5 -51.5 55.5q-27 -14 -37 -49q-4 -12 -14.5 -18.5t-23.5 -6.5q-17 0 -31 10q-37 27 -55.5 60t-18.5 78q0 68 43 105.5t116 37.5h106q59 0 85.5 16.5t39.5 59.5l82 -25q-12 -68 -65.5 -100.5t-141.5 -32.5h-107q-34 0 -53 -16t-19 -45
q0 -34 18 -61q22 43 60 54q0 34 37 34q36 0 36 -26q0 -69 47 -86l1 2q-14 17 -14 39q0 36 25 58t63 22q39 0 63 -24t24 -62q0 -44 -34 -71.5t-91 -27.5q-53 0 -89.5 19.5zM-121 725.5q10 9.5 10 24.5t-10 24.5t-25 9.5q-16 0 -26 -9.5t-10 -24.5t10 -24.5t26 -9.5
q15 0 25 9.5z" />
    <glyph glyph-name="uni0E48" unicode="&#xe48;" 
d="M-168 890h116v-236h-116v236z" />
    <glyph glyph-name="uni0E49" unicode="&#xe49;" 
d="M-397 715q56 7 86 42v1q-42 -1 -68.5 24.5t-26.5 68.5q0 46 31 74t81 28q49 0 80.5 -29t31.5 -75q0 -35 -16.5 -69t-51.5 -58q53 6 92 38.5t61.5 79.5t27.5 96l92 -19q-10 -113 -81 -183t-208 -77l-131 -6v64zM-263 822.5q12 11.5 12 29.5t-12 29t-30 11q-19 0 -31 -11
t-12 -29t12 -29.5t31 -11.5q18 0 30 11.5z" />
    <glyph glyph-name="uni0E4A" unicode="&#xe4a;" 
d="M-468 687.5q-33 36.5 -33 97.5q0 71 32 113.5t89 42.5q54 0 84 -44q34 44 91 44q43 0 71 -26.5t28 -74.5t-25 -88q41 26 59.5 70t23.5 127l90 -11q-7 -124 -61.5 -191.5t-168.5 -87.5q-12 -2 -15 -2q-24 0 -37 25q-5 9 -5 18q0 14 17 33q36 40 36 90q0 18 -9 28t-26 10
q-15 0 -23 -9t-5 -22l4 -12h-76q-7 22 -18 32.5t-28 10.5q-47 0 -47 -69h1q22 18 58 18q31 0 51.5 -21t20.5 -56q0 -38 -24 -60t-69 -22q-53 0 -86 36.5zM-353 708.5q10 9.5 10 24.5t-10 24.5t-25 9.5q-16 0 -26.5 -9.5t-10.5 -24.5t10.5 -24.5t26.5 -9.5q15 0 25 9.5z" />
    <glyph glyph-name="uni0E4B" unicode="&#xe4b;" 
d="M-163 744h-105v91h105v89h111v-89h105v-91h-105v-90h-111v90z" />
    <glyph glyph-name="uni0E4C" unicode="&#xe4c;" 
d="M-314 679q-33 31 -33 78q0 55 40 89t105 34q53 0 93 21t65 59l66 -60q-35 -42 -73 -61.5t-92 -19.5v-3q14 -12 22.5 -28.5t8.5 -33.5q0 -45 -32.5 -75.5t-84.5 -30.5t-85 31zM-198 726q12 12 12 30t-12.5 30t-29.5 12q-19 0 -32 -12t-13 -30q0 -19 12.5 -30.5t32.5 -11.5
q18 0 30 12z" />
    <glyph glyph-name="uni0E4D" unicode="&#xe4d;" 
d="M-216.5 677q-34.5 32 -34.5 83q0 50 34.5 82.5t89.5 32.5t89.5 -32.5t34.5 -82.5q0 -51 -34.5 -83t-89.5 -32t-89.5 32zM-96 729.5q12 11.5 12 30.5t-12 31t-31 12q-20 0 -32.5 -12t-12.5 -31t12.5 -30.5t32.5 -11.5q19 0 31 11.5z" />
    <glyph glyph-name="uni0E4E" unicode="&#xe4e;" 
d="M-298.5 677.5q-34.5 26.5 -34.5 71.5q0 39 29 69.5t74 39.5q-12 11 -18.5 26t-6.5 30q0 44 36.5 72t92.5 28q44 0 87 -17l-23 -75q-23 9 -46 9q-18 0 -28.5 -8t-10.5 -21q0 -18 15.5 -28.5t52.5 -11.5l-25 -58q-67 1 -92 -9.5t-25 -33.5q0 -28 40 -28q26 0 48 8l15 -75
q-17 -7 -41 -11t-44 -4q-61 0 -95.5 26.5z" />
    <glyph glyph-name="uni0E4F" unicode="&#xe4f;" horiz-adv-x="593" 
d="M170 28q-60 33 -96 90.5t-36 126.5t36 126.5t96 90.5t127 33t126.5 -33t95.5 -90t36 -127t-36 -127t-95.5 -90t-126.5 -33t-127 33zM379 103q38 21 60 58t22 84t-22 84t-60 58t-82 21q-45 0 -82.5 -21t-60 -58t-22.5 -84t22.5 -84t60 -58t82.5 -21q44 0 82 21zM233.5 136
q-29.5 16 -47 44.5t-17.5 64.5q0 57 37.5 91t90.5 34q52 0 89.5 -35t37.5 -90t-37.5 -90t-89.5 -35q-34 0 -63.5 16zM338.5 202q15.5 16 15.5 43t-15.5 43t-41.5 16q-27 0 -43 -16t-16 -43t16 -43t43 -16q26 0 41.5 16z" />
    <glyph glyph-name="uni0E50" unicode="&#xe50;" horiz-adv-x="641" 
d="M172 22.5q-64 32.5 -99 89.5t-35 130t35 130.5t99 90t149 32.5t148.5 -32.5t98.5 -90t35 -130.5t-35 -130t-99 -89.5t-148 -32.5q-85 0 -149 32.5zM442 126q44 42 44 116t-44 117t-121 43q-78 0 -122 -43t-44 -117t44 -116t122 -42q77 0 121 42z" />
    <glyph glyph-name="uni0E51" unicode="&#xe51;" horiz-adv-x="679" 
d="M359 -34q86 41 126 105.5t40 158.5q0 79 -47.5 126t-134.5 47q-90 0 -139.5 -46.5t-49.5 -133.5q0 -67 27.5 -109.5t83.5 -48.5v4q-30 13 -44.5 34.5t-14.5 56.5q0 41 31.5 69.5t83.5 28.5q54 0 84.5 -29.5t30.5 -76.5q0 -46 -22.5 -83t-62.5 -58t-93 -21q-62 0 -112 28
t-79 80.5t-29 124.5q0 79 36 140.5t104.5 96.5t164.5 35t162.5 -34.5t100.5 -94.5t34 -136q0 -112 -58 -199t-171 -145zM351.5 123.5q11.5 11.5 11.5 29.5q0 19 -11.5 30t-30.5 11q-18 0 -29.5 -11.5t-11.5 -29.5t12 -29.5t29 -11.5q19 0 30.5 11.5z" />
    <glyph glyph-name="uni0E52" unicode="&#xe52;" horiz-adv-x="806" 
d="M128 9.5q-8 9.5 -8 32.5t8 32t22 9q0 117 -10.5 194t-34.5 146t-73 167l94 53q53 -111 78.5 -183.5t37.5 -156.5t13 -213l358 1q24 0 24 24v238q0 21 7 31q-17 20 -45 20q-31 0 -45 -29q7 -21 7 -52h-74q-5 42 -20.5 61.5t-45.5 19.5q-26 0 -40.5 -23.5t-14.5 -61.5
q17 11 37 11q42 0 64.5 -24.5t22.5 -66.5t-28.5 -67t-74.5 -25q-54 0 -84.5 38.5t-30.5 109.5q0 96 37 148t102 52q61 0 96 -49q17 21 43 35t55 14q71 0 108 -54q5 4 13 4q16 0 27 -16q15 -21 15 -34q0 -10 -10 -22q-6 -6 -7.5 -13.5t-1.5 -21.5v-226q0 -50 -32.5 -81
t-86.5 -31h-476q-18 0 -26 9.5zM418 210.5q12 11.5 12 29.5t-12 29t-30 11t-29.5 -11t-11.5 -29t12 -29.5t29 -11.5q18 0 30 11.5z" />
    <glyph glyph-name="uni0E53" unicode="&#xe53;" horiz-adv-x="689" 
d="M82 68.5q-44 78.5 -44 202.5q0 105 51 164.5t139 59.5q41 0 69.5 -15.5t52.5 -52.5q44 68 128 68q73 0 119 -56q10 4 14 4q13 0 24 -18q15 -24 15 -35q0 -9 -7 -17q-9 -9 -9 -32v-341h-116v354q0 18 4 30q-9 10 -20 14t-28 4q-32 0 -51.5 -20.5t-19.5 -63.5v-74
q0 -21 -15 -33.5t-38 -12.5q-24 0 -40 12.5t-16 33.5v74q0 44 -16.5 64t-49.5 20q-77 0 -77 -131q0 -63 11 -107q9 13 25 21t35 8q41 0 69.5 -26.5t28.5 -71.5t-31.5 -75t-84.5 -30q-78 0 -122 78.5zM234.5 66q11.5 12 11.5 29q0 18 -11.5 29.5t-29.5 11.5t-30 -11.5
t-12 -29.5q0 -17 12 -29t30 -12t29.5 12z" />
    <glyph glyph-name="uni0E54" unicode="&#xe54;" horiz-adv-x="812" 
d="M108 62q-70 62 -70 178q0 125 87.5 190t261.5 65q83 0 136 12.5t95.5 44t87.5 92.5l74 -65q-48 -68 -101.5 -106t-122.5 -54.5t-169 -16.5q-118 0 -175 -40t-57 -122q0 -72 39.5 -110.5t108.5 -38.5h61q-42 30 -66 68.5t-24 80.5q0 46 31 75t84 29t84 -28.5t31 -76.5
q0 -40 -23.5 -65t-69.5 -29q23 -26 59.5 -40t80.5 -14h105q51 0 51 -44q0 -47 -50 -47h-354q-125 0 -195 62zM418.5 210q11.5 12 11.5 29q0 18 -11.5 29.5t-29.5 11.5t-30 -11.5t-12 -29.5q0 -17 12 -29t30 -12t29.5 12z" />
    <glyph glyph-name="uni0E55" unicode="&#xe55;" horiz-adv-x="812" 
d="M108 62q-70 62 -70 178q0 94 50.5 154.5t148.5 83.5q-7 8 -11 20.5t-4 23.5q0 47 34 76t89 29q54 0 89 -27t35 -73q0 -7 -2.5 -16.5t-6.5 -15.5q82 5 136 38.5t110 110.5l74 -65q-48 -68 -101.5 -106t-122.5 -54.5t-169 -16.5q-118 0 -175 -40t-57 -122
q0 -72 39.5 -110.5t108.5 -38.5h61q-42 30 -66 68.5t-24 80.5q0 46 31 75t84 29t84 -28.5t31 -76.5q0 -40 -23.5 -65t-69.5 -29q23 -26 59.5 -40t80.5 -14h105q51 0 51 -44q0 -47 -50 -47h-354q-125 0 -195 62zM375 491.5q12 11.5 12 28.5q0 18 -12 29t-30 11t-29.5 -11
t-11.5 -29q0 -17 12 -28.5t29 -11.5q18 0 30 11.5zM418.5 210q11.5 12 11.5 29q0 18 -11.5 29.5t-29.5 11.5t-30 -11.5t-12 -29.5q0 -17 12 -29t30 -12t29.5 12z" />
    <glyph glyph-name="uni0E56" unicode="&#xe56;" horiz-adv-x="802" 
d="M289 26q-58 36 -58 95q0 49 32 77t82 28q55 0 85.5 -27.5t30.5 -77.5q0 -23 -13 -43q104 0 151 44.5t47 129.5q0 71 -41 110.5t-119 39.5q-108 0 -188 -75q-22 -21 -44 -21q-20 0 -38 18q-17 17 -17 32q0 9 4 17q-60 53 -98 104.5t-73 127.5l96 47q51 -123 154 -223
q44 33 92.5 49.5t111.5 16.5q131 0 204 -64t73 -179q0 -125 -76.5 -193.5t-222.5 -68.5q-117 0 -175 36zM376 91.5q12 11.5 12 29.5t-12 29.5t-30 11.5t-30 -11.5t-12 -29.5t12 -29.5t30 -11.5t30 11.5z" />
    <glyph glyph-name="uni0E57" unicode="&#xe57;" horiz-adv-x="907" 
d="M82 68.5q-44 78.5 -44 202.5q0 105 50 164.5t137 59.5q42 0 71.5 -16t53.5 -52q22 34 57 51t77 17q76 0 116 -43.5t40 -128.5q0 -50 -13 -109h4q55 107 84 200t51 231l110 -30q-30 -166 -89 -301.5t-180 -296.5q-10 -13 -23.5 -20t-27.5 -7q-12 0 -26 7q-23 13 -23 38
q0 13 5 31q42 134 42 216q0 58 -20 89t-60 31q-32 0 -51.5 -20.5t-19.5 -63.5v-74q0 -21 -15 -33.5t-38 -12.5q-24 0 -40 12.5t-16 33.5v74q0 44 -16.5 64t-49.5 20q-77 0 -77 -131q0 -63 11 -107q9 13 25 21t35 8q41 0 69.5 -26.5t28.5 -71.5t-31.5 -75t-84.5 -30
q-78 0 -122 78.5zM234.5 66q11.5 12 11.5 29q0 18 -11.5 29.5t-29.5 11.5t-30 -11.5t-12 -29.5q0 -17 12 -29t30 -12t29.5 12z" />
    <glyph glyph-name="uni0E58" unicode="&#xe58;" horiz-adv-x="825" 
d="M423 17q-54 26 -86 67l-27 -48q-23 -36 -56 -36h-130q-21 0 -30 10t-9 30q0 16 6 26.5t16 10.5q-34 41 -51.5 81t-17.5 86q0 251 360 251q87 0 141.5 13t91 45.5t65.5 94.5l98 -43q-34 -76 -84.5 -120t-125.5 -63.5t-186 -19.5q-130 0 -186.5 -40t-56.5 -118
q0 -82 54 -153h18l99 189q14 24 40 24q12 0 26 -6q30 -13 30 -39q0 -11 -6 -23l-29 -63q9 -34 38 -59.5t64 -35.5q-15 20 -15 50q0 42 31.5 70t83.5 28q53 0 84 -30.5t31 -76.5q0 -56 -40.5 -92t-119.5 -36q-67 0 -121 26zM619.5 91.5q11.5 11.5 11.5 29.5t-11.5 29.5
t-30.5 11.5q-18 0 -30 -11.5t-12 -29.5t12 -29.5t30 -11.5q19 0 30.5 11.5z" />
    <glyph glyph-name="uni0E59" unicode="&#xe59;" horiz-adv-x="870" 
d="M142.5 24q-49.5 33 -77 89t-27.5 122q0 132 128 194l107 55q29 11 43 11q18 0 28 -5t15.5 -13.5t17.5 -30.5l22 -45q18 44 52.5 69t81.5 25q102 0 127 -86q50 92 71 264l107 -25q-14 -105 -47.5 -187.5t-96.5 -164.5q-17 -23 -45 -23q-23 0 -40 16t-13 36q-1 37 -17.5 57
t-49.5 20q-35 0 -55.5 -27.5t-18.5 -69.5l133 -257l-89 -48l-201 385l-75 -36q-39 -18 -55.5 -46t-16.5 -68q0 -51 27 -92q12 28 36.5 43.5t55.5 15.5q49 0 79.5 -29t30.5 -75t-33.5 -76.5t-91.5 -30.5q-63 0 -112.5 33zM294.5 68q11.5 12 11.5 30q0 17 -11.5 28.5
t-29.5 11.5t-30 -11.5t-12 -28.5q0 -18 12 -30t30 -12t29.5 12z" />
    <glyph glyph-name="uni0E5A" unicode="&#xe5a;" horiz-adv-x="771" 
d="M733 562q0 -5 -2 -15l-7 -22v-419q0 -36 -16.5 -62t-51.5 -45q-16 -9 -36 -9q-29 0 -45 22q-10 14 -10 28q0 18 21 34q13 10 17.5 17.5t4.5 22.5v246q-18 -23 -45.5 -36.5t-59.5 -15.5v-202q0 -36 -17 -62t-52 -45q-15 -9 -35 -9q-30 0 -46 22q-10 14 -10 27q0 19 21 35
q14 10 18.5 18t4.5 22v246q-50 -53 -139 -53q-56 0 -104 23.5t-77 63.5t-29 87q0 52 35 87t90 35q58 0 92.5 -31.5t34.5 -83.5q0 -38 -22.5 -63.5t-63.5 -34.5q24 -10 47 -10q57 0 100 45.5t64 143.5q6 34 40 34q6 0 18 -2q38 -9 38 -38q0 -10 -2 -16l-6 -22v-142
q51 6 84.5 49.5t48.5 136.5q5 34 40 34q6 0 18 -2q39 -9 39 -39zM197 449.5q14 13.5 14 32.5q0 22 -12.5 33.5t-35.5 11.5q-22 0 -33.5 -11.5t-11.5 -33.5q0 -19 13 -32.5t32 -13.5q20 0 34 13.5z" />
    <glyph glyph-name="uni0E5B" unicode="&#xe5b;" horiz-adv-x="1194" 
d="M171.5 69q-63.5 32 -98.5 91t-35 139q0 82 32 143.5t86.5 94.5t119.5 33q101 0 150 -55t49 -154q0 -83 -37.5 -129.5t-98.5 -46.5q-55 0 -87.5 31t-32.5 83q0 49 31 78.5t80 29.5q27 0 47 -13l1 9q0 29 -25.5 51.5t-67.5 22.5q-35 0 -65 -21t-47.5 -61t-17.5 -96
q0 -80 45 -124.5t119 -44.5q91 0 144 57t53 152q0 57 -13 109h106q27 -55 49 -132q17 50 24 118h77q18 -35 41 -114q6 21 8.5 50t1.5 51h78q28 -45 49 -108q7 28 7 56l-1 15h74q13 -40 33 -57.5t54 -17.5h51v-84h-67q-25 0 -50 11t-40 30q-5 -29 -11 -50t-18 -45h-69
q-7 70 -30 109q-8 -73 -30 -125h-70q-6 66 -23 121q-16 -84 -41 -138h-72q-11 83 -29 135q-16 -107 -92 -171.5t-194 -64.5q-84 0 -147.5 32zM370.5 267.5q12.5 12.5 12.5 33.5q0 19 -13 30.5t-32 11.5q-18 0 -31 -12t-13 -32t13 -31.5t31 -11.5q20 -1 32.5 11.5z" />
    <glyph glyph-name="uni1E0C" unicode="&#x1e0c;" horiz-adv-x="653" 
d="M67 587q0 20 -5 30t-14 19.5t-9 16.5q0 5 1 8q7 21 23.5 39t35.5 18q18 0 36 -18h137q106 0 183 -42.5t118 -121t41 -184.5q0 -166 -87.5 -259t-249.5 -93h-210v587zM277 102q110 0 163.5 62.5t53.5 187.5q0 121 -57.5 183.5t-167.5 62.5h-84v-496h92zM263 -160.5
q-20 19.5 -20 48.5t19.5 48.5t50.5 19.5q30 0 49 -19.5t19 -48.5q0 -28 -19 -48t-49 -20t-50 19.5z" />
    <glyph glyph-name="uni1E0D" unicode="&#x1e0d;" horiz-adv-x="583" 
d="M418 69q-60 -79 -158 -79q-65 0 -115.5 29.5t-78.5 85t-28 130.5q0 79 28 138t79.5 90.5t120.5 31.5q83 0 139 -65v304h116v-601q0 -37 5.5 -61t18.5 -45l-95 -38q-29 32 -32 80zM372.5 124q33.5 41 33.5 105v26q0 61 -32.5 104t-92.5 43q-63 0 -94.5 -44.5t-31.5 -122.5
q0 -72 30.5 -112t91.5 -40q62 0 95.5 41zM236 -160.5q-20 19.5 -20 48.5t19.5 48.5t50.5 19.5q30 0 49 -19.5t19 -48.5q0 -28 -19 -48t-49 -20t-50 19.5z" />
    <glyph glyph-name="uni1E0E" unicode="&#x1e0e;" horiz-adv-x="653" 
d="M67 587q0 20 -5 30t-14 19.5t-9 16.5q0 5 1 8q7 21 23.5 39t35.5 18q18 0 36 -18h137q106 0 183 -42.5t118 -121t41 -184.5q0 -166 -87.5 -259t-249.5 -93h-210v587zM277 102q110 0 163.5 62.5t53.5 187.5q0 121 -57.5 183.5t-167.5 62.5h-84v-496h92zM144 -55h336v-89
h-336v89z" />
    <glyph glyph-name="uni1E0F" unicode="&#x1e0f;" horiz-adv-x="583" 
d="M418 69q-60 -79 -158 -79q-65 0 -115.5 29.5t-78.5 85t-28 130.5q0 79 28 138t79.5 90.5t120.5 31.5q83 0 139 -65v304h116v-601q0 -37 5.5 -61t18.5 -45l-95 -38q-29 32 -32 80zM372.5 124q33.5 41 33.5 105v26q0 61 -32.5 104t-92.5 43q-63 0 -94.5 -44.5t-31.5 -122.5
q0 -72 30.5 -112t91.5 -40q62 0 95.5 41zM117 -55h336v-89h-336v89z" />
    <glyph glyph-name="uni1E20" unicode="&#x1e20;" horiz-adv-x="666" 
d="M188.5 33.5q-73.5 43.5 -112 125t-38.5 192.5t38.5 192t112 124t175.5 43q70 0 127 -23.5t93 -65.5l-46 -81q-35 38 -74 55.5t-100 17.5q-98 0 -152 -69.5t-54 -192.5q0 -124 54.5 -194t152.5 -70q40 0 66 6t51 21v174h-157v98h208q15 17 35 17q19 0 36 -18.5t23 -38.5
q3 -9 1 -13t-9 -11q-9 -9 -14 -19t-5 -30v-210q-63 -40 -116 -56.5t-121 -16.5q-101 0 -174.5 43.5zM192 867h336v-89h-336v89z" />
    <glyph glyph-name="uni1E21" unicode="&#x1e21;" horiz-adv-x="583" 
d="M92 -177l35 85q59 -31 133 -31q78 0 111 39t33 114v35q-26 -31 -62 -48t-81 -17q-103 0 -163 66t-60 184q0 115 59 180.5t158 65.5q97 0 162 -78q3 47 32 79l95 -37q-13 -22 -18.5 -45.5t-5.5 -60.5v-317q0 -125 -67.5 -190t-192.5 -65q-86 0 -168 41zM372 136
q33 43 33 104v18q0 64 -33.5 104.5t-95.5 40.5q-60 0 -90.5 -40.5t-30.5 -112.5q0 -157 124 -157q60 0 93 43zM131 652h336v-89h-336v89z" />
    <glyph glyph-name="uni1E24" unicode="&#x1e24;" horiz-adv-x="625" 
d="M50 700h118v-282h289v282h118v-700h-118v318h-289v-318h-118v700zM264 -160.5q-20 19.5 -20 48.5t19.5 48.5t50.5 19.5q30 0 49 -19.5t19 -48.5q0 -28 -19 -48t-49 -20t-50 19.5z" />
    <glyph glyph-name="uni1E25" unicode="&#x1e25;" horiz-adv-x="549" 
d="M374 120v171q0 109 -92 109q-53 0 -86 -41.5t-33 -103.5v-255h-116v734h116v-307q27 32 65.5 50t82.5 18q179 0 179 -204v-169q0 -53 21 -93l-105 -39q-32 54 -32 130zM217 -160.5q-20 19.5 -20 48.5t19.5 48.5t50.5 19.5q30 0 49 -19.5t19 -48.5q0 -28 -19 -48t-49 -20
t-50 19.5z" />
    <glyph glyph-name="uni1E2A" unicode="&#x1e2a;" horiz-adv-x="625" 
d="M50 700h118v-282h289v282h118v-700h-118v318h-289v-318h-118v700zM202.5 -162.5q-43.5 37.5 -43.5 110.5v11h99v-11q0 -68 56 -68t56 68v11h99v-11q0 -73 -43.5 -110.5t-111.5 -37.5t-111.5 37.5z" />
    <glyph glyph-name="uni1E2B" unicode="&#x1e2b;" horiz-adv-x="549" 
d="M374 120v171q0 109 -92 109q-53 0 -86 -41.5t-33 -103.5v-255h-116v734h116v-307q27 32 65.5 50t82.5 18q179 0 179 -204v-169q0 -53 21 -93l-105 -39q-32 54 -32 130zM155.5 -162.5q-43.5 37.5 -43.5 110.5v11h99v-11q0 -68 56 -68t56 68v11h99v-11q0 -73 -43.5 -110.5
t-111.5 -37.5t-111.5 37.5z" />
    <glyph glyph-name="uni1E36" unicode="&#x1e36;" horiz-adv-x="521" 
d="M61.5 5q-15.5 15 -21.5 35q-3 9 -1 13t9 12q9 9 14 19t5 30v586h118v-598h301v-102h-353q-14 -10 -37 -10q-19 0 -34.5 15zM214 -160.5q-20 19.5 -20 48.5t19.5 48.5t50.5 19.5q30 0 49 -19.5t19 -48.5q0 -28 -19 -48t-49 -20t-50 19.5z" />
    <glyph glyph-name="uni1E37" unicode="&#x1e37;" horiz-adv-x="216" 
d="M50 734h116v-734h-116v734zM59 -160.5q-20 19.5 -20 48.5t19.5 48.5t50.5 19.5q30 0 49 -19.5t19 -48.5q0 -28 -19 -48t-49 -20t-50 19.5z" />
    <glyph glyph-name="uni1E38" unicode="&#x1e38;" horiz-adv-x="521" 
d="M61.5 5q-15.5 15 -21.5 35q-3 9 -1 13t9 12q9 9 14 19t5 30v586h118v-598h301v-102h-353q-14 -10 -37 -10q-19 0 -34.5 15zM214 -160.5q-20 19.5 -20 48.5t19.5 48.5t50.5 19.5q30 0 49 -19.5t19 -48.5q0 -28 -19 -48t-49 -20t-50 19.5zM-40 867h336v-89h-336v89z" />
    <glyph glyph-name="uni1E39" unicode="&#x1e39;" horiz-adv-x="216" 
d="M50 734h116v-734h-116v734zM59 -160.5q-20 19.5 -20 48.5t19.5 48.5t50.5 19.5q30 0 49 -19.5t19 -48.5q0 -28 -19 -48t-49 -20t-50 19.5zM-60 901h336v-89h-336v89z" />
    <glyph glyph-name="uni1E3A" unicode="&#x1e3a;" horiz-adv-x="521" 
d="M61.5 5q-15.5 15 -21.5 35q-3 9 -1 13t9 12q9 9 14 19t5 30v586h118v-598h301v-102h-353q-14 -10 -37 -10q-19 0 -34.5 15zM95 -55h336v-89h-336v89z" />
    <glyph glyph-name="uni1E3B" unicode="&#x1e3b;" horiz-adv-x="216" 
d="M50 734h116v-734h-116v734zM-60 -55h336v-89h-336v89z" />
    <glyph glyph-name="uni1E42" unicode="&#x1e42;" horiz-adv-x="790" 
d="M362.5 -1q-14.5 9 -19.5 25l-143 443l-43 -468h-119l69 638l-5 9q-5 10 -5 21q0 20 15.5 35.5t45.5 15.5q36 0 52.5 -14t26.5 -45l158 -487l158 487q11 32 27.5 45.5t52.5 13.5q30 0 45.5 -15t15.5 -35q0 -13 -6 -22l-4 -8l68 -639h-119l-43 469l-131 -408l3 -10
q2 -10 2 -14q0 -21 -19 -33.5t-47 -12.5q-21 0 -35.5 9zM346 -160.5q-20 19.5 -20 48.5t19.5 48.5t50.5 19.5q30 0 49 -19.5t19 -48.5q0 -28 -19 -48t-49 -20t-50 19.5z" />
    <glyph glyph-name="uni1E43" unicode="&#x1e43;" horiz-adv-x="798" 
d="M623 120v173q0 55 -18 81t-58 26q-44 0 -66.5 -29t-22.5 -80v-291h-114v294q0 54 -18 80t-56 26q-47 0 -70.5 -34.5t-23.5 -97.5v-268h-116v354q0 33 -4.5 55t-17.5 46l99 40q9 -16 16.5 -37.5t8.5 -40.5q20 37 56 57.5t76 20.5q84 0 121 -80q29 41 67 60.5t89 19.5
q82 0 125 -48t43 -127v-198q0 -53 21 -93l-105 -39q-32 56 -32 130zM352 -160.5q-20 19.5 -20 48.5t19.5 48.5t50.5 19.5q30 0 49 -19.5t19 -48.5q0 -28 -19 -48t-49 -20t-50 19.5z" />
    <glyph glyph-name="uni1E44" unicode="&#x1e44;" horiz-adv-x="623" 
d="M61 604q0 11 -3.5 18t-9.5 14q-10 12 -10 21q0 2 2 12q7 23 25 36t41 13q35 0 52 -27l297 -478v487h118v-700h-100l-294 470v-470h-118v604zM275 804.5q-20 19.5 -20 48.5t20 48.5t50 19.5t49 -19.5t19 -48.5t-19 -48.5t-49 -19.5t-50 19.5z" />
    <glyph glyph-name="uni1E45" unicode="&#x1e45;" horiz-adv-x="563" 
d="M387 120v171q0 56 -22.5 82.5t-68.5 26.5q-54 0 -87 -42t-33 -103v-255h-116v354q0 32 -4.5 54.5t-17.5 46.5l103 40q9 -15 16.5 -37.5t8.5 -41.5q28 35 71.5 57t91.5 22q174 0 174 -204v-169q0 -53 21 -93l-105 -39q-32 56 -32 130zM237 589.5q-20 19.5 -20 48.5
t20 48.5t50 19.5t49 -19.5t19 -48.5t-19 -48.5t-49 -19.5t-50 19.5z" />
    <glyph glyph-name="uni1E46" unicode="&#x1e46;" horiz-adv-x="623" 
d="M61 604q0 11 -3.5 18t-9.5 14q-10 12 -10 21q0 2 2 12q7 23 25 36t41 13q35 0 52 -27l297 -478v487h118v-700h-100l-294 470v-470h-118v604zM275 -160.5q-20 19.5 -20 48.5t19.5 48.5t50.5 19.5q30 0 49 -19.5t19 -48.5q0 -28 -19 -48t-49 -20t-50 19.5z" />
    <glyph glyph-name="uni1E47" unicode="&#x1e47;" horiz-adv-x="563" 
d="M387 120v171q0 56 -22.5 82.5t-68.5 26.5q-54 0 -87 -42t-33 -103v-255h-116v354q0 32 -4.5 54.5t-17.5 46.5l103 40q9 -15 16.5 -37.5t8.5 -41.5q28 35 71.5 57t91.5 22q174 0 174 -204v-169q0 -53 21 -93l-105 -39q-32 56 -32 130zM237 -160.5q-20 19.5 -20 48.5
t19.5 48.5t50.5 19.5q30 0 49 -19.5t19 -48.5q0 -28 -19 -48t-49 -20t-50 19.5z" />
    <glyph glyph-name="uni1E48" unicode="&#x1e48;" horiz-adv-x="623" 
d="M61 604q0 11 -3.5 18t-9.5 14q-10 12 -10 21q0 2 2 12q7 23 25 36t41 13q35 0 52 -27l297 -478v487h118v-700h-100l-294 470v-470h-118v604zM156 -55h336v-89h-336v89z" />
    <glyph glyph-name="uni1E49" unicode="&#x1e49;" horiz-adv-x="563" 
d="M387 120v171q0 56 -22.5 82.5t-68.5 26.5q-54 0 -87 -42t-33 -103v-255h-116v354q0 32 -4.5 54.5t-17.5 46.5l103 40q9 -15 16.5 -37.5t8.5 -41.5q28 35 71.5 57t91.5 22q174 0 174 -204v-169q0 -53 21 -93l-105 -39q-32 56 -32 130zM118 -55h336v-89h-336v89z" />
    <glyph glyph-name="uni1E5A" unicode="&#x1e5a;" horiz-adv-x="603" 
d="M64 601q0 12 -4 19t-11 14q-6 6 -8.5 10.5t-2.5 11.5q0 6 1 9q6 22 22.5 37.5t38.5 15.5q24 0 44 -18h138q138 0 210 -54.5t72 -164.5q0 -91 -51 -144t-143 -64l179 -273h-134l-174 264h-59v-264h-118v601zM285 365q81 0 120 26.5t39 89.5t-39.5 90t-119.5 27h-103v-233
h103zM247 -160.5q-20 19.5 -20 48.5t19.5 48.5t50.5 19.5q30 0 49 -19.5t19 -48.5q0 -28 -19 -48t-49 -20t-50 19.5z" />
    <glyph glyph-name="uni1E5B" unicode="&#x1e5b;" horiz-adv-x="409" 
d="M60 354q0 32 -4.5 54.5t-17.5 46.5l103 40q9 -15 16.5 -37.5t8.5 -41.5q26 40 56.5 59.5t70.5 19.5q28 0 49 -7t46 -25l-44 -81q-29 18 -60 18q-54 0 -81 -36t-27 -102v-262h-116v354zM70 -160.5q-20 19.5 -20 48.5t19.5 48.5t50.5 19.5q30 0 49 -19.5t19 -48.5
q0 -28 -19 -48t-49 -20t-50 19.5z" />
    <glyph glyph-name="uni1E5C" unicode="&#x1e5c;" horiz-adv-x="603" 
d="M64 601q0 12 -4 19t-11 14q-6 6 -8.5 10.5t-2.5 11.5q0 6 1 9q6 22 22.5 37.5t38.5 15.5q24 0 44 -18h138q138 0 210 -54.5t72 -164.5q0 -91 -51 -144t-143 -64l179 -273h-134l-174 264h-59v-264h-118v601zM285 365q81 0 120 26.5t39 89.5t-39.5 90t-119.5 27h-103v-233
h103zM247 -160.5q-20 19.5 -20 48.5t19.5 48.5t50.5 19.5q30 0 49 -19.5t19 -48.5q0 -28 -19 -48t-49 -20t-50 19.5zM108 867h336v-89h-336v89z" />
    <glyph glyph-name="uni1E5D" unicode="&#x1e5d;" horiz-adv-x="409" 
d="M60 354q0 32 -4.5 54.5t-17.5 46.5l103 40q9 -15 16.5 -37.5t8.5 -41.5q26 40 56.5 59.5t70.5 19.5q28 0 49 -7t46 -25l-44 -81q-29 18 -60 18q-54 0 -81 -36t-27 -102v-262h-116v354zM70 -160.5q-20 19.5 -20 48.5t19.5 48.5t50.5 19.5q30 0 49 -19.5t19 -48.5
q0 -28 -19 -48t-49 -20t-50 19.5zM18 652h336v-89h-336v89z" />
    <glyph glyph-name="uni1E5E" unicode="&#x1e5e;" horiz-adv-x="603" 
d="M64 601q0 12 -4 19t-11 14q-6 6 -8.5 10.5t-2.5 11.5q0 6 1 9q6 22 22.5 37.5t38.5 15.5q24 0 44 -18h138q138 0 210 -54.5t72 -164.5q0 -91 -51 -144t-143 -64l179 -273h-134l-174 264h-59v-264h-118v601zM285 365q81 0 120 26.5t39 89.5t-39.5 90t-119.5 27h-103v-233
h103zM128 -55h336v-89h-336v89z" />
    <glyph glyph-name="uni1E5F" unicode="&#x1e5f;" horiz-adv-x="409" 
d="M60 354q0 32 -4.5 54.5t-17.5 46.5l103 40q9 -15 16.5 -37.5t8.5 -41.5q26 40 56.5 59.5t70.5 19.5q28 0 49 -7t46 -25l-44 -81q-29 18 -60 18q-54 0 -81 -36t-27 -102v-262h-116v354zM-49 -55h336v-89h-336v89z" />
    <glyph glyph-name="uni1E60" unicode="&#x1e60;" horiz-adv-x="596" 
d="M157.5 20.5q-71.5 30.5 -119.5 84.5l71 71q44 -48 94 -68.5t113 -20.5q59 0 90.5 22.5t31.5 62.5q0 29 -12.5 48t-46.5 38t-103 44q-116 42 -167.5 93.5t-51.5 128.5q0 88 66 137t176 49q68 0 130.5 -22.5t108.5 -61.5l-62 -79q-43 36 -82 51t-95 15q-59 0 -90.5 -22
t-31.5 -66q0 -29 15 -49.5t49 -38.5t99 -43q83 -32 129.5 -61.5t67.5 -67t21 -93.5q0 -86 -65 -134t-179 -48q-85 0 -156.5 30.5zM251 804.5q-20 19.5 -20 48.5t20 48.5t50 19.5t49 -19.5t19 -48.5t-19 -48.5t-49 -19.5t-50 19.5z" />
    <glyph glyph-name="uni1E61" unicode="&#x1e61;" horiz-adv-x="500" 
d="M142 14q-60 24 -104 69l67 71q32 -35 75.5 -53.5t91.5 -18.5q36 0 55 11.5t19 32.5q0 16 -7.5 26.5t-30 21t-71.5 26.5q-97 31 -137 66.5t-40 93.5q0 63 50 99t142 36q101 0 183 -57l-41 -78q-40 24 -73 33.5t-70 9.5q-38 0 -56.5 -11.5t-18.5 -31.5q0 -16 10 -26.5
t31.5 -19.5t67.5 -24q67 -22 104.5 -43.5t55 -50.5t17.5 -72q0 -61 -50.5 -97.5t-139.5 -36.5q-70 0 -130 24zM205 589.5q-20 19.5 -20 48.5t20 48.5t50 19.5t49 -19.5t19 -48.5t-19 -48.5t-49 -19.5t-50 19.5z" />
    <glyph glyph-name="uni1E62" unicode="&#x1e62;" horiz-adv-x="596" 
d="M157.5 20.5q-71.5 30.5 -119.5 84.5l71 71q44 -48 94 -68.5t113 -20.5q59 0 90.5 22.5t31.5 62.5q0 29 -12.5 48t-46.5 38t-103 44q-116 42 -167.5 93.5t-51.5 128.5q0 88 66 137t176 49q68 0 130.5 -22.5t108.5 -61.5l-62 -79q-43 36 -82 51t-95 15q-59 0 -90.5 -22
t-31.5 -66q0 -29 15 -49.5t49 -38.5t99 -43q83 -32 129.5 -61.5t67.5 -67t21 -93.5q0 -86 -65 -134t-179 -48q-85 0 -156.5 30.5zM258 -160.5q-20 19.5 -20 48.5t19.5 48.5t50.5 19.5q30 0 49 -19.5t19 -48.5q0 -28 -19 -48t-49 -20t-50 19.5z" />
    <glyph glyph-name="uni1E63" unicode="&#x1e63;" horiz-adv-x="500" 
d="M142 14q-60 24 -104 69l67 71q32 -35 75.5 -53.5t91.5 -18.5q36 0 55 11.5t19 32.5q0 16 -7.5 26.5t-30 21t-71.5 26.5q-97 31 -137 66.5t-40 93.5q0 63 50 99t142 36q101 0 183 -57l-41 -78q-40 24 -73 33.5t-70 9.5q-38 0 -56.5 -11.5t-18.5 -31.5q0 -16 10 -26.5
t31.5 -19.5t67.5 -24q67 -22 104.5 -43.5t55 -50.5t17.5 -72q0 -61 -50.5 -97.5t-139.5 -36.5q-70 0 -130 24zM205 -160.5q-20 19.5 -20 48.5t19.5 48.5t50.5 19.5q30 0 49 -19.5t19 -48.5q0 -28 -19 -48t-49 -20t-50 19.5z" />
    <glyph glyph-name="uni1E6C" unicode="&#x1e6c;" horiz-adv-x="588" 
d="M235 598h-200v102h518v-102h-200v-598h-118v598zM242 -160.5q-20 19.5 -20 48.5t19.5 48.5t50.5 19.5q30 0 49 -19.5t19 -48.5q0 -28 -19 -48t-49 -20t-50 19.5z" />
    <glyph glyph-name="uni1E6D" unicode="&#x1e6d;" horiz-adv-x="389" 
d="M151.5 28q-35.5 37 -35.5 108v255h-88l25 94h65v108l112 52v-160h128l-23 -94h-103v-258q0 -27 10.5 -38t34.5 -11q29 0 49 10l27 -84q-15 -8 -43.5 -13.5t-54.5 -5.5q-68 0 -103.5 37zM193 -160.5q-20 19.5 -20 48.5t19.5 48.5t50.5 19.5q30 0 49 -19.5t19 -48.5
q0 -28 -19 -48t-49 -20t-50 19.5z" />
    <glyph glyph-name="uni1E6E" unicode="&#x1e6e;" horiz-adv-x="588" 
d="M235 598h-200v102h518v-102h-200v-598h-118v598zM123 -55h336v-89h-336v89z" />
    <glyph glyph-name="uni1E6F" unicode="&#x1e6f;" horiz-adv-x="389" 
d="M151.5 28q-35.5 37 -35.5 108v255h-88l25 94h65v108l112 52v-160h128l-23 -94h-103v-258q0 -27 10.5 -38t34.5 -11q29 0 49 10l27 -84q-15 -8 -43.5 -13.5t-54.5 -5.5q-68 0 -103.5 37zM74 -55h336v-89h-336v89z" />
    <glyph glyph-name="Wgrave" unicode="&#x1e80;" horiz-adv-x="839" 
d="M147 40q0 9 3 18l3 10l-115 632h119l77 -484l133 459q4 17 18 26t34 9q33 0 51.5 -11.5t18.5 -30.5q0 -4 -2 -12l-3 -10l122 -429l76 483h119l-117 -632l4 -10q3 -9 3 -18q0 -33 -40 -44q-15 -5 -33 -5q-23 0 -38 14t-23 44l-137 477l-139 -477q-8 -30 -23 -44t-38 -14
q-18 0 -33 5q-40 11 -40 44zM257 956h131l85 -186h-96z" />
    <glyph glyph-name="wgrave" unicode="&#x1e81;" horiz-adv-x="719" 
d="M172.5 2q-14.5 12 -14.5 33q0 8 1 12l2 7l-123 431h120l71 -313l86 296q8 27 53 27q57 0 57 -40q0 -9 -1 -14l-4 -21l71 -248l69 313h120l-122 -431l1 -7q1 -5 1 -13q0 -21 -14 -32.5t-41 -11.5q-29 0 -43 9.5t-20 30.5l-83 289l-83 -289q-6 -21 -19.5 -30.5t-42.5 -9.5
q-27 0 -41.5 12zM191 741h131l85 -186h-96z" />
    <glyph glyph-name="Wacute" unicode="&#x1e82;" horiz-adv-x="839" 
d="M147 40q0 9 3 18l3 10l-115 632h119l77 -484l133 459q4 17 18 26t34 9q33 0 51.5 -11.5t18.5 -30.5q0 -4 -2 -12l-3 -10l122 -429l76 483h119l-117 -632l4 -10q3 -9 3 -18q0 -33 -40 -44q-15 -5 -33 -5q-23 0 -38 14t-23 44l-137 477l-139 -477q-8 -30 -23 -44t-38 -14
q-18 0 -33 5q-40 11 -40 44zM458 956h131l-120 -186h-95z" />
    <glyph glyph-name="wacute" unicode="&#x1e83;" horiz-adv-x="719" 
d="M172.5 2q-14.5 12 -14.5 33q0 8 1 12l2 7l-123 431h120l71 -313l86 296q8 27 53 27q57 0 57 -40q0 -9 -1 -14l-4 -21l71 -248l69 313h120l-122 -431l1 -7q1 -5 1 -13q0 -21 -14 -32.5t-41 -11.5q-29 0 -43 9.5t-20 30.5l-83 289l-83 -289q-6 -21 -19.5 -30.5t-42.5 -9.5
q-27 0 -41.5 12zM392 741h131l-120 -186h-95z" />
    <glyph glyph-name="Wdieresis" unicode="&#x1e84;" horiz-adv-x="839" 
d="M147 40q0 9 3 18l3 10l-115 632h119l77 -484l133 459q4 17 18 26t34 9q33 0 51.5 -11.5t18.5 -30.5q0 -4 -2 -12l-3 -10l122 -429l76 483h119l-117 -632l4 -10q3 -9 3 -18q0 -33 -40 -44q-15 -5 -33 -5q-23 0 -38 14t-23 44l-137 477l-139 -477q-8 -30 -23 -44t-38 -14
q-18 0 -33 5q-40 11 -40 44zM265.5 798.5q-20.5 19.5 -20.5 48.5t20.5 48.5t51.5 19.5q30 0 49.5 -19.5t19.5 -48.5t-19.5 -48.5t-49.5 -19.5q-31 0 -51.5 19.5zM484 798.5q-20 19.5 -20 48.5t20 48.5t51 19.5q30 0 50 -19.5t20 -48.5t-20 -48.5t-50 -19.5q-31 0 -51 19.5z
" />
    <glyph glyph-name="wdieresis" unicode="&#x1e85;" horiz-adv-x="719" 
d="M172.5 2q-14.5 12 -14.5 33q0 8 1 12l2 7l-123 431h120l71 -313l86 296q8 27 53 27q57 0 57 -40q0 -9 -1 -14l-4 -21l71 -248l69 313h120l-122 -431l1 -7q1 -5 1 -13q0 -21 -14 -32.5t-41 -11.5q-29 0 -43 9.5t-20 30.5l-83 289l-83 -289q-6 -21 -19.5 -30.5t-42.5 -9.5
q-27 0 -41.5 12zM199.5 583.5q-20.5 19.5 -20.5 48.5t20.5 48.5t51.5 19.5q30 0 49.5 -19.5t19.5 -48.5t-19.5 -48.5t-49.5 -19.5q-31 0 -51.5 19.5zM418 583.5q-20 19.5 -20 48.5t20 48.5t51 19.5q30 0 50 -19.5t20 -48.5t-20 -48.5t-50 -19.5q-31 0 -51 19.5z" />
    <glyph glyph-name="uni1E8E" unicode="&#x1e8e;" horiz-adv-x="653" 
d="M270 269l-232 431h128l161 -323l160 323h128l-231 -431v-269h-114v269zM278 804.5q-20 19.5 -20 48.5t20 48.5t50 19.5t49 -19.5t19 -48.5t-19 -48.5t-49 -19.5t-50 19.5z" />
    <glyph glyph-name="uni1E8F" unicode="&#x1e8f;" horiz-adv-x="582" 
d="M74 -135q66 23 106.5 63.5t56.5 108.5l-199 448h135l124 -322l113 322h134l-198 -491q-37 -91 -90.5 -141.5t-147.5 -81.5zM243 589.5q-20 19.5 -20 48.5t20 48.5t50 19.5t49 -19.5t19 -48.5t-19 -48.5t-49 -19.5t-50 19.5z" />
    <glyph glyph-name="uni1E92" unicode="&#x1e92;" horiz-adv-x="628" 
d="M98 -11q-20 0 -51 34q-9 11 -9 19t7.5 18.5t9.5 13.5l365 524h-357v102h428l7 8q11 11 30 11q20 0 36 -13q25 -19 25 -41q0 -16 -16 -40l-366 -523h383v-102h-465l-12 -7q-5 -4 -15 -4zM269 -160.5q-20 19.5 -20 48.5t19.5 48.5t50.5 19.5q30 0 49 -19.5t19 -48.5
q0 -28 -19 -48t-49 -20t-50 19.5z" />
    <glyph glyph-name="uni1E93" unicode="&#x1e93;" horiz-adv-x="539" 
d="M98 -10q-13 0 -27.5 10t-26.5 32q-5 9 -5 20q0 16 19 29q7 5 16 14l265 296h-275v94h333q21 0 28 5t17 5q24 0 45 -24q14 -17 14 -32q0 -16 -14 -31l-282 -314h293v-94h-353q-17 0 -31 -6q-8 -4 -16 -4zM228 -160.5q-20 19.5 -20 48.5t19.5 48.5t50.5 19.5q30 0 49 -19.5
t19 -48.5q0 -28 -19 -48t-49 -20t-50 19.5z" />
    <glyph glyph-name="uni1E97" unicode="&#x1e97;" horiz-adv-x="389" 
d="M151.5 28q-35.5 37 -35.5 108v255h-88l25 94h65v108l112 52v-160h128l-23 -94h-103v-258q0 -27 10.5 -38t34.5 -11q29 0 49 10l27 -84q-15 -8 -43.5 -13.5t-54.5 -5.5q-68 0 -103.5 37zM39.5 743.5q-20.5 19.5 -20.5 48.5t20.5 48.5t51.5 19.5q30 0 49.5 -19.5
t19.5 -48.5t-19.5 -48.5t-49.5 -19.5q-31 0 -51.5 19.5zM258 743.5q-20 19.5 -20 48.5t20 48.5t51 19.5q30 0 50 -19.5t20 -48.5t-20 -48.5t-50 -19.5q-31 0 -51 19.5z" />
    <glyph glyph-name="uni1E9E" unicode="&#x1e9e;" horiz-adv-x="609" 
d="M208 16l31 88q46 -20 103 -20q55 0 81.5 29.5t26.5 84.5q0 58 -40 86t-122 28h-44v75l168 143q0 37 -32.5 61t-88.5 24q-63 0 -96 -31t-33 -91v-493h-117v492q0 63 31 112.5t87 77t128 27.5q69 0 123.5 -26.5t85 -73.5t30.5 -104l-158 -124q99 -14 148.5 -65.5
t49.5 -118.5q0 -95 -57 -151t-162 -56q-79 0 -143 26z" />
    <glyph glyph-name="uni1EA0" unicode="&#x1ea0;" horiz-adv-x="697" 
d="M283 664q20 54 70 54q32 0 51 -14t19 -36q0 -6 -4 -18l241 -650h-124l-66 187h-244l-66 -187h-123zM444 281l-95 273l-95 -273h190zM299 -160.5q-20 19.5 -20 48.5t19.5 48.5t50.5 19.5q30 0 49 -19.5t19 -48.5q0 -28 -19 -48t-49 -20t-50 19.5z" />
    <glyph glyph-name="uni1EA1" unicode="&#x1ea1;" horiz-adv-x="579" 
d="M140.5 20q-48.5 30 -75.5 85.5t-27 129.5q0 79 27.5 137.5t78.5 90.5t120 32q86 0 141 -67v57h112v-353q0 -36 5.5 -59.5t18.5 -45.5l-94 -37q-28 31 -32 78h-3q-28 -37 -68.5 -57.5t-90.5 -20.5q-64 0 -112.5 30zM370 123q33 40 33 106v26q0 60 -32.5 103.5t-92.5 43.5
q-59 0 -91 -44t-32 -123q0 -72 31 -112t89 -40q62 0 95 40zM229 -160.5q-20 19.5 -20 48.5t19.5 48.5t50.5 19.5q30 0 49 -19.5t19 -48.5q0 -28 -19 -48t-49 -20t-50 19.5z" />
    <glyph glyph-name="uni1EA2" unicode="&#x1ea2;" horiz-adv-x="697" 
d="M283 664q20 54 70 54q32 0 51 -14t19 -36q0 -6 -4 -18l241 -650h-124l-66 187h-244l-66 -187h-123zM444 281l-95 273l-95 -273h190zM312.5 810q9.5 16 26.5 34q13 15 19.5 25.5t6.5 21.5t-6.5 17t-18.5 6q-30 0 -53 -30l-62 46q50 69 134 69q51 0 81.5 -25t30.5 -66
q0 -22 -8 -36.5t-24 -33.5q-16 -18 -23.5 -31.5t-7.5 -34.5h-105q0 22 9.5 38z" />
    <glyph glyph-name="uni1EA3" unicode="&#x1ea3;" horiz-adv-x="579" 
d="M140.5 20q-48.5 30 -75.5 85.5t-27 129.5q0 79 27.5 137.5t78.5 90.5t120 32q86 0 141 -67v57h112v-353q0 -36 5.5 -59.5t18.5 -45.5l-94 -37q-28 31 -32 78h-3q-28 -37 -68.5 -57.5t-90.5 -20.5q-64 0 -112.5 30zM370 123q33 40 33 106v26q0 60 -32.5 103.5t-92.5 43.5
q-59 0 -91 -44t-32 -123q0 -72 31 -112t89 -40q62 0 95 40zM237.5 595q9.5 16 26.5 34q13 15 19.5 25.5t6.5 21.5t-6.5 17t-18.5 6q-30 0 -53 -30l-62 46q50 69 134 69q51 0 81.5 -25t30.5 -66q0 -22 -8 -36.5t-24 -33.5q-16 -18 -23.5 -31.5t-7.5 -34.5h-105q0 22 9.5 38z
" />
    <glyph glyph-name="uni1EA4" unicode="&#x1ea4;" horiz-adv-x="697" 
d="M283 664q20 54 70 54q32 0 51 -14t19 -36q0 -6 -4 -18l241 -650h-124l-66 187h-244l-66 -187h-123zM444 281l-95 273l-95 -273h190zM523 1044h115l-104 -158h-84zM308 901q14 16 24.5 22t28.5 6q26 0 38.5 -13t7.5 -27l-2 -6l118 -123h-110l-61 76l-55 -76h-108z" />
    </font>
</defs>
</svg>
